%TF.GenerationSoftware,KiCad,Pcbnew,5.1.9-73d0e3b20d~88~ubuntu20.04.1*%
%TF.CreationDate,2021-03-02T17:57:21-05:00*%
%TF.ProjectId,MFOS_VCLFO_aux,4d464f53-5f56-4434-9c46-4f5f6175782e,rev?*%
%TF.SameCoordinates,Original*%
%TF.FileFunction,Copper,L1,Top*%
%TF.FilePolarity,Positive*%
%FSLAX46Y46*%
G04 Gerber Fmt 4.6, Leading zero omitted, Abs format (unit mm)*
G04 Created by KiCad (PCBNEW 5.1.9-73d0e3b20d~88~ubuntu20.04.1) date 2021-03-02 17:57:21*
%MOMM*%
%LPD*%
G01*
G04 APERTURE LIST*
%TA.AperFunction,ComponentPad*%
%ADD10C,1.600000*%
%TD*%
%TA.AperFunction,ComponentPad*%
%ADD11O,1.600000X1.600000*%
%TD*%
%TA.AperFunction,ComponentPad*%
%ADD12C,1.440000*%
%TD*%
%TA.AperFunction,ComponentPad*%
%ADD13O,2.400000X1.600000*%
%TD*%
%TA.AperFunction,ComponentPad*%
%ADD14R,2.400000X1.600000*%
%TD*%
%TA.AperFunction,ComponentPad*%
%ADD15R,1.727200X1.727200*%
%TD*%
%TA.AperFunction,ComponentPad*%
%ADD16O,1.727200X1.727200*%
%TD*%
%TA.AperFunction,ComponentPad*%
%ADD17R,1.500000X1.500000*%
%TD*%
%TA.AperFunction,ComponentPad*%
%ADD18C,1.500000*%
%TD*%
%TA.AperFunction,ComponentPad*%
%ADD19R,1.600000X1.600000*%
%TD*%
%TA.AperFunction,ComponentPad*%
%ADD20C,2.500000*%
%TD*%
%TA.AperFunction,ComponentPad*%
%ADD21R,2.500000X2.500000*%
%TD*%
%TA.AperFunction,ComponentPad*%
%ADD22O,2.200000X2.200000*%
%TD*%
%TA.AperFunction,ComponentPad*%
%ADD23R,2.200000X2.200000*%
%TD*%
%TA.AperFunction,ComponentPad*%
%ADD24O,2.200000X1.740000*%
%TD*%
%TA.AperFunction,Conductor*%
%ADD25C,0.750000*%
%TD*%
%TA.AperFunction,Conductor*%
%ADD26C,0.250000*%
%TD*%
%TA.AperFunction,Conductor*%
%ADD27C,0.254000*%
%TD*%
%TA.AperFunction,Conductor*%
%ADD28C,0.100000*%
%TD*%
G04 APERTURE END LIST*
D10*
%TO.P,C4,2*%
%TO.N,Net-(C4-Pad2)*%
X115250000Y-130750000D03*
%TO.P,C4,1*%
%TO.N,Net-(C4-Pad1)*%
X110250000Y-130750000D03*
%TD*%
D11*
%TO.P,R5,2*%
%TO.N,Net-(Q1-Pad2)*%
X110520000Y-95570000D03*
D10*
%TO.P,R5,1*%
%TO.N,Net-(D3-Pad2)*%
X110520000Y-103190000D03*
%TD*%
D11*
%TO.P,R6,2*%
%TO.N,Net-(J8-Pad2)*%
X101500000Y-103250000D03*
D10*
%TO.P,R6,1*%
%TO.N,Net-(Q1-Pad2)*%
X101500000Y-95630000D03*
%TD*%
D12*
%TO.P,RV1,3*%
%TO.N,Net-(Q1-Pad2)*%
X121000000Y-91710000D03*
%TO.P,RV1,2*%
X121000000Y-94250000D03*
%TO.P,RV1,1*%
%TO.N,/PIN1*%
X121000000Y-96790000D03*
%TD*%
D13*
%TO.P,U1,8*%
%TO.N,Net-(U1-Pad8)*%
X113370000Y-107250000D03*
%TO.P,U1,4*%
%TO.N,-12V*%
X105750000Y-114870000D03*
%TO.P,U1,7*%
%TO.N,+12V*%
X113370000Y-109790000D03*
%TO.P,U1,3*%
%TO.N,Net-(C4-Pad1)*%
X105750000Y-112330000D03*
%TO.P,U1,6*%
%TO.N,Net-(D3-Pad1)*%
X113370000Y-112330000D03*
%TO.P,U1,2*%
%TO.N,Net-(R1-Pad2)*%
X105750000Y-109790000D03*
%TO.P,U1,5*%
%TO.N,Net-(U1-Pad5)*%
X113370000Y-114870000D03*
D14*
%TO.P,U1,1*%
%TO.N,Net-(U1-Pad1)*%
X105750000Y-107250000D03*
%TD*%
D10*
%TO.P,C3,2*%
%TO.N,+12V*%
X116500000Y-110000000D03*
%TO.P,C3,1*%
%TO.N,GND*%
X116500000Y-112500000D03*
%TD*%
D15*
%TO.P,J1,1*%
%TO.N,Net-(D2-Pad1)*%
X103290000Y-80830000D03*
D16*
%TO.P,J1,2*%
X100750000Y-80830000D03*
%TO.P,J1,3*%
%TO.N,GND*%
X103290000Y-78290000D03*
%TO.P,J1,4*%
X100750000Y-78290000D03*
%TO.P,J1,5*%
X103290000Y-75750000D03*
%TO.P,J1,6*%
X100750000Y-75750000D03*
%TO.P,J1,7*%
X103290000Y-73210000D03*
%TO.P,J1,8*%
X100750000Y-73210000D03*
%TO.P,J1,9*%
%TO.N,Net-(D1-Pad2)*%
X103290000Y-70670000D03*
%TO.P,J1,10*%
X100750000Y-70670000D03*
%TD*%
D17*
%TO.P,Q1,1*%
%TO.N,/PIN2*%
X121250000Y-111750000D03*
D18*
%TO.P,Q1,3*%
%TO.N,Net-(D3-Pad2)*%
X121250000Y-116830000D03*
%TO.P,Q1,2*%
%TO.N,Net-(Q1-Pad2)*%
X121250000Y-114290000D03*
%TD*%
D10*
%TO.P,C2,2*%
%TO.N,-12V*%
X115450000Y-89720000D03*
D19*
%TO.P,C2,1*%
%TO.N,GND*%
X113450000Y-89720000D03*
%TD*%
D11*
%TO.P,R1,2*%
%TO.N,Net-(R1-Pad2)*%
X110520000Y-119630000D03*
D10*
%TO.P,R1,1*%
%TO.N,GND*%
X110520000Y-127250000D03*
%TD*%
D11*
%TO.P,R2,2*%
%TO.N,+12V*%
X115000000Y-119630000D03*
D10*
%TO.P,R2,1*%
%TO.N,Net-(R1-Pad2)*%
X115000000Y-127250000D03*
%TD*%
D20*
%TO.P,J2,3*%
%TO.N,-12V*%
X120181000Y-80750000D03*
%TO.P,J2,2*%
%TO.N,GND*%
X120181000Y-75750000D03*
D21*
%TO.P,J2,1*%
%TO.N,+12V*%
X120181000Y-70750000D03*
%TD*%
D22*
%TO.P,D1,2*%
%TO.N,Net-(D1-Pad2)*%
X108878000Y-69146000D03*
D23*
%TO.P,D1,1*%
%TO.N,+12V*%
X108878000Y-61526000D03*
%TD*%
D22*
%TO.P,D2,2*%
%TO.N,-12V*%
X108878000Y-89974000D03*
D23*
%TO.P,D2,1*%
%TO.N,Net-(D2-Pad1)*%
X108878000Y-82354000D03*
%TD*%
D11*
%TO.P,R3,2*%
%TO.N,Net-(D3-Pad2)*%
X115000000Y-95570000D03*
D10*
%TO.P,R3,1*%
%TO.N,+12V*%
X115000000Y-103190000D03*
%TD*%
%TO.P,C5,2*%
%TO.N,-12V*%
X102750000Y-115250000D03*
%TO.P,C5,1*%
%TO.N,GND*%
X102750000Y-112750000D03*
%TD*%
%TO.P,C1,2*%
%TO.N,GND*%
X113577000Y-61780000D03*
D19*
%TO.P,C1,1*%
%TO.N,+12V*%
X115577000Y-61780000D03*
%TD*%
D24*
%TO.P,J3,2*%
%TO.N,/PIN1*%
X120750000Y-103710000D03*
%TO.P,J3,1*%
%TO.N,/PIN2*%
%TA.AperFunction,ComponentPad*%
G36*
G01*
X121600001Y-107120000D02*
X119899999Y-107120000D01*
G75*
G02*
X119650000Y-106870001I0J249999D01*
G01*
X119650000Y-105629999D01*
G75*
G02*
X119899999Y-105380000I249999J0D01*
G01*
X121600001Y-105380000D01*
G75*
G02*
X121850000Y-105629999I0J-249999D01*
G01*
X121850000Y-106870001D01*
G75*
G02*
X121600001Y-107120000I-249999J0D01*
G01*
G37*
%TD.AperFunction*%
%TD*%
D11*
%TO.P,D3,2*%
%TO.N,Net-(D3-Pad2)*%
X106000000Y-95630000D03*
D19*
%TO.P,D3,1*%
%TO.N,Net-(D3-Pad1)*%
X106000000Y-103250000D03*
%TD*%
D11*
%TO.P,R4,2*%
%TO.N,GND*%
X106000000Y-119630000D03*
D10*
%TO.P,R4,1*%
%TO.N,Net-(C4-Pad1)*%
X106000000Y-127250000D03*
%TD*%
D24*
%TO.P,J7,2*%
%TO.N,Net-(C4-Pad2)*%
X120750000Y-133210000D03*
%TO.P,J7,1*%
%TO.N,GND*%
%TA.AperFunction,ComponentPad*%
G36*
G01*
X121600001Y-136620000D02*
X119899999Y-136620000D01*
G75*
G02*
X119650000Y-136370001I0J249999D01*
G01*
X119650000Y-135129999D01*
G75*
G02*
X119899999Y-134880000I249999J0D01*
G01*
X121600001Y-134880000D01*
G75*
G02*
X121850000Y-135129999I0J-249999D01*
G01*
X121850000Y-136370001D01*
G75*
G02*
X121600001Y-136620000I-249999J0D01*
G01*
G37*
%TD.AperFunction*%
%TD*%
%TO.P,J8,3*%
%TO.N,-12V*%
X120750000Y-122670000D03*
%TO.P,J8,2*%
%TO.N,Net-(J8-Pad2)*%
X120750000Y-125210000D03*
%TO.P,J8,1*%
%TO.N,+12V*%
%TA.AperFunction,ComponentPad*%
G36*
G01*
X121600001Y-128620000D02*
X119899999Y-128620000D01*
G75*
G02*
X119650000Y-128370001I0J249999D01*
G01*
X119650000Y-127129999D01*
G75*
G02*
X119899999Y-126880000I249999J0D01*
G01*
X121600001Y-126880000D01*
G75*
G02*
X121850000Y-127129999I0J-249999D01*
G01*
X121850000Y-128370001D01*
G75*
G02*
X121600001Y-128620000I-249999J0D01*
G01*
G37*
%TD.AperFunction*%
%TD*%
D25*
%TO.N,Net-(D1-Pad2)*%
X103290000Y-70670000D02*
X107354000Y-70670000D01*
X107354000Y-70670000D02*
X108878000Y-69146000D01*
X100750000Y-70670000D02*
X103290000Y-70670000D01*
%TO.N,Net-(D2-Pad1)*%
X107354000Y-80830000D02*
X108878000Y-82354000D01*
X100750000Y-80830000D02*
X103290000Y-80830000D01*
X103290000Y-80830000D02*
X107354000Y-80830000D01*
D26*
%TO.N,Net-(C4-Pad2)*%
X118290000Y-130750000D02*
X120750000Y-133210000D01*
X115250000Y-130750000D02*
X118290000Y-130750000D01*
%TO.N,Net-(C4-Pad1)*%
X106750000Y-127250000D02*
X110250000Y-130750000D01*
X104750000Y-127250000D02*
X106750000Y-127250000D01*
X104000000Y-126500000D02*
X104750000Y-127250000D01*
X104000000Y-114080000D02*
X104000000Y-126500000D01*
X105750000Y-112330000D02*
X104000000Y-114080000D01*
%TO.N,Net-(D3-Pad2)*%
X110520000Y-103190000D02*
X110520000Y-99800000D01*
X114750000Y-95570000D02*
X115000000Y-95570000D01*
X110520000Y-99800000D02*
X114750000Y-95570000D01*
X121250000Y-116830000D02*
X117625001Y-113205001D01*
X117625001Y-113205001D02*
X117625001Y-109513997D01*
X117625001Y-109513997D02*
X111301004Y-103190000D01*
X111301004Y-103190000D02*
X110520000Y-103190000D01*
X106000000Y-95630000D02*
X106000000Y-99170000D01*
X106000000Y-99170000D02*
X110020000Y-103190000D01*
X110020000Y-103190000D02*
X110520000Y-103190000D01*
%TO.N,Net-(D3-Pad1)*%
X113370000Y-112330000D02*
X111844990Y-110804990D01*
X111844990Y-110804990D02*
X111844990Y-109344990D01*
X111844990Y-109344990D02*
X106000000Y-103500000D01*
X106000000Y-103500000D02*
X106000000Y-103250000D01*
%TO.N,Net-(J8-Pad2)*%
X101500000Y-103250000D02*
X104374999Y-106124999D01*
X104374999Y-106124999D02*
X107210001Y-106124999D01*
X107210001Y-106124999D02*
X108000000Y-106914998D01*
X108000000Y-106914998D02*
X108000000Y-115500000D01*
X108000000Y-115500000D02*
X112000000Y-119500000D01*
X112000000Y-119500000D02*
X112000000Y-121000000D01*
X112000000Y-121000000D02*
X116210000Y-125210000D01*
X116210000Y-125210000D02*
X120750000Y-125210000D01*
%TO.N,Net-(Q1-Pad2)*%
X110520000Y-95570000D02*
X110520000Y-93250000D01*
X110520000Y-93250000D02*
X110000000Y-93250000D01*
X101500000Y-95630000D02*
X103880000Y-93250000D01*
X103880000Y-93250000D02*
X110000000Y-93250000D01*
X121000000Y-94250000D02*
X122500000Y-95750000D01*
X122500000Y-95750000D02*
X122500000Y-113040000D01*
X122500000Y-113040000D02*
X121250000Y-114290000D01*
X119460000Y-93250000D02*
X120000000Y-93250000D01*
X120000000Y-93250000D02*
X121000000Y-94250000D01*
X110000000Y-93250000D02*
X119460000Y-93250000D01*
X119460000Y-93250000D02*
X121000000Y-91710000D01*
%TO.N,Net-(R1-Pad2)*%
X114750000Y-127250000D02*
X115000000Y-127250000D01*
X110520000Y-119630000D02*
X110520000Y-123020000D01*
X110520000Y-123020000D02*
X114750000Y-127250000D01*
X110520000Y-119520000D02*
X110520000Y-119630000D01*
X107500000Y-116500000D02*
X110520000Y-119520000D01*
X107500000Y-111540000D02*
X107500000Y-116500000D01*
X105750000Y-109790000D02*
X107500000Y-111540000D01*
%TO.N,/PIN1*%
X121000000Y-96790000D02*
X121000000Y-103460000D01*
X121000000Y-103460000D02*
X120750000Y-103710000D01*
%TO.N,/PIN2*%
X121250000Y-111750000D02*
X121250000Y-106750000D01*
X121250000Y-106750000D02*
X120750000Y-106250000D01*
%TD*%
D27*
%TO.N,GND*%
X99340778Y-72700186D02*
X99295042Y-72850974D01*
X99416183Y-73083000D01*
X100623000Y-73083000D01*
X100623000Y-73063000D01*
X100877000Y-73063000D01*
X100877000Y-73083000D01*
X103163000Y-73083000D01*
X103163000Y-73063000D01*
X103417000Y-73063000D01*
X103417000Y-73083000D01*
X104623817Y-73083000D01*
X104744958Y-72850974D01*
X104699222Y-72700186D01*
X104592703Y-72477000D01*
X114097394Y-72477000D01*
X115260197Y-73639803D01*
X115279443Y-73655597D01*
X115301399Y-73667333D01*
X115325224Y-73674560D01*
X115350000Y-73677000D01*
X125065000Y-73677000D01*
X125065000Y-77823000D01*
X115350000Y-77823000D01*
X115325224Y-77825440D01*
X115301399Y-77832667D01*
X115279443Y-77844403D01*
X115260197Y-77860197D01*
X114097394Y-79023000D01*
X104592703Y-79023000D01*
X104699222Y-78799814D01*
X104744958Y-78649026D01*
X104623817Y-78417000D01*
X103417000Y-78417000D01*
X103417000Y-78437000D01*
X103163000Y-78437000D01*
X103163000Y-78417000D01*
X100877000Y-78417000D01*
X100877000Y-78437000D01*
X100623000Y-78437000D01*
X100623000Y-78417000D01*
X99416183Y-78417000D01*
X99295042Y-78649026D01*
X99340778Y-78799814D01*
X99447297Y-79023000D01*
X96435000Y-79023000D01*
X96435000Y-76109026D01*
X99295042Y-76109026D01*
X99340778Y-76259814D01*
X99467316Y-76524944D01*
X99643146Y-76760293D01*
X99861512Y-76956817D01*
X99967770Y-77020000D01*
X99861512Y-77083183D01*
X99643146Y-77279707D01*
X99467316Y-77515056D01*
X99340778Y-77780186D01*
X99295042Y-77930974D01*
X99416183Y-78163000D01*
X100623000Y-78163000D01*
X100623000Y-75877000D01*
X100877000Y-75877000D01*
X100877000Y-78163000D01*
X103163000Y-78163000D01*
X103163000Y-75877000D01*
X103417000Y-75877000D01*
X103417000Y-78163000D01*
X104623817Y-78163000D01*
X104744958Y-77930974D01*
X104699222Y-77780186D01*
X104572684Y-77515056D01*
X104396854Y-77279707D01*
X104178488Y-77083183D01*
X104145563Y-77063605D01*
X119047000Y-77063605D01*
X119172914Y-77353577D01*
X119505126Y-77519433D01*
X119863312Y-77617290D01*
X120233706Y-77643389D01*
X120602075Y-77596725D01*
X120954262Y-77479094D01*
X121189086Y-77353577D01*
X121315000Y-77063605D01*
X120181000Y-75929605D01*
X119047000Y-77063605D01*
X104145563Y-77063605D01*
X104072230Y-77020000D01*
X104178488Y-76956817D01*
X104396854Y-76760293D01*
X104572684Y-76524944D01*
X104699222Y-76259814D01*
X104744958Y-76109026D01*
X104623817Y-75877000D01*
X103417000Y-75877000D01*
X103163000Y-75877000D01*
X100877000Y-75877000D01*
X100623000Y-75877000D01*
X99416183Y-75877000D01*
X99295042Y-76109026D01*
X96435000Y-76109026D01*
X96435000Y-75802706D01*
X118287611Y-75802706D01*
X118334275Y-76171075D01*
X118451906Y-76523262D01*
X118577423Y-76758086D01*
X118867395Y-76884000D01*
X120001395Y-75750000D01*
X120360605Y-75750000D01*
X121494605Y-76884000D01*
X121784577Y-76758086D01*
X121950433Y-76425874D01*
X122048290Y-76067688D01*
X122074389Y-75697294D01*
X122027725Y-75328925D01*
X121910094Y-74976738D01*
X121784577Y-74741914D01*
X121494605Y-74616000D01*
X120360605Y-75750000D01*
X120001395Y-75750000D01*
X118867395Y-74616000D01*
X118577423Y-74741914D01*
X118411567Y-75074126D01*
X118313710Y-75432312D01*
X118287611Y-75802706D01*
X96435000Y-75802706D01*
X96435000Y-73569026D01*
X99295042Y-73569026D01*
X99340778Y-73719814D01*
X99467316Y-73984944D01*
X99643146Y-74220293D01*
X99861512Y-74416817D01*
X99967770Y-74480000D01*
X99861512Y-74543183D01*
X99643146Y-74739707D01*
X99467316Y-74975056D01*
X99340778Y-75240186D01*
X99295042Y-75390974D01*
X99416183Y-75623000D01*
X100623000Y-75623000D01*
X100623000Y-73337000D01*
X100877000Y-73337000D01*
X100877000Y-75623000D01*
X103163000Y-75623000D01*
X103163000Y-73337000D01*
X103417000Y-73337000D01*
X103417000Y-75623000D01*
X104623817Y-75623000D01*
X104744958Y-75390974D01*
X104699222Y-75240186D01*
X104572684Y-74975056D01*
X104396854Y-74739707D01*
X104178488Y-74543183D01*
X104072230Y-74480000D01*
X104145562Y-74436395D01*
X119047000Y-74436395D01*
X120181000Y-75570395D01*
X121315000Y-74436395D01*
X121189086Y-74146423D01*
X120856874Y-73980567D01*
X120498688Y-73882710D01*
X120128294Y-73856611D01*
X119759925Y-73903275D01*
X119407738Y-74020906D01*
X119172914Y-74146423D01*
X119047000Y-74436395D01*
X104145562Y-74436395D01*
X104178488Y-74416817D01*
X104396854Y-74220293D01*
X104572684Y-73984944D01*
X104699222Y-73719814D01*
X104744958Y-73569026D01*
X104623817Y-73337000D01*
X103417000Y-73337000D01*
X103163000Y-73337000D01*
X100877000Y-73337000D01*
X100623000Y-73337000D01*
X99416183Y-73337000D01*
X99295042Y-73569026D01*
X96435000Y-73569026D01*
X96435000Y-72477000D01*
X99447297Y-72477000D01*
X99340778Y-72700186D01*
%TA.AperFunction,Conductor*%
D28*
G36*
X99340778Y-72700186D02*
G01*
X99295042Y-72850974D01*
X99416183Y-73083000D01*
X100623000Y-73083000D01*
X100623000Y-73063000D01*
X100877000Y-73063000D01*
X100877000Y-73083000D01*
X103163000Y-73083000D01*
X103163000Y-73063000D01*
X103417000Y-73063000D01*
X103417000Y-73083000D01*
X104623817Y-73083000D01*
X104744958Y-72850974D01*
X104699222Y-72700186D01*
X104592703Y-72477000D01*
X114097394Y-72477000D01*
X115260197Y-73639803D01*
X115279443Y-73655597D01*
X115301399Y-73667333D01*
X115325224Y-73674560D01*
X115350000Y-73677000D01*
X125065000Y-73677000D01*
X125065000Y-77823000D01*
X115350000Y-77823000D01*
X115325224Y-77825440D01*
X115301399Y-77832667D01*
X115279443Y-77844403D01*
X115260197Y-77860197D01*
X114097394Y-79023000D01*
X104592703Y-79023000D01*
X104699222Y-78799814D01*
X104744958Y-78649026D01*
X104623817Y-78417000D01*
X103417000Y-78417000D01*
X103417000Y-78437000D01*
X103163000Y-78437000D01*
X103163000Y-78417000D01*
X100877000Y-78417000D01*
X100877000Y-78437000D01*
X100623000Y-78437000D01*
X100623000Y-78417000D01*
X99416183Y-78417000D01*
X99295042Y-78649026D01*
X99340778Y-78799814D01*
X99447297Y-79023000D01*
X96435000Y-79023000D01*
X96435000Y-76109026D01*
X99295042Y-76109026D01*
X99340778Y-76259814D01*
X99467316Y-76524944D01*
X99643146Y-76760293D01*
X99861512Y-76956817D01*
X99967770Y-77020000D01*
X99861512Y-77083183D01*
X99643146Y-77279707D01*
X99467316Y-77515056D01*
X99340778Y-77780186D01*
X99295042Y-77930974D01*
X99416183Y-78163000D01*
X100623000Y-78163000D01*
X100623000Y-75877000D01*
X100877000Y-75877000D01*
X100877000Y-78163000D01*
X103163000Y-78163000D01*
X103163000Y-75877000D01*
X103417000Y-75877000D01*
X103417000Y-78163000D01*
X104623817Y-78163000D01*
X104744958Y-77930974D01*
X104699222Y-77780186D01*
X104572684Y-77515056D01*
X104396854Y-77279707D01*
X104178488Y-77083183D01*
X104145563Y-77063605D01*
X119047000Y-77063605D01*
X119172914Y-77353577D01*
X119505126Y-77519433D01*
X119863312Y-77617290D01*
X120233706Y-77643389D01*
X120602075Y-77596725D01*
X120954262Y-77479094D01*
X121189086Y-77353577D01*
X121315000Y-77063605D01*
X120181000Y-75929605D01*
X119047000Y-77063605D01*
X104145563Y-77063605D01*
X104072230Y-77020000D01*
X104178488Y-76956817D01*
X104396854Y-76760293D01*
X104572684Y-76524944D01*
X104699222Y-76259814D01*
X104744958Y-76109026D01*
X104623817Y-75877000D01*
X103417000Y-75877000D01*
X103163000Y-75877000D01*
X100877000Y-75877000D01*
X100623000Y-75877000D01*
X99416183Y-75877000D01*
X99295042Y-76109026D01*
X96435000Y-76109026D01*
X96435000Y-75802706D01*
X118287611Y-75802706D01*
X118334275Y-76171075D01*
X118451906Y-76523262D01*
X118577423Y-76758086D01*
X118867395Y-76884000D01*
X120001395Y-75750000D01*
X120360605Y-75750000D01*
X121494605Y-76884000D01*
X121784577Y-76758086D01*
X121950433Y-76425874D01*
X122048290Y-76067688D01*
X122074389Y-75697294D01*
X122027725Y-75328925D01*
X121910094Y-74976738D01*
X121784577Y-74741914D01*
X121494605Y-74616000D01*
X120360605Y-75750000D01*
X120001395Y-75750000D01*
X118867395Y-74616000D01*
X118577423Y-74741914D01*
X118411567Y-75074126D01*
X118313710Y-75432312D01*
X118287611Y-75802706D01*
X96435000Y-75802706D01*
X96435000Y-73569026D01*
X99295042Y-73569026D01*
X99340778Y-73719814D01*
X99467316Y-73984944D01*
X99643146Y-74220293D01*
X99861512Y-74416817D01*
X99967770Y-74480000D01*
X99861512Y-74543183D01*
X99643146Y-74739707D01*
X99467316Y-74975056D01*
X99340778Y-75240186D01*
X99295042Y-75390974D01*
X99416183Y-75623000D01*
X100623000Y-75623000D01*
X100623000Y-73337000D01*
X100877000Y-73337000D01*
X100877000Y-75623000D01*
X103163000Y-75623000D01*
X103163000Y-73337000D01*
X103417000Y-73337000D01*
X103417000Y-75623000D01*
X104623817Y-75623000D01*
X104744958Y-75390974D01*
X104699222Y-75240186D01*
X104572684Y-74975056D01*
X104396854Y-74739707D01*
X104178488Y-74543183D01*
X104072230Y-74480000D01*
X104145562Y-74436395D01*
X119047000Y-74436395D01*
X120181000Y-75570395D01*
X121315000Y-74436395D01*
X121189086Y-74146423D01*
X120856874Y-73980567D01*
X120498688Y-73882710D01*
X120128294Y-73856611D01*
X119759925Y-73903275D01*
X119407738Y-74020906D01*
X119172914Y-74146423D01*
X119047000Y-74436395D01*
X104145562Y-74436395D01*
X104178488Y-74416817D01*
X104396854Y-74220293D01*
X104572684Y-73984944D01*
X104699222Y-73719814D01*
X104744958Y-73569026D01*
X104623817Y-73337000D01*
X103417000Y-73337000D01*
X103163000Y-73337000D01*
X100877000Y-73337000D01*
X100623000Y-73337000D01*
X99416183Y-73337000D01*
X99295042Y-73569026D01*
X96435000Y-73569026D01*
X96435000Y-72477000D01*
X99447297Y-72477000D01*
X99340778Y-72700186D01*
G37*
%TD.AperFunction*%
%TD*%
D27*
%TO.N,+12V*%
X125065000Y-73023000D02*
X115602606Y-73023000D01*
X114579606Y-72000000D01*
X118292928Y-72000000D01*
X118305188Y-72124482D01*
X118341498Y-72244180D01*
X118400463Y-72354494D01*
X118479815Y-72451185D01*
X118576506Y-72530537D01*
X118686820Y-72589502D01*
X118806518Y-72625812D01*
X118931000Y-72638072D01*
X119895250Y-72635000D01*
X120054000Y-72476250D01*
X120054000Y-70877000D01*
X120308000Y-70877000D01*
X120308000Y-72476250D01*
X120466750Y-72635000D01*
X121431000Y-72638072D01*
X121555482Y-72625812D01*
X121675180Y-72589502D01*
X121785494Y-72530537D01*
X121882185Y-72451185D01*
X121961537Y-72354494D01*
X122020502Y-72244180D01*
X122056812Y-72124482D01*
X122069072Y-72000000D01*
X122066000Y-71035750D01*
X121907250Y-70877000D01*
X120308000Y-70877000D01*
X120054000Y-70877000D01*
X118454750Y-70877000D01*
X118296000Y-71035750D01*
X118292928Y-72000000D01*
X114579606Y-72000000D01*
X114439803Y-71860197D01*
X114420557Y-71844403D01*
X114398601Y-71832667D01*
X114374776Y-71825440D01*
X114350065Y-71823000D01*
X104261488Y-71817853D01*
X104399341Y-71680000D01*
X107304392Y-71680000D01*
X107354000Y-71684886D01*
X107551994Y-71665385D01*
X107742380Y-71607632D01*
X107917840Y-71513847D01*
X108071633Y-71387633D01*
X108103261Y-71349094D01*
X108593880Y-70858476D01*
X108707117Y-70881000D01*
X109048883Y-70881000D01*
X109384081Y-70814325D01*
X109699831Y-70683537D01*
X109983998Y-70493663D01*
X110225663Y-70251998D01*
X110415537Y-69967831D01*
X110546325Y-69652081D01*
X110576575Y-69500000D01*
X118292928Y-69500000D01*
X118296000Y-70464250D01*
X118454750Y-70623000D01*
X120054000Y-70623000D01*
X120054000Y-69023750D01*
X120308000Y-69023750D01*
X120308000Y-70623000D01*
X121907250Y-70623000D01*
X122066000Y-70464250D01*
X122069072Y-69500000D01*
X122056812Y-69375518D01*
X122020502Y-69255820D01*
X121961537Y-69145506D01*
X121882185Y-69048815D01*
X121785494Y-68969463D01*
X121675180Y-68910498D01*
X121555482Y-68874188D01*
X121431000Y-68861928D01*
X120466750Y-68865000D01*
X120308000Y-69023750D01*
X120054000Y-69023750D01*
X119895250Y-68865000D01*
X118931000Y-68861928D01*
X118806518Y-68874188D01*
X118686820Y-68910498D01*
X118576506Y-68969463D01*
X118479815Y-69048815D01*
X118400463Y-69145506D01*
X118341498Y-69255820D01*
X118305188Y-69375518D01*
X118292928Y-69500000D01*
X110576575Y-69500000D01*
X110613000Y-69316883D01*
X110613000Y-68975117D01*
X110546325Y-68639919D01*
X110415537Y-68324169D01*
X110225663Y-68040002D01*
X109983998Y-67798337D01*
X109699831Y-67608463D01*
X109384081Y-67477675D01*
X109048883Y-67411000D01*
X108707117Y-67411000D01*
X108371919Y-67477675D01*
X108056169Y-67608463D01*
X107772002Y-67798337D01*
X107530337Y-68040002D01*
X107340463Y-68324169D01*
X107209675Y-68639919D01*
X107143000Y-68975117D01*
X107143000Y-69316883D01*
X107165524Y-69430120D01*
X106935645Y-69660000D01*
X104399341Y-69660000D01*
X104245302Y-69505961D01*
X103999853Y-69341958D01*
X103727125Y-69228990D01*
X103437599Y-69171400D01*
X103142401Y-69171400D01*
X102852875Y-69228990D01*
X102580147Y-69341958D01*
X102334698Y-69505961D01*
X102180659Y-69660000D01*
X101859341Y-69660000D01*
X101705302Y-69505961D01*
X101459853Y-69341958D01*
X101187125Y-69228990D01*
X100897599Y-69171400D01*
X100602401Y-69171400D01*
X100312875Y-69228990D01*
X100040147Y-69341958D01*
X99794698Y-69505961D01*
X99585961Y-69714698D01*
X99421958Y-69960147D01*
X99308990Y-70232875D01*
X99251400Y-70522401D01*
X99251400Y-70817599D01*
X99308990Y-71107125D01*
X99421958Y-71379853D01*
X99585961Y-71625302D01*
X99776224Y-71815565D01*
X96435000Y-71813860D01*
X96435000Y-61529872D01*
X97515000Y-61529872D01*
X97515000Y-61970128D01*
X97600890Y-62401925D01*
X97769369Y-62808669D01*
X98013962Y-63174729D01*
X98325271Y-63486038D01*
X98691331Y-63730631D01*
X99098075Y-63899110D01*
X99529872Y-63985000D01*
X99970128Y-63985000D01*
X100401925Y-63899110D01*
X100808669Y-63730631D01*
X101174729Y-63486038D01*
X101486038Y-63174729D01*
X101730631Y-62808669D01*
X101806295Y-62626000D01*
X107139928Y-62626000D01*
X107152188Y-62750482D01*
X107188498Y-62870180D01*
X107247463Y-62980494D01*
X107326815Y-63077185D01*
X107423506Y-63156537D01*
X107533820Y-63215502D01*
X107653518Y-63251812D01*
X107778000Y-63264072D01*
X108592250Y-63261000D01*
X108751000Y-63102250D01*
X108751000Y-61653000D01*
X109005000Y-61653000D01*
X109005000Y-63102250D01*
X109163750Y-63261000D01*
X109978000Y-63264072D01*
X110102482Y-63251812D01*
X110222180Y-63215502D01*
X110332494Y-63156537D01*
X110429185Y-63077185D01*
X110508537Y-62980494D01*
X110567502Y-62870180D01*
X110603812Y-62750482D01*
X110616072Y-62626000D01*
X110613000Y-61811750D01*
X110454250Y-61653000D01*
X109005000Y-61653000D01*
X108751000Y-61653000D01*
X107301750Y-61653000D01*
X107143000Y-61811750D01*
X107139928Y-62626000D01*
X101806295Y-62626000D01*
X101899110Y-62401925D01*
X101985000Y-61970128D01*
X101985000Y-61638665D01*
X112142000Y-61638665D01*
X112142000Y-61921335D01*
X112197147Y-62198574D01*
X112305320Y-62459727D01*
X112462363Y-62694759D01*
X112662241Y-62894637D01*
X112897273Y-63051680D01*
X113158426Y-63159853D01*
X113435665Y-63215000D01*
X113718335Y-63215000D01*
X113995574Y-63159853D01*
X114256727Y-63051680D01*
X114312210Y-63014607D01*
X114325815Y-63031185D01*
X114422506Y-63110537D01*
X114532820Y-63169502D01*
X114652518Y-63205812D01*
X114777000Y-63218072D01*
X115291250Y-63215000D01*
X115450000Y-63056250D01*
X115450000Y-61907000D01*
X115704000Y-61907000D01*
X115704000Y-63056250D01*
X115862750Y-63215000D01*
X116377000Y-63218072D01*
X116501482Y-63205812D01*
X116621180Y-63169502D01*
X116731494Y-63110537D01*
X116828185Y-63031185D01*
X116907537Y-62934494D01*
X116966502Y-62824180D01*
X117002812Y-62704482D01*
X117015072Y-62580000D01*
X117012000Y-62065750D01*
X116853250Y-61907000D01*
X115704000Y-61907000D01*
X115450000Y-61907000D01*
X115430000Y-61907000D01*
X115430000Y-61653000D01*
X115450000Y-61653000D01*
X115450000Y-60503750D01*
X115704000Y-60503750D01*
X115704000Y-61653000D01*
X116853250Y-61653000D01*
X117012000Y-61494250D01*
X117015072Y-60980000D01*
X117002812Y-60855518D01*
X116966502Y-60735820D01*
X116907537Y-60625506D01*
X116828185Y-60528815D01*
X116731494Y-60449463D01*
X116621180Y-60390498D01*
X116501482Y-60354188D01*
X116377000Y-60341928D01*
X115862750Y-60345000D01*
X115704000Y-60503750D01*
X115450000Y-60503750D01*
X115291250Y-60345000D01*
X114777000Y-60341928D01*
X114652518Y-60354188D01*
X114532820Y-60390498D01*
X114422506Y-60449463D01*
X114325815Y-60528815D01*
X114312210Y-60545393D01*
X114256727Y-60508320D01*
X113995574Y-60400147D01*
X113718335Y-60345000D01*
X113435665Y-60345000D01*
X113158426Y-60400147D01*
X112897273Y-60508320D01*
X112662241Y-60665363D01*
X112462363Y-60865241D01*
X112305320Y-61100273D01*
X112197147Y-61361426D01*
X112142000Y-61638665D01*
X101985000Y-61638665D01*
X101985000Y-61529872D01*
X101899110Y-61098075D01*
X101730631Y-60691331D01*
X101553343Y-60426000D01*
X107139928Y-60426000D01*
X107143000Y-61240250D01*
X107301750Y-61399000D01*
X108751000Y-61399000D01*
X108751000Y-59949750D01*
X109005000Y-59949750D01*
X109005000Y-61399000D01*
X110454250Y-61399000D01*
X110613000Y-61240250D01*
X110616072Y-60426000D01*
X110603812Y-60301518D01*
X110567502Y-60181820D01*
X110508537Y-60071506D01*
X110429185Y-59974815D01*
X110332494Y-59895463D01*
X110222180Y-59836498D01*
X110102482Y-59800188D01*
X109978000Y-59787928D01*
X109163750Y-59791000D01*
X109005000Y-59949750D01*
X108751000Y-59949750D01*
X108592250Y-59791000D01*
X107778000Y-59787928D01*
X107653518Y-59800188D01*
X107533820Y-59836498D01*
X107423506Y-59895463D01*
X107326815Y-59974815D01*
X107247463Y-60071506D01*
X107188498Y-60181820D01*
X107152188Y-60301518D01*
X107139928Y-60426000D01*
X101553343Y-60426000D01*
X101486038Y-60325271D01*
X101174729Y-60013962D01*
X100808669Y-59769369D01*
X100401925Y-59600890D01*
X99970128Y-59515000D01*
X99529872Y-59515000D01*
X99098075Y-59600890D01*
X98691331Y-59769369D01*
X98325271Y-60013962D01*
X98013962Y-60325271D01*
X97769369Y-60691331D01*
X97600890Y-61098075D01*
X97515000Y-61529872D01*
X96435000Y-61529872D01*
X96435000Y-58435000D01*
X125065000Y-58435000D01*
X125065000Y-73023000D01*
%TA.AperFunction,Conductor*%
D28*
G36*
X125065000Y-73023000D02*
G01*
X115602606Y-73023000D01*
X114579606Y-72000000D01*
X118292928Y-72000000D01*
X118305188Y-72124482D01*
X118341498Y-72244180D01*
X118400463Y-72354494D01*
X118479815Y-72451185D01*
X118576506Y-72530537D01*
X118686820Y-72589502D01*
X118806518Y-72625812D01*
X118931000Y-72638072D01*
X119895250Y-72635000D01*
X120054000Y-72476250D01*
X120054000Y-70877000D01*
X120308000Y-70877000D01*
X120308000Y-72476250D01*
X120466750Y-72635000D01*
X121431000Y-72638072D01*
X121555482Y-72625812D01*
X121675180Y-72589502D01*
X121785494Y-72530537D01*
X121882185Y-72451185D01*
X121961537Y-72354494D01*
X122020502Y-72244180D01*
X122056812Y-72124482D01*
X122069072Y-72000000D01*
X122066000Y-71035750D01*
X121907250Y-70877000D01*
X120308000Y-70877000D01*
X120054000Y-70877000D01*
X118454750Y-70877000D01*
X118296000Y-71035750D01*
X118292928Y-72000000D01*
X114579606Y-72000000D01*
X114439803Y-71860197D01*
X114420557Y-71844403D01*
X114398601Y-71832667D01*
X114374776Y-71825440D01*
X114350065Y-71823000D01*
X104261488Y-71817853D01*
X104399341Y-71680000D01*
X107304392Y-71680000D01*
X107354000Y-71684886D01*
X107551994Y-71665385D01*
X107742380Y-71607632D01*
X107917840Y-71513847D01*
X108071633Y-71387633D01*
X108103261Y-71349094D01*
X108593880Y-70858476D01*
X108707117Y-70881000D01*
X109048883Y-70881000D01*
X109384081Y-70814325D01*
X109699831Y-70683537D01*
X109983998Y-70493663D01*
X110225663Y-70251998D01*
X110415537Y-69967831D01*
X110546325Y-69652081D01*
X110576575Y-69500000D01*
X118292928Y-69500000D01*
X118296000Y-70464250D01*
X118454750Y-70623000D01*
X120054000Y-70623000D01*
X120054000Y-69023750D01*
X120308000Y-69023750D01*
X120308000Y-70623000D01*
X121907250Y-70623000D01*
X122066000Y-70464250D01*
X122069072Y-69500000D01*
X122056812Y-69375518D01*
X122020502Y-69255820D01*
X121961537Y-69145506D01*
X121882185Y-69048815D01*
X121785494Y-68969463D01*
X121675180Y-68910498D01*
X121555482Y-68874188D01*
X121431000Y-68861928D01*
X120466750Y-68865000D01*
X120308000Y-69023750D01*
X120054000Y-69023750D01*
X119895250Y-68865000D01*
X118931000Y-68861928D01*
X118806518Y-68874188D01*
X118686820Y-68910498D01*
X118576506Y-68969463D01*
X118479815Y-69048815D01*
X118400463Y-69145506D01*
X118341498Y-69255820D01*
X118305188Y-69375518D01*
X118292928Y-69500000D01*
X110576575Y-69500000D01*
X110613000Y-69316883D01*
X110613000Y-68975117D01*
X110546325Y-68639919D01*
X110415537Y-68324169D01*
X110225663Y-68040002D01*
X109983998Y-67798337D01*
X109699831Y-67608463D01*
X109384081Y-67477675D01*
X109048883Y-67411000D01*
X108707117Y-67411000D01*
X108371919Y-67477675D01*
X108056169Y-67608463D01*
X107772002Y-67798337D01*
X107530337Y-68040002D01*
X107340463Y-68324169D01*
X107209675Y-68639919D01*
X107143000Y-68975117D01*
X107143000Y-69316883D01*
X107165524Y-69430120D01*
X106935645Y-69660000D01*
X104399341Y-69660000D01*
X104245302Y-69505961D01*
X103999853Y-69341958D01*
X103727125Y-69228990D01*
X103437599Y-69171400D01*
X103142401Y-69171400D01*
X102852875Y-69228990D01*
X102580147Y-69341958D01*
X102334698Y-69505961D01*
X102180659Y-69660000D01*
X101859341Y-69660000D01*
X101705302Y-69505961D01*
X101459853Y-69341958D01*
X101187125Y-69228990D01*
X100897599Y-69171400D01*
X100602401Y-69171400D01*
X100312875Y-69228990D01*
X100040147Y-69341958D01*
X99794698Y-69505961D01*
X99585961Y-69714698D01*
X99421958Y-69960147D01*
X99308990Y-70232875D01*
X99251400Y-70522401D01*
X99251400Y-70817599D01*
X99308990Y-71107125D01*
X99421958Y-71379853D01*
X99585961Y-71625302D01*
X99776224Y-71815565D01*
X96435000Y-71813860D01*
X96435000Y-61529872D01*
X97515000Y-61529872D01*
X97515000Y-61970128D01*
X97600890Y-62401925D01*
X97769369Y-62808669D01*
X98013962Y-63174729D01*
X98325271Y-63486038D01*
X98691331Y-63730631D01*
X99098075Y-63899110D01*
X99529872Y-63985000D01*
X99970128Y-63985000D01*
X100401925Y-63899110D01*
X100808669Y-63730631D01*
X101174729Y-63486038D01*
X101486038Y-63174729D01*
X101730631Y-62808669D01*
X101806295Y-62626000D01*
X107139928Y-62626000D01*
X107152188Y-62750482D01*
X107188498Y-62870180D01*
X107247463Y-62980494D01*
X107326815Y-63077185D01*
X107423506Y-63156537D01*
X107533820Y-63215502D01*
X107653518Y-63251812D01*
X107778000Y-63264072D01*
X108592250Y-63261000D01*
X108751000Y-63102250D01*
X108751000Y-61653000D01*
X109005000Y-61653000D01*
X109005000Y-63102250D01*
X109163750Y-63261000D01*
X109978000Y-63264072D01*
X110102482Y-63251812D01*
X110222180Y-63215502D01*
X110332494Y-63156537D01*
X110429185Y-63077185D01*
X110508537Y-62980494D01*
X110567502Y-62870180D01*
X110603812Y-62750482D01*
X110616072Y-62626000D01*
X110613000Y-61811750D01*
X110454250Y-61653000D01*
X109005000Y-61653000D01*
X108751000Y-61653000D01*
X107301750Y-61653000D01*
X107143000Y-61811750D01*
X107139928Y-62626000D01*
X101806295Y-62626000D01*
X101899110Y-62401925D01*
X101985000Y-61970128D01*
X101985000Y-61638665D01*
X112142000Y-61638665D01*
X112142000Y-61921335D01*
X112197147Y-62198574D01*
X112305320Y-62459727D01*
X112462363Y-62694759D01*
X112662241Y-62894637D01*
X112897273Y-63051680D01*
X113158426Y-63159853D01*
X113435665Y-63215000D01*
X113718335Y-63215000D01*
X113995574Y-63159853D01*
X114256727Y-63051680D01*
X114312210Y-63014607D01*
X114325815Y-63031185D01*
X114422506Y-63110537D01*
X114532820Y-63169502D01*
X114652518Y-63205812D01*
X114777000Y-63218072D01*
X115291250Y-63215000D01*
X115450000Y-63056250D01*
X115450000Y-61907000D01*
X115704000Y-61907000D01*
X115704000Y-63056250D01*
X115862750Y-63215000D01*
X116377000Y-63218072D01*
X116501482Y-63205812D01*
X116621180Y-63169502D01*
X116731494Y-63110537D01*
X116828185Y-63031185D01*
X116907537Y-62934494D01*
X116966502Y-62824180D01*
X117002812Y-62704482D01*
X117015072Y-62580000D01*
X117012000Y-62065750D01*
X116853250Y-61907000D01*
X115704000Y-61907000D01*
X115450000Y-61907000D01*
X115430000Y-61907000D01*
X115430000Y-61653000D01*
X115450000Y-61653000D01*
X115450000Y-60503750D01*
X115704000Y-60503750D01*
X115704000Y-61653000D01*
X116853250Y-61653000D01*
X117012000Y-61494250D01*
X117015072Y-60980000D01*
X117002812Y-60855518D01*
X116966502Y-60735820D01*
X116907537Y-60625506D01*
X116828185Y-60528815D01*
X116731494Y-60449463D01*
X116621180Y-60390498D01*
X116501482Y-60354188D01*
X116377000Y-60341928D01*
X115862750Y-60345000D01*
X115704000Y-60503750D01*
X115450000Y-60503750D01*
X115291250Y-60345000D01*
X114777000Y-60341928D01*
X114652518Y-60354188D01*
X114532820Y-60390498D01*
X114422506Y-60449463D01*
X114325815Y-60528815D01*
X114312210Y-60545393D01*
X114256727Y-60508320D01*
X113995574Y-60400147D01*
X113718335Y-60345000D01*
X113435665Y-60345000D01*
X113158426Y-60400147D01*
X112897273Y-60508320D01*
X112662241Y-60665363D01*
X112462363Y-60865241D01*
X112305320Y-61100273D01*
X112197147Y-61361426D01*
X112142000Y-61638665D01*
X101985000Y-61638665D01*
X101985000Y-61529872D01*
X101899110Y-61098075D01*
X101730631Y-60691331D01*
X101553343Y-60426000D01*
X107139928Y-60426000D01*
X107143000Y-61240250D01*
X107301750Y-61399000D01*
X108751000Y-61399000D01*
X108751000Y-59949750D01*
X109005000Y-59949750D01*
X109005000Y-61399000D01*
X110454250Y-61399000D01*
X110613000Y-61240250D01*
X110616072Y-60426000D01*
X110603812Y-60301518D01*
X110567502Y-60181820D01*
X110508537Y-60071506D01*
X110429185Y-59974815D01*
X110332494Y-59895463D01*
X110222180Y-59836498D01*
X110102482Y-59800188D01*
X109978000Y-59787928D01*
X109163750Y-59791000D01*
X109005000Y-59949750D01*
X108751000Y-59949750D01*
X108592250Y-59791000D01*
X107778000Y-59787928D01*
X107653518Y-59800188D01*
X107533820Y-59836498D01*
X107423506Y-59895463D01*
X107326815Y-59974815D01*
X107247463Y-60071506D01*
X107188498Y-60181820D01*
X107152188Y-60301518D01*
X107139928Y-60426000D01*
X101553343Y-60426000D01*
X101486038Y-60325271D01*
X101174729Y-60013962D01*
X100808669Y-59769369D01*
X100401925Y-59600890D01*
X99970128Y-59515000D01*
X99529872Y-59515000D01*
X99098075Y-59600890D01*
X98691331Y-59769369D01*
X98325271Y-60013962D01*
X98013962Y-60325271D01*
X97769369Y-60691331D01*
X97600890Y-61098075D01*
X97515000Y-61529872D01*
X96435000Y-61529872D01*
X96435000Y-58435000D01*
X125065000Y-58435000D01*
X125065000Y-73023000D01*
G37*
%TD.AperFunction*%
%TD*%
D27*
%TO.N,-12V*%
X125065000Y-78231270D02*
X125065000Y-89623000D01*
X118000000Y-89623000D01*
X117975224Y-89625440D01*
X117951399Y-89632667D01*
X117929443Y-89644403D01*
X117910197Y-89660197D01*
X117894403Y-89679443D01*
X117882667Y-89701399D01*
X117875440Y-89725224D01*
X117873000Y-89750000D01*
X117873000Y-91873000D01*
X96435000Y-91873000D01*
X96435000Y-90370123D01*
X107188821Y-90370123D01*
X107298558Y-90692054D01*
X107468992Y-90986391D01*
X107693573Y-91241822D01*
X107963671Y-91448531D01*
X108268906Y-91598575D01*
X108481878Y-91663175D01*
X108751000Y-91545125D01*
X108751000Y-90101000D01*
X109005000Y-90101000D01*
X109005000Y-91545125D01*
X109274122Y-91663175D01*
X109487094Y-91598575D01*
X109792329Y-91448531D01*
X110062427Y-91241822D01*
X110287008Y-90986391D01*
X110457442Y-90692054D01*
X110567179Y-90370123D01*
X110449600Y-90101000D01*
X109005000Y-90101000D01*
X108751000Y-90101000D01*
X107306400Y-90101000D01*
X107188821Y-90370123D01*
X96435000Y-90370123D01*
X96435000Y-89577877D01*
X107188821Y-89577877D01*
X107306400Y-89847000D01*
X108751000Y-89847000D01*
X108751000Y-88402875D01*
X109005000Y-88402875D01*
X109005000Y-89847000D01*
X110449600Y-89847000D01*
X110567179Y-89577877D01*
X110457442Y-89255946D01*
X110287008Y-88961609D01*
X110250425Y-88920000D01*
X112011928Y-88920000D01*
X112011928Y-90520000D01*
X112024188Y-90644482D01*
X112060498Y-90764180D01*
X112119463Y-90874494D01*
X112198815Y-90971185D01*
X112295506Y-91050537D01*
X112405820Y-91109502D01*
X112525518Y-91145812D01*
X112650000Y-91158072D01*
X114250000Y-91158072D01*
X114374482Y-91145812D01*
X114494180Y-91109502D01*
X114604494Y-91050537D01*
X114701185Y-90971185D01*
X114711807Y-90958242D01*
X114963996Y-91077571D01*
X115238184Y-91146300D01*
X115520512Y-91160217D01*
X115800130Y-91118787D01*
X116066292Y-91023603D01*
X116191514Y-90956671D01*
X116263097Y-90712702D01*
X115450000Y-89899605D01*
X115435858Y-89913748D01*
X115256253Y-89734143D01*
X115270395Y-89720000D01*
X115629605Y-89720000D01*
X116442702Y-90533097D01*
X116686671Y-90461514D01*
X116807571Y-90206004D01*
X116876300Y-89931816D01*
X116890217Y-89649488D01*
X116848787Y-89369870D01*
X116753603Y-89103708D01*
X116686671Y-88978486D01*
X116442702Y-88906903D01*
X115629605Y-89720000D01*
X115270395Y-89720000D01*
X115256253Y-89705858D01*
X115435858Y-89526253D01*
X115450000Y-89540395D01*
X116263097Y-88727298D01*
X116191514Y-88483329D01*
X115936004Y-88362429D01*
X115661816Y-88293700D01*
X115379488Y-88279783D01*
X115099870Y-88321213D01*
X114833708Y-88416397D01*
X114711691Y-88481616D01*
X114701185Y-88468815D01*
X114604494Y-88389463D01*
X114494180Y-88330498D01*
X114374482Y-88294188D01*
X114250000Y-88281928D01*
X112650000Y-88281928D01*
X112525518Y-88294188D01*
X112405820Y-88330498D01*
X112295506Y-88389463D01*
X112198815Y-88468815D01*
X112119463Y-88565506D01*
X112060498Y-88675820D01*
X112024188Y-88795518D01*
X112011928Y-88920000D01*
X110250425Y-88920000D01*
X110062427Y-88706178D01*
X109792329Y-88499469D01*
X109487094Y-88349425D01*
X109274122Y-88284825D01*
X109005000Y-88402875D01*
X108751000Y-88402875D01*
X108481878Y-88284825D01*
X108268906Y-88349425D01*
X107963671Y-88499469D01*
X107693573Y-88706178D01*
X107468992Y-88961609D01*
X107298558Y-89255946D01*
X107188821Y-89577877D01*
X96435000Y-89577877D01*
X96435000Y-79427000D01*
X99767659Y-79427000D01*
X99794698Y-79454039D01*
X99953281Y-79560000D01*
X99794698Y-79665961D01*
X99585961Y-79874698D01*
X99421958Y-80120147D01*
X99308990Y-80392875D01*
X99251400Y-80682401D01*
X99251400Y-80977599D01*
X99308990Y-81267125D01*
X99421958Y-81539853D01*
X99585961Y-81785302D01*
X99794698Y-81994039D01*
X100040147Y-82158042D01*
X100312875Y-82271010D01*
X100602401Y-82328600D01*
X100897599Y-82328600D01*
X101187125Y-82271010D01*
X101459853Y-82158042D01*
X101705302Y-81994039D01*
X101819364Y-81879977D01*
X101836898Y-81937780D01*
X101895863Y-82048094D01*
X101975215Y-82144785D01*
X102071906Y-82224137D01*
X102182220Y-82283102D01*
X102301918Y-82319412D01*
X102426400Y-82331672D01*
X104153600Y-82331672D01*
X104278082Y-82319412D01*
X104397780Y-82283102D01*
X104508094Y-82224137D01*
X104604785Y-82144785D01*
X104684137Y-82048094D01*
X104743102Y-81937780D01*
X104772763Y-81840000D01*
X106935645Y-81840000D01*
X107139928Y-82044283D01*
X107139928Y-83454000D01*
X107152188Y-83578482D01*
X107188498Y-83698180D01*
X107247463Y-83808494D01*
X107326815Y-83905185D01*
X107423506Y-83984537D01*
X107533820Y-84043502D01*
X107653518Y-84079812D01*
X107778000Y-84092072D01*
X109978000Y-84092072D01*
X110102482Y-84079812D01*
X110222180Y-84043502D01*
X110332494Y-83984537D01*
X110429185Y-83905185D01*
X110508537Y-83808494D01*
X110567502Y-83698180D01*
X110603812Y-83578482D01*
X110616072Y-83454000D01*
X110616072Y-82063605D01*
X119047000Y-82063605D01*
X119172914Y-82353577D01*
X119505126Y-82519433D01*
X119863312Y-82617290D01*
X120233706Y-82643389D01*
X120602075Y-82596725D01*
X120954262Y-82479094D01*
X121189086Y-82353577D01*
X121315000Y-82063605D01*
X120181000Y-80929605D01*
X119047000Y-82063605D01*
X110616072Y-82063605D01*
X110616072Y-81254000D01*
X110603812Y-81129518D01*
X110567502Y-81009820D01*
X110508537Y-80899506D01*
X110429185Y-80802815D01*
X110429053Y-80802706D01*
X118287611Y-80802706D01*
X118334275Y-81171075D01*
X118451906Y-81523262D01*
X118577423Y-81758086D01*
X118867395Y-81884000D01*
X120001395Y-80750000D01*
X120360605Y-80750000D01*
X121494605Y-81884000D01*
X121784577Y-81758086D01*
X121950433Y-81425874D01*
X122048290Y-81067688D01*
X122074389Y-80697294D01*
X122027725Y-80328925D01*
X121910094Y-79976738D01*
X121784577Y-79741914D01*
X121494605Y-79616000D01*
X120360605Y-80750000D01*
X120001395Y-80750000D01*
X118867395Y-79616000D01*
X118577423Y-79741914D01*
X118411567Y-80074126D01*
X118313710Y-80432312D01*
X118287611Y-80802706D01*
X110429053Y-80802706D01*
X110332494Y-80723463D01*
X110222180Y-80664498D01*
X110102482Y-80628188D01*
X109978000Y-80615928D01*
X108568283Y-80615928D01*
X108103261Y-80150906D01*
X108071633Y-80112367D01*
X107917840Y-79986153D01*
X107742380Y-79892368D01*
X107551994Y-79834615D01*
X107403608Y-79820000D01*
X107354000Y-79815114D01*
X107304392Y-79820000D01*
X104772763Y-79820000D01*
X104743102Y-79722220D01*
X104684137Y-79611906D01*
X104604785Y-79515215D01*
X104508743Y-79436395D01*
X119047000Y-79436395D01*
X120181000Y-80570395D01*
X121315000Y-79436395D01*
X121189086Y-79146423D01*
X120856874Y-78980567D01*
X120498688Y-78882710D01*
X120128294Y-78856611D01*
X119759925Y-78903275D01*
X119407738Y-79020906D01*
X119172914Y-79146423D01*
X119047000Y-79436395D01*
X104508743Y-79436395D01*
X104508094Y-79435863D01*
X104491513Y-79427000D01*
X114303943Y-79427000D01*
X114328719Y-79424560D01*
X114352544Y-79417333D01*
X114374500Y-79405597D01*
X114393746Y-79389803D01*
X115556525Y-78227024D01*
X125065000Y-78231270D01*
%TA.AperFunction,Conductor*%
D28*
G36*
X125065000Y-78231270D02*
G01*
X125065000Y-89623000D01*
X118000000Y-89623000D01*
X117975224Y-89625440D01*
X117951399Y-89632667D01*
X117929443Y-89644403D01*
X117910197Y-89660197D01*
X117894403Y-89679443D01*
X117882667Y-89701399D01*
X117875440Y-89725224D01*
X117873000Y-89750000D01*
X117873000Y-91873000D01*
X96435000Y-91873000D01*
X96435000Y-90370123D01*
X107188821Y-90370123D01*
X107298558Y-90692054D01*
X107468992Y-90986391D01*
X107693573Y-91241822D01*
X107963671Y-91448531D01*
X108268906Y-91598575D01*
X108481878Y-91663175D01*
X108751000Y-91545125D01*
X108751000Y-90101000D01*
X109005000Y-90101000D01*
X109005000Y-91545125D01*
X109274122Y-91663175D01*
X109487094Y-91598575D01*
X109792329Y-91448531D01*
X110062427Y-91241822D01*
X110287008Y-90986391D01*
X110457442Y-90692054D01*
X110567179Y-90370123D01*
X110449600Y-90101000D01*
X109005000Y-90101000D01*
X108751000Y-90101000D01*
X107306400Y-90101000D01*
X107188821Y-90370123D01*
X96435000Y-90370123D01*
X96435000Y-89577877D01*
X107188821Y-89577877D01*
X107306400Y-89847000D01*
X108751000Y-89847000D01*
X108751000Y-88402875D01*
X109005000Y-88402875D01*
X109005000Y-89847000D01*
X110449600Y-89847000D01*
X110567179Y-89577877D01*
X110457442Y-89255946D01*
X110287008Y-88961609D01*
X110250425Y-88920000D01*
X112011928Y-88920000D01*
X112011928Y-90520000D01*
X112024188Y-90644482D01*
X112060498Y-90764180D01*
X112119463Y-90874494D01*
X112198815Y-90971185D01*
X112295506Y-91050537D01*
X112405820Y-91109502D01*
X112525518Y-91145812D01*
X112650000Y-91158072D01*
X114250000Y-91158072D01*
X114374482Y-91145812D01*
X114494180Y-91109502D01*
X114604494Y-91050537D01*
X114701185Y-90971185D01*
X114711807Y-90958242D01*
X114963996Y-91077571D01*
X115238184Y-91146300D01*
X115520512Y-91160217D01*
X115800130Y-91118787D01*
X116066292Y-91023603D01*
X116191514Y-90956671D01*
X116263097Y-90712702D01*
X115450000Y-89899605D01*
X115435858Y-89913748D01*
X115256253Y-89734143D01*
X115270395Y-89720000D01*
X115629605Y-89720000D01*
X116442702Y-90533097D01*
X116686671Y-90461514D01*
X116807571Y-90206004D01*
X116876300Y-89931816D01*
X116890217Y-89649488D01*
X116848787Y-89369870D01*
X116753603Y-89103708D01*
X116686671Y-88978486D01*
X116442702Y-88906903D01*
X115629605Y-89720000D01*
X115270395Y-89720000D01*
X115256253Y-89705858D01*
X115435858Y-89526253D01*
X115450000Y-89540395D01*
X116263097Y-88727298D01*
X116191514Y-88483329D01*
X115936004Y-88362429D01*
X115661816Y-88293700D01*
X115379488Y-88279783D01*
X115099870Y-88321213D01*
X114833708Y-88416397D01*
X114711691Y-88481616D01*
X114701185Y-88468815D01*
X114604494Y-88389463D01*
X114494180Y-88330498D01*
X114374482Y-88294188D01*
X114250000Y-88281928D01*
X112650000Y-88281928D01*
X112525518Y-88294188D01*
X112405820Y-88330498D01*
X112295506Y-88389463D01*
X112198815Y-88468815D01*
X112119463Y-88565506D01*
X112060498Y-88675820D01*
X112024188Y-88795518D01*
X112011928Y-88920000D01*
X110250425Y-88920000D01*
X110062427Y-88706178D01*
X109792329Y-88499469D01*
X109487094Y-88349425D01*
X109274122Y-88284825D01*
X109005000Y-88402875D01*
X108751000Y-88402875D01*
X108481878Y-88284825D01*
X108268906Y-88349425D01*
X107963671Y-88499469D01*
X107693573Y-88706178D01*
X107468992Y-88961609D01*
X107298558Y-89255946D01*
X107188821Y-89577877D01*
X96435000Y-89577877D01*
X96435000Y-79427000D01*
X99767659Y-79427000D01*
X99794698Y-79454039D01*
X99953281Y-79560000D01*
X99794698Y-79665961D01*
X99585961Y-79874698D01*
X99421958Y-80120147D01*
X99308990Y-80392875D01*
X99251400Y-80682401D01*
X99251400Y-80977599D01*
X99308990Y-81267125D01*
X99421958Y-81539853D01*
X99585961Y-81785302D01*
X99794698Y-81994039D01*
X100040147Y-82158042D01*
X100312875Y-82271010D01*
X100602401Y-82328600D01*
X100897599Y-82328600D01*
X101187125Y-82271010D01*
X101459853Y-82158042D01*
X101705302Y-81994039D01*
X101819364Y-81879977D01*
X101836898Y-81937780D01*
X101895863Y-82048094D01*
X101975215Y-82144785D01*
X102071906Y-82224137D01*
X102182220Y-82283102D01*
X102301918Y-82319412D01*
X102426400Y-82331672D01*
X104153600Y-82331672D01*
X104278082Y-82319412D01*
X104397780Y-82283102D01*
X104508094Y-82224137D01*
X104604785Y-82144785D01*
X104684137Y-82048094D01*
X104743102Y-81937780D01*
X104772763Y-81840000D01*
X106935645Y-81840000D01*
X107139928Y-82044283D01*
X107139928Y-83454000D01*
X107152188Y-83578482D01*
X107188498Y-83698180D01*
X107247463Y-83808494D01*
X107326815Y-83905185D01*
X107423506Y-83984537D01*
X107533820Y-84043502D01*
X107653518Y-84079812D01*
X107778000Y-84092072D01*
X109978000Y-84092072D01*
X110102482Y-84079812D01*
X110222180Y-84043502D01*
X110332494Y-83984537D01*
X110429185Y-83905185D01*
X110508537Y-83808494D01*
X110567502Y-83698180D01*
X110603812Y-83578482D01*
X110616072Y-83454000D01*
X110616072Y-82063605D01*
X119047000Y-82063605D01*
X119172914Y-82353577D01*
X119505126Y-82519433D01*
X119863312Y-82617290D01*
X120233706Y-82643389D01*
X120602075Y-82596725D01*
X120954262Y-82479094D01*
X121189086Y-82353577D01*
X121315000Y-82063605D01*
X120181000Y-80929605D01*
X119047000Y-82063605D01*
X110616072Y-82063605D01*
X110616072Y-81254000D01*
X110603812Y-81129518D01*
X110567502Y-81009820D01*
X110508537Y-80899506D01*
X110429185Y-80802815D01*
X110429053Y-80802706D01*
X118287611Y-80802706D01*
X118334275Y-81171075D01*
X118451906Y-81523262D01*
X118577423Y-81758086D01*
X118867395Y-81884000D01*
X120001395Y-80750000D01*
X120360605Y-80750000D01*
X121494605Y-81884000D01*
X121784577Y-81758086D01*
X121950433Y-81425874D01*
X122048290Y-81067688D01*
X122074389Y-80697294D01*
X122027725Y-80328925D01*
X121910094Y-79976738D01*
X121784577Y-79741914D01*
X121494605Y-79616000D01*
X120360605Y-80750000D01*
X120001395Y-80750000D01*
X118867395Y-79616000D01*
X118577423Y-79741914D01*
X118411567Y-80074126D01*
X118313710Y-80432312D01*
X118287611Y-80802706D01*
X110429053Y-80802706D01*
X110332494Y-80723463D01*
X110222180Y-80664498D01*
X110102482Y-80628188D01*
X109978000Y-80615928D01*
X108568283Y-80615928D01*
X108103261Y-80150906D01*
X108071633Y-80112367D01*
X107917840Y-79986153D01*
X107742380Y-79892368D01*
X107551994Y-79834615D01*
X107403608Y-79820000D01*
X107354000Y-79815114D01*
X107304392Y-79820000D01*
X104772763Y-79820000D01*
X104743102Y-79722220D01*
X104684137Y-79611906D01*
X104604785Y-79515215D01*
X104508743Y-79436395D01*
X119047000Y-79436395D01*
X120181000Y-80570395D01*
X121315000Y-79436395D01*
X121189086Y-79146423D01*
X120856874Y-78980567D01*
X120498688Y-78882710D01*
X120128294Y-78856611D01*
X119759925Y-78903275D01*
X119407738Y-79020906D01*
X119172914Y-79146423D01*
X119047000Y-79436395D01*
X104508743Y-79436395D01*
X104508094Y-79435863D01*
X104491513Y-79427000D01*
X114303943Y-79427000D01*
X114328719Y-79424560D01*
X114352544Y-79417333D01*
X114374500Y-79405597D01*
X114393746Y-79389803D01*
X115556525Y-78227024D01*
X125065000Y-78231270D01*
G37*
%TD.AperFunction*%
%TD*%
D27*
%TO.N,GND*%
X125065001Y-141665000D02*
X96435000Y-141665000D01*
X96435000Y-138129872D01*
X97515000Y-138129872D01*
X97515000Y-138570128D01*
X97600890Y-139001925D01*
X97769369Y-139408669D01*
X98013962Y-139774729D01*
X98325271Y-140086038D01*
X98691331Y-140330631D01*
X99098075Y-140499110D01*
X99529872Y-140585000D01*
X99970128Y-140585000D01*
X100401925Y-140499110D01*
X100808669Y-140330631D01*
X101174729Y-140086038D01*
X101486038Y-139774729D01*
X101730631Y-139408669D01*
X101899110Y-139001925D01*
X101985000Y-138570128D01*
X101985000Y-138129872D01*
X101899110Y-137698075D01*
X101730631Y-137291331D01*
X101486038Y-136925271D01*
X101180767Y-136620000D01*
X119011928Y-136620000D01*
X119024188Y-136744482D01*
X119060498Y-136864180D01*
X119119463Y-136974494D01*
X119198815Y-137071185D01*
X119295506Y-137150537D01*
X119405820Y-137209502D01*
X119525518Y-137245812D01*
X119650000Y-137258072D01*
X120464250Y-137255000D01*
X120623000Y-137096250D01*
X120623000Y-135877000D01*
X120877000Y-135877000D01*
X120877000Y-137096250D01*
X121035750Y-137255000D01*
X121850000Y-137258072D01*
X121974482Y-137245812D01*
X122094180Y-137209502D01*
X122204494Y-137150537D01*
X122301185Y-137071185D01*
X122380537Y-136974494D01*
X122439502Y-136864180D01*
X122475812Y-136744482D01*
X122488072Y-136620000D01*
X122485000Y-136035750D01*
X122326250Y-135877000D01*
X120877000Y-135877000D01*
X120623000Y-135877000D01*
X119173750Y-135877000D01*
X119015000Y-136035750D01*
X119011928Y-136620000D01*
X101180767Y-136620000D01*
X101174729Y-136613962D01*
X100808669Y-136369369D01*
X100401925Y-136200890D01*
X99970128Y-136115000D01*
X99529872Y-136115000D01*
X99098075Y-136200890D01*
X98691331Y-136369369D01*
X98325271Y-136613962D01*
X98013962Y-136925271D01*
X97769369Y-137291331D01*
X97600890Y-137698075D01*
X97515000Y-138129872D01*
X96435000Y-138129872D01*
X96435000Y-112820512D01*
X101309783Y-112820512D01*
X101351213Y-113100130D01*
X101446397Y-113366292D01*
X101513329Y-113491514D01*
X101757298Y-113563097D01*
X102570395Y-112750000D01*
X101757298Y-111936903D01*
X101513329Y-112008486D01*
X101392429Y-112263996D01*
X101323700Y-112538184D01*
X101309783Y-112820512D01*
X96435000Y-112820512D01*
X96435000Y-111757298D01*
X101936903Y-111757298D01*
X102750000Y-112570395D01*
X103563097Y-111757298D01*
X103491514Y-111513329D01*
X103236004Y-111392429D01*
X102961816Y-111323700D01*
X102679488Y-111309783D01*
X102399870Y-111351213D01*
X102133708Y-111446397D01*
X102008486Y-111513329D01*
X101936903Y-111757298D01*
X96435000Y-111757298D01*
X96435000Y-95488665D01*
X100065000Y-95488665D01*
X100065000Y-95771335D01*
X100120147Y-96048574D01*
X100228320Y-96309727D01*
X100385363Y-96544759D01*
X100585241Y-96744637D01*
X100820273Y-96901680D01*
X101081426Y-97009853D01*
X101358665Y-97065000D01*
X101641335Y-97065000D01*
X101918574Y-97009853D01*
X102179727Y-96901680D01*
X102414759Y-96744637D01*
X102614637Y-96544759D01*
X102771680Y-96309727D01*
X102879853Y-96048574D01*
X102935000Y-95771335D01*
X102935000Y-95488665D01*
X102898688Y-95306114D01*
X104194802Y-94010000D01*
X109760001Y-94010000D01*
X109760001Y-94351956D01*
X109605241Y-94455363D01*
X109405363Y-94655241D01*
X109248320Y-94890273D01*
X109140147Y-95151426D01*
X109085000Y-95428665D01*
X109085000Y-95711335D01*
X109140147Y-95988574D01*
X109248320Y-96249727D01*
X109405363Y-96484759D01*
X109605241Y-96684637D01*
X109840273Y-96841680D01*
X110101426Y-96949853D01*
X110378665Y-97005000D01*
X110661335Y-97005000D01*
X110938574Y-96949853D01*
X111199727Y-96841680D01*
X111434759Y-96684637D01*
X111634637Y-96484759D01*
X111791680Y-96249727D01*
X111899853Y-95988574D01*
X111955000Y-95711335D01*
X111955000Y-95428665D01*
X111899853Y-95151426D01*
X111791680Y-94890273D01*
X111634637Y-94655241D01*
X111434759Y-94455363D01*
X111280000Y-94351957D01*
X111280000Y-94010000D01*
X119422678Y-94010000D01*
X119460000Y-94013676D01*
X119497322Y-94010000D01*
X119666193Y-94010000D01*
X119645000Y-94116544D01*
X119645000Y-94383456D01*
X119697072Y-94645239D01*
X119799215Y-94891833D01*
X119947503Y-95113762D01*
X120136238Y-95302497D01*
X120358167Y-95450785D01*
X120525266Y-95520000D01*
X120358167Y-95589215D01*
X120136238Y-95737503D01*
X119947503Y-95926238D01*
X119799215Y-96148167D01*
X119697072Y-96394761D01*
X119645000Y-96656544D01*
X119645000Y-96923456D01*
X119697072Y-97185239D01*
X119799215Y-97431833D01*
X119947503Y-97653762D01*
X120136238Y-97842497D01*
X120240000Y-97911829D01*
X120240001Y-102225295D01*
X120224968Y-102226776D01*
X119941275Y-102312834D01*
X119679821Y-102452583D01*
X119450655Y-102640655D01*
X119262583Y-102869821D01*
X119122834Y-103131275D01*
X119036776Y-103414968D01*
X119007718Y-103710000D01*
X119036776Y-104005032D01*
X119122834Y-104288725D01*
X119262583Y-104550179D01*
X119450655Y-104779345D01*
X119516114Y-104833066D01*
X119406613Y-104891595D01*
X119272038Y-105002038D01*
X119161595Y-105136613D01*
X119079528Y-105290149D01*
X119028992Y-105456745D01*
X119011928Y-105629999D01*
X119011928Y-106870001D01*
X119028992Y-107043255D01*
X119079528Y-107209851D01*
X119161595Y-107363387D01*
X119272038Y-107497962D01*
X119406613Y-107608405D01*
X119560149Y-107690472D01*
X119726745Y-107741008D01*
X119899999Y-107758072D01*
X120490001Y-107758072D01*
X120490000Y-110362913D01*
X120375518Y-110374188D01*
X120255820Y-110410498D01*
X120145506Y-110469463D01*
X120048815Y-110548815D01*
X119969463Y-110645506D01*
X119910498Y-110755820D01*
X119874188Y-110875518D01*
X119861928Y-111000000D01*
X119861928Y-112500000D01*
X119874188Y-112624482D01*
X119910498Y-112744180D01*
X119969463Y-112854494D01*
X120048815Y-112951185D01*
X120145506Y-113030537D01*
X120255820Y-113089502D01*
X120375518Y-113125812D01*
X120483483Y-113136445D01*
X120367114Y-113214201D01*
X120174201Y-113407114D01*
X120022629Y-113633957D01*
X119918225Y-113886011D01*
X119865000Y-114153589D01*
X119865000Y-114370199D01*
X118385001Y-112890200D01*
X118385001Y-109551319D01*
X118388677Y-109513996D01*
X118385001Y-109476673D01*
X118385001Y-109476664D01*
X118374004Y-109365011D01*
X118330547Y-109221750D01*
X118259975Y-109089721D01*
X118165002Y-108973996D01*
X118136004Y-108950198D01*
X112234471Y-103048665D01*
X113565000Y-103048665D01*
X113565000Y-103331335D01*
X113620147Y-103608574D01*
X113728320Y-103869727D01*
X113885363Y-104104759D01*
X114085241Y-104304637D01*
X114320273Y-104461680D01*
X114581426Y-104569853D01*
X114858665Y-104625000D01*
X115141335Y-104625000D01*
X115418574Y-104569853D01*
X115679727Y-104461680D01*
X115914759Y-104304637D01*
X116114637Y-104104759D01*
X116271680Y-103869727D01*
X116379853Y-103608574D01*
X116435000Y-103331335D01*
X116435000Y-103048665D01*
X116379853Y-102771426D01*
X116271680Y-102510273D01*
X116114637Y-102275241D01*
X115914759Y-102075363D01*
X115679727Y-101918320D01*
X115418574Y-101810147D01*
X115141335Y-101755000D01*
X114858665Y-101755000D01*
X114581426Y-101810147D01*
X114320273Y-101918320D01*
X114085241Y-102075363D01*
X113885363Y-102275241D01*
X113728320Y-102510273D01*
X113620147Y-102771426D01*
X113565000Y-103048665D01*
X112234471Y-103048665D01*
X111864808Y-102679003D01*
X111858271Y-102671037D01*
X111791680Y-102510273D01*
X111634637Y-102275241D01*
X111434759Y-102075363D01*
X111280000Y-101971957D01*
X111280000Y-100114801D01*
X114484922Y-96909880D01*
X114581426Y-96949853D01*
X114858665Y-97005000D01*
X115141335Y-97005000D01*
X115418574Y-96949853D01*
X115679727Y-96841680D01*
X115914759Y-96684637D01*
X116114637Y-96484759D01*
X116271680Y-96249727D01*
X116379853Y-95988574D01*
X116435000Y-95711335D01*
X116435000Y-95428665D01*
X116379853Y-95151426D01*
X116271680Y-94890273D01*
X116114637Y-94655241D01*
X115914759Y-94455363D01*
X115679727Y-94298320D01*
X115418574Y-94190147D01*
X115141335Y-94135000D01*
X114858665Y-94135000D01*
X114581426Y-94190147D01*
X114320273Y-94298320D01*
X114085241Y-94455363D01*
X113885363Y-94655241D01*
X113728320Y-94890273D01*
X113620147Y-95151426D01*
X113565000Y-95428665D01*
X113565000Y-95680198D01*
X110008998Y-99236201D01*
X109980000Y-99259999D01*
X109956202Y-99288997D01*
X109956201Y-99288998D01*
X109885026Y-99375724D01*
X109814454Y-99507754D01*
X109770998Y-99651015D01*
X109756324Y-99800000D01*
X109760001Y-99837332D01*
X109760000Y-101855199D01*
X106760000Y-98855199D01*
X106760000Y-96848043D01*
X106914759Y-96744637D01*
X107114637Y-96544759D01*
X107271680Y-96309727D01*
X107379853Y-96048574D01*
X107435000Y-95771335D01*
X107435000Y-95488665D01*
X107379853Y-95211426D01*
X107271680Y-94950273D01*
X107114637Y-94715241D01*
X106914759Y-94515363D01*
X106679727Y-94358320D01*
X106418574Y-94250147D01*
X106141335Y-94195000D01*
X105858665Y-94195000D01*
X105581426Y-94250147D01*
X105320273Y-94358320D01*
X105085241Y-94515363D01*
X104885363Y-94715241D01*
X104728320Y-94950273D01*
X104620147Y-95211426D01*
X104565000Y-95488665D01*
X104565000Y-95771335D01*
X104620147Y-96048574D01*
X104728320Y-96309727D01*
X104885363Y-96544759D01*
X105085241Y-96744637D01*
X105240000Y-96848044D01*
X105240001Y-99132668D01*
X105236324Y-99170000D01*
X105250998Y-99318985D01*
X105294454Y-99462246D01*
X105365026Y-99594276D01*
X105411591Y-99651015D01*
X105460000Y-99710001D01*
X105488998Y-99733799D01*
X109085000Y-103329802D01*
X109085000Y-103331335D01*
X109140147Y-103608574D01*
X109248320Y-103869727D01*
X109405363Y-104104759D01*
X109605241Y-104304637D01*
X109840273Y-104461680D01*
X110101426Y-104569853D01*
X110378665Y-104625000D01*
X110661335Y-104625000D01*
X110938574Y-104569853D01*
X111199727Y-104461680D01*
X111378459Y-104342256D01*
X112855534Y-105819331D01*
X112688691Y-105835764D01*
X112418192Y-105917818D01*
X112168899Y-106051068D01*
X111950392Y-106230392D01*
X111771068Y-106448899D01*
X111637818Y-106698192D01*
X111555764Y-106968691D01*
X111528057Y-107250000D01*
X111555764Y-107531309D01*
X111637818Y-107801808D01*
X111771068Y-108051101D01*
X111950392Y-108269608D01*
X112168899Y-108448932D01*
X112301858Y-108520000D01*
X112168899Y-108591068D01*
X112167235Y-108592433D01*
X107438072Y-103863271D01*
X107438072Y-102450000D01*
X107425812Y-102325518D01*
X107389502Y-102205820D01*
X107330537Y-102095506D01*
X107251185Y-101998815D01*
X107154494Y-101919463D01*
X107044180Y-101860498D01*
X106924482Y-101824188D01*
X106800000Y-101811928D01*
X105200000Y-101811928D01*
X105075518Y-101824188D01*
X104955820Y-101860498D01*
X104845506Y-101919463D01*
X104748815Y-101998815D01*
X104669463Y-102095506D01*
X104610498Y-102205820D01*
X104574188Y-102325518D01*
X104561928Y-102450000D01*
X104561928Y-104050000D01*
X104574188Y-104174482D01*
X104610498Y-104294180D01*
X104669463Y-104404494D01*
X104748815Y-104501185D01*
X104845506Y-104580537D01*
X104955820Y-104639502D01*
X105075518Y-104675812D01*
X105200000Y-104688072D01*
X106113271Y-104688072D01*
X106790198Y-105364999D01*
X104689801Y-105364999D01*
X102898688Y-103573886D01*
X102935000Y-103391335D01*
X102935000Y-103108665D01*
X102879853Y-102831426D01*
X102771680Y-102570273D01*
X102614637Y-102335241D01*
X102414759Y-102135363D01*
X102179727Y-101978320D01*
X101918574Y-101870147D01*
X101641335Y-101815000D01*
X101358665Y-101815000D01*
X101081426Y-101870147D01*
X100820273Y-101978320D01*
X100585241Y-102135363D01*
X100385363Y-102335241D01*
X100228320Y-102570273D01*
X100120147Y-102831426D01*
X100065000Y-103108665D01*
X100065000Y-103391335D01*
X100120147Y-103668574D01*
X100228320Y-103929727D01*
X100385363Y-104164759D01*
X100585241Y-104364637D01*
X100820273Y-104521680D01*
X101081426Y-104629853D01*
X101358665Y-104685000D01*
X101641335Y-104685000D01*
X101823886Y-104648688D01*
X103811199Y-106636001D01*
X103834998Y-106665000D01*
X103863996Y-106688798D01*
X103911928Y-106728135D01*
X103911928Y-108050000D01*
X103924188Y-108174482D01*
X103960498Y-108294180D01*
X104019463Y-108404494D01*
X104098815Y-108501185D01*
X104195506Y-108580537D01*
X104305820Y-108639502D01*
X104425518Y-108675812D01*
X104443482Y-108677581D01*
X104330392Y-108770392D01*
X104151068Y-108988899D01*
X104017818Y-109238192D01*
X103935764Y-109508691D01*
X103908057Y-109790000D01*
X103935764Y-110071309D01*
X104017818Y-110341808D01*
X104151068Y-110591101D01*
X104330392Y-110809608D01*
X104548899Y-110988932D01*
X104681858Y-111060000D01*
X104548899Y-111131068D01*
X104330392Y-111310392D01*
X104151068Y-111528899D01*
X104017818Y-111778192D01*
X103951124Y-111998056D01*
X103742702Y-111936903D01*
X102929605Y-112750000D01*
X102943748Y-112764143D01*
X102764143Y-112943748D01*
X102750000Y-112929605D01*
X101936903Y-113742702D01*
X102008486Y-113986671D01*
X102037341Y-114000324D01*
X101835241Y-114135363D01*
X101635363Y-114335241D01*
X101478320Y-114570273D01*
X101370147Y-114831426D01*
X101315000Y-115108665D01*
X101315000Y-115391335D01*
X101370147Y-115668574D01*
X101478320Y-115929727D01*
X101635363Y-116164759D01*
X101835241Y-116364637D01*
X102070273Y-116521680D01*
X102331426Y-116629853D01*
X102608665Y-116685000D01*
X102891335Y-116685000D01*
X103168574Y-116629853D01*
X103240000Y-116600267D01*
X103240001Y-126462668D01*
X103236324Y-126500000D01*
X103250998Y-126648985D01*
X103294454Y-126792246D01*
X103365026Y-126924276D01*
X103436201Y-127011002D01*
X103460000Y-127040001D01*
X103488998Y-127063799D01*
X104186201Y-127761002D01*
X104209999Y-127790001D01*
X104325724Y-127884974D01*
X104457753Y-127955546D01*
X104601014Y-127999003D01*
X104712667Y-128010000D01*
X104712676Y-128010000D01*
X104749999Y-128013676D01*
X104782288Y-128010496D01*
X104885363Y-128164759D01*
X105085241Y-128364637D01*
X105320273Y-128521680D01*
X105581426Y-128629853D01*
X105858665Y-128685000D01*
X106141335Y-128685000D01*
X106418574Y-128629853D01*
X106679727Y-128521680D01*
X106839873Y-128414674D01*
X108851312Y-130426115D01*
X108815000Y-130608665D01*
X108815000Y-130891335D01*
X108870147Y-131168574D01*
X108978320Y-131429727D01*
X109135363Y-131664759D01*
X109335241Y-131864637D01*
X109570273Y-132021680D01*
X109831426Y-132129853D01*
X110108665Y-132185000D01*
X110391335Y-132185000D01*
X110668574Y-132129853D01*
X110929727Y-132021680D01*
X111164759Y-131864637D01*
X111364637Y-131664759D01*
X111521680Y-131429727D01*
X111629853Y-131168574D01*
X111685000Y-130891335D01*
X111685000Y-130608665D01*
X113815000Y-130608665D01*
X113815000Y-130891335D01*
X113870147Y-131168574D01*
X113978320Y-131429727D01*
X114135363Y-131664759D01*
X114335241Y-131864637D01*
X114570273Y-132021680D01*
X114831426Y-132129853D01*
X115108665Y-132185000D01*
X115391335Y-132185000D01*
X115668574Y-132129853D01*
X115929727Y-132021680D01*
X116164759Y-131864637D01*
X116364637Y-131664759D01*
X116468043Y-131510000D01*
X117975199Y-131510000D01*
X119116699Y-132651500D01*
X119036776Y-132914968D01*
X119007718Y-133210000D01*
X119036776Y-133505032D01*
X119122834Y-133788725D01*
X119262583Y-134050179D01*
X119449047Y-134277385D01*
X119405820Y-134290498D01*
X119295506Y-134349463D01*
X119198815Y-134428815D01*
X119119463Y-134525506D01*
X119060498Y-134635820D01*
X119024188Y-134755518D01*
X119011928Y-134880000D01*
X119015000Y-135464250D01*
X119173750Y-135623000D01*
X120623000Y-135623000D01*
X120623000Y-135603000D01*
X120877000Y-135603000D01*
X120877000Y-135623000D01*
X122326250Y-135623000D01*
X122485000Y-135464250D01*
X122488072Y-134880000D01*
X122475812Y-134755518D01*
X122439502Y-134635820D01*
X122380537Y-134525506D01*
X122301185Y-134428815D01*
X122204494Y-134349463D01*
X122094180Y-134290498D01*
X122050953Y-134277385D01*
X122237417Y-134050179D01*
X122377166Y-133788725D01*
X122463224Y-133505032D01*
X122492282Y-133210000D01*
X122463224Y-132914968D01*
X122377166Y-132631275D01*
X122237417Y-132369821D01*
X122049345Y-132140655D01*
X121820179Y-131952583D01*
X121558725Y-131812834D01*
X121275032Y-131726776D01*
X121053936Y-131705000D01*
X120446064Y-131705000D01*
X120331122Y-131716321D01*
X118853804Y-130239003D01*
X118830001Y-130209999D01*
X118714276Y-130115026D01*
X118582247Y-130044454D01*
X118438986Y-130000997D01*
X118327333Y-129990000D01*
X118327322Y-129990000D01*
X118290000Y-129986324D01*
X118252678Y-129990000D01*
X116468043Y-129990000D01*
X116364637Y-129835241D01*
X116164759Y-129635363D01*
X115929727Y-129478320D01*
X115668574Y-129370147D01*
X115391335Y-129315000D01*
X115108665Y-129315000D01*
X114831426Y-129370147D01*
X114570273Y-129478320D01*
X114335241Y-129635363D01*
X114135363Y-129835241D01*
X113978320Y-130070273D01*
X113870147Y-130331426D01*
X113815000Y-130608665D01*
X111685000Y-130608665D01*
X111629853Y-130331426D01*
X111521680Y-130070273D01*
X111364637Y-129835241D01*
X111164759Y-129635363D01*
X110929727Y-129478320D01*
X110668574Y-129370147D01*
X110391335Y-129315000D01*
X110108665Y-129315000D01*
X109926115Y-129351312D01*
X108817505Y-128242702D01*
X109706903Y-128242702D01*
X109778486Y-128486671D01*
X110033996Y-128607571D01*
X110308184Y-128676300D01*
X110590512Y-128690217D01*
X110870130Y-128648787D01*
X111136292Y-128553603D01*
X111261514Y-128486671D01*
X111333097Y-128242702D01*
X110520000Y-127429605D01*
X109706903Y-128242702D01*
X108817505Y-128242702D01*
X107895314Y-127320512D01*
X109079783Y-127320512D01*
X109121213Y-127600130D01*
X109216397Y-127866292D01*
X109283329Y-127991514D01*
X109527298Y-128063097D01*
X110340395Y-127250000D01*
X110699605Y-127250000D01*
X111512702Y-128063097D01*
X111756671Y-127991514D01*
X111877571Y-127736004D01*
X111946300Y-127461816D01*
X111960217Y-127179488D01*
X111918787Y-126899870D01*
X111823603Y-126633708D01*
X111756671Y-126508486D01*
X111512702Y-126436903D01*
X110699605Y-127250000D01*
X110340395Y-127250000D01*
X109527298Y-126436903D01*
X109283329Y-126508486D01*
X109162429Y-126763996D01*
X109093700Y-127038184D01*
X109079783Y-127320512D01*
X107895314Y-127320512D01*
X107361204Y-126786403D01*
X107271680Y-126570273D01*
X107114637Y-126335241D01*
X107036694Y-126257298D01*
X109706903Y-126257298D01*
X110520000Y-127070395D01*
X111333097Y-126257298D01*
X111261514Y-126013329D01*
X111006004Y-125892429D01*
X110731816Y-125823700D01*
X110449488Y-125809783D01*
X110169870Y-125851213D01*
X109903708Y-125946397D01*
X109778486Y-126013329D01*
X109706903Y-126257298D01*
X107036694Y-126257298D01*
X106914759Y-126135363D01*
X106679727Y-125978320D01*
X106418574Y-125870147D01*
X106141335Y-125815000D01*
X105858665Y-125815000D01*
X105581426Y-125870147D01*
X105320273Y-125978320D01*
X105085241Y-126135363D01*
X104897703Y-126322901D01*
X104760000Y-126185199D01*
X104760000Y-120339040D01*
X104847615Y-120485131D01*
X105036586Y-120693519D01*
X105262580Y-120861037D01*
X105516913Y-120981246D01*
X105650961Y-121021904D01*
X105873000Y-120899915D01*
X105873000Y-119757000D01*
X106127000Y-119757000D01*
X106127000Y-120899915D01*
X106349039Y-121021904D01*
X106483087Y-120981246D01*
X106737420Y-120861037D01*
X106963414Y-120693519D01*
X107152385Y-120485131D01*
X107297070Y-120243881D01*
X107391909Y-119979040D01*
X107270624Y-119757000D01*
X106127000Y-119757000D01*
X105873000Y-119757000D01*
X105853000Y-119757000D01*
X105853000Y-119503000D01*
X105873000Y-119503000D01*
X105873000Y-118360085D01*
X106127000Y-118360085D01*
X106127000Y-119503000D01*
X107270624Y-119503000D01*
X107391909Y-119280960D01*
X107297070Y-119016119D01*
X107152385Y-118774869D01*
X106963414Y-118566481D01*
X106737420Y-118398963D01*
X106483087Y-118278754D01*
X106349039Y-118238096D01*
X106127000Y-118360085D01*
X105873000Y-118360085D01*
X105650961Y-118238096D01*
X105516913Y-118278754D01*
X105262580Y-118398963D01*
X105036586Y-118566481D01*
X104847615Y-118774869D01*
X104760000Y-118920960D01*
X104760000Y-116181768D01*
X104798192Y-116202182D01*
X105068691Y-116284236D01*
X105279508Y-116305000D01*
X106220492Y-116305000D01*
X106431309Y-116284236D01*
X106701808Y-116202182D01*
X106740001Y-116181767D01*
X106740001Y-116462668D01*
X106736324Y-116500000D01*
X106750998Y-116648985D01*
X106794454Y-116792246D01*
X106865026Y-116924276D01*
X106899606Y-116966411D01*
X106960000Y-117040001D01*
X106988998Y-117063799D01*
X109139563Y-119214364D01*
X109085000Y-119488665D01*
X109085000Y-119771335D01*
X109140147Y-120048574D01*
X109248320Y-120309727D01*
X109405363Y-120544759D01*
X109605241Y-120744637D01*
X109760000Y-120848044D01*
X109760001Y-122982668D01*
X109756324Y-123020000D01*
X109770998Y-123168985D01*
X109814454Y-123312246D01*
X109885026Y-123444276D01*
X109939112Y-123510179D01*
X109980000Y-123560001D01*
X110008998Y-123583799D01*
X113565000Y-127139802D01*
X113565000Y-127391335D01*
X113620147Y-127668574D01*
X113728320Y-127929727D01*
X113885363Y-128164759D01*
X114085241Y-128364637D01*
X114320273Y-128521680D01*
X114581426Y-128629853D01*
X114858665Y-128685000D01*
X115141335Y-128685000D01*
X115418574Y-128629853D01*
X115679727Y-128521680D01*
X115914759Y-128364637D01*
X116114637Y-128164759D01*
X116271680Y-127929727D01*
X116379853Y-127668574D01*
X116435000Y-127391335D01*
X116435000Y-127108665D01*
X116379853Y-126831426D01*
X116271680Y-126570273D01*
X116114637Y-126335241D01*
X115914759Y-126135363D01*
X115679727Y-125978320D01*
X115418574Y-125870147D01*
X115141335Y-125815000D01*
X114858665Y-125815000D01*
X114581426Y-125870147D01*
X114484922Y-125910120D01*
X111280000Y-122705199D01*
X111280000Y-121244596D01*
X111294454Y-121292246D01*
X111365026Y-121424276D01*
X111436201Y-121511002D01*
X111460000Y-121540001D01*
X111488998Y-121563799D01*
X115646201Y-125721003D01*
X115669999Y-125750001D01*
X115698997Y-125773799D01*
X115785723Y-125844974D01*
X115917753Y-125915546D01*
X116061014Y-125959003D01*
X116172667Y-125970000D01*
X116172676Y-125970000D01*
X116209999Y-125973676D01*
X116247322Y-125970000D01*
X119219727Y-125970000D01*
X119262583Y-126050179D01*
X119450655Y-126279345D01*
X119516114Y-126333066D01*
X119406613Y-126391595D01*
X119272038Y-126502038D01*
X119161595Y-126636613D01*
X119079528Y-126790149D01*
X119028992Y-126956745D01*
X119011928Y-127129999D01*
X119011928Y-128370001D01*
X119028992Y-128543255D01*
X119079528Y-128709851D01*
X119161595Y-128863387D01*
X119272038Y-128997962D01*
X119406613Y-129108405D01*
X119560149Y-129190472D01*
X119726745Y-129241008D01*
X119899999Y-129258072D01*
X121600001Y-129258072D01*
X121773255Y-129241008D01*
X121939851Y-129190472D01*
X122093387Y-129108405D01*
X122227962Y-128997962D01*
X122338405Y-128863387D01*
X122420472Y-128709851D01*
X122471008Y-128543255D01*
X122488072Y-128370001D01*
X122488072Y-127129999D01*
X122471008Y-126956745D01*
X122420472Y-126790149D01*
X122338405Y-126636613D01*
X122227962Y-126502038D01*
X122093387Y-126391595D01*
X121983886Y-126333066D01*
X122049345Y-126279345D01*
X122237417Y-126050179D01*
X122377166Y-125788725D01*
X122463224Y-125505032D01*
X122492282Y-125210000D01*
X122463224Y-124914968D01*
X122377166Y-124631275D01*
X122237417Y-124369821D01*
X122049345Y-124140655D01*
X121820179Y-123952583D01*
X121796638Y-123940000D01*
X121820179Y-123927417D01*
X122049345Y-123739345D01*
X122237417Y-123510179D01*
X122377166Y-123248725D01*
X122463224Y-122965032D01*
X122492282Y-122670000D01*
X122463224Y-122374968D01*
X122377166Y-122091275D01*
X122237417Y-121829821D01*
X122049345Y-121600655D01*
X121820179Y-121412583D01*
X121558725Y-121272834D01*
X121275032Y-121186776D01*
X121053936Y-121165000D01*
X120446064Y-121165000D01*
X120224968Y-121186776D01*
X119941275Y-121272834D01*
X119679821Y-121412583D01*
X119450655Y-121600655D01*
X119262583Y-121829821D01*
X119122834Y-122091275D01*
X119036776Y-122374968D01*
X119007718Y-122670000D01*
X119036776Y-122965032D01*
X119122834Y-123248725D01*
X119262583Y-123510179D01*
X119450655Y-123739345D01*
X119679821Y-123927417D01*
X119703362Y-123940000D01*
X119679821Y-123952583D01*
X119450655Y-124140655D01*
X119262583Y-124369821D01*
X119219727Y-124450000D01*
X116524802Y-124450000D01*
X112760000Y-120685199D01*
X112760000Y-119537322D01*
X112763676Y-119499999D01*
X112762560Y-119488665D01*
X113565000Y-119488665D01*
X113565000Y-119771335D01*
X113620147Y-120048574D01*
X113728320Y-120309727D01*
X113885363Y-120544759D01*
X114085241Y-120744637D01*
X114320273Y-120901680D01*
X114581426Y-121009853D01*
X114858665Y-121065000D01*
X115141335Y-121065000D01*
X115418574Y-121009853D01*
X115679727Y-120901680D01*
X115914759Y-120744637D01*
X116114637Y-120544759D01*
X116271680Y-120309727D01*
X116379853Y-120048574D01*
X116435000Y-119771335D01*
X116435000Y-119488665D01*
X116379853Y-119211426D01*
X116271680Y-118950273D01*
X116114637Y-118715241D01*
X115914759Y-118515363D01*
X115679727Y-118358320D01*
X115418574Y-118250147D01*
X115141335Y-118195000D01*
X114858665Y-118195000D01*
X114581426Y-118250147D01*
X114320273Y-118358320D01*
X114085241Y-118515363D01*
X113885363Y-118715241D01*
X113728320Y-118950273D01*
X113620147Y-119211426D01*
X113565000Y-119488665D01*
X112762560Y-119488665D01*
X112760000Y-119462676D01*
X112760000Y-119462667D01*
X112749003Y-119351014D01*
X112705546Y-119207753D01*
X112634974Y-119075724D01*
X112540001Y-118959999D01*
X112511004Y-118936202D01*
X108760000Y-115185199D01*
X108760000Y-107334802D01*
X111084991Y-109659793D01*
X111084990Y-110767667D01*
X111081314Y-110804990D01*
X111084990Y-110842312D01*
X111084990Y-110842322D01*
X111095987Y-110953975D01*
X111128083Y-111059783D01*
X111139444Y-111097236D01*
X111210016Y-111229266D01*
X111225189Y-111247754D01*
X111304989Y-111344991D01*
X111333993Y-111368794D01*
X111674592Y-111709393D01*
X111637818Y-111778192D01*
X111555764Y-112048691D01*
X111528057Y-112330000D01*
X111555764Y-112611309D01*
X111637818Y-112881808D01*
X111771068Y-113131101D01*
X111950392Y-113349608D01*
X112168899Y-113528932D01*
X112301858Y-113600000D01*
X112168899Y-113671068D01*
X111950392Y-113850392D01*
X111771068Y-114068899D01*
X111637818Y-114318192D01*
X111555764Y-114588691D01*
X111528057Y-114870000D01*
X111555764Y-115151309D01*
X111637818Y-115421808D01*
X111771068Y-115671101D01*
X111950392Y-115889608D01*
X112168899Y-116068932D01*
X112418192Y-116202182D01*
X112688691Y-116284236D01*
X112899508Y-116305000D01*
X113840492Y-116305000D01*
X114051309Y-116284236D01*
X114321808Y-116202182D01*
X114571101Y-116068932D01*
X114789608Y-115889608D01*
X114968932Y-115671101D01*
X115102182Y-115421808D01*
X115184236Y-115151309D01*
X115211943Y-114870000D01*
X115184236Y-114588691D01*
X115102182Y-114318192D01*
X114968932Y-114068899D01*
X114789608Y-113850392D01*
X114571101Y-113671068D01*
X114438142Y-113600000D01*
X114571101Y-113528932D01*
X114789608Y-113349608D01*
X114968932Y-113131101D01*
X115102182Y-112881808D01*
X115106936Y-112866134D01*
X115196397Y-113116292D01*
X115263329Y-113241514D01*
X115507298Y-113313097D01*
X116320395Y-112500000D01*
X115507298Y-111686903D01*
X115263329Y-111758486D01*
X115161491Y-111973710D01*
X115102182Y-111778192D01*
X114968932Y-111528899D01*
X114789608Y-111310392D01*
X114571101Y-111131068D01*
X114438142Y-111060000D01*
X114571101Y-110988932D01*
X114789608Y-110809608D01*
X114968932Y-110591101D01*
X115102182Y-110341808D01*
X115103810Y-110336442D01*
X115120147Y-110418574D01*
X115228320Y-110679727D01*
X115385363Y-110914759D01*
X115585241Y-111114637D01*
X115785869Y-111248692D01*
X115758486Y-111263329D01*
X115686903Y-111507298D01*
X116500000Y-112320395D01*
X116514143Y-112306253D01*
X116693748Y-112485858D01*
X116679605Y-112500000D01*
X116693748Y-112514143D01*
X116514143Y-112693748D01*
X116500000Y-112679605D01*
X115686903Y-113492702D01*
X115758486Y-113736671D01*
X116013996Y-113857571D01*
X116288184Y-113926300D01*
X116570512Y-113940217D01*
X116850130Y-113898787D01*
X117116292Y-113803603D01*
X117137478Y-113792279D01*
X119893833Y-116548635D01*
X119865000Y-116693589D01*
X119865000Y-116966411D01*
X119918225Y-117233989D01*
X120022629Y-117486043D01*
X120174201Y-117712886D01*
X120367114Y-117905799D01*
X120593957Y-118057371D01*
X120846011Y-118161775D01*
X121113589Y-118215000D01*
X121386411Y-118215000D01*
X121653989Y-118161775D01*
X121906043Y-118057371D01*
X122132886Y-117905799D01*
X122325799Y-117712886D01*
X122477371Y-117486043D01*
X122581775Y-117233989D01*
X122635000Y-116966411D01*
X122635000Y-116693589D01*
X122581775Y-116426011D01*
X122477371Y-116173957D01*
X122325799Y-115947114D01*
X122132886Y-115754201D01*
X121906043Y-115602629D01*
X121803127Y-115560000D01*
X121906043Y-115517371D01*
X122132886Y-115365799D01*
X122325799Y-115172886D01*
X122477371Y-114946043D01*
X122581775Y-114693989D01*
X122635000Y-114426411D01*
X122635000Y-114153589D01*
X122606167Y-114008635D01*
X123011003Y-113603799D01*
X123040001Y-113580001D01*
X123107915Y-113497248D01*
X123134974Y-113464277D01*
X123205546Y-113332247D01*
X123232820Y-113242334D01*
X123249003Y-113188986D01*
X123260000Y-113077333D01*
X123260000Y-113077323D01*
X123263676Y-113040000D01*
X123260000Y-113002677D01*
X123260000Y-95787322D01*
X123263676Y-95749999D01*
X123260000Y-95712676D01*
X123260000Y-95712667D01*
X123249003Y-95601014D01*
X123205546Y-95457753D01*
X123134974Y-95325724D01*
X123040001Y-95209999D01*
X123011004Y-95186202D01*
X122330654Y-94505852D01*
X122355000Y-94383456D01*
X122355000Y-94116544D01*
X122302928Y-93854761D01*
X122200785Y-93608167D01*
X122052497Y-93386238D01*
X121863762Y-93197503D01*
X121641833Y-93049215D01*
X121474734Y-92980000D01*
X121641833Y-92910785D01*
X121863762Y-92762497D01*
X122052497Y-92573762D01*
X122200785Y-92351833D01*
X122302928Y-92105239D01*
X122355000Y-91843456D01*
X122355000Y-91576544D01*
X122302928Y-91314761D01*
X122200785Y-91068167D01*
X122052497Y-90846238D01*
X121863762Y-90657503D01*
X121641833Y-90509215D01*
X121395239Y-90407072D01*
X121133456Y-90355000D01*
X120866544Y-90355000D01*
X120604761Y-90407072D01*
X120358167Y-90509215D01*
X120136238Y-90657503D01*
X119947503Y-90846238D01*
X119799215Y-91068167D01*
X119697072Y-91314761D01*
X119645000Y-91576544D01*
X119645000Y-91843456D01*
X119669346Y-91965852D01*
X119145199Y-92490000D01*
X110557333Y-92490000D01*
X110520000Y-92486323D01*
X110482667Y-92490000D01*
X103917322Y-92490000D01*
X103879999Y-92486324D01*
X103842676Y-92490000D01*
X103842667Y-92490000D01*
X103731014Y-92500997D01*
X103587753Y-92544454D01*
X103455724Y-92615026D01*
X103339999Y-92709999D01*
X103316201Y-92738997D01*
X101823886Y-94231312D01*
X101641335Y-94195000D01*
X101358665Y-94195000D01*
X101081426Y-94250147D01*
X100820273Y-94358320D01*
X100585241Y-94515363D01*
X100385363Y-94715241D01*
X100228320Y-94950273D01*
X100120147Y-95211426D01*
X100065000Y-95488665D01*
X96435000Y-95488665D01*
X96435000Y-92377000D01*
X118250000Y-92377000D01*
X118274776Y-92374560D01*
X118298601Y-92367333D01*
X118320557Y-92355597D01*
X118339803Y-92339803D01*
X118355597Y-92320557D01*
X118367333Y-92298601D01*
X118374560Y-92274776D01*
X118377000Y-92250000D01*
X118377000Y-90127000D01*
X125065000Y-90127000D01*
X125065001Y-141665000D01*
%TA.AperFunction,Conductor*%
D28*
G36*
X125065001Y-141665000D02*
G01*
X96435000Y-141665000D01*
X96435000Y-138129872D01*
X97515000Y-138129872D01*
X97515000Y-138570128D01*
X97600890Y-139001925D01*
X97769369Y-139408669D01*
X98013962Y-139774729D01*
X98325271Y-140086038D01*
X98691331Y-140330631D01*
X99098075Y-140499110D01*
X99529872Y-140585000D01*
X99970128Y-140585000D01*
X100401925Y-140499110D01*
X100808669Y-140330631D01*
X101174729Y-140086038D01*
X101486038Y-139774729D01*
X101730631Y-139408669D01*
X101899110Y-139001925D01*
X101985000Y-138570128D01*
X101985000Y-138129872D01*
X101899110Y-137698075D01*
X101730631Y-137291331D01*
X101486038Y-136925271D01*
X101180767Y-136620000D01*
X119011928Y-136620000D01*
X119024188Y-136744482D01*
X119060498Y-136864180D01*
X119119463Y-136974494D01*
X119198815Y-137071185D01*
X119295506Y-137150537D01*
X119405820Y-137209502D01*
X119525518Y-137245812D01*
X119650000Y-137258072D01*
X120464250Y-137255000D01*
X120623000Y-137096250D01*
X120623000Y-135877000D01*
X120877000Y-135877000D01*
X120877000Y-137096250D01*
X121035750Y-137255000D01*
X121850000Y-137258072D01*
X121974482Y-137245812D01*
X122094180Y-137209502D01*
X122204494Y-137150537D01*
X122301185Y-137071185D01*
X122380537Y-136974494D01*
X122439502Y-136864180D01*
X122475812Y-136744482D01*
X122488072Y-136620000D01*
X122485000Y-136035750D01*
X122326250Y-135877000D01*
X120877000Y-135877000D01*
X120623000Y-135877000D01*
X119173750Y-135877000D01*
X119015000Y-136035750D01*
X119011928Y-136620000D01*
X101180767Y-136620000D01*
X101174729Y-136613962D01*
X100808669Y-136369369D01*
X100401925Y-136200890D01*
X99970128Y-136115000D01*
X99529872Y-136115000D01*
X99098075Y-136200890D01*
X98691331Y-136369369D01*
X98325271Y-136613962D01*
X98013962Y-136925271D01*
X97769369Y-137291331D01*
X97600890Y-137698075D01*
X97515000Y-138129872D01*
X96435000Y-138129872D01*
X96435000Y-112820512D01*
X101309783Y-112820512D01*
X101351213Y-113100130D01*
X101446397Y-113366292D01*
X101513329Y-113491514D01*
X101757298Y-113563097D01*
X102570395Y-112750000D01*
X101757298Y-111936903D01*
X101513329Y-112008486D01*
X101392429Y-112263996D01*
X101323700Y-112538184D01*
X101309783Y-112820512D01*
X96435000Y-112820512D01*
X96435000Y-111757298D01*
X101936903Y-111757298D01*
X102750000Y-112570395D01*
X103563097Y-111757298D01*
X103491514Y-111513329D01*
X103236004Y-111392429D01*
X102961816Y-111323700D01*
X102679488Y-111309783D01*
X102399870Y-111351213D01*
X102133708Y-111446397D01*
X102008486Y-111513329D01*
X101936903Y-111757298D01*
X96435000Y-111757298D01*
X96435000Y-95488665D01*
X100065000Y-95488665D01*
X100065000Y-95771335D01*
X100120147Y-96048574D01*
X100228320Y-96309727D01*
X100385363Y-96544759D01*
X100585241Y-96744637D01*
X100820273Y-96901680D01*
X101081426Y-97009853D01*
X101358665Y-97065000D01*
X101641335Y-97065000D01*
X101918574Y-97009853D01*
X102179727Y-96901680D01*
X102414759Y-96744637D01*
X102614637Y-96544759D01*
X102771680Y-96309727D01*
X102879853Y-96048574D01*
X102935000Y-95771335D01*
X102935000Y-95488665D01*
X102898688Y-95306114D01*
X104194802Y-94010000D01*
X109760001Y-94010000D01*
X109760001Y-94351956D01*
X109605241Y-94455363D01*
X109405363Y-94655241D01*
X109248320Y-94890273D01*
X109140147Y-95151426D01*
X109085000Y-95428665D01*
X109085000Y-95711335D01*
X109140147Y-95988574D01*
X109248320Y-96249727D01*
X109405363Y-96484759D01*
X109605241Y-96684637D01*
X109840273Y-96841680D01*
X110101426Y-96949853D01*
X110378665Y-97005000D01*
X110661335Y-97005000D01*
X110938574Y-96949853D01*
X111199727Y-96841680D01*
X111434759Y-96684637D01*
X111634637Y-96484759D01*
X111791680Y-96249727D01*
X111899853Y-95988574D01*
X111955000Y-95711335D01*
X111955000Y-95428665D01*
X111899853Y-95151426D01*
X111791680Y-94890273D01*
X111634637Y-94655241D01*
X111434759Y-94455363D01*
X111280000Y-94351957D01*
X111280000Y-94010000D01*
X119422678Y-94010000D01*
X119460000Y-94013676D01*
X119497322Y-94010000D01*
X119666193Y-94010000D01*
X119645000Y-94116544D01*
X119645000Y-94383456D01*
X119697072Y-94645239D01*
X119799215Y-94891833D01*
X119947503Y-95113762D01*
X120136238Y-95302497D01*
X120358167Y-95450785D01*
X120525266Y-95520000D01*
X120358167Y-95589215D01*
X120136238Y-95737503D01*
X119947503Y-95926238D01*
X119799215Y-96148167D01*
X119697072Y-96394761D01*
X119645000Y-96656544D01*
X119645000Y-96923456D01*
X119697072Y-97185239D01*
X119799215Y-97431833D01*
X119947503Y-97653762D01*
X120136238Y-97842497D01*
X120240000Y-97911829D01*
X120240001Y-102225295D01*
X120224968Y-102226776D01*
X119941275Y-102312834D01*
X119679821Y-102452583D01*
X119450655Y-102640655D01*
X119262583Y-102869821D01*
X119122834Y-103131275D01*
X119036776Y-103414968D01*
X119007718Y-103710000D01*
X119036776Y-104005032D01*
X119122834Y-104288725D01*
X119262583Y-104550179D01*
X119450655Y-104779345D01*
X119516114Y-104833066D01*
X119406613Y-104891595D01*
X119272038Y-105002038D01*
X119161595Y-105136613D01*
X119079528Y-105290149D01*
X119028992Y-105456745D01*
X119011928Y-105629999D01*
X119011928Y-106870001D01*
X119028992Y-107043255D01*
X119079528Y-107209851D01*
X119161595Y-107363387D01*
X119272038Y-107497962D01*
X119406613Y-107608405D01*
X119560149Y-107690472D01*
X119726745Y-107741008D01*
X119899999Y-107758072D01*
X120490001Y-107758072D01*
X120490000Y-110362913D01*
X120375518Y-110374188D01*
X120255820Y-110410498D01*
X120145506Y-110469463D01*
X120048815Y-110548815D01*
X119969463Y-110645506D01*
X119910498Y-110755820D01*
X119874188Y-110875518D01*
X119861928Y-111000000D01*
X119861928Y-112500000D01*
X119874188Y-112624482D01*
X119910498Y-112744180D01*
X119969463Y-112854494D01*
X120048815Y-112951185D01*
X120145506Y-113030537D01*
X120255820Y-113089502D01*
X120375518Y-113125812D01*
X120483483Y-113136445D01*
X120367114Y-113214201D01*
X120174201Y-113407114D01*
X120022629Y-113633957D01*
X119918225Y-113886011D01*
X119865000Y-114153589D01*
X119865000Y-114370199D01*
X118385001Y-112890200D01*
X118385001Y-109551319D01*
X118388677Y-109513996D01*
X118385001Y-109476673D01*
X118385001Y-109476664D01*
X118374004Y-109365011D01*
X118330547Y-109221750D01*
X118259975Y-109089721D01*
X118165002Y-108973996D01*
X118136004Y-108950198D01*
X112234471Y-103048665D01*
X113565000Y-103048665D01*
X113565000Y-103331335D01*
X113620147Y-103608574D01*
X113728320Y-103869727D01*
X113885363Y-104104759D01*
X114085241Y-104304637D01*
X114320273Y-104461680D01*
X114581426Y-104569853D01*
X114858665Y-104625000D01*
X115141335Y-104625000D01*
X115418574Y-104569853D01*
X115679727Y-104461680D01*
X115914759Y-104304637D01*
X116114637Y-104104759D01*
X116271680Y-103869727D01*
X116379853Y-103608574D01*
X116435000Y-103331335D01*
X116435000Y-103048665D01*
X116379853Y-102771426D01*
X116271680Y-102510273D01*
X116114637Y-102275241D01*
X115914759Y-102075363D01*
X115679727Y-101918320D01*
X115418574Y-101810147D01*
X115141335Y-101755000D01*
X114858665Y-101755000D01*
X114581426Y-101810147D01*
X114320273Y-101918320D01*
X114085241Y-102075363D01*
X113885363Y-102275241D01*
X113728320Y-102510273D01*
X113620147Y-102771426D01*
X113565000Y-103048665D01*
X112234471Y-103048665D01*
X111864808Y-102679003D01*
X111858271Y-102671037D01*
X111791680Y-102510273D01*
X111634637Y-102275241D01*
X111434759Y-102075363D01*
X111280000Y-101971957D01*
X111280000Y-100114801D01*
X114484922Y-96909880D01*
X114581426Y-96949853D01*
X114858665Y-97005000D01*
X115141335Y-97005000D01*
X115418574Y-96949853D01*
X115679727Y-96841680D01*
X115914759Y-96684637D01*
X116114637Y-96484759D01*
X116271680Y-96249727D01*
X116379853Y-95988574D01*
X116435000Y-95711335D01*
X116435000Y-95428665D01*
X116379853Y-95151426D01*
X116271680Y-94890273D01*
X116114637Y-94655241D01*
X115914759Y-94455363D01*
X115679727Y-94298320D01*
X115418574Y-94190147D01*
X115141335Y-94135000D01*
X114858665Y-94135000D01*
X114581426Y-94190147D01*
X114320273Y-94298320D01*
X114085241Y-94455363D01*
X113885363Y-94655241D01*
X113728320Y-94890273D01*
X113620147Y-95151426D01*
X113565000Y-95428665D01*
X113565000Y-95680198D01*
X110008998Y-99236201D01*
X109980000Y-99259999D01*
X109956202Y-99288997D01*
X109956201Y-99288998D01*
X109885026Y-99375724D01*
X109814454Y-99507754D01*
X109770998Y-99651015D01*
X109756324Y-99800000D01*
X109760001Y-99837332D01*
X109760000Y-101855199D01*
X106760000Y-98855199D01*
X106760000Y-96848043D01*
X106914759Y-96744637D01*
X107114637Y-96544759D01*
X107271680Y-96309727D01*
X107379853Y-96048574D01*
X107435000Y-95771335D01*
X107435000Y-95488665D01*
X107379853Y-95211426D01*
X107271680Y-94950273D01*
X107114637Y-94715241D01*
X106914759Y-94515363D01*
X106679727Y-94358320D01*
X106418574Y-94250147D01*
X106141335Y-94195000D01*
X105858665Y-94195000D01*
X105581426Y-94250147D01*
X105320273Y-94358320D01*
X105085241Y-94515363D01*
X104885363Y-94715241D01*
X104728320Y-94950273D01*
X104620147Y-95211426D01*
X104565000Y-95488665D01*
X104565000Y-95771335D01*
X104620147Y-96048574D01*
X104728320Y-96309727D01*
X104885363Y-96544759D01*
X105085241Y-96744637D01*
X105240000Y-96848044D01*
X105240001Y-99132668D01*
X105236324Y-99170000D01*
X105250998Y-99318985D01*
X105294454Y-99462246D01*
X105365026Y-99594276D01*
X105411591Y-99651015D01*
X105460000Y-99710001D01*
X105488998Y-99733799D01*
X109085000Y-103329802D01*
X109085000Y-103331335D01*
X109140147Y-103608574D01*
X109248320Y-103869727D01*
X109405363Y-104104759D01*
X109605241Y-104304637D01*
X109840273Y-104461680D01*
X110101426Y-104569853D01*
X110378665Y-104625000D01*
X110661335Y-104625000D01*
X110938574Y-104569853D01*
X111199727Y-104461680D01*
X111378459Y-104342256D01*
X112855534Y-105819331D01*
X112688691Y-105835764D01*
X112418192Y-105917818D01*
X112168899Y-106051068D01*
X111950392Y-106230392D01*
X111771068Y-106448899D01*
X111637818Y-106698192D01*
X111555764Y-106968691D01*
X111528057Y-107250000D01*
X111555764Y-107531309D01*
X111637818Y-107801808D01*
X111771068Y-108051101D01*
X111950392Y-108269608D01*
X112168899Y-108448932D01*
X112301858Y-108520000D01*
X112168899Y-108591068D01*
X112167235Y-108592433D01*
X107438072Y-103863271D01*
X107438072Y-102450000D01*
X107425812Y-102325518D01*
X107389502Y-102205820D01*
X107330537Y-102095506D01*
X107251185Y-101998815D01*
X107154494Y-101919463D01*
X107044180Y-101860498D01*
X106924482Y-101824188D01*
X106800000Y-101811928D01*
X105200000Y-101811928D01*
X105075518Y-101824188D01*
X104955820Y-101860498D01*
X104845506Y-101919463D01*
X104748815Y-101998815D01*
X104669463Y-102095506D01*
X104610498Y-102205820D01*
X104574188Y-102325518D01*
X104561928Y-102450000D01*
X104561928Y-104050000D01*
X104574188Y-104174482D01*
X104610498Y-104294180D01*
X104669463Y-104404494D01*
X104748815Y-104501185D01*
X104845506Y-104580537D01*
X104955820Y-104639502D01*
X105075518Y-104675812D01*
X105200000Y-104688072D01*
X106113271Y-104688072D01*
X106790198Y-105364999D01*
X104689801Y-105364999D01*
X102898688Y-103573886D01*
X102935000Y-103391335D01*
X102935000Y-103108665D01*
X102879853Y-102831426D01*
X102771680Y-102570273D01*
X102614637Y-102335241D01*
X102414759Y-102135363D01*
X102179727Y-101978320D01*
X101918574Y-101870147D01*
X101641335Y-101815000D01*
X101358665Y-101815000D01*
X101081426Y-101870147D01*
X100820273Y-101978320D01*
X100585241Y-102135363D01*
X100385363Y-102335241D01*
X100228320Y-102570273D01*
X100120147Y-102831426D01*
X100065000Y-103108665D01*
X100065000Y-103391335D01*
X100120147Y-103668574D01*
X100228320Y-103929727D01*
X100385363Y-104164759D01*
X100585241Y-104364637D01*
X100820273Y-104521680D01*
X101081426Y-104629853D01*
X101358665Y-104685000D01*
X101641335Y-104685000D01*
X101823886Y-104648688D01*
X103811199Y-106636001D01*
X103834998Y-106665000D01*
X103863996Y-106688798D01*
X103911928Y-106728135D01*
X103911928Y-108050000D01*
X103924188Y-108174482D01*
X103960498Y-108294180D01*
X104019463Y-108404494D01*
X104098815Y-108501185D01*
X104195506Y-108580537D01*
X104305820Y-108639502D01*
X104425518Y-108675812D01*
X104443482Y-108677581D01*
X104330392Y-108770392D01*
X104151068Y-108988899D01*
X104017818Y-109238192D01*
X103935764Y-109508691D01*
X103908057Y-109790000D01*
X103935764Y-110071309D01*
X104017818Y-110341808D01*
X104151068Y-110591101D01*
X104330392Y-110809608D01*
X104548899Y-110988932D01*
X104681858Y-111060000D01*
X104548899Y-111131068D01*
X104330392Y-111310392D01*
X104151068Y-111528899D01*
X104017818Y-111778192D01*
X103951124Y-111998056D01*
X103742702Y-111936903D01*
X102929605Y-112750000D01*
X102943748Y-112764143D01*
X102764143Y-112943748D01*
X102750000Y-112929605D01*
X101936903Y-113742702D01*
X102008486Y-113986671D01*
X102037341Y-114000324D01*
X101835241Y-114135363D01*
X101635363Y-114335241D01*
X101478320Y-114570273D01*
X101370147Y-114831426D01*
X101315000Y-115108665D01*
X101315000Y-115391335D01*
X101370147Y-115668574D01*
X101478320Y-115929727D01*
X101635363Y-116164759D01*
X101835241Y-116364637D01*
X102070273Y-116521680D01*
X102331426Y-116629853D01*
X102608665Y-116685000D01*
X102891335Y-116685000D01*
X103168574Y-116629853D01*
X103240000Y-116600267D01*
X103240001Y-126462668D01*
X103236324Y-126500000D01*
X103250998Y-126648985D01*
X103294454Y-126792246D01*
X103365026Y-126924276D01*
X103436201Y-127011002D01*
X103460000Y-127040001D01*
X103488998Y-127063799D01*
X104186201Y-127761002D01*
X104209999Y-127790001D01*
X104325724Y-127884974D01*
X104457753Y-127955546D01*
X104601014Y-127999003D01*
X104712667Y-128010000D01*
X104712676Y-128010000D01*
X104749999Y-128013676D01*
X104782288Y-128010496D01*
X104885363Y-128164759D01*
X105085241Y-128364637D01*
X105320273Y-128521680D01*
X105581426Y-128629853D01*
X105858665Y-128685000D01*
X106141335Y-128685000D01*
X106418574Y-128629853D01*
X106679727Y-128521680D01*
X106839873Y-128414674D01*
X108851312Y-130426115D01*
X108815000Y-130608665D01*
X108815000Y-130891335D01*
X108870147Y-131168574D01*
X108978320Y-131429727D01*
X109135363Y-131664759D01*
X109335241Y-131864637D01*
X109570273Y-132021680D01*
X109831426Y-132129853D01*
X110108665Y-132185000D01*
X110391335Y-132185000D01*
X110668574Y-132129853D01*
X110929727Y-132021680D01*
X111164759Y-131864637D01*
X111364637Y-131664759D01*
X111521680Y-131429727D01*
X111629853Y-131168574D01*
X111685000Y-130891335D01*
X111685000Y-130608665D01*
X113815000Y-130608665D01*
X113815000Y-130891335D01*
X113870147Y-131168574D01*
X113978320Y-131429727D01*
X114135363Y-131664759D01*
X114335241Y-131864637D01*
X114570273Y-132021680D01*
X114831426Y-132129853D01*
X115108665Y-132185000D01*
X115391335Y-132185000D01*
X115668574Y-132129853D01*
X115929727Y-132021680D01*
X116164759Y-131864637D01*
X116364637Y-131664759D01*
X116468043Y-131510000D01*
X117975199Y-131510000D01*
X119116699Y-132651500D01*
X119036776Y-132914968D01*
X119007718Y-133210000D01*
X119036776Y-133505032D01*
X119122834Y-133788725D01*
X119262583Y-134050179D01*
X119449047Y-134277385D01*
X119405820Y-134290498D01*
X119295506Y-134349463D01*
X119198815Y-134428815D01*
X119119463Y-134525506D01*
X119060498Y-134635820D01*
X119024188Y-134755518D01*
X119011928Y-134880000D01*
X119015000Y-135464250D01*
X119173750Y-135623000D01*
X120623000Y-135623000D01*
X120623000Y-135603000D01*
X120877000Y-135603000D01*
X120877000Y-135623000D01*
X122326250Y-135623000D01*
X122485000Y-135464250D01*
X122488072Y-134880000D01*
X122475812Y-134755518D01*
X122439502Y-134635820D01*
X122380537Y-134525506D01*
X122301185Y-134428815D01*
X122204494Y-134349463D01*
X122094180Y-134290498D01*
X122050953Y-134277385D01*
X122237417Y-134050179D01*
X122377166Y-133788725D01*
X122463224Y-133505032D01*
X122492282Y-133210000D01*
X122463224Y-132914968D01*
X122377166Y-132631275D01*
X122237417Y-132369821D01*
X122049345Y-132140655D01*
X121820179Y-131952583D01*
X121558725Y-131812834D01*
X121275032Y-131726776D01*
X121053936Y-131705000D01*
X120446064Y-131705000D01*
X120331122Y-131716321D01*
X118853804Y-130239003D01*
X118830001Y-130209999D01*
X118714276Y-130115026D01*
X118582247Y-130044454D01*
X118438986Y-130000997D01*
X118327333Y-129990000D01*
X118327322Y-129990000D01*
X118290000Y-129986324D01*
X118252678Y-129990000D01*
X116468043Y-129990000D01*
X116364637Y-129835241D01*
X116164759Y-129635363D01*
X115929727Y-129478320D01*
X115668574Y-129370147D01*
X115391335Y-129315000D01*
X115108665Y-129315000D01*
X114831426Y-129370147D01*
X114570273Y-129478320D01*
X114335241Y-129635363D01*
X114135363Y-129835241D01*
X113978320Y-130070273D01*
X113870147Y-130331426D01*
X113815000Y-130608665D01*
X111685000Y-130608665D01*
X111629853Y-130331426D01*
X111521680Y-130070273D01*
X111364637Y-129835241D01*
X111164759Y-129635363D01*
X110929727Y-129478320D01*
X110668574Y-129370147D01*
X110391335Y-129315000D01*
X110108665Y-129315000D01*
X109926115Y-129351312D01*
X108817505Y-128242702D01*
X109706903Y-128242702D01*
X109778486Y-128486671D01*
X110033996Y-128607571D01*
X110308184Y-128676300D01*
X110590512Y-128690217D01*
X110870130Y-128648787D01*
X111136292Y-128553603D01*
X111261514Y-128486671D01*
X111333097Y-128242702D01*
X110520000Y-127429605D01*
X109706903Y-128242702D01*
X108817505Y-128242702D01*
X107895314Y-127320512D01*
X109079783Y-127320512D01*
X109121213Y-127600130D01*
X109216397Y-127866292D01*
X109283329Y-127991514D01*
X109527298Y-128063097D01*
X110340395Y-127250000D01*
X110699605Y-127250000D01*
X111512702Y-128063097D01*
X111756671Y-127991514D01*
X111877571Y-127736004D01*
X111946300Y-127461816D01*
X111960217Y-127179488D01*
X111918787Y-126899870D01*
X111823603Y-126633708D01*
X111756671Y-126508486D01*
X111512702Y-126436903D01*
X110699605Y-127250000D01*
X110340395Y-127250000D01*
X109527298Y-126436903D01*
X109283329Y-126508486D01*
X109162429Y-126763996D01*
X109093700Y-127038184D01*
X109079783Y-127320512D01*
X107895314Y-127320512D01*
X107361204Y-126786403D01*
X107271680Y-126570273D01*
X107114637Y-126335241D01*
X107036694Y-126257298D01*
X109706903Y-126257298D01*
X110520000Y-127070395D01*
X111333097Y-126257298D01*
X111261514Y-126013329D01*
X111006004Y-125892429D01*
X110731816Y-125823700D01*
X110449488Y-125809783D01*
X110169870Y-125851213D01*
X109903708Y-125946397D01*
X109778486Y-126013329D01*
X109706903Y-126257298D01*
X107036694Y-126257298D01*
X106914759Y-126135363D01*
X106679727Y-125978320D01*
X106418574Y-125870147D01*
X106141335Y-125815000D01*
X105858665Y-125815000D01*
X105581426Y-125870147D01*
X105320273Y-125978320D01*
X105085241Y-126135363D01*
X104897703Y-126322901D01*
X104760000Y-126185199D01*
X104760000Y-120339040D01*
X104847615Y-120485131D01*
X105036586Y-120693519D01*
X105262580Y-120861037D01*
X105516913Y-120981246D01*
X105650961Y-121021904D01*
X105873000Y-120899915D01*
X105873000Y-119757000D01*
X106127000Y-119757000D01*
X106127000Y-120899915D01*
X106349039Y-121021904D01*
X106483087Y-120981246D01*
X106737420Y-120861037D01*
X106963414Y-120693519D01*
X107152385Y-120485131D01*
X107297070Y-120243881D01*
X107391909Y-119979040D01*
X107270624Y-119757000D01*
X106127000Y-119757000D01*
X105873000Y-119757000D01*
X105853000Y-119757000D01*
X105853000Y-119503000D01*
X105873000Y-119503000D01*
X105873000Y-118360085D01*
X106127000Y-118360085D01*
X106127000Y-119503000D01*
X107270624Y-119503000D01*
X107391909Y-119280960D01*
X107297070Y-119016119D01*
X107152385Y-118774869D01*
X106963414Y-118566481D01*
X106737420Y-118398963D01*
X106483087Y-118278754D01*
X106349039Y-118238096D01*
X106127000Y-118360085D01*
X105873000Y-118360085D01*
X105650961Y-118238096D01*
X105516913Y-118278754D01*
X105262580Y-118398963D01*
X105036586Y-118566481D01*
X104847615Y-118774869D01*
X104760000Y-118920960D01*
X104760000Y-116181768D01*
X104798192Y-116202182D01*
X105068691Y-116284236D01*
X105279508Y-116305000D01*
X106220492Y-116305000D01*
X106431309Y-116284236D01*
X106701808Y-116202182D01*
X106740001Y-116181767D01*
X106740001Y-116462668D01*
X106736324Y-116500000D01*
X106750998Y-116648985D01*
X106794454Y-116792246D01*
X106865026Y-116924276D01*
X106899606Y-116966411D01*
X106960000Y-117040001D01*
X106988998Y-117063799D01*
X109139563Y-119214364D01*
X109085000Y-119488665D01*
X109085000Y-119771335D01*
X109140147Y-120048574D01*
X109248320Y-120309727D01*
X109405363Y-120544759D01*
X109605241Y-120744637D01*
X109760000Y-120848044D01*
X109760001Y-122982668D01*
X109756324Y-123020000D01*
X109770998Y-123168985D01*
X109814454Y-123312246D01*
X109885026Y-123444276D01*
X109939112Y-123510179D01*
X109980000Y-123560001D01*
X110008998Y-123583799D01*
X113565000Y-127139802D01*
X113565000Y-127391335D01*
X113620147Y-127668574D01*
X113728320Y-127929727D01*
X113885363Y-128164759D01*
X114085241Y-128364637D01*
X114320273Y-128521680D01*
X114581426Y-128629853D01*
X114858665Y-128685000D01*
X115141335Y-128685000D01*
X115418574Y-128629853D01*
X115679727Y-128521680D01*
X115914759Y-128364637D01*
X116114637Y-128164759D01*
X116271680Y-127929727D01*
X116379853Y-127668574D01*
X116435000Y-127391335D01*
X116435000Y-127108665D01*
X116379853Y-126831426D01*
X116271680Y-126570273D01*
X116114637Y-126335241D01*
X115914759Y-126135363D01*
X115679727Y-125978320D01*
X115418574Y-125870147D01*
X115141335Y-125815000D01*
X114858665Y-125815000D01*
X114581426Y-125870147D01*
X114484922Y-125910120D01*
X111280000Y-122705199D01*
X111280000Y-121244596D01*
X111294454Y-121292246D01*
X111365026Y-121424276D01*
X111436201Y-121511002D01*
X111460000Y-121540001D01*
X111488998Y-121563799D01*
X115646201Y-125721003D01*
X115669999Y-125750001D01*
X115698997Y-125773799D01*
X115785723Y-125844974D01*
X115917753Y-125915546D01*
X116061014Y-125959003D01*
X116172667Y-125970000D01*
X116172676Y-125970000D01*
X116209999Y-125973676D01*
X116247322Y-125970000D01*
X119219727Y-125970000D01*
X119262583Y-126050179D01*
X119450655Y-126279345D01*
X119516114Y-126333066D01*
X119406613Y-126391595D01*
X119272038Y-126502038D01*
X119161595Y-126636613D01*
X119079528Y-126790149D01*
X119028992Y-126956745D01*
X119011928Y-127129999D01*
X119011928Y-128370001D01*
X119028992Y-128543255D01*
X119079528Y-128709851D01*
X119161595Y-128863387D01*
X119272038Y-128997962D01*
X119406613Y-129108405D01*
X119560149Y-129190472D01*
X119726745Y-129241008D01*
X119899999Y-129258072D01*
X121600001Y-129258072D01*
X121773255Y-129241008D01*
X121939851Y-129190472D01*
X122093387Y-129108405D01*
X122227962Y-128997962D01*
X122338405Y-128863387D01*
X122420472Y-128709851D01*
X122471008Y-128543255D01*
X122488072Y-128370001D01*
X122488072Y-127129999D01*
X122471008Y-126956745D01*
X122420472Y-126790149D01*
X122338405Y-126636613D01*
X122227962Y-126502038D01*
X122093387Y-126391595D01*
X121983886Y-126333066D01*
X122049345Y-126279345D01*
X122237417Y-126050179D01*
X122377166Y-125788725D01*
X122463224Y-125505032D01*
X122492282Y-125210000D01*
X122463224Y-124914968D01*
X122377166Y-124631275D01*
X122237417Y-124369821D01*
X122049345Y-124140655D01*
X121820179Y-123952583D01*
X121796638Y-123940000D01*
X121820179Y-123927417D01*
X122049345Y-123739345D01*
X122237417Y-123510179D01*
X122377166Y-123248725D01*
X122463224Y-122965032D01*
X122492282Y-122670000D01*
X122463224Y-122374968D01*
X122377166Y-122091275D01*
X122237417Y-121829821D01*
X122049345Y-121600655D01*
X121820179Y-121412583D01*
X121558725Y-121272834D01*
X121275032Y-121186776D01*
X121053936Y-121165000D01*
X120446064Y-121165000D01*
X120224968Y-121186776D01*
X119941275Y-121272834D01*
X119679821Y-121412583D01*
X119450655Y-121600655D01*
X119262583Y-121829821D01*
X119122834Y-122091275D01*
X119036776Y-122374968D01*
X119007718Y-122670000D01*
X119036776Y-122965032D01*
X119122834Y-123248725D01*
X119262583Y-123510179D01*
X119450655Y-123739345D01*
X119679821Y-123927417D01*
X119703362Y-123940000D01*
X119679821Y-123952583D01*
X119450655Y-124140655D01*
X119262583Y-124369821D01*
X119219727Y-124450000D01*
X116524802Y-124450000D01*
X112760000Y-120685199D01*
X112760000Y-119537322D01*
X112763676Y-119499999D01*
X112762560Y-119488665D01*
X113565000Y-119488665D01*
X113565000Y-119771335D01*
X113620147Y-120048574D01*
X113728320Y-120309727D01*
X113885363Y-120544759D01*
X114085241Y-120744637D01*
X114320273Y-120901680D01*
X114581426Y-121009853D01*
X114858665Y-121065000D01*
X115141335Y-121065000D01*
X115418574Y-121009853D01*
X115679727Y-120901680D01*
X115914759Y-120744637D01*
X116114637Y-120544759D01*
X116271680Y-120309727D01*
X116379853Y-120048574D01*
X116435000Y-119771335D01*
X116435000Y-119488665D01*
X116379853Y-119211426D01*
X116271680Y-118950273D01*
X116114637Y-118715241D01*
X115914759Y-118515363D01*
X115679727Y-118358320D01*
X115418574Y-118250147D01*
X115141335Y-118195000D01*
X114858665Y-118195000D01*
X114581426Y-118250147D01*
X114320273Y-118358320D01*
X114085241Y-118515363D01*
X113885363Y-118715241D01*
X113728320Y-118950273D01*
X113620147Y-119211426D01*
X113565000Y-119488665D01*
X112762560Y-119488665D01*
X112760000Y-119462676D01*
X112760000Y-119462667D01*
X112749003Y-119351014D01*
X112705546Y-119207753D01*
X112634974Y-119075724D01*
X112540001Y-118959999D01*
X112511004Y-118936202D01*
X108760000Y-115185199D01*
X108760000Y-107334802D01*
X111084991Y-109659793D01*
X111084990Y-110767667D01*
X111081314Y-110804990D01*
X111084990Y-110842312D01*
X111084990Y-110842322D01*
X111095987Y-110953975D01*
X111128083Y-111059783D01*
X111139444Y-111097236D01*
X111210016Y-111229266D01*
X111225189Y-111247754D01*
X111304989Y-111344991D01*
X111333993Y-111368794D01*
X111674592Y-111709393D01*
X111637818Y-111778192D01*
X111555764Y-112048691D01*
X111528057Y-112330000D01*
X111555764Y-112611309D01*
X111637818Y-112881808D01*
X111771068Y-113131101D01*
X111950392Y-113349608D01*
X112168899Y-113528932D01*
X112301858Y-113600000D01*
X112168899Y-113671068D01*
X111950392Y-113850392D01*
X111771068Y-114068899D01*
X111637818Y-114318192D01*
X111555764Y-114588691D01*
X111528057Y-114870000D01*
X111555764Y-115151309D01*
X111637818Y-115421808D01*
X111771068Y-115671101D01*
X111950392Y-115889608D01*
X112168899Y-116068932D01*
X112418192Y-116202182D01*
X112688691Y-116284236D01*
X112899508Y-116305000D01*
X113840492Y-116305000D01*
X114051309Y-116284236D01*
X114321808Y-116202182D01*
X114571101Y-116068932D01*
X114789608Y-115889608D01*
X114968932Y-115671101D01*
X115102182Y-115421808D01*
X115184236Y-115151309D01*
X115211943Y-114870000D01*
X115184236Y-114588691D01*
X115102182Y-114318192D01*
X114968932Y-114068899D01*
X114789608Y-113850392D01*
X114571101Y-113671068D01*
X114438142Y-113600000D01*
X114571101Y-113528932D01*
X114789608Y-113349608D01*
X114968932Y-113131101D01*
X115102182Y-112881808D01*
X115106936Y-112866134D01*
X115196397Y-113116292D01*
X115263329Y-113241514D01*
X115507298Y-113313097D01*
X116320395Y-112500000D01*
X115507298Y-111686903D01*
X115263329Y-111758486D01*
X115161491Y-111973710D01*
X115102182Y-111778192D01*
X114968932Y-111528899D01*
X114789608Y-111310392D01*
X114571101Y-111131068D01*
X114438142Y-111060000D01*
X114571101Y-110988932D01*
X114789608Y-110809608D01*
X114968932Y-110591101D01*
X115102182Y-110341808D01*
X115103810Y-110336442D01*
X115120147Y-110418574D01*
X115228320Y-110679727D01*
X115385363Y-110914759D01*
X115585241Y-111114637D01*
X115785869Y-111248692D01*
X115758486Y-111263329D01*
X115686903Y-111507298D01*
X116500000Y-112320395D01*
X116514143Y-112306253D01*
X116693748Y-112485858D01*
X116679605Y-112500000D01*
X116693748Y-112514143D01*
X116514143Y-112693748D01*
X116500000Y-112679605D01*
X115686903Y-113492702D01*
X115758486Y-113736671D01*
X116013996Y-113857571D01*
X116288184Y-113926300D01*
X116570512Y-113940217D01*
X116850130Y-113898787D01*
X117116292Y-113803603D01*
X117137478Y-113792279D01*
X119893833Y-116548635D01*
X119865000Y-116693589D01*
X119865000Y-116966411D01*
X119918225Y-117233989D01*
X120022629Y-117486043D01*
X120174201Y-117712886D01*
X120367114Y-117905799D01*
X120593957Y-118057371D01*
X120846011Y-118161775D01*
X121113589Y-118215000D01*
X121386411Y-118215000D01*
X121653989Y-118161775D01*
X121906043Y-118057371D01*
X122132886Y-117905799D01*
X122325799Y-117712886D01*
X122477371Y-117486043D01*
X122581775Y-117233989D01*
X122635000Y-116966411D01*
X122635000Y-116693589D01*
X122581775Y-116426011D01*
X122477371Y-116173957D01*
X122325799Y-115947114D01*
X122132886Y-115754201D01*
X121906043Y-115602629D01*
X121803127Y-115560000D01*
X121906043Y-115517371D01*
X122132886Y-115365799D01*
X122325799Y-115172886D01*
X122477371Y-114946043D01*
X122581775Y-114693989D01*
X122635000Y-114426411D01*
X122635000Y-114153589D01*
X122606167Y-114008635D01*
X123011003Y-113603799D01*
X123040001Y-113580001D01*
X123107915Y-113497248D01*
X123134974Y-113464277D01*
X123205546Y-113332247D01*
X123232820Y-113242334D01*
X123249003Y-113188986D01*
X123260000Y-113077333D01*
X123260000Y-113077323D01*
X123263676Y-113040000D01*
X123260000Y-113002677D01*
X123260000Y-95787322D01*
X123263676Y-95749999D01*
X123260000Y-95712676D01*
X123260000Y-95712667D01*
X123249003Y-95601014D01*
X123205546Y-95457753D01*
X123134974Y-95325724D01*
X123040001Y-95209999D01*
X123011004Y-95186202D01*
X122330654Y-94505852D01*
X122355000Y-94383456D01*
X122355000Y-94116544D01*
X122302928Y-93854761D01*
X122200785Y-93608167D01*
X122052497Y-93386238D01*
X121863762Y-93197503D01*
X121641833Y-93049215D01*
X121474734Y-92980000D01*
X121641833Y-92910785D01*
X121863762Y-92762497D01*
X122052497Y-92573762D01*
X122200785Y-92351833D01*
X122302928Y-92105239D01*
X122355000Y-91843456D01*
X122355000Y-91576544D01*
X122302928Y-91314761D01*
X122200785Y-91068167D01*
X122052497Y-90846238D01*
X121863762Y-90657503D01*
X121641833Y-90509215D01*
X121395239Y-90407072D01*
X121133456Y-90355000D01*
X120866544Y-90355000D01*
X120604761Y-90407072D01*
X120358167Y-90509215D01*
X120136238Y-90657503D01*
X119947503Y-90846238D01*
X119799215Y-91068167D01*
X119697072Y-91314761D01*
X119645000Y-91576544D01*
X119645000Y-91843456D01*
X119669346Y-91965852D01*
X119145199Y-92490000D01*
X110557333Y-92490000D01*
X110520000Y-92486323D01*
X110482667Y-92490000D01*
X103917322Y-92490000D01*
X103879999Y-92486324D01*
X103842676Y-92490000D01*
X103842667Y-92490000D01*
X103731014Y-92500997D01*
X103587753Y-92544454D01*
X103455724Y-92615026D01*
X103339999Y-92709999D01*
X103316201Y-92738997D01*
X101823886Y-94231312D01*
X101641335Y-94195000D01*
X101358665Y-94195000D01*
X101081426Y-94250147D01*
X100820273Y-94358320D01*
X100585241Y-94515363D01*
X100385363Y-94715241D01*
X100228320Y-94950273D01*
X100120147Y-95211426D01*
X100065000Y-95488665D01*
X96435000Y-95488665D01*
X96435000Y-92377000D01*
X118250000Y-92377000D01*
X118274776Y-92374560D01*
X118298601Y-92367333D01*
X118320557Y-92355597D01*
X118339803Y-92339803D01*
X118355597Y-92320557D01*
X118367333Y-92298601D01*
X118374560Y-92274776D01*
X118377000Y-92250000D01*
X118377000Y-90127000D01*
X125065000Y-90127000D01*
X125065001Y-141665000D01*
G37*
%TD.AperFunction*%
%TD*%
M02*
