M48
; DRILL file {KiCad 5.1.8-db9833491~88~ubuntu20.04.1} date Fri Dec 11 00:13:34 2020
; FORMAT={-:-/ absolute / inch / decimal}
; #@! TF.CreationDate,2020-12-11T00:13:34-05:00
; #@! TF.GenerationSoftware,Kicad,Pcbnew,5.1.8-db9833491~88~ubuntu20.04.1
; #@! TF.FileFunction,Plated,1,2,PTH
FMAT,2
INCH
T1C0.0315
T2C0.0400
T3C0.0433
T4C0.0472
T5C0.0512
%
G90
G05
T1
X4.3512Y-4.8673
X4.3512Y-5.1673
X3.9961Y-3.9224
X3.9961Y-4.2224
X4.5276Y-3.9201
X4.5276Y-4.2201
X4.5866Y-4.4882
X4.5866Y-4.5866
X4.1732Y-4.8673
X4.1732Y-5.1673
X4.5276Y-4.8673
X4.5276Y-5.1673
X4.1634Y-4.3799
X4.1634Y-4.4799
X4.1634Y-4.5799
X4.1634Y-4.6799
X4.4634Y-4.3799
X4.4634Y-4.4799
X4.4634Y-4.5799
X4.4634Y-4.6799
X4.4715Y-2.4323
X4.5503Y-2.4323
X4.4665Y-3.5323
X4.5453Y-3.5323
X4.1732Y-3.9224
X4.1732Y-4.2224
X4.7736Y-4.5571
X4.7736Y-4.6571
X4.7736Y-4.7571
X4.3512Y-3.9201
X4.3512Y-4.2201
X4.3406Y-5.3051
X4.439Y-5.3051
X4.0453Y-4.5965
X4.0453Y-4.6949
X4.7638Y-3.7681
X4.7638Y-3.8681
X4.7638Y-3.9681
T2
X3.9665Y-2.7823
X3.9665Y-2.8823
X3.9665Y-2.9823
X3.9665Y-3.0823
X3.9665Y-3.1823
X4.0665Y-2.7823
X4.0665Y-2.8823
X4.0665Y-2.9823
X4.0665Y-3.0823
X4.0665Y-3.1823
T3
X4.2865Y-3.2423
X4.2865Y-3.5423
X4.2865Y-2.4223
X4.2865Y-2.7223
T4
X4.7539Y-4.2406
X4.7539Y-4.3406
X4.7539Y-4.987
X4.7539Y-5.087
X4.7539Y-5.187
X4.7539Y-5.402
X4.7539Y-5.502
T5
X4.7315Y-2.7854
X4.7315Y-2.9823
X4.7315Y-3.1791
T0
M30
