M48
; DRILL file {KiCad 5.1.9-73d0e3b20d~88~ubuntu20.04.1} date Mon Jan  4 22:29:07 2021
; FORMAT={-:-/ absolute / inch / decimal}
; #@! TF.CreationDate,2021-01-04T22:29:07-05:00
; #@! TF.GenerationSoftware,Kicad,Pcbnew,5.1.9-73d0e3b20d~88~ubuntu20.04.1
; #@! TF.FileFunction,Plated,1,2,PTH
FMAT,2
INCH
T1C0.0315
T2C0.0400
T3C0.0433
T4C0.0472
T5C0.0512
%
G90
G05
T1
X3.9961Y-3.765
X3.9961Y-4.065
X4.0453Y-4.439
X4.0453Y-4.5374
X4.1634Y-4.2224
X4.1634Y-4.3224
X4.1634Y-4.4224
X4.1634Y-4.5224
X4.1732Y-3.765
X4.1732Y-4.065
X4.1732Y-4.7098
X4.1732Y-5.0098
X4.3406Y-5.1476
X4.3512Y-3.7626
X4.3512Y-4.0626
X4.3512Y-4.7098
X4.3512Y-5.0098
X4.439Y-5.1476
X4.4634Y-4.2224
X4.4634Y-4.3224
X4.4634Y-4.4224
X4.4634Y-4.5224
X4.4665Y-3.5323
X4.4715Y-2.4323
X4.5276Y-3.7626
X4.5276Y-4.0626
X4.5276Y-4.7098
X4.5276Y-5.0098
X4.5453Y-3.5323
X4.5503Y-2.4323
X4.5866Y-4.3307
X4.5866Y-4.4291
X4.7638Y-3.6106
X4.7638Y-3.7106
X4.7638Y-3.8106
X4.7736Y-4.3996
X4.7736Y-4.4996
X4.7736Y-4.5996
T2
X3.9665Y-2.7823
X3.9665Y-2.8823
X3.9665Y-2.9823
X3.9665Y-3.0823
X3.9665Y-3.1823
X4.0665Y-2.7823
X4.0665Y-2.8823
X4.0665Y-2.9823
X4.0665Y-3.0823
X4.0665Y-3.1823
T3
X4.2865Y-2.4223
X4.2865Y-2.7223
X4.2865Y-3.2423
X4.2865Y-3.5423
T4
X4.7539Y-4.0831
X4.7539Y-4.1831
X4.7539Y-4.8295
X4.7539Y-4.9295
X4.7539Y-5.0295
X4.7539Y-5.2445
X4.7539Y-5.3445
T5
X4.7315Y-2.7854
X4.7315Y-2.9823
X4.7315Y-3.1791
T0
M30
