%TF.GenerationSoftware,KiCad,Pcbnew,5.1.9-73d0e3b20d~88~ubuntu20.04.1*%
%TF.CreationDate,2021-03-31T17:04:16-04:00*%
%TF.ProjectId,MFOS_VCLFO_aux,4d464f53-5f56-4434-9c46-4f5f6175782e,rev?*%
%TF.SameCoordinates,Original*%
%TF.FileFunction,Copper,L2,Bot*%
%TF.FilePolarity,Positive*%
%FSLAX46Y46*%
G04 Gerber Fmt 4.6, Leading zero omitted, Abs format (unit mm)*
G04 Created by KiCad (PCBNEW 5.1.9-73d0e3b20d~88~ubuntu20.04.1) date 2021-03-31 17:04:16*
%MOMM*%
%LPD*%
G01*
G04 APERTURE LIST*
%TA.AperFunction,ComponentPad*%
%ADD10C,1.600000*%
%TD*%
%TA.AperFunction,ComponentPad*%
%ADD11O,1.600000X1.600000*%
%TD*%
%TA.AperFunction,ComponentPad*%
%ADD12C,1.440000*%
%TD*%
%TA.AperFunction,ComponentPad*%
%ADD13O,2.400000X1.600000*%
%TD*%
%TA.AperFunction,ComponentPad*%
%ADD14R,2.400000X1.600000*%
%TD*%
%TA.AperFunction,ComponentPad*%
%ADD15R,1.727200X1.727200*%
%TD*%
%TA.AperFunction,ComponentPad*%
%ADD16O,1.727200X1.727200*%
%TD*%
%TA.AperFunction,ComponentPad*%
%ADD17R,1.500000X1.500000*%
%TD*%
%TA.AperFunction,ComponentPad*%
%ADD18C,1.500000*%
%TD*%
%TA.AperFunction,ComponentPad*%
%ADD19R,1.600000X1.600000*%
%TD*%
%TA.AperFunction,ComponentPad*%
%ADD20C,2.500000*%
%TD*%
%TA.AperFunction,ComponentPad*%
%ADD21R,2.500000X2.500000*%
%TD*%
%TA.AperFunction,ComponentPad*%
%ADD22O,2.200000X2.200000*%
%TD*%
%TA.AperFunction,ComponentPad*%
%ADD23R,2.200000X2.200000*%
%TD*%
%TA.AperFunction,ComponentPad*%
%ADD24O,2.200000X1.740000*%
%TD*%
%TA.AperFunction,Conductor*%
%ADD25C,0.750000*%
%TD*%
%TA.AperFunction,Conductor*%
%ADD26C,0.250000*%
%TD*%
%TA.AperFunction,Conductor*%
%ADD27C,0.254000*%
%TD*%
%TA.AperFunction,Conductor*%
%ADD28C,0.100000*%
%TD*%
G04 APERTURE END LIST*
D10*
%TO.P,C4,2*%
%TO.N,Net-(C4-Pad2)*%
X115250000Y-130750000D03*
%TO.P,C4,1*%
%TO.N,Net-(C4-Pad1)*%
X110250000Y-130750000D03*
%TD*%
D11*
%TO.P,R5,2*%
%TO.N,Net-(Q1-Pad2)*%
X110520000Y-95570000D03*
D10*
%TO.P,R5,1*%
%TO.N,Net-(D3-Pad2)*%
X110520000Y-103190000D03*
%TD*%
D11*
%TO.P,R6,2*%
%TO.N,Net-(J8-Pad2)*%
X101500000Y-103250000D03*
D10*
%TO.P,R6,1*%
%TO.N,Net-(Q1-Pad2)*%
X101500000Y-95630000D03*
%TD*%
D12*
%TO.P,RV1,3*%
%TO.N,Net-(Q1-Pad2)*%
X121000000Y-91710000D03*
%TO.P,RV1,2*%
X121000000Y-94250000D03*
%TO.P,RV1,1*%
%TO.N,/PIN1*%
X121000000Y-96790000D03*
%TD*%
D13*
%TO.P,U1,8*%
%TO.N,Net-(U1-Pad8)*%
X113370000Y-107250000D03*
%TO.P,U1,4*%
%TO.N,-12V*%
X105750000Y-114870000D03*
%TO.P,U1,7*%
%TO.N,+12V*%
X113370000Y-109790000D03*
%TO.P,U1,3*%
%TO.N,Net-(C4-Pad1)*%
X105750000Y-112330000D03*
%TO.P,U1,6*%
%TO.N,Net-(D3-Pad1)*%
X113370000Y-112330000D03*
%TO.P,U1,2*%
%TO.N,Net-(R1-Pad2)*%
X105750000Y-109790000D03*
%TO.P,U1,5*%
%TO.N,Net-(U1-Pad5)*%
X113370000Y-114870000D03*
D14*
%TO.P,U1,1*%
%TO.N,Net-(U1-Pad1)*%
X105750000Y-107250000D03*
%TD*%
D10*
%TO.P,C3,2*%
%TO.N,+12V*%
X116500000Y-110000000D03*
%TO.P,C3,1*%
%TO.N,GND*%
X116500000Y-112500000D03*
%TD*%
D15*
%TO.P,J1,1*%
%TO.N,Net-(D2-Pad1)*%
X103290000Y-80830000D03*
D16*
%TO.P,J1,2*%
X100750000Y-80830000D03*
%TO.P,J1,3*%
%TO.N,GND*%
X103290000Y-78290000D03*
%TO.P,J1,4*%
X100750000Y-78290000D03*
%TO.P,J1,5*%
X103290000Y-75750000D03*
%TO.P,J1,6*%
X100750000Y-75750000D03*
%TO.P,J1,7*%
X103290000Y-73210000D03*
%TO.P,J1,8*%
X100750000Y-73210000D03*
%TO.P,J1,9*%
%TO.N,Net-(D1-Pad2)*%
X103290000Y-70670000D03*
%TO.P,J1,10*%
X100750000Y-70670000D03*
%TD*%
D17*
%TO.P,Q1,1*%
%TO.N,/PIN2*%
X121250000Y-111750000D03*
D18*
%TO.P,Q1,3*%
%TO.N,Net-(D3-Pad2)*%
X121250000Y-116830000D03*
%TO.P,Q1,2*%
%TO.N,Net-(Q1-Pad2)*%
X121250000Y-114290000D03*
%TD*%
D10*
%TO.P,C2,2*%
%TO.N,-12V*%
X115450000Y-89720000D03*
D19*
%TO.P,C2,1*%
%TO.N,GND*%
X113450000Y-89720000D03*
%TD*%
D11*
%TO.P,R1,2*%
%TO.N,Net-(R1-Pad2)*%
X110520000Y-119630000D03*
D10*
%TO.P,R1,1*%
%TO.N,GND*%
X110520000Y-127250000D03*
%TD*%
D11*
%TO.P,R2,2*%
%TO.N,+12V*%
X115000000Y-119630000D03*
D10*
%TO.P,R2,1*%
%TO.N,Net-(R1-Pad2)*%
X115000000Y-127250000D03*
%TD*%
D20*
%TO.P,J2,3*%
%TO.N,-12V*%
X120181000Y-80750000D03*
%TO.P,J2,2*%
%TO.N,GND*%
X120181000Y-75750000D03*
D21*
%TO.P,J2,1*%
%TO.N,+12V*%
X120181000Y-70750000D03*
%TD*%
D22*
%TO.P,D1,2*%
%TO.N,Net-(D1-Pad2)*%
X108878000Y-69146000D03*
D23*
%TO.P,D1,1*%
%TO.N,+12V*%
X108878000Y-61526000D03*
%TD*%
D22*
%TO.P,D2,2*%
%TO.N,-12V*%
X108878000Y-89974000D03*
D23*
%TO.P,D2,1*%
%TO.N,Net-(D2-Pad1)*%
X108878000Y-82354000D03*
%TD*%
D11*
%TO.P,R3,2*%
%TO.N,Net-(D3-Pad2)*%
X115000000Y-95570000D03*
D10*
%TO.P,R3,1*%
%TO.N,+12V*%
X115000000Y-103190000D03*
%TD*%
%TO.P,C5,2*%
%TO.N,-12V*%
X102750000Y-115250000D03*
%TO.P,C5,1*%
%TO.N,GND*%
X102750000Y-112750000D03*
%TD*%
%TO.P,C1,2*%
%TO.N,GND*%
X113577000Y-61780000D03*
D19*
%TO.P,C1,1*%
%TO.N,+12V*%
X115577000Y-61780000D03*
%TD*%
D24*
%TO.P,J3,2*%
%TO.N,/PIN1*%
X120750000Y-103710000D03*
%TO.P,J3,1*%
%TO.N,/PIN2*%
%TA.AperFunction,ComponentPad*%
G36*
G01*
X121600001Y-107120000D02*
X119899999Y-107120000D01*
G75*
G02*
X119650000Y-106870001I0J249999D01*
G01*
X119650000Y-105629999D01*
G75*
G02*
X119899999Y-105380000I249999J0D01*
G01*
X121600001Y-105380000D01*
G75*
G02*
X121850000Y-105629999I0J-249999D01*
G01*
X121850000Y-106870001D01*
G75*
G02*
X121600001Y-107120000I-249999J0D01*
G01*
G37*
%TD.AperFunction*%
%TD*%
D11*
%TO.P,D3,2*%
%TO.N,Net-(D3-Pad2)*%
X106000000Y-95630000D03*
D19*
%TO.P,D3,1*%
%TO.N,Net-(D3-Pad1)*%
X106000000Y-103250000D03*
%TD*%
D11*
%TO.P,R4,2*%
%TO.N,GND*%
X106000000Y-119630000D03*
D10*
%TO.P,R4,1*%
%TO.N,Net-(C4-Pad1)*%
X106000000Y-127250000D03*
%TD*%
D24*
%TO.P,J7,2*%
%TO.N,Net-(C4-Pad2)*%
X120750000Y-133210000D03*
%TO.P,J7,1*%
%TO.N,GND*%
%TA.AperFunction,ComponentPad*%
G36*
G01*
X121600001Y-136620000D02*
X119899999Y-136620000D01*
G75*
G02*
X119650000Y-136370001I0J249999D01*
G01*
X119650000Y-135129999D01*
G75*
G02*
X119899999Y-134880000I249999J0D01*
G01*
X121600001Y-134880000D01*
G75*
G02*
X121850000Y-135129999I0J-249999D01*
G01*
X121850000Y-136370001D01*
G75*
G02*
X121600001Y-136620000I-249999J0D01*
G01*
G37*
%TD.AperFunction*%
%TD*%
%TO.P,J8,3*%
%TO.N,-12V*%
X120750000Y-122670000D03*
%TO.P,J8,2*%
%TO.N,Net-(J8-Pad2)*%
X120750000Y-125210000D03*
%TO.P,J8,1*%
%TO.N,+12V*%
%TA.AperFunction,ComponentPad*%
G36*
G01*
X121600001Y-128620000D02*
X119899999Y-128620000D01*
G75*
G02*
X119650000Y-128370001I0J249999D01*
G01*
X119650000Y-127129999D01*
G75*
G02*
X119899999Y-126880000I249999J0D01*
G01*
X121600001Y-126880000D01*
G75*
G02*
X121850000Y-127129999I0J-249999D01*
G01*
X121850000Y-128370001D01*
G75*
G02*
X121600001Y-128620000I-249999J0D01*
G01*
G37*
%TD.AperFunction*%
%TD*%
D25*
%TO.N,+12V*%
X122006001Y-72756001D02*
X122006001Y-88743999D01*
X116290000Y-109790000D02*
X116500000Y-110000000D01*
D26*
X116500000Y-110000000D02*
X118000000Y-111500000D01*
X118000000Y-111500000D02*
X118000000Y-116380000D01*
X118000000Y-116380000D02*
X115000000Y-119380000D01*
X115000000Y-119380000D02*
X115000000Y-119630000D01*
D25*
X115000000Y-103190000D02*
X116500000Y-104690000D01*
X116500000Y-104690000D02*
X116500000Y-110000000D01*
X120181000Y-70750000D02*
X122006001Y-72575001D01*
X117500000Y-93250000D02*
X117500000Y-100440000D01*
X117500000Y-100440000D02*
X115000000Y-102940000D01*
X115000000Y-102940000D02*
X115000000Y-103190000D01*
X122006001Y-88743999D02*
X117500000Y-93250000D01*
X122000000Y-72750000D02*
X122006001Y-72756001D01*
D26*
X120750000Y-127750000D02*
X122425010Y-126074990D01*
X122425010Y-126074990D02*
X122425010Y-120925010D01*
X122425010Y-120925010D02*
X118000000Y-116500000D01*
X118000000Y-116500000D02*
X118000000Y-116250000D01*
D25*
X113370000Y-109790000D02*
X116290000Y-109790000D01*
%TO.N,-12V*%
X107750000Y-91250000D02*
X107750000Y-112870000D01*
D26*
X120750000Y-122670000D02*
X114670000Y-122670000D01*
X112500000Y-120500000D02*
X112500000Y-118795002D01*
X114670000Y-122670000D02*
X112500000Y-120500000D01*
X112500000Y-118795002D02*
X107310000Y-113605002D01*
X107310000Y-113605002D02*
X107310000Y-113310000D01*
D25*
X107310000Y-113310000D02*
X105750000Y-114870000D01*
X108878000Y-89974000D02*
X107750000Y-91102000D01*
X102750000Y-115250000D02*
X105370000Y-115250000D01*
X105370000Y-115250000D02*
X105750000Y-114870000D01*
X107750000Y-112870000D02*
X107310000Y-113310000D01*
%TD*%
D27*
%TO.N,GND*%
X125065001Y-141665000D02*
X96435000Y-141665000D01*
X96435000Y-138129872D01*
X97515000Y-138129872D01*
X97515000Y-138570128D01*
X97600890Y-139001925D01*
X97769369Y-139408669D01*
X98013962Y-139774729D01*
X98325271Y-140086038D01*
X98691331Y-140330631D01*
X99098075Y-140499110D01*
X99529872Y-140585000D01*
X99970128Y-140585000D01*
X100401925Y-140499110D01*
X100808669Y-140330631D01*
X101174729Y-140086038D01*
X101486038Y-139774729D01*
X101730631Y-139408669D01*
X101899110Y-139001925D01*
X101985000Y-138570128D01*
X101985000Y-138129872D01*
X101899110Y-137698075D01*
X101730631Y-137291331D01*
X101486038Y-136925271D01*
X101180767Y-136620000D01*
X119011928Y-136620000D01*
X119024188Y-136744482D01*
X119060498Y-136864180D01*
X119119463Y-136974494D01*
X119198815Y-137071185D01*
X119295506Y-137150537D01*
X119405820Y-137209502D01*
X119525518Y-137245812D01*
X119650000Y-137258072D01*
X120464250Y-137255000D01*
X120623000Y-137096250D01*
X120623000Y-135877000D01*
X120877000Y-135877000D01*
X120877000Y-137096250D01*
X121035750Y-137255000D01*
X121850000Y-137258072D01*
X121974482Y-137245812D01*
X122094180Y-137209502D01*
X122204494Y-137150537D01*
X122301185Y-137071185D01*
X122380537Y-136974494D01*
X122439502Y-136864180D01*
X122475812Y-136744482D01*
X122488072Y-136620000D01*
X122485000Y-136035750D01*
X122326250Y-135877000D01*
X120877000Y-135877000D01*
X120623000Y-135877000D01*
X119173750Y-135877000D01*
X119015000Y-136035750D01*
X119011928Y-136620000D01*
X101180767Y-136620000D01*
X101174729Y-136613962D01*
X100808669Y-136369369D01*
X100401925Y-136200890D01*
X99970128Y-136115000D01*
X99529872Y-136115000D01*
X99098075Y-136200890D01*
X98691331Y-136369369D01*
X98325271Y-136613962D01*
X98013962Y-136925271D01*
X97769369Y-137291331D01*
X97600890Y-137698075D01*
X97515000Y-138129872D01*
X96435000Y-138129872D01*
X96435000Y-133210000D01*
X119007718Y-133210000D01*
X119036776Y-133505032D01*
X119122834Y-133788725D01*
X119262583Y-134050179D01*
X119449047Y-134277385D01*
X119405820Y-134290498D01*
X119295506Y-134349463D01*
X119198815Y-134428815D01*
X119119463Y-134525506D01*
X119060498Y-134635820D01*
X119024188Y-134755518D01*
X119011928Y-134880000D01*
X119015000Y-135464250D01*
X119173750Y-135623000D01*
X120623000Y-135623000D01*
X120623000Y-135603000D01*
X120877000Y-135603000D01*
X120877000Y-135623000D01*
X122326250Y-135623000D01*
X122485000Y-135464250D01*
X122488072Y-134880000D01*
X122475812Y-134755518D01*
X122439502Y-134635820D01*
X122380537Y-134525506D01*
X122301185Y-134428815D01*
X122204494Y-134349463D01*
X122094180Y-134290498D01*
X122050953Y-134277385D01*
X122237417Y-134050179D01*
X122377166Y-133788725D01*
X122463224Y-133505032D01*
X122492282Y-133210000D01*
X122463224Y-132914968D01*
X122377166Y-132631275D01*
X122237417Y-132369821D01*
X122049345Y-132140655D01*
X121820179Y-131952583D01*
X121558725Y-131812834D01*
X121275032Y-131726776D01*
X121053936Y-131705000D01*
X120446064Y-131705000D01*
X120224968Y-131726776D01*
X119941275Y-131812834D01*
X119679821Y-131952583D01*
X119450655Y-132140655D01*
X119262583Y-132369821D01*
X119122834Y-132631275D01*
X119036776Y-132914968D01*
X119007718Y-133210000D01*
X96435000Y-133210000D01*
X96435000Y-130608665D01*
X108815000Y-130608665D01*
X108815000Y-130891335D01*
X108870147Y-131168574D01*
X108978320Y-131429727D01*
X109135363Y-131664759D01*
X109335241Y-131864637D01*
X109570273Y-132021680D01*
X109831426Y-132129853D01*
X110108665Y-132185000D01*
X110391335Y-132185000D01*
X110668574Y-132129853D01*
X110929727Y-132021680D01*
X111164759Y-131864637D01*
X111364637Y-131664759D01*
X111521680Y-131429727D01*
X111629853Y-131168574D01*
X111685000Y-130891335D01*
X111685000Y-130608665D01*
X113815000Y-130608665D01*
X113815000Y-130891335D01*
X113870147Y-131168574D01*
X113978320Y-131429727D01*
X114135363Y-131664759D01*
X114335241Y-131864637D01*
X114570273Y-132021680D01*
X114831426Y-132129853D01*
X115108665Y-132185000D01*
X115391335Y-132185000D01*
X115668574Y-132129853D01*
X115929727Y-132021680D01*
X116164759Y-131864637D01*
X116364637Y-131664759D01*
X116521680Y-131429727D01*
X116629853Y-131168574D01*
X116685000Y-130891335D01*
X116685000Y-130608665D01*
X116629853Y-130331426D01*
X116521680Y-130070273D01*
X116364637Y-129835241D01*
X116164759Y-129635363D01*
X115929727Y-129478320D01*
X115668574Y-129370147D01*
X115391335Y-129315000D01*
X115108665Y-129315000D01*
X114831426Y-129370147D01*
X114570273Y-129478320D01*
X114335241Y-129635363D01*
X114135363Y-129835241D01*
X113978320Y-130070273D01*
X113870147Y-130331426D01*
X113815000Y-130608665D01*
X111685000Y-130608665D01*
X111629853Y-130331426D01*
X111521680Y-130070273D01*
X111364637Y-129835241D01*
X111164759Y-129635363D01*
X110929727Y-129478320D01*
X110668574Y-129370147D01*
X110391335Y-129315000D01*
X110108665Y-129315000D01*
X109831426Y-129370147D01*
X109570273Y-129478320D01*
X109335241Y-129635363D01*
X109135363Y-129835241D01*
X108978320Y-130070273D01*
X108870147Y-130331426D01*
X108815000Y-130608665D01*
X96435000Y-130608665D01*
X96435000Y-127108665D01*
X104565000Y-127108665D01*
X104565000Y-127391335D01*
X104620147Y-127668574D01*
X104728320Y-127929727D01*
X104885363Y-128164759D01*
X105085241Y-128364637D01*
X105320273Y-128521680D01*
X105581426Y-128629853D01*
X105858665Y-128685000D01*
X106141335Y-128685000D01*
X106418574Y-128629853D01*
X106679727Y-128521680D01*
X106914759Y-128364637D01*
X107036694Y-128242702D01*
X109706903Y-128242702D01*
X109778486Y-128486671D01*
X110033996Y-128607571D01*
X110308184Y-128676300D01*
X110590512Y-128690217D01*
X110870130Y-128648787D01*
X111136292Y-128553603D01*
X111261514Y-128486671D01*
X111333097Y-128242702D01*
X110520000Y-127429605D01*
X109706903Y-128242702D01*
X107036694Y-128242702D01*
X107114637Y-128164759D01*
X107271680Y-127929727D01*
X107379853Y-127668574D01*
X107435000Y-127391335D01*
X107435000Y-127320512D01*
X109079783Y-127320512D01*
X109121213Y-127600130D01*
X109216397Y-127866292D01*
X109283329Y-127991514D01*
X109527298Y-128063097D01*
X110340395Y-127250000D01*
X110699605Y-127250000D01*
X111512702Y-128063097D01*
X111756671Y-127991514D01*
X111877571Y-127736004D01*
X111946300Y-127461816D01*
X111960217Y-127179488D01*
X111949724Y-127108665D01*
X113565000Y-127108665D01*
X113565000Y-127391335D01*
X113620147Y-127668574D01*
X113728320Y-127929727D01*
X113885363Y-128164759D01*
X114085241Y-128364637D01*
X114320273Y-128521680D01*
X114581426Y-128629853D01*
X114858665Y-128685000D01*
X115141335Y-128685000D01*
X115418574Y-128629853D01*
X115679727Y-128521680D01*
X115914759Y-128364637D01*
X116114637Y-128164759D01*
X116271680Y-127929727D01*
X116379853Y-127668574D01*
X116435000Y-127391335D01*
X116435000Y-127108665D01*
X116379853Y-126831426D01*
X116271680Y-126570273D01*
X116114637Y-126335241D01*
X115914759Y-126135363D01*
X115679727Y-125978320D01*
X115418574Y-125870147D01*
X115141335Y-125815000D01*
X114858665Y-125815000D01*
X114581426Y-125870147D01*
X114320273Y-125978320D01*
X114085241Y-126135363D01*
X113885363Y-126335241D01*
X113728320Y-126570273D01*
X113620147Y-126831426D01*
X113565000Y-127108665D01*
X111949724Y-127108665D01*
X111918787Y-126899870D01*
X111823603Y-126633708D01*
X111756671Y-126508486D01*
X111512702Y-126436903D01*
X110699605Y-127250000D01*
X110340395Y-127250000D01*
X109527298Y-126436903D01*
X109283329Y-126508486D01*
X109162429Y-126763996D01*
X109093700Y-127038184D01*
X109079783Y-127320512D01*
X107435000Y-127320512D01*
X107435000Y-127108665D01*
X107379853Y-126831426D01*
X107271680Y-126570273D01*
X107114637Y-126335241D01*
X107036694Y-126257298D01*
X109706903Y-126257298D01*
X110520000Y-127070395D01*
X111333097Y-126257298D01*
X111261514Y-126013329D01*
X111006004Y-125892429D01*
X110731816Y-125823700D01*
X110449488Y-125809783D01*
X110169870Y-125851213D01*
X109903708Y-125946397D01*
X109778486Y-126013329D01*
X109706903Y-126257298D01*
X107036694Y-126257298D01*
X106914759Y-126135363D01*
X106679727Y-125978320D01*
X106418574Y-125870147D01*
X106141335Y-125815000D01*
X105858665Y-125815000D01*
X105581426Y-125870147D01*
X105320273Y-125978320D01*
X105085241Y-126135363D01*
X104885363Y-126335241D01*
X104728320Y-126570273D01*
X104620147Y-126831426D01*
X104565000Y-127108665D01*
X96435000Y-127108665D01*
X96435000Y-119979040D01*
X104608091Y-119979040D01*
X104702930Y-120243881D01*
X104847615Y-120485131D01*
X105036586Y-120693519D01*
X105262580Y-120861037D01*
X105516913Y-120981246D01*
X105650961Y-121021904D01*
X105873000Y-120899915D01*
X105873000Y-119757000D01*
X106127000Y-119757000D01*
X106127000Y-120899915D01*
X106349039Y-121021904D01*
X106483087Y-120981246D01*
X106737420Y-120861037D01*
X106963414Y-120693519D01*
X107152385Y-120485131D01*
X107297070Y-120243881D01*
X107391909Y-119979040D01*
X107270624Y-119757000D01*
X106127000Y-119757000D01*
X105873000Y-119757000D01*
X104729376Y-119757000D01*
X104608091Y-119979040D01*
X96435000Y-119979040D01*
X96435000Y-119280960D01*
X104608091Y-119280960D01*
X104729376Y-119503000D01*
X105873000Y-119503000D01*
X105873000Y-118360085D01*
X106127000Y-118360085D01*
X106127000Y-119503000D01*
X107270624Y-119503000D01*
X107391909Y-119280960D01*
X107297070Y-119016119D01*
X107152385Y-118774869D01*
X106963414Y-118566481D01*
X106737420Y-118398963D01*
X106483087Y-118278754D01*
X106349039Y-118238096D01*
X106127000Y-118360085D01*
X105873000Y-118360085D01*
X105650961Y-118238096D01*
X105516913Y-118278754D01*
X105262580Y-118398963D01*
X105036586Y-118566481D01*
X104847615Y-118774869D01*
X104702930Y-119016119D01*
X104608091Y-119280960D01*
X96435000Y-119280960D01*
X96435000Y-115108665D01*
X101315000Y-115108665D01*
X101315000Y-115391335D01*
X101370147Y-115668574D01*
X101478320Y-115929727D01*
X101635363Y-116164759D01*
X101835241Y-116364637D01*
X102070273Y-116521680D01*
X102331426Y-116629853D01*
X102608665Y-116685000D01*
X102891335Y-116685000D01*
X103168574Y-116629853D01*
X103429727Y-116521680D01*
X103664759Y-116364637D01*
X103769396Y-116260000D01*
X104988795Y-116260000D01*
X105068691Y-116284236D01*
X105279508Y-116305000D01*
X106220492Y-116305000D01*
X106431309Y-116284236D01*
X106701808Y-116202182D01*
X106951101Y-116068932D01*
X107169608Y-115889608D01*
X107348932Y-115671101D01*
X107482182Y-115421808D01*
X107564236Y-115151309D01*
X107583717Y-114953520D01*
X110865883Y-118235688D01*
X110661335Y-118195000D01*
X110378665Y-118195000D01*
X110101426Y-118250147D01*
X109840273Y-118358320D01*
X109605241Y-118515363D01*
X109405363Y-118715241D01*
X109248320Y-118950273D01*
X109140147Y-119211426D01*
X109085000Y-119488665D01*
X109085000Y-119771335D01*
X109140147Y-120048574D01*
X109248320Y-120309727D01*
X109405363Y-120544759D01*
X109605241Y-120744637D01*
X109840273Y-120901680D01*
X110101426Y-121009853D01*
X110378665Y-121065000D01*
X110661335Y-121065000D01*
X110938574Y-121009853D01*
X111199727Y-120901680D01*
X111434759Y-120744637D01*
X111634637Y-120544759D01*
X111740000Y-120387072D01*
X111740000Y-120462677D01*
X111736324Y-120500000D01*
X111740000Y-120537322D01*
X111740000Y-120537332D01*
X111750997Y-120648985D01*
X111789533Y-120776023D01*
X111794454Y-120792246D01*
X111865026Y-120924276D01*
X111865628Y-120925009D01*
X111959999Y-121040001D01*
X111989002Y-121063804D01*
X114106205Y-123181008D01*
X114129999Y-123210001D01*
X114158992Y-123233795D01*
X114158996Y-123233799D01*
X114177184Y-123248725D01*
X114245724Y-123304974D01*
X114377753Y-123375546D01*
X114521014Y-123419003D01*
X114632667Y-123430000D01*
X114632676Y-123430000D01*
X114669999Y-123433676D01*
X114707322Y-123430000D01*
X119219727Y-123430000D01*
X119262583Y-123510179D01*
X119450655Y-123739345D01*
X119679821Y-123927417D01*
X119703362Y-123940000D01*
X119679821Y-123952583D01*
X119450655Y-124140655D01*
X119262583Y-124369821D01*
X119122834Y-124631275D01*
X119036776Y-124914968D01*
X119007718Y-125210000D01*
X119036776Y-125505032D01*
X119122834Y-125788725D01*
X119262583Y-126050179D01*
X119450655Y-126279345D01*
X119516114Y-126333066D01*
X119406613Y-126391595D01*
X119272038Y-126502038D01*
X119161595Y-126636613D01*
X119079528Y-126790149D01*
X119028992Y-126956745D01*
X119011928Y-127129999D01*
X119011928Y-128370001D01*
X119028992Y-128543255D01*
X119079528Y-128709851D01*
X119161595Y-128863387D01*
X119272038Y-128997962D01*
X119406613Y-129108405D01*
X119560149Y-129190472D01*
X119726745Y-129241008D01*
X119899999Y-129258072D01*
X121600001Y-129258072D01*
X121773255Y-129241008D01*
X121939851Y-129190472D01*
X122093387Y-129108405D01*
X122227962Y-128997962D01*
X122338405Y-128863387D01*
X122420472Y-128709851D01*
X122471008Y-128543255D01*
X122488072Y-128370001D01*
X122488072Y-127129999D01*
X122484192Y-127090609D01*
X122936014Y-126638788D01*
X122965011Y-126614991D01*
X123059984Y-126499266D01*
X123130556Y-126367237D01*
X123174013Y-126223976D01*
X123185010Y-126112323D01*
X123185010Y-126112313D01*
X123188686Y-126074990D01*
X123185010Y-126037667D01*
X123185010Y-120962332D01*
X123188686Y-120925009D01*
X123185010Y-120887686D01*
X123185010Y-120887677D01*
X123174013Y-120776024D01*
X123130556Y-120632763D01*
X123059984Y-120500733D01*
X122988809Y-120414007D01*
X122965011Y-120385009D01*
X122936013Y-120361211D01*
X120659195Y-118084393D01*
X120846011Y-118161775D01*
X121113589Y-118215000D01*
X121386411Y-118215000D01*
X121653989Y-118161775D01*
X121906043Y-118057371D01*
X122132886Y-117905799D01*
X122325799Y-117712886D01*
X122477371Y-117486043D01*
X122581775Y-117233989D01*
X122635000Y-116966411D01*
X122635000Y-116693589D01*
X122581775Y-116426011D01*
X122477371Y-116173957D01*
X122325799Y-115947114D01*
X122132886Y-115754201D01*
X121906043Y-115602629D01*
X121803127Y-115560000D01*
X121906043Y-115517371D01*
X122132886Y-115365799D01*
X122325799Y-115172886D01*
X122477371Y-114946043D01*
X122581775Y-114693989D01*
X122635000Y-114426411D01*
X122635000Y-114153589D01*
X122581775Y-113886011D01*
X122477371Y-113633957D01*
X122325799Y-113407114D01*
X122132886Y-113214201D01*
X122016517Y-113136445D01*
X122124482Y-113125812D01*
X122244180Y-113089502D01*
X122354494Y-113030537D01*
X122451185Y-112951185D01*
X122530537Y-112854494D01*
X122589502Y-112744180D01*
X122625812Y-112624482D01*
X122638072Y-112500000D01*
X122638072Y-111000000D01*
X122625812Y-110875518D01*
X122589502Y-110755820D01*
X122530537Y-110645506D01*
X122451185Y-110548815D01*
X122354494Y-110469463D01*
X122244180Y-110410498D01*
X122124482Y-110374188D01*
X122000000Y-110361928D01*
X120500000Y-110361928D01*
X120375518Y-110374188D01*
X120255820Y-110410498D01*
X120145506Y-110469463D01*
X120048815Y-110548815D01*
X119969463Y-110645506D01*
X119910498Y-110755820D01*
X119874188Y-110875518D01*
X119861928Y-111000000D01*
X119861928Y-112500000D01*
X119874188Y-112624482D01*
X119910498Y-112744180D01*
X119969463Y-112854494D01*
X120048815Y-112951185D01*
X120145506Y-113030537D01*
X120255820Y-113089502D01*
X120375518Y-113125812D01*
X120483483Y-113136445D01*
X120367114Y-113214201D01*
X120174201Y-113407114D01*
X120022629Y-113633957D01*
X119918225Y-113886011D01*
X119865000Y-114153589D01*
X119865000Y-114426411D01*
X119918225Y-114693989D01*
X120022629Y-114946043D01*
X120174201Y-115172886D01*
X120367114Y-115365799D01*
X120593957Y-115517371D01*
X120696873Y-115560000D01*
X120593957Y-115602629D01*
X120367114Y-115754201D01*
X120174201Y-115947114D01*
X120022629Y-116173957D01*
X119918225Y-116426011D01*
X119865000Y-116693589D01*
X119865000Y-116966411D01*
X119918225Y-117233989D01*
X119995607Y-117420805D01*
X118760000Y-116185199D01*
X118760000Y-111537322D01*
X118763676Y-111499999D01*
X118760000Y-111462676D01*
X118760000Y-111462667D01*
X118749003Y-111351014D01*
X118705546Y-111207753D01*
X118634974Y-111075724D01*
X118540001Y-110959999D01*
X118511004Y-110936202D01*
X117898688Y-110323886D01*
X117935000Y-110141335D01*
X117935000Y-109858665D01*
X117879853Y-109581426D01*
X117771680Y-109320273D01*
X117614637Y-109085241D01*
X117510000Y-108980604D01*
X117510000Y-104739604D01*
X117514886Y-104689999D01*
X117508484Y-104625000D01*
X117495385Y-104492006D01*
X117437632Y-104301620D01*
X117343847Y-104126160D01*
X117217633Y-103972367D01*
X117179094Y-103940739D01*
X116948355Y-103710000D01*
X119007718Y-103710000D01*
X119036776Y-104005032D01*
X119122834Y-104288725D01*
X119262583Y-104550179D01*
X119450655Y-104779345D01*
X119516114Y-104833066D01*
X119406613Y-104891595D01*
X119272038Y-105002038D01*
X119161595Y-105136613D01*
X119079528Y-105290149D01*
X119028992Y-105456745D01*
X119011928Y-105629999D01*
X119011928Y-106870001D01*
X119028992Y-107043255D01*
X119079528Y-107209851D01*
X119161595Y-107363387D01*
X119272038Y-107497962D01*
X119406613Y-107608405D01*
X119560149Y-107690472D01*
X119726745Y-107741008D01*
X119899999Y-107758072D01*
X121600001Y-107758072D01*
X121773255Y-107741008D01*
X121939851Y-107690472D01*
X122093387Y-107608405D01*
X122227962Y-107497962D01*
X122338405Y-107363387D01*
X122420472Y-107209851D01*
X122471008Y-107043255D01*
X122488072Y-106870001D01*
X122488072Y-105629999D01*
X122471008Y-105456745D01*
X122420472Y-105290149D01*
X122338405Y-105136613D01*
X122227962Y-105002038D01*
X122093387Y-104891595D01*
X121983886Y-104833066D01*
X122049345Y-104779345D01*
X122237417Y-104550179D01*
X122377166Y-104288725D01*
X122463224Y-104005032D01*
X122492282Y-103710000D01*
X122463224Y-103414968D01*
X122377166Y-103131275D01*
X122237417Y-102869821D01*
X122049345Y-102640655D01*
X121820179Y-102452583D01*
X121558725Y-102312834D01*
X121275032Y-102226776D01*
X121053936Y-102205000D01*
X120446064Y-102205000D01*
X120224968Y-102226776D01*
X119941275Y-102312834D01*
X119679821Y-102452583D01*
X119450655Y-102640655D01*
X119262583Y-102869821D01*
X119122834Y-103131275D01*
X119036776Y-103414968D01*
X119007718Y-103710000D01*
X116948355Y-103710000D01*
X116435000Y-103196645D01*
X116435000Y-103048665D01*
X116415869Y-102952487D01*
X118179100Y-101189256D01*
X118217633Y-101157633D01*
X118343847Y-101003840D01*
X118437632Y-100828380D01*
X118495385Y-100637994D01*
X118510000Y-100489608D01*
X118514886Y-100440000D01*
X118510000Y-100390392D01*
X118510000Y-93668355D01*
X119810153Y-92368203D01*
X119947503Y-92573762D01*
X120136238Y-92762497D01*
X120358167Y-92910785D01*
X120525266Y-92980000D01*
X120358167Y-93049215D01*
X120136238Y-93197503D01*
X119947503Y-93386238D01*
X119799215Y-93608167D01*
X119697072Y-93854761D01*
X119645000Y-94116544D01*
X119645000Y-94383456D01*
X119697072Y-94645239D01*
X119799215Y-94891833D01*
X119947503Y-95113762D01*
X120136238Y-95302497D01*
X120358167Y-95450785D01*
X120525266Y-95520000D01*
X120358167Y-95589215D01*
X120136238Y-95737503D01*
X119947503Y-95926238D01*
X119799215Y-96148167D01*
X119697072Y-96394761D01*
X119645000Y-96656544D01*
X119645000Y-96923456D01*
X119697072Y-97185239D01*
X119799215Y-97431833D01*
X119947503Y-97653762D01*
X120136238Y-97842497D01*
X120358167Y-97990785D01*
X120604761Y-98092928D01*
X120866544Y-98145000D01*
X121133456Y-98145000D01*
X121395239Y-98092928D01*
X121641833Y-97990785D01*
X121863762Y-97842497D01*
X122052497Y-97653762D01*
X122200785Y-97431833D01*
X122302928Y-97185239D01*
X122355000Y-96923456D01*
X122355000Y-96656544D01*
X122302928Y-96394761D01*
X122200785Y-96148167D01*
X122052497Y-95926238D01*
X121863762Y-95737503D01*
X121641833Y-95589215D01*
X121474734Y-95520000D01*
X121641833Y-95450785D01*
X121863762Y-95302497D01*
X122052497Y-95113762D01*
X122200785Y-94891833D01*
X122302928Y-94645239D01*
X122355000Y-94383456D01*
X122355000Y-94116544D01*
X122302928Y-93854761D01*
X122200785Y-93608167D01*
X122052497Y-93386238D01*
X121863762Y-93197503D01*
X121641833Y-93049215D01*
X121474734Y-92980000D01*
X121641833Y-92910785D01*
X121863762Y-92762497D01*
X122052497Y-92573762D01*
X122200785Y-92351833D01*
X122302928Y-92105239D01*
X122355000Y-91843456D01*
X122355000Y-91576544D01*
X122302928Y-91314761D01*
X122200785Y-91068167D01*
X122052497Y-90846238D01*
X121863762Y-90657503D01*
X121658203Y-90520153D01*
X122685101Y-89493255D01*
X122723634Y-89461632D01*
X122849848Y-89307839D01*
X122943633Y-89132379D01*
X122990277Y-88978615D01*
X123001386Y-88941994D01*
X123020887Y-88743999D01*
X123016001Y-88694391D01*
X123016001Y-72805609D01*
X123020887Y-72756001D01*
X123011973Y-72665498D01*
X123020887Y-72575000D01*
X123001385Y-72377006D01*
X122943632Y-72186621D01*
X122849847Y-72011160D01*
X122755256Y-71895901D01*
X122069072Y-71209717D01*
X122069072Y-69500000D01*
X122056812Y-69375518D01*
X122020502Y-69255820D01*
X121961537Y-69145506D01*
X121882185Y-69048815D01*
X121785494Y-68969463D01*
X121675180Y-68910498D01*
X121555482Y-68874188D01*
X121431000Y-68861928D01*
X118931000Y-68861928D01*
X118806518Y-68874188D01*
X118686820Y-68910498D01*
X118576506Y-68969463D01*
X118479815Y-69048815D01*
X118400463Y-69145506D01*
X118341498Y-69255820D01*
X118305188Y-69375518D01*
X118292928Y-69500000D01*
X118292928Y-72000000D01*
X118305188Y-72124482D01*
X118341498Y-72244180D01*
X118400463Y-72354494D01*
X118479815Y-72451185D01*
X118576506Y-72530537D01*
X118686820Y-72589502D01*
X118806518Y-72625812D01*
X118931000Y-72638072D01*
X120640717Y-72638072D01*
X120996001Y-72993356D01*
X120996001Y-74050026D01*
X120856874Y-73980567D01*
X120498688Y-73882710D01*
X120128294Y-73856611D01*
X119759925Y-73903275D01*
X119407738Y-74020906D01*
X119172914Y-74146423D01*
X119047000Y-74436395D01*
X120181000Y-75570395D01*
X120195143Y-75556253D01*
X120374748Y-75735858D01*
X120360605Y-75750000D01*
X120374748Y-75764143D01*
X120195143Y-75943748D01*
X120181000Y-75929605D01*
X119047000Y-77063605D01*
X119172914Y-77353577D01*
X119505126Y-77519433D01*
X119863312Y-77617290D01*
X120233706Y-77643389D01*
X120602075Y-77596725D01*
X120954262Y-77479094D01*
X120996001Y-77456784D01*
X120996001Y-79047275D01*
X120730834Y-78937439D01*
X120366656Y-78865000D01*
X119995344Y-78865000D01*
X119631166Y-78937439D01*
X119288118Y-79079534D01*
X118979382Y-79285825D01*
X118716825Y-79548382D01*
X118510534Y-79857118D01*
X118368439Y-80200166D01*
X118296000Y-80564344D01*
X118296000Y-80935656D01*
X118368439Y-81299834D01*
X118510534Y-81642882D01*
X118716825Y-81951618D01*
X118979382Y-82214175D01*
X119288118Y-82420466D01*
X119631166Y-82562561D01*
X119995344Y-82635000D01*
X120366656Y-82635000D01*
X120730834Y-82562561D01*
X120996002Y-82452725D01*
X120996002Y-88325642D01*
X116820906Y-92500739D01*
X116782367Y-92532367D01*
X116656153Y-92686160D01*
X116562369Y-92861620D01*
X116562368Y-92861621D01*
X116504615Y-93052006D01*
X116485114Y-93250000D01*
X116490000Y-93299608D01*
X116490001Y-100021643D01*
X114731312Y-101780332D01*
X114581426Y-101810147D01*
X114320273Y-101918320D01*
X114085241Y-102075363D01*
X113885363Y-102275241D01*
X113728320Y-102510273D01*
X113620147Y-102771426D01*
X113565000Y-103048665D01*
X113565000Y-103331335D01*
X113620147Y-103608574D01*
X113728320Y-103869727D01*
X113885363Y-104104759D01*
X114085241Y-104304637D01*
X114320273Y-104461680D01*
X114581426Y-104569853D01*
X114858665Y-104625000D01*
X115006645Y-104625000D01*
X115490000Y-105108355D01*
X115490001Y-108780000D01*
X114797493Y-108780000D01*
X114789608Y-108770392D01*
X114571101Y-108591068D01*
X114438142Y-108520000D01*
X114571101Y-108448932D01*
X114789608Y-108269608D01*
X114968932Y-108051101D01*
X115102182Y-107801808D01*
X115184236Y-107531309D01*
X115211943Y-107250000D01*
X115184236Y-106968691D01*
X115102182Y-106698192D01*
X114968932Y-106448899D01*
X114789608Y-106230392D01*
X114571101Y-106051068D01*
X114321808Y-105917818D01*
X114051309Y-105835764D01*
X113840492Y-105815000D01*
X112899508Y-105815000D01*
X112688691Y-105835764D01*
X112418192Y-105917818D01*
X112168899Y-106051068D01*
X111950392Y-106230392D01*
X111771068Y-106448899D01*
X111637818Y-106698192D01*
X111555764Y-106968691D01*
X111528057Y-107250000D01*
X111555764Y-107531309D01*
X111637818Y-107801808D01*
X111771068Y-108051101D01*
X111950392Y-108269608D01*
X112168899Y-108448932D01*
X112301858Y-108520000D01*
X112168899Y-108591068D01*
X111950392Y-108770392D01*
X111771068Y-108988899D01*
X111637818Y-109238192D01*
X111555764Y-109508691D01*
X111528057Y-109790000D01*
X111555764Y-110071309D01*
X111637818Y-110341808D01*
X111771068Y-110591101D01*
X111950392Y-110809608D01*
X112168899Y-110988932D01*
X112301858Y-111060000D01*
X112168899Y-111131068D01*
X111950392Y-111310392D01*
X111771068Y-111528899D01*
X111637818Y-111778192D01*
X111555764Y-112048691D01*
X111528057Y-112330000D01*
X111555764Y-112611309D01*
X111637818Y-112881808D01*
X111771068Y-113131101D01*
X111950392Y-113349608D01*
X112168899Y-113528932D01*
X112301858Y-113600000D01*
X112168899Y-113671068D01*
X111950392Y-113850392D01*
X111771068Y-114068899D01*
X111637818Y-114318192D01*
X111555764Y-114588691D01*
X111528057Y-114870000D01*
X111555764Y-115151309D01*
X111637818Y-115421808D01*
X111771068Y-115671101D01*
X111950392Y-115889608D01*
X112168899Y-116068932D01*
X112418192Y-116202182D01*
X112688691Y-116284236D01*
X112899508Y-116305000D01*
X113840492Y-116305000D01*
X114051309Y-116284236D01*
X114321808Y-116202182D01*
X114571101Y-116068932D01*
X114789608Y-115889608D01*
X114968932Y-115671101D01*
X115102182Y-115421808D01*
X115184236Y-115151309D01*
X115211943Y-114870000D01*
X115184236Y-114588691D01*
X115102182Y-114318192D01*
X114968932Y-114068899D01*
X114789608Y-113850392D01*
X114571101Y-113671068D01*
X114438142Y-113600000D01*
X114571101Y-113528932D01*
X114789608Y-113349608D01*
X114968932Y-113131101D01*
X115102182Y-112881808D01*
X115106936Y-112866134D01*
X115196397Y-113116292D01*
X115263329Y-113241514D01*
X115507298Y-113313097D01*
X116320395Y-112500000D01*
X115507298Y-111686903D01*
X115263329Y-111758486D01*
X115161491Y-111973710D01*
X115102182Y-111778192D01*
X114968932Y-111528899D01*
X114789608Y-111310392D01*
X114571101Y-111131068D01*
X114438142Y-111060000D01*
X114571101Y-110988932D01*
X114789608Y-110809608D01*
X114797493Y-110800000D01*
X115308684Y-110800000D01*
X115385363Y-110914759D01*
X115585241Y-111114637D01*
X115785869Y-111248692D01*
X115758486Y-111263329D01*
X115686903Y-111507298D01*
X116500000Y-112320395D01*
X116514143Y-112306253D01*
X116693748Y-112485858D01*
X116679605Y-112500000D01*
X116693748Y-112514143D01*
X116514143Y-112693748D01*
X116500000Y-112679605D01*
X115686903Y-113492702D01*
X115758486Y-113736671D01*
X116013996Y-113857571D01*
X116288184Y-113926300D01*
X116570512Y-113940217D01*
X116850130Y-113898787D01*
X117116292Y-113803603D01*
X117240000Y-113737480D01*
X117240001Y-116065197D01*
X115110199Y-118195000D01*
X114858665Y-118195000D01*
X114581426Y-118250147D01*
X114320273Y-118358320D01*
X114085241Y-118515363D01*
X113885363Y-118715241D01*
X113728320Y-118950273D01*
X113620147Y-119211426D01*
X113565000Y-119488665D01*
X113565000Y-119771335D01*
X113620147Y-120048574D01*
X113728320Y-120309727D01*
X113885363Y-120544759D01*
X114085241Y-120744637D01*
X114320273Y-120901680D01*
X114581426Y-121009853D01*
X114858665Y-121065000D01*
X115141335Y-121065000D01*
X115418574Y-121009853D01*
X115679727Y-120901680D01*
X115914759Y-120744637D01*
X116114637Y-120544759D01*
X116271680Y-120309727D01*
X116379853Y-120048574D01*
X116435000Y-119771335D01*
X116435000Y-119488665D01*
X116379853Y-119211426D01*
X116339880Y-119114922D01*
X117940000Y-117514801D01*
X121665011Y-121239813D01*
X121665011Y-121329645D01*
X121558725Y-121272834D01*
X121275032Y-121186776D01*
X121053936Y-121165000D01*
X120446064Y-121165000D01*
X120224968Y-121186776D01*
X119941275Y-121272834D01*
X119679821Y-121412583D01*
X119450655Y-121600655D01*
X119262583Y-121829821D01*
X119219727Y-121910000D01*
X114984803Y-121910000D01*
X113260000Y-120185199D01*
X113260000Y-118832324D01*
X113263676Y-118795001D01*
X113260000Y-118757678D01*
X113260000Y-118757669D01*
X113249003Y-118646016D01*
X113205546Y-118502755D01*
X113134974Y-118370726D01*
X113121811Y-118354687D01*
X113063799Y-118283998D01*
X113063795Y-118283994D01*
X113040001Y-118255001D01*
X113011008Y-118231207D01*
X108414077Y-113634278D01*
X108429094Y-113619261D01*
X108467633Y-113587633D01*
X108593847Y-113433840D01*
X108687632Y-113258380D01*
X108711188Y-113180726D01*
X108745385Y-113067995D01*
X108764886Y-112870000D01*
X108760000Y-112820392D01*
X108760000Y-103048665D01*
X109085000Y-103048665D01*
X109085000Y-103331335D01*
X109140147Y-103608574D01*
X109248320Y-103869727D01*
X109405363Y-104104759D01*
X109605241Y-104304637D01*
X109840273Y-104461680D01*
X110101426Y-104569853D01*
X110378665Y-104625000D01*
X110661335Y-104625000D01*
X110938574Y-104569853D01*
X111199727Y-104461680D01*
X111434759Y-104304637D01*
X111634637Y-104104759D01*
X111791680Y-103869727D01*
X111899853Y-103608574D01*
X111955000Y-103331335D01*
X111955000Y-103048665D01*
X111899853Y-102771426D01*
X111791680Y-102510273D01*
X111634637Y-102275241D01*
X111434759Y-102075363D01*
X111199727Y-101918320D01*
X110938574Y-101810147D01*
X110661335Y-101755000D01*
X110378665Y-101755000D01*
X110101426Y-101810147D01*
X109840273Y-101918320D01*
X109605241Y-102075363D01*
X109405363Y-102275241D01*
X109248320Y-102510273D01*
X109140147Y-102771426D01*
X109085000Y-103048665D01*
X108760000Y-103048665D01*
X108760000Y-95428665D01*
X109085000Y-95428665D01*
X109085000Y-95711335D01*
X109140147Y-95988574D01*
X109248320Y-96249727D01*
X109405363Y-96484759D01*
X109605241Y-96684637D01*
X109840273Y-96841680D01*
X110101426Y-96949853D01*
X110378665Y-97005000D01*
X110661335Y-97005000D01*
X110938574Y-96949853D01*
X111199727Y-96841680D01*
X111434759Y-96684637D01*
X111634637Y-96484759D01*
X111791680Y-96249727D01*
X111899853Y-95988574D01*
X111955000Y-95711335D01*
X111955000Y-95428665D01*
X113565000Y-95428665D01*
X113565000Y-95711335D01*
X113620147Y-95988574D01*
X113728320Y-96249727D01*
X113885363Y-96484759D01*
X114085241Y-96684637D01*
X114320273Y-96841680D01*
X114581426Y-96949853D01*
X114858665Y-97005000D01*
X115141335Y-97005000D01*
X115418574Y-96949853D01*
X115679727Y-96841680D01*
X115914759Y-96684637D01*
X116114637Y-96484759D01*
X116271680Y-96249727D01*
X116379853Y-95988574D01*
X116435000Y-95711335D01*
X116435000Y-95428665D01*
X116379853Y-95151426D01*
X116271680Y-94890273D01*
X116114637Y-94655241D01*
X115914759Y-94455363D01*
X115679727Y-94298320D01*
X115418574Y-94190147D01*
X115141335Y-94135000D01*
X114858665Y-94135000D01*
X114581426Y-94190147D01*
X114320273Y-94298320D01*
X114085241Y-94455363D01*
X113885363Y-94655241D01*
X113728320Y-94890273D01*
X113620147Y-95151426D01*
X113565000Y-95428665D01*
X111955000Y-95428665D01*
X111899853Y-95151426D01*
X111791680Y-94890273D01*
X111634637Y-94655241D01*
X111434759Y-94455363D01*
X111199727Y-94298320D01*
X110938574Y-94190147D01*
X110661335Y-94135000D01*
X110378665Y-94135000D01*
X110101426Y-94190147D01*
X109840273Y-94298320D01*
X109605241Y-94455363D01*
X109405363Y-94655241D01*
X109248320Y-94890273D01*
X109140147Y-95151426D01*
X109085000Y-95428665D01*
X108760000Y-95428665D01*
X108760000Y-91709000D01*
X109048883Y-91709000D01*
X109384081Y-91642325D01*
X109699831Y-91511537D01*
X109983998Y-91321663D01*
X110225663Y-91079998D01*
X110415537Y-90795831D01*
X110529790Y-90520000D01*
X112011928Y-90520000D01*
X112024188Y-90644482D01*
X112060498Y-90764180D01*
X112119463Y-90874494D01*
X112198815Y-90971185D01*
X112295506Y-91050537D01*
X112405820Y-91109502D01*
X112525518Y-91145812D01*
X112650000Y-91158072D01*
X113164250Y-91155000D01*
X113323000Y-90996250D01*
X113323000Y-89847000D01*
X112173750Y-89847000D01*
X112015000Y-90005750D01*
X112011928Y-90520000D01*
X110529790Y-90520000D01*
X110546325Y-90480081D01*
X110613000Y-90144883D01*
X110613000Y-89803117D01*
X110546325Y-89467919D01*
X110415537Y-89152169D01*
X110260407Y-88920000D01*
X112011928Y-88920000D01*
X112015000Y-89434250D01*
X112173750Y-89593000D01*
X113323000Y-89593000D01*
X113323000Y-88443750D01*
X113577000Y-88443750D01*
X113577000Y-89593000D01*
X113597000Y-89593000D01*
X113597000Y-89847000D01*
X113577000Y-89847000D01*
X113577000Y-90996250D01*
X113735750Y-91155000D01*
X114250000Y-91158072D01*
X114374482Y-91145812D01*
X114494180Y-91109502D01*
X114604494Y-91050537D01*
X114701185Y-90971185D01*
X114714790Y-90954607D01*
X114770273Y-90991680D01*
X115031426Y-91099853D01*
X115308665Y-91155000D01*
X115591335Y-91155000D01*
X115868574Y-91099853D01*
X116129727Y-90991680D01*
X116364759Y-90834637D01*
X116564637Y-90634759D01*
X116721680Y-90399727D01*
X116829853Y-90138574D01*
X116885000Y-89861335D01*
X116885000Y-89578665D01*
X116829853Y-89301426D01*
X116721680Y-89040273D01*
X116564637Y-88805241D01*
X116364759Y-88605363D01*
X116129727Y-88448320D01*
X115868574Y-88340147D01*
X115591335Y-88285000D01*
X115308665Y-88285000D01*
X115031426Y-88340147D01*
X114770273Y-88448320D01*
X114714790Y-88485393D01*
X114701185Y-88468815D01*
X114604494Y-88389463D01*
X114494180Y-88330498D01*
X114374482Y-88294188D01*
X114250000Y-88281928D01*
X113735750Y-88285000D01*
X113577000Y-88443750D01*
X113323000Y-88443750D01*
X113164250Y-88285000D01*
X112650000Y-88281928D01*
X112525518Y-88294188D01*
X112405820Y-88330498D01*
X112295506Y-88389463D01*
X112198815Y-88468815D01*
X112119463Y-88565506D01*
X112060498Y-88675820D01*
X112024188Y-88795518D01*
X112011928Y-88920000D01*
X110260407Y-88920000D01*
X110225663Y-88868002D01*
X109983998Y-88626337D01*
X109699831Y-88436463D01*
X109384081Y-88305675D01*
X109048883Y-88239000D01*
X108707117Y-88239000D01*
X108371919Y-88305675D01*
X108056169Y-88436463D01*
X107772002Y-88626337D01*
X107530337Y-88868002D01*
X107340463Y-89152169D01*
X107209675Y-89467919D01*
X107143000Y-89803117D01*
X107143000Y-90144883D01*
X107165524Y-90258121D01*
X107000744Y-90422901D01*
X106906154Y-90538160D01*
X106812368Y-90713621D01*
X106754615Y-90904006D01*
X106735114Y-91102000D01*
X106742403Y-91176000D01*
X106740000Y-91200393D01*
X106740000Y-94398593D01*
X106679727Y-94358320D01*
X106418574Y-94250147D01*
X106141335Y-94195000D01*
X105858665Y-94195000D01*
X105581426Y-94250147D01*
X105320273Y-94358320D01*
X105085241Y-94515363D01*
X104885363Y-94715241D01*
X104728320Y-94950273D01*
X104620147Y-95211426D01*
X104565000Y-95488665D01*
X104565000Y-95771335D01*
X104620147Y-96048574D01*
X104728320Y-96309727D01*
X104885363Y-96544759D01*
X105085241Y-96744637D01*
X105320273Y-96901680D01*
X105581426Y-97009853D01*
X105858665Y-97065000D01*
X106141335Y-97065000D01*
X106418574Y-97009853D01*
X106679727Y-96901680D01*
X106740000Y-96861407D01*
X106740000Y-101811928D01*
X105200000Y-101811928D01*
X105075518Y-101824188D01*
X104955820Y-101860498D01*
X104845506Y-101919463D01*
X104748815Y-101998815D01*
X104669463Y-102095506D01*
X104610498Y-102205820D01*
X104574188Y-102325518D01*
X104561928Y-102450000D01*
X104561928Y-104050000D01*
X104574188Y-104174482D01*
X104610498Y-104294180D01*
X104669463Y-104404494D01*
X104748815Y-104501185D01*
X104845506Y-104580537D01*
X104955820Y-104639502D01*
X105075518Y-104675812D01*
X105200000Y-104688072D01*
X106740001Y-104688072D01*
X106740001Y-105811928D01*
X104550000Y-105811928D01*
X104425518Y-105824188D01*
X104305820Y-105860498D01*
X104195506Y-105919463D01*
X104098815Y-105998815D01*
X104019463Y-106095506D01*
X103960498Y-106205820D01*
X103924188Y-106325518D01*
X103911928Y-106450000D01*
X103911928Y-108050000D01*
X103924188Y-108174482D01*
X103960498Y-108294180D01*
X104019463Y-108404494D01*
X104098815Y-108501185D01*
X104195506Y-108580537D01*
X104305820Y-108639502D01*
X104425518Y-108675812D01*
X104443482Y-108677581D01*
X104330392Y-108770392D01*
X104151068Y-108988899D01*
X104017818Y-109238192D01*
X103935764Y-109508691D01*
X103908057Y-109790000D01*
X103935764Y-110071309D01*
X104017818Y-110341808D01*
X104151068Y-110591101D01*
X104330392Y-110809608D01*
X104548899Y-110988932D01*
X104681858Y-111060000D01*
X104548899Y-111131068D01*
X104330392Y-111310392D01*
X104151068Y-111528899D01*
X104017818Y-111778192D01*
X103951124Y-111998056D01*
X103742702Y-111936903D01*
X102929605Y-112750000D01*
X103742702Y-113563097D01*
X103986671Y-113491514D01*
X104107571Y-113236004D01*
X104139358Y-113109193D01*
X104151068Y-113131101D01*
X104330392Y-113349608D01*
X104548899Y-113528932D01*
X104681858Y-113600000D01*
X104548899Y-113671068D01*
X104330392Y-113850392D01*
X104151068Y-114068899D01*
X104059613Y-114240000D01*
X103769396Y-114240000D01*
X103664759Y-114135363D01*
X103464131Y-114001308D01*
X103491514Y-113986671D01*
X103563097Y-113742702D01*
X102750000Y-112929605D01*
X101936903Y-113742702D01*
X102008486Y-113986671D01*
X102037341Y-114000324D01*
X101835241Y-114135363D01*
X101635363Y-114335241D01*
X101478320Y-114570273D01*
X101370147Y-114831426D01*
X101315000Y-115108665D01*
X96435000Y-115108665D01*
X96435000Y-112820512D01*
X101309783Y-112820512D01*
X101351213Y-113100130D01*
X101446397Y-113366292D01*
X101513329Y-113491514D01*
X101757298Y-113563097D01*
X102570395Y-112750000D01*
X101757298Y-111936903D01*
X101513329Y-112008486D01*
X101392429Y-112263996D01*
X101323700Y-112538184D01*
X101309783Y-112820512D01*
X96435000Y-112820512D01*
X96435000Y-111757298D01*
X101936903Y-111757298D01*
X102750000Y-112570395D01*
X103563097Y-111757298D01*
X103491514Y-111513329D01*
X103236004Y-111392429D01*
X102961816Y-111323700D01*
X102679488Y-111309783D01*
X102399870Y-111351213D01*
X102133708Y-111446397D01*
X102008486Y-111513329D01*
X101936903Y-111757298D01*
X96435000Y-111757298D01*
X96435000Y-103108665D01*
X100065000Y-103108665D01*
X100065000Y-103391335D01*
X100120147Y-103668574D01*
X100228320Y-103929727D01*
X100385363Y-104164759D01*
X100585241Y-104364637D01*
X100820273Y-104521680D01*
X101081426Y-104629853D01*
X101358665Y-104685000D01*
X101641335Y-104685000D01*
X101918574Y-104629853D01*
X102179727Y-104521680D01*
X102414759Y-104364637D01*
X102614637Y-104164759D01*
X102771680Y-103929727D01*
X102879853Y-103668574D01*
X102935000Y-103391335D01*
X102935000Y-103108665D01*
X102879853Y-102831426D01*
X102771680Y-102570273D01*
X102614637Y-102335241D01*
X102414759Y-102135363D01*
X102179727Y-101978320D01*
X101918574Y-101870147D01*
X101641335Y-101815000D01*
X101358665Y-101815000D01*
X101081426Y-101870147D01*
X100820273Y-101978320D01*
X100585241Y-102135363D01*
X100385363Y-102335241D01*
X100228320Y-102570273D01*
X100120147Y-102831426D01*
X100065000Y-103108665D01*
X96435000Y-103108665D01*
X96435000Y-95488665D01*
X100065000Y-95488665D01*
X100065000Y-95771335D01*
X100120147Y-96048574D01*
X100228320Y-96309727D01*
X100385363Y-96544759D01*
X100585241Y-96744637D01*
X100820273Y-96901680D01*
X101081426Y-97009853D01*
X101358665Y-97065000D01*
X101641335Y-97065000D01*
X101918574Y-97009853D01*
X102179727Y-96901680D01*
X102414759Y-96744637D01*
X102614637Y-96544759D01*
X102771680Y-96309727D01*
X102879853Y-96048574D01*
X102935000Y-95771335D01*
X102935000Y-95488665D01*
X102879853Y-95211426D01*
X102771680Y-94950273D01*
X102614637Y-94715241D01*
X102414759Y-94515363D01*
X102179727Y-94358320D01*
X101918574Y-94250147D01*
X101641335Y-94195000D01*
X101358665Y-94195000D01*
X101081426Y-94250147D01*
X100820273Y-94358320D01*
X100585241Y-94515363D01*
X100385363Y-94715241D01*
X100228320Y-94950273D01*
X100120147Y-95211426D01*
X100065000Y-95488665D01*
X96435000Y-95488665D01*
X96435000Y-80682401D01*
X99251400Y-80682401D01*
X99251400Y-80977599D01*
X99308990Y-81267125D01*
X99421958Y-81539853D01*
X99585961Y-81785302D01*
X99794698Y-81994039D01*
X100040147Y-82158042D01*
X100312875Y-82271010D01*
X100602401Y-82328600D01*
X100897599Y-82328600D01*
X101187125Y-82271010D01*
X101459853Y-82158042D01*
X101705302Y-81994039D01*
X101819364Y-81879977D01*
X101836898Y-81937780D01*
X101895863Y-82048094D01*
X101975215Y-82144785D01*
X102071906Y-82224137D01*
X102182220Y-82283102D01*
X102301918Y-82319412D01*
X102426400Y-82331672D01*
X104153600Y-82331672D01*
X104278082Y-82319412D01*
X104397780Y-82283102D01*
X104508094Y-82224137D01*
X104604785Y-82144785D01*
X104684137Y-82048094D01*
X104743102Y-81937780D01*
X104779412Y-81818082D01*
X104791672Y-81693600D01*
X104791672Y-81254000D01*
X107139928Y-81254000D01*
X107139928Y-83454000D01*
X107152188Y-83578482D01*
X107188498Y-83698180D01*
X107247463Y-83808494D01*
X107326815Y-83905185D01*
X107423506Y-83984537D01*
X107533820Y-84043502D01*
X107653518Y-84079812D01*
X107778000Y-84092072D01*
X109978000Y-84092072D01*
X110102482Y-84079812D01*
X110222180Y-84043502D01*
X110332494Y-83984537D01*
X110429185Y-83905185D01*
X110508537Y-83808494D01*
X110567502Y-83698180D01*
X110603812Y-83578482D01*
X110616072Y-83454000D01*
X110616072Y-81254000D01*
X110603812Y-81129518D01*
X110567502Y-81009820D01*
X110508537Y-80899506D01*
X110429185Y-80802815D01*
X110332494Y-80723463D01*
X110222180Y-80664498D01*
X110102482Y-80628188D01*
X109978000Y-80615928D01*
X107778000Y-80615928D01*
X107653518Y-80628188D01*
X107533820Y-80664498D01*
X107423506Y-80723463D01*
X107326815Y-80802815D01*
X107247463Y-80899506D01*
X107188498Y-81009820D01*
X107152188Y-81129518D01*
X107139928Y-81254000D01*
X104791672Y-81254000D01*
X104791672Y-79966400D01*
X104779412Y-79841918D01*
X104743102Y-79722220D01*
X104684137Y-79611906D01*
X104604785Y-79515215D01*
X104508094Y-79435863D01*
X104397780Y-79376898D01*
X104333426Y-79357376D01*
X104396854Y-79300293D01*
X104572684Y-79064944D01*
X104699222Y-78799814D01*
X104744958Y-78649026D01*
X104623817Y-78417000D01*
X103417000Y-78417000D01*
X103417000Y-78437000D01*
X103163000Y-78437000D01*
X103163000Y-78417000D01*
X100877000Y-78417000D01*
X100877000Y-78437000D01*
X100623000Y-78437000D01*
X100623000Y-78417000D01*
X99416183Y-78417000D01*
X99295042Y-78649026D01*
X99340778Y-78799814D01*
X99467316Y-79064944D01*
X99643146Y-79300293D01*
X99861512Y-79496817D01*
X99960103Y-79555441D01*
X99794698Y-79665961D01*
X99585961Y-79874698D01*
X99421958Y-80120147D01*
X99308990Y-80392875D01*
X99251400Y-80682401D01*
X96435000Y-80682401D01*
X96435000Y-76109026D01*
X99295042Y-76109026D01*
X99340778Y-76259814D01*
X99467316Y-76524944D01*
X99643146Y-76760293D01*
X99861512Y-76956817D01*
X99967770Y-77020000D01*
X99861512Y-77083183D01*
X99643146Y-77279707D01*
X99467316Y-77515056D01*
X99340778Y-77780186D01*
X99295042Y-77930974D01*
X99416183Y-78163000D01*
X100623000Y-78163000D01*
X100623000Y-75877000D01*
X100877000Y-75877000D01*
X100877000Y-78163000D01*
X103163000Y-78163000D01*
X103163000Y-75877000D01*
X103417000Y-75877000D01*
X103417000Y-78163000D01*
X104623817Y-78163000D01*
X104744958Y-77930974D01*
X104699222Y-77780186D01*
X104572684Y-77515056D01*
X104396854Y-77279707D01*
X104178488Y-77083183D01*
X104072230Y-77020000D01*
X104178488Y-76956817D01*
X104396854Y-76760293D01*
X104572684Y-76524944D01*
X104699222Y-76259814D01*
X104744958Y-76109026D01*
X104623817Y-75877000D01*
X103417000Y-75877000D01*
X103163000Y-75877000D01*
X100877000Y-75877000D01*
X100623000Y-75877000D01*
X99416183Y-75877000D01*
X99295042Y-76109026D01*
X96435000Y-76109026D01*
X96435000Y-75802706D01*
X118287611Y-75802706D01*
X118334275Y-76171075D01*
X118451906Y-76523262D01*
X118577423Y-76758086D01*
X118867395Y-76884000D01*
X120001395Y-75750000D01*
X118867395Y-74616000D01*
X118577423Y-74741914D01*
X118411567Y-75074126D01*
X118313710Y-75432312D01*
X118287611Y-75802706D01*
X96435000Y-75802706D01*
X96435000Y-73569026D01*
X99295042Y-73569026D01*
X99340778Y-73719814D01*
X99467316Y-73984944D01*
X99643146Y-74220293D01*
X99861512Y-74416817D01*
X99967770Y-74480000D01*
X99861512Y-74543183D01*
X99643146Y-74739707D01*
X99467316Y-74975056D01*
X99340778Y-75240186D01*
X99295042Y-75390974D01*
X99416183Y-75623000D01*
X100623000Y-75623000D01*
X100623000Y-73337000D01*
X100877000Y-73337000D01*
X100877000Y-75623000D01*
X103163000Y-75623000D01*
X103163000Y-73337000D01*
X103417000Y-73337000D01*
X103417000Y-75623000D01*
X104623817Y-75623000D01*
X104744958Y-75390974D01*
X104699222Y-75240186D01*
X104572684Y-74975056D01*
X104396854Y-74739707D01*
X104178488Y-74543183D01*
X104072230Y-74480000D01*
X104178488Y-74416817D01*
X104396854Y-74220293D01*
X104572684Y-73984944D01*
X104699222Y-73719814D01*
X104744958Y-73569026D01*
X104623817Y-73337000D01*
X103417000Y-73337000D01*
X103163000Y-73337000D01*
X100877000Y-73337000D01*
X100623000Y-73337000D01*
X99416183Y-73337000D01*
X99295042Y-73569026D01*
X96435000Y-73569026D01*
X96435000Y-70522401D01*
X99251400Y-70522401D01*
X99251400Y-70817599D01*
X99308990Y-71107125D01*
X99421958Y-71379853D01*
X99585961Y-71625302D01*
X99794698Y-71834039D01*
X99960103Y-71944559D01*
X99861512Y-72003183D01*
X99643146Y-72199707D01*
X99467316Y-72435056D01*
X99340778Y-72700186D01*
X99295042Y-72850974D01*
X99416183Y-73083000D01*
X100623000Y-73083000D01*
X100623000Y-73063000D01*
X100877000Y-73063000D01*
X100877000Y-73083000D01*
X103163000Y-73083000D01*
X103163000Y-73063000D01*
X103417000Y-73063000D01*
X103417000Y-73083000D01*
X104623817Y-73083000D01*
X104744958Y-72850974D01*
X104699222Y-72700186D01*
X104572684Y-72435056D01*
X104396854Y-72199707D01*
X104178488Y-72003183D01*
X104079897Y-71944559D01*
X104245302Y-71834039D01*
X104454039Y-71625302D01*
X104618042Y-71379853D01*
X104731010Y-71107125D01*
X104788600Y-70817599D01*
X104788600Y-70522401D01*
X104731010Y-70232875D01*
X104618042Y-69960147D01*
X104454039Y-69714698D01*
X104245302Y-69505961D01*
X103999853Y-69341958D01*
X103727125Y-69228990D01*
X103437599Y-69171400D01*
X103142401Y-69171400D01*
X102852875Y-69228990D01*
X102580147Y-69341958D01*
X102334698Y-69505961D01*
X102125961Y-69714698D01*
X102020000Y-69873281D01*
X101914039Y-69714698D01*
X101705302Y-69505961D01*
X101459853Y-69341958D01*
X101187125Y-69228990D01*
X100897599Y-69171400D01*
X100602401Y-69171400D01*
X100312875Y-69228990D01*
X100040147Y-69341958D01*
X99794698Y-69505961D01*
X99585961Y-69714698D01*
X99421958Y-69960147D01*
X99308990Y-70232875D01*
X99251400Y-70522401D01*
X96435000Y-70522401D01*
X96435000Y-68975117D01*
X107143000Y-68975117D01*
X107143000Y-69316883D01*
X107209675Y-69652081D01*
X107340463Y-69967831D01*
X107530337Y-70251998D01*
X107772002Y-70493663D01*
X108056169Y-70683537D01*
X108371919Y-70814325D01*
X108707117Y-70881000D01*
X109048883Y-70881000D01*
X109384081Y-70814325D01*
X109699831Y-70683537D01*
X109983998Y-70493663D01*
X110225663Y-70251998D01*
X110415537Y-69967831D01*
X110546325Y-69652081D01*
X110613000Y-69316883D01*
X110613000Y-68975117D01*
X110546325Y-68639919D01*
X110415537Y-68324169D01*
X110225663Y-68040002D01*
X109983998Y-67798337D01*
X109699831Y-67608463D01*
X109384081Y-67477675D01*
X109048883Y-67411000D01*
X108707117Y-67411000D01*
X108371919Y-67477675D01*
X108056169Y-67608463D01*
X107772002Y-67798337D01*
X107530337Y-68040002D01*
X107340463Y-68324169D01*
X107209675Y-68639919D01*
X107143000Y-68975117D01*
X96435000Y-68975117D01*
X96435000Y-61529872D01*
X97515000Y-61529872D01*
X97515000Y-61970128D01*
X97600890Y-62401925D01*
X97769369Y-62808669D01*
X98013962Y-63174729D01*
X98325271Y-63486038D01*
X98691331Y-63730631D01*
X99098075Y-63899110D01*
X99529872Y-63985000D01*
X99970128Y-63985000D01*
X100401925Y-63899110D01*
X100808669Y-63730631D01*
X101174729Y-63486038D01*
X101486038Y-63174729D01*
X101730631Y-62808669D01*
X101899110Y-62401925D01*
X101985000Y-61970128D01*
X101985000Y-61529872D01*
X101899110Y-61098075D01*
X101730631Y-60691331D01*
X101553343Y-60426000D01*
X107139928Y-60426000D01*
X107139928Y-62626000D01*
X107152188Y-62750482D01*
X107188498Y-62870180D01*
X107247463Y-62980494D01*
X107326815Y-63077185D01*
X107423506Y-63156537D01*
X107533820Y-63215502D01*
X107653518Y-63251812D01*
X107778000Y-63264072D01*
X109978000Y-63264072D01*
X110102482Y-63251812D01*
X110222180Y-63215502D01*
X110332494Y-63156537D01*
X110429185Y-63077185D01*
X110508537Y-62980494D01*
X110567502Y-62870180D01*
X110603812Y-62750482D01*
X110616072Y-62626000D01*
X110616072Y-61850512D01*
X112136783Y-61850512D01*
X112178213Y-62130130D01*
X112273397Y-62396292D01*
X112340329Y-62521514D01*
X112584298Y-62593097D01*
X113397395Y-61780000D01*
X112584298Y-60966903D01*
X112340329Y-61038486D01*
X112219429Y-61293996D01*
X112150700Y-61568184D01*
X112136783Y-61850512D01*
X110616072Y-61850512D01*
X110616072Y-60787298D01*
X112763903Y-60787298D01*
X113577000Y-61600395D01*
X113591143Y-61586253D01*
X113770748Y-61765858D01*
X113756605Y-61780000D01*
X113770748Y-61794143D01*
X113591143Y-61973748D01*
X113577000Y-61959605D01*
X112763903Y-62772702D01*
X112835486Y-63016671D01*
X113090996Y-63137571D01*
X113365184Y-63206300D01*
X113647512Y-63220217D01*
X113927130Y-63178787D01*
X114193292Y-63083603D01*
X114315309Y-63018384D01*
X114325815Y-63031185D01*
X114422506Y-63110537D01*
X114532820Y-63169502D01*
X114652518Y-63205812D01*
X114777000Y-63218072D01*
X116377000Y-63218072D01*
X116501482Y-63205812D01*
X116621180Y-63169502D01*
X116731494Y-63110537D01*
X116828185Y-63031185D01*
X116907537Y-62934494D01*
X116966502Y-62824180D01*
X117002812Y-62704482D01*
X117015072Y-62580000D01*
X117015072Y-60980000D01*
X117002812Y-60855518D01*
X116966502Y-60735820D01*
X116907537Y-60625506D01*
X116828185Y-60528815D01*
X116731494Y-60449463D01*
X116621180Y-60390498D01*
X116501482Y-60354188D01*
X116377000Y-60341928D01*
X114777000Y-60341928D01*
X114652518Y-60354188D01*
X114532820Y-60390498D01*
X114422506Y-60449463D01*
X114325815Y-60528815D01*
X114315193Y-60541758D01*
X114063004Y-60422429D01*
X113788816Y-60353700D01*
X113506488Y-60339783D01*
X113226870Y-60381213D01*
X112960708Y-60476397D01*
X112835486Y-60543329D01*
X112763903Y-60787298D01*
X110616072Y-60787298D01*
X110616072Y-60426000D01*
X110603812Y-60301518D01*
X110567502Y-60181820D01*
X110508537Y-60071506D01*
X110429185Y-59974815D01*
X110332494Y-59895463D01*
X110222180Y-59836498D01*
X110102482Y-59800188D01*
X109978000Y-59787928D01*
X107778000Y-59787928D01*
X107653518Y-59800188D01*
X107533820Y-59836498D01*
X107423506Y-59895463D01*
X107326815Y-59974815D01*
X107247463Y-60071506D01*
X107188498Y-60181820D01*
X107152188Y-60301518D01*
X107139928Y-60426000D01*
X101553343Y-60426000D01*
X101486038Y-60325271D01*
X101174729Y-60013962D01*
X100808669Y-59769369D01*
X100401925Y-59600890D01*
X99970128Y-59515000D01*
X99529872Y-59515000D01*
X99098075Y-59600890D01*
X98691331Y-59769369D01*
X98325271Y-60013962D01*
X98013962Y-60325271D01*
X97769369Y-60691331D01*
X97600890Y-61098075D01*
X97515000Y-61529872D01*
X96435000Y-61529872D01*
X96435000Y-58435000D01*
X125065000Y-58435000D01*
X125065001Y-141665000D01*
%TA.AperFunction,Conductor*%
D28*
G36*
X125065001Y-141665000D02*
G01*
X96435000Y-141665000D01*
X96435000Y-138129872D01*
X97515000Y-138129872D01*
X97515000Y-138570128D01*
X97600890Y-139001925D01*
X97769369Y-139408669D01*
X98013962Y-139774729D01*
X98325271Y-140086038D01*
X98691331Y-140330631D01*
X99098075Y-140499110D01*
X99529872Y-140585000D01*
X99970128Y-140585000D01*
X100401925Y-140499110D01*
X100808669Y-140330631D01*
X101174729Y-140086038D01*
X101486038Y-139774729D01*
X101730631Y-139408669D01*
X101899110Y-139001925D01*
X101985000Y-138570128D01*
X101985000Y-138129872D01*
X101899110Y-137698075D01*
X101730631Y-137291331D01*
X101486038Y-136925271D01*
X101180767Y-136620000D01*
X119011928Y-136620000D01*
X119024188Y-136744482D01*
X119060498Y-136864180D01*
X119119463Y-136974494D01*
X119198815Y-137071185D01*
X119295506Y-137150537D01*
X119405820Y-137209502D01*
X119525518Y-137245812D01*
X119650000Y-137258072D01*
X120464250Y-137255000D01*
X120623000Y-137096250D01*
X120623000Y-135877000D01*
X120877000Y-135877000D01*
X120877000Y-137096250D01*
X121035750Y-137255000D01*
X121850000Y-137258072D01*
X121974482Y-137245812D01*
X122094180Y-137209502D01*
X122204494Y-137150537D01*
X122301185Y-137071185D01*
X122380537Y-136974494D01*
X122439502Y-136864180D01*
X122475812Y-136744482D01*
X122488072Y-136620000D01*
X122485000Y-136035750D01*
X122326250Y-135877000D01*
X120877000Y-135877000D01*
X120623000Y-135877000D01*
X119173750Y-135877000D01*
X119015000Y-136035750D01*
X119011928Y-136620000D01*
X101180767Y-136620000D01*
X101174729Y-136613962D01*
X100808669Y-136369369D01*
X100401925Y-136200890D01*
X99970128Y-136115000D01*
X99529872Y-136115000D01*
X99098075Y-136200890D01*
X98691331Y-136369369D01*
X98325271Y-136613962D01*
X98013962Y-136925271D01*
X97769369Y-137291331D01*
X97600890Y-137698075D01*
X97515000Y-138129872D01*
X96435000Y-138129872D01*
X96435000Y-133210000D01*
X119007718Y-133210000D01*
X119036776Y-133505032D01*
X119122834Y-133788725D01*
X119262583Y-134050179D01*
X119449047Y-134277385D01*
X119405820Y-134290498D01*
X119295506Y-134349463D01*
X119198815Y-134428815D01*
X119119463Y-134525506D01*
X119060498Y-134635820D01*
X119024188Y-134755518D01*
X119011928Y-134880000D01*
X119015000Y-135464250D01*
X119173750Y-135623000D01*
X120623000Y-135623000D01*
X120623000Y-135603000D01*
X120877000Y-135603000D01*
X120877000Y-135623000D01*
X122326250Y-135623000D01*
X122485000Y-135464250D01*
X122488072Y-134880000D01*
X122475812Y-134755518D01*
X122439502Y-134635820D01*
X122380537Y-134525506D01*
X122301185Y-134428815D01*
X122204494Y-134349463D01*
X122094180Y-134290498D01*
X122050953Y-134277385D01*
X122237417Y-134050179D01*
X122377166Y-133788725D01*
X122463224Y-133505032D01*
X122492282Y-133210000D01*
X122463224Y-132914968D01*
X122377166Y-132631275D01*
X122237417Y-132369821D01*
X122049345Y-132140655D01*
X121820179Y-131952583D01*
X121558725Y-131812834D01*
X121275032Y-131726776D01*
X121053936Y-131705000D01*
X120446064Y-131705000D01*
X120224968Y-131726776D01*
X119941275Y-131812834D01*
X119679821Y-131952583D01*
X119450655Y-132140655D01*
X119262583Y-132369821D01*
X119122834Y-132631275D01*
X119036776Y-132914968D01*
X119007718Y-133210000D01*
X96435000Y-133210000D01*
X96435000Y-130608665D01*
X108815000Y-130608665D01*
X108815000Y-130891335D01*
X108870147Y-131168574D01*
X108978320Y-131429727D01*
X109135363Y-131664759D01*
X109335241Y-131864637D01*
X109570273Y-132021680D01*
X109831426Y-132129853D01*
X110108665Y-132185000D01*
X110391335Y-132185000D01*
X110668574Y-132129853D01*
X110929727Y-132021680D01*
X111164759Y-131864637D01*
X111364637Y-131664759D01*
X111521680Y-131429727D01*
X111629853Y-131168574D01*
X111685000Y-130891335D01*
X111685000Y-130608665D01*
X113815000Y-130608665D01*
X113815000Y-130891335D01*
X113870147Y-131168574D01*
X113978320Y-131429727D01*
X114135363Y-131664759D01*
X114335241Y-131864637D01*
X114570273Y-132021680D01*
X114831426Y-132129853D01*
X115108665Y-132185000D01*
X115391335Y-132185000D01*
X115668574Y-132129853D01*
X115929727Y-132021680D01*
X116164759Y-131864637D01*
X116364637Y-131664759D01*
X116521680Y-131429727D01*
X116629853Y-131168574D01*
X116685000Y-130891335D01*
X116685000Y-130608665D01*
X116629853Y-130331426D01*
X116521680Y-130070273D01*
X116364637Y-129835241D01*
X116164759Y-129635363D01*
X115929727Y-129478320D01*
X115668574Y-129370147D01*
X115391335Y-129315000D01*
X115108665Y-129315000D01*
X114831426Y-129370147D01*
X114570273Y-129478320D01*
X114335241Y-129635363D01*
X114135363Y-129835241D01*
X113978320Y-130070273D01*
X113870147Y-130331426D01*
X113815000Y-130608665D01*
X111685000Y-130608665D01*
X111629853Y-130331426D01*
X111521680Y-130070273D01*
X111364637Y-129835241D01*
X111164759Y-129635363D01*
X110929727Y-129478320D01*
X110668574Y-129370147D01*
X110391335Y-129315000D01*
X110108665Y-129315000D01*
X109831426Y-129370147D01*
X109570273Y-129478320D01*
X109335241Y-129635363D01*
X109135363Y-129835241D01*
X108978320Y-130070273D01*
X108870147Y-130331426D01*
X108815000Y-130608665D01*
X96435000Y-130608665D01*
X96435000Y-127108665D01*
X104565000Y-127108665D01*
X104565000Y-127391335D01*
X104620147Y-127668574D01*
X104728320Y-127929727D01*
X104885363Y-128164759D01*
X105085241Y-128364637D01*
X105320273Y-128521680D01*
X105581426Y-128629853D01*
X105858665Y-128685000D01*
X106141335Y-128685000D01*
X106418574Y-128629853D01*
X106679727Y-128521680D01*
X106914759Y-128364637D01*
X107036694Y-128242702D01*
X109706903Y-128242702D01*
X109778486Y-128486671D01*
X110033996Y-128607571D01*
X110308184Y-128676300D01*
X110590512Y-128690217D01*
X110870130Y-128648787D01*
X111136292Y-128553603D01*
X111261514Y-128486671D01*
X111333097Y-128242702D01*
X110520000Y-127429605D01*
X109706903Y-128242702D01*
X107036694Y-128242702D01*
X107114637Y-128164759D01*
X107271680Y-127929727D01*
X107379853Y-127668574D01*
X107435000Y-127391335D01*
X107435000Y-127320512D01*
X109079783Y-127320512D01*
X109121213Y-127600130D01*
X109216397Y-127866292D01*
X109283329Y-127991514D01*
X109527298Y-128063097D01*
X110340395Y-127250000D01*
X110699605Y-127250000D01*
X111512702Y-128063097D01*
X111756671Y-127991514D01*
X111877571Y-127736004D01*
X111946300Y-127461816D01*
X111960217Y-127179488D01*
X111949724Y-127108665D01*
X113565000Y-127108665D01*
X113565000Y-127391335D01*
X113620147Y-127668574D01*
X113728320Y-127929727D01*
X113885363Y-128164759D01*
X114085241Y-128364637D01*
X114320273Y-128521680D01*
X114581426Y-128629853D01*
X114858665Y-128685000D01*
X115141335Y-128685000D01*
X115418574Y-128629853D01*
X115679727Y-128521680D01*
X115914759Y-128364637D01*
X116114637Y-128164759D01*
X116271680Y-127929727D01*
X116379853Y-127668574D01*
X116435000Y-127391335D01*
X116435000Y-127108665D01*
X116379853Y-126831426D01*
X116271680Y-126570273D01*
X116114637Y-126335241D01*
X115914759Y-126135363D01*
X115679727Y-125978320D01*
X115418574Y-125870147D01*
X115141335Y-125815000D01*
X114858665Y-125815000D01*
X114581426Y-125870147D01*
X114320273Y-125978320D01*
X114085241Y-126135363D01*
X113885363Y-126335241D01*
X113728320Y-126570273D01*
X113620147Y-126831426D01*
X113565000Y-127108665D01*
X111949724Y-127108665D01*
X111918787Y-126899870D01*
X111823603Y-126633708D01*
X111756671Y-126508486D01*
X111512702Y-126436903D01*
X110699605Y-127250000D01*
X110340395Y-127250000D01*
X109527298Y-126436903D01*
X109283329Y-126508486D01*
X109162429Y-126763996D01*
X109093700Y-127038184D01*
X109079783Y-127320512D01*
X107435000Y-127320512D01*
X107435000Y-127108665D01*
X107379853Y-126831426D01*
X107271680Y-126570273D01*
X107114637Y-126335241D01*
X107036694Y-126257298D01*
X109706903Y-126257298D01*
X110520000Y-127070395D01*
X111333097Y-126257298D01*
X111261514Y-126013329D01*
X111006004Y-125892429D01*
X110731816Y-125823700D01*
X110449488Y-125809783D01*
X110169870Y-125851213D01*
X109903708Y-125946397D01*
X109778486Y-126013329D01*
X109706903Y-126257298D01*
X107036694Y-126257298D01*
X106914759Y-126135363D01*
X106679727Y-125978320D01*
X106418574Y-125870147D01*
X106141335Y-125815000D01*
X105858665Y-125815000D01*
X105581426Y-125870147D01*
X105320273Y-125978320D01*
X105085241Y-126135363D01*
X104885363Y-126335241D01*
X104728320Y-126570273D01*
X104620147Y-126831426D01*
X104565000Y-127108665D01*
X96435000Y-127108665D01*
X96435000Y-119979040D01*
X104608091Y-119979040D01*
X104702930Y-120243881D01*
X104847615Y-120485131D01*
X105036586Y-120693519D01*
X105262580Y-120861037D01*
X105516913Y-120981246D01*
X105650961Y-121021904D01*
X105873000Y-120899915D01*
X105873000Y-119757000D01*
X106127000Y-119757000D01*
X106127000Y-120899915D01*
X106349039Y-121021904D01*
X106483087Y-120981246D01*
X106737420Y-120861037D01*
X106963414Y-120693519D01*
X107152385Y-120485131D01*
X107297070Y-120243881D01*
X107391909Y-119979040D01*
X107270624Y-119757000D01*
X106127000Y-119757000D01*
X105873000Y-119757000D01*
X104729376Y-119757000D01*
X104608091Y-119979040D01*
X96435000Y-119979040D01*
X96435000Y-119280960D01*
X104608091Y-119280960D01*
X104729376Y-119503000D01*
X105873000Y-119503000D01*
X105873000Y-118360085D01*
X106127000Y-118360085D01*
X106127000Y-119503000D01*
X107270624Y-119503000D01*
X107391909Y-119280960D01*
X107297070Y-119016119D01*
X107152385Y-118774869D01*
X106963414Y-118566481D01*
X106737420Y-118398963D01*
X106483087Y-118278754D01*
X106349039Y-118238096D01*
X106127000Y-118360085D01*
X105873000Y-118360085D01*
X105650961Y-118238096D01*
X105516913Y-118278754D01*
X105262580Y-118398963D01*
X105036586Y-118566481D01*
X104847615Y-118774869D01*
X104702930Y-119016119D01*
X104608091Y-119280960D01*
X96435000Y-119280960D01*
X96435000Y-115108665D01*
X101315000Y-115108665D01*
X101315000Y-115391335D01*
X101370147Y-115668574D01*
X101478320Y-115929727D01*
X101635363Y-116164759D01*
X101835241Y-116364637D01*
X102070273Y-116521680D01*
X102331426Y-116629853D01*
X102608665Y-116685000D01*
X102891335Y-116685000D01*
X103168574Y-116629853D01*
X103429727Y-116521680D01*
X103664759Y-116364637D01*
X103769396Y-116260000D01*
X104988795Y-116260000D01*
X105068691Y-116284236D01*
X105279508Y-116305000D01*
X106220492Y-116305000D01*
X106431309Y-116284236D01*
X106701808Y-116202182D01*
X106951101Y-116068932D01*
X107169608Y-115889608D01*
X107348932Y-115671101D01*
X107482182Y-115421808D01*
X107564236Y-115151309D01*
X107583717Y-114953520D01*
X110865883Y-118235688D01*
X110661335Y-118195000D01*
X110378665Y-118195000D01*
X110101426Y-118250147D01*
X109840273Y-118358320D01*
X109605241Y-118515363D01*
X109405363Y-118715241D01*
X109248320Y-118950273D01*
X109140147Y-119211426D01*
X109085000Y-119488665D01*
X109085000Y-119771335D01*
X109140147Y-120048574D01*
X109248320Y-120309727D01*
X109405363Y-120544759D01*
X109605241Y-120744637D01*
X109840273Y-120901680D01*
X110101426Y-121009853D01*
X110378665Y-121065000D01*
X110661335Y-121065000D01*
X110938574Y-121009853D01*
X111199727Y-120901680D01*
X111434759Y-120744637D01*
X111634637Y-120544759D01*
X111740000Y-120387072D01*
X111740000Y-120462677D01*
X111736324Y-120500000D01*
X111740000Y-120537322D01*
X111740000Y-120537332D01*
X111750997Y-120648985D01*
X111789533Y-120776023D01*
X111794454Y-120792246D01*
X111865026Y-120924276D01*
X111865628Y-120925009D01*
X111959999Y-121040001D01*
X111989002Y-121063804D01*
X114106205Y-123181008D01*
X114129999Y-123210001D01*
X114158992Y-123233795D01*
X114158996Y-123233799D01*
X114177184Y-123248725D01*
X114245724Y-123304974D01*
X114377753Y-123375546D01*
X114521014Y-123419003D01*
X114632667Y-123430000D01*
X114632676Y-123430000D01*
X114669999Y-123433676D01*
X114707322Y-123430000D01*
X119219727Y-123430000D01*
X119262583Y-123510179D01*
X119450655Y-123739345D01*
X119679821Y-123927417D01*
X119703362Y-123940000D01*
X119679821Y-123952583D01*
X119450655Y-124140655D01*
X119262583Y-124369821D01*
X119122834Y-124631275D01*
X119036776Y-124914968D01*
X119007718Y-125210000D01*
X119036776Y-125505032D01*
X119122834Y-125788725D01*
X119262583Y-126050179D01*
X119450655Y-126279345D01*
X119516114Y-126333066D01*
X119406613Y-126391595D01*
X119272038Y-126502038D01*
X119161595Y-126636613D01*
X119079528Y-126790149D01*
X119028992Y-126956745D01*
X119011928Y-127129999D01*
X119011928Y-128370001D01*
X119028992Y-128543255D01*
X119079528Y-128709851D01*
X119161595Y-128863387D01*
X119272038Y-128997962D01*
X119406613Y-129108405D01*
X119560149Y-129190472D01*
X119726745Y-129241008D01*
X119899999Y-129258072D01*
X121600001Y-129258072D01*
X121773255Y-129241008D01*
X121939851Y-129190472D01*
X122093387Y-129108405D01*
X122227962Y-128997962D01*
X122338405Y-128863387D01*
X122420472Y-128709851D01*
X122471008Y-128543255D01*
X122488072Y-128370001D01*
X122488072Y-127129999D01*
X122484192Y-127090609D01*
X122936014Y-126638788D01*
X122965011Y-126614991D01*
X123059984Y-126499266D01*
X123130556Y-126367237D01*
X123174013Y-126223976D01*
X123185010Y-126112323D01*
X123185010Y-126112313D01*
X123188686Y-126074990D01*
X123185010Y-126037667D01*
X123185010Y-120962332D01*
X123188686Y-120925009D01*
X123185010Y-120887686D01*
X123185010Y-120887677D01*
X123174013Y-120776024D01*
X123130556Y-120632763D01*
X123059984Y-120500733D01*
X122988809Y-120414007D01*
X122965011Y-120385009D01*
X122936013Y-120361211D01*
X120659195Y-118084393D01*
X120846011Y-118161775D01*
X121113589Y-118215000D01*
X121386411Y-118215000D01*
X121653989Y-118161775D01*
X121906043Y-118057371D01*
X122132886Y-117905799D01*
X122325799Y-117712886D01*
X122477371Y-117486043D01*
X122581775Y-117233989D01*
X122635000Y-116966411D01*
X122635000Y-116693589D01*
X122581775Y-116426011D01*
X122477371Y-116173957D01*
X122325799Y-115947114D01*
X122132886Y-115754201D01*
X121906043Y-115602629D01*
X121803127Y-115560000D01*
X121906043Y-115517371D01*
X122132886Y-115365799D01*
X122325799Y-115172886D01*
X122477371Y-114946043D01*
X122581775Y-114693989D01*
X122635000Y-114426411D01*
X122635000Y-114153589D01*
X122581775Y-113886011D01*
X122477371Y-113633957D01*
X122325799Y-113407114D01*
X122132886Y-113214201D01*
X122016517Y-113136445D01*
X122124482Y-113125812D01*
X122244180Y-113089502D01*
X122354494Y-113030537D01*
X122451185Y-112951185D01*
X122530537Y-112854494D01*
X122589502Y-112744180D01*
X122625812Y-112624482D01*
X122638072Y-112500000D01*
X122638072Y-111000000D01*
X122625812Y-110875518D01*
X122589502Y-110755820D01*
X122530537Y-110645506D01*
X122451185Y-110548815D01*
X122354494Y-110469463D01*
X122244180Y-110410498D01*
X122124482Y-110374188D01*
X122000000Y-110361928D01*
X120500000Y-110361928D01*
X120375518Y-110374188D01*
X120255820Y-110410498D01*
X120145506Y-110469463D01*
X120048815Y-110548815D01*
X119969463Y-110645506D01*
X119910498Y-110755820D01*
X119874188Y-110875518D01*
X119861928Y-111000000D01*
X119861928Y-112500000D01*
X119874188Y-112624482D01*
X119910498Y-112744180D01*
X119969463Y-112854494D01*
X120048815Y-112951185D01*
X120145506Y-113030537D01*
X120255820Y-113089502D01*
X120375518Y-113125812D01*
X120483483Y-113136445D01*
X120367114Y-113214201D01*
X120174201Y-113407114D01*
X120022629Y-113633957D01*
X119918225Y-113886011D01*
X119865000Y-114153589D01*
X119865000Y-114426411D01*
X119918225Y-114693989D01*
X120022629Y-114946043D01*
X120174201Y-115172886D01*
X120367114Y-115365799D01*
X120593957Y-115517371D01*
X120696873Y-115560000D01*
X120593957Y-115602629D01*
X120367114Y-115754201D01*
X120174201Y-115947114D01*
X120022629Y-116173957D01*
X119918225Y-116426011D01*
X119865000Y-116693589D01*
X119865000Y-116966411D01*
X119918225Y-117233989D01*
X119995607Y-117420805D01*
X118760000Y-116185199D01*
X118760000Y-111537322D01*
X118763676Y-111499999D01*
X118760000Y-111462676D01*
X118760000Y-111462667D01*
X118749003Y-111351014D01*
X118705546Y-111207753D01*
X118634974Y-111075724D01*
X118540001Y-110959999D01*
X118511004Y-110936202D01*
X117898688Y-110323886D01*
X117935000Y-110141335D01*
X117935000Y-109858665D01*
X117879853Y-109581426D01*
X117771680Y-109320273D01*
X117614637Y-109085241D01*
X117510000Y-108980604D01*
X117510000Y-104739604D01*
X117514886Y-104689999D01*
X117508484Y-104625000D01*
X117495385Y-104492006D01*
X117437632Y-104301620D01*
X117343847Y-104126160D01*
X117217633Y-103972367D01*
X117179094Y-103940739D01*
X116948355Y-103710000D01*
X119007718Y-103710000D01*
X119036776Y-104005032D01*
X119122834Y-104288725D01*
X119262583Y-104550179D01*
X119450655Y-104779345D01*
X119516114Y-104833066D01*
X119406613Y-104891595D01*
X119272038Y-105002038D01*
X119161595Y-105136613D01*
X119079528Y-105290149D01*
X119028992Y-105456745D01*
X119011928Y-105629999D01*
X119011928Y-106870001D01*
X119028992Y-107043255D01*
X119079528Y-107209851D01*
X119161595Y-107363387D01*
X119272038Y-107497962D01*
X119406613Y-107608405D01*
X119560149Y-107690472D01*
X119726745Y-107741008D01*
X119899999Y-107758072D01*
X121600001Y-107758072D01*
X121773255Y-107741008D01*
X121939851Y-107690472D01*
X122093387Y-107608405D01*
X122227962Y-107497962D01*
X122338405Y-107363387D01*
X122420472Y-107209851D01*
X122471008Y-107043255D01*
X122488072Y-106870001D01*
X122488072Y-105629999D01*
X122471008Y-105456745D01*
X122420472Y-105290149D01*
X122338405Y-105136613D01*
X122227962Y-105002038D01*
X122093387Y-104891595D01*
X121983886Y-104833066D01*
X122049345Y-104779345D01*
X122237417Y-104550179D01*
X122377166Y-104288725D01*
X122463224Y-104005032D01*
X122492282Y-103710000D01*
X122463224Y-103414968D01*
X122377166Y-103131275D01*
X122237417Y-102869821D01*
X122049345Y-102640655D01*
X121820179Y-102452583D01*
X121558725Y-102312834D01*
X121275032Y-102226776D01*
X121053936Y-102205000D01*
X120446064Y-102205000D01*
X120224968Y-102226776D01*
X119941275Y-102312834D01*
X119679821Y-102452583D01*
X119450655Y-102640655D01*
X119262583Y-102869821D01*
X119122834Y-103131275D01*
X119036776Y-103414968D01*
X119007718Y-103710000D01*
X116948355Y-103710000D01*
X116435000Y-103196645D01*
X116435000Y-103048665D01*
X116415869Y-102952487D01*
X118179100Y-101189256D01*
X118217633Y-101157633D01*
X118343847Y-101003840D01*
X118437632Y-100828380D01*
X118495385Y-100637994D01*
X118510000Y-100489608D01*
X118514886Y-100440000D01*
X118510000Y-100390392D01*
X118510000Y-93668355D01*
X119810153Y-92368203D01*
X119947503Y-92573762D01*
X120136238Y-92762497D01*
X120358167Y-92910785D01*
X120525266Y-92980000D01*
X120358167Y-93049215D01*
X120136238Y-93197503D01*
X119947503Y-93386238D01*
X119799215Y-93608167D01*
X119697072Y-93854761D01*
X119645000Y-94116544D01*
X119645000Y-94383456D01*
X119697072Y-94645239D01*
X119799215Y-94891833D01*
X119947503Y-95113762D01*
X120136238Y-95302497D01*
X120358167Y-95450785D01*
X120525266Y-95520000D01*
X120358167Y-95589215D01*
X120136238Y-95737503D01*
X119947503Y-95926238D01*
X119799215Y-96148167D01*
X119697072Y-96394761D01*
X119645000Y-96656544D01*
X119645000Y-96923456D01*
X119697072Y-97185239D01*
X119799215Y-97431833D01*
X119947503Y-97653762D01*
X120136238Y-97842497D01*
X120358167Y-97990785D01*
X120604761Y-98092928D01*
X120866544Y-98145000D01*
X121133456Y-98145000D01*
X121395239Y-98092928D01*
X121641833Y-97990785D01*
X121863762Y-97842497D01*
X122052497Y-97653762D01*
X122200785Y-97431833D01*
X122302928Y-97185239D01*
X122355000Y-96923456D01*
X122355000Y-96656544D01*
X122302928Y-96394761D01*
X122200785Y-96148167D01*
X122052497Y-95926238D01*
X121863762Y-95737503D01*
X121641833Y-95589215D01*
X121474734Y-95520000D01*
X121641833Y-95450785D01*
X121863762Y-95302497D01*
X122052497Y-95113762D01*
X122200785Y-94891833D01*
X122302928Y-94645239D01*
X122355000Y-94383456D01*
X122355000Y-94116544D01*
X122302928Y-93854761D01*
X122200785Y-93608167D01*
X122052497Y-93386238D01*
X121863762Y-93197503D01*
X121641833Y-93049215D01*
X121474734Y-92980000D01*
X121641833Y-92910785D01*
X121863762Y-92762497D01*
X122052497Y-92573762D01*
X122200785Y-92351833D01*
X122302928Y-92105239D01*
X122355000Y-91843456D01*
X122355000Y-91576544D01*
X122302928Y-91314761D01*
X122200785Y-91068167D01*
X122052497Y-90846238D01*
X121863762Y-90657503D01*
X121658203Y-90520153D01*
X122685101Y-89493255D01*
X122723634Y-89461632D01*
X122849848Y-89307839D01*
X122943633Y-89132379D01*
X122990277Y-88978615D01*
X123001386Y-88941994D01*
X123020887Y-88743999D01*
X123016001Y-88694391D01*
X123016001Y-72805609D01*
X123020887Y-72756001D01*
X123011973Y-72665498D01*
X123020887Y-72575000D01*
X123001385Y-72377006D01*
X122943632Y-72186621D01*
X122849847Y-72011160D01*
X122755256Y-71895901D01*
X122069072Y-71209717D01*
X122069072Y-69500000D01*
X122056812Y-69375518D01*
X122020502Y-69255820D01*
X121961537Y-69145506D01*
X121882185Y-69048815D01*
X121785494Y-68969463D01*
X121675180Y-68910498D01*
X121555482Y-68874188D01*
X121431000Y-68861928D01*
X118931000Y-68861928D01*
X118806518Y-68874188D01*
X118686820Y-68910498D01*
X118576506Y-68969463D01*
X118479815Y-69048815D01*
X118400463Y-69145506D01*
X118341498Y-69255820D01*
X118305188Y-69375518D01*
X118292928Y-69500000D01*
X118292928Y-72000000D01*
X118305188Y-72124482D01*
X118341498Y-72244180D01*
X118400463Y-72354494D01*
X118479815Y-72451185D01*
X118576506Y-72530537D01*
X118686820Y-72589502D01*
X118806518Y-72625812D01*
X118931000Y-72638072D01*
X120640717Y-72638072D01*
X120996001Y-72993356D01*
X120996001Y-74050026D01*
X120856874Y-73980567D01*
X120498688Y-73882710D01*
X120128294Y-73856611D01*
X119759925Y-73903275D01*
X119407738Y-74020906D01*
X119172914Y-74146423D01*
X119047000Y-74436395D01*
X120181000Y-75570395D01*
X120195143Y-75556253D01*
X120374748Y-75735858D01*
X120360605Y-75750000D01*
X120374748Y-75764143D01*
X120195143Y-75943748D01*
X120181000Y-75929605D01*
X119047000Y-77063605D01*
X119172914Y-77353577D01*
X119505126Y-77519433D01*
X119863312Y-77617290D01*
X120233706Y-77643389D01*
X120602075Y-77596725D01*
X120954262Y-77479094D01*
X120996001Y-77456784D01*
X120996001Y-79047275D01*
X120730834Y-78937439D01*
X120366656Y-78865000D01*
X119995344Y-78865000D01*
X119631166Y-78937439D01*
X119288118Y-79079534D01*
X118979382Y-79285825D01*
X118716825Y-79548382D01*
X118510534Y-79857118D01*
X118368439Y-80200166D01*
X118296000Y-80564344D01*
X118296000Y-80935656D01*
X118368439Y-81299834D01*
X118510534Y-81642882D01*
X118716825Y-81951618D01*
X118979382Y-82214175D01*
X119288118Y-82420466D01*
X119631166Y-82562561D01*
X119995344Y-82635000D01*
X120366656Y-82635000D01*
X120730834Y-82562561D01*
X120996002Y-82452725D01*
X120996002Y-88325642D01*
X116820906Y-92500739D01*
X116782367Y-92532367D01*
X116656153Y-92686160D01*
X116562369Y-92861620D01*
X116562368Y-92861621D01*
X116504615Y-93052006D01*
X116485114Y-93250000D01*
X116490000Y-93299608D01*
X116490001Y-100021643D01*
X114731312Y-101780332D01*
X114581426Y-101810147D01*
X114320273Y-101918320D01*
X114085241Y-102075363D01*
X113885363Y-102275241D01*
X113728320Y-102510273D01*
X113620147Y-102771426D01*
X113565000Y-103048665D01*
X113565000Y-103331335D01*
X113620147Y-103608574D01*
X113728320Y-103869727D01*
X113885363Y-104104759D01*
X114085241Y-104304637D01*
X114320273Y-104461680D01*
X114581426Y-104569853D01*
X114858665Y-104625000D01*
X115006645Y-104625000D01*
X115490000Y-105108355D01*
X115490001Y-108780000D01*
X114797493Y-108780000D01*
X114789608Y-108770392D01*
X114571101Y-108591068D01*
X114438142Y-108520000D01*
X114571101Y-108448932D01*
X114789608Y-108269608D01*
X114968932Y-108051101D01*
X115102182Y-107801808D01*
X115184236Y-107531309D01*
X115211943Y-107250000D01*
X115184236Y-106968691D01*
X115102182Y-106698192D01*
X114968932Y-106448899D01*
X114789608Y-106230392D01*
X114571101Y-106051068D01*
X114321808Y-105917818D01*
X114051309Y-105835764D01*
X113840492Y-105815000D01*
X112899508Y-105815000D01*
X112688691Y-105835764D01*
X112418192Y-105917818D01*
X112168899Y-106051068D01*
X111950392Y-106230392D01*
X111771068Y-106448899D01*
X111637818Y-106698192D01*
X111555764Y-106968691D01*
X111528057Y-107250000D01*
X111555764Y-107531309D01*
X111637818Y-107801808D01*
X111771068Y-108051101D01*
X111950392Y-108269608D01*
X112168899Y-108448932D01*
X112301858Y-108520000D01*
X112168899Y-108591068D01*
X111950392Y-108770392D01*
X111771068Y-108988899D01*
X111637818Y-109238192D01*
X111555764Y-109508691D01*
X111528057Y-109790000D01*
X111555764Y-110071309D01*
X111637818Y-110341808D01*
X111771068Y-110591101D01*
X111950392Y-110809608D01*
X112168899Y-110988932D01*
X112301858Y-111060000D01*
X112168899Y-111131068D01*
X111950392Y-111310392D01*
X111771068Y-111528899D01*
X111637818Y-111778192D01*
X111555764Y-112048691D01*
X111528057Y-112330000D01*
X111555764Y-112611309D01*
X111637818Y-112881808D01*
X111771068Y-113131101D01*
X111950392Y-113349608D01*
X112168899Y-113528932D01*
X112301858Y-113600000D01*
X112168899Y-113671068D01*
X111950392Y-113850392D01*
X111771068Y-114068899D01*
X111637818Y-114318192D01*
X111555764Y-114588691D01*
X111528057Y-114870000D01*
X111555764Y-115151309D01*
X111637818Y-115421808D01*
X111771068Y-115671101D01*
X111950392Y-115889608D01*
X112168899Y-116068932D01*
X112418192Y-116202182D01*
X112688691Y-116284236D01*
X112899508Y-116305000D01*
X113840492Y-116305000D01*
X114051309Y-116284236D01*
X114321808Y-116202182D01*
X114571101Y-116068932D01*
X114789608Y-115889608D01*
X114968932Y-115671101D01*
X115102182Y-115421808D01*
X115184236Y-115151309D01*
X115211943Y-114870000D01*
X115184236Y-114588691D01*
X115102182Y-114318192D01*
X114968932Y-114068899D01*
X114789608Y-113850392D01*
X114571101Y-113671068D01*
X114438142Y-113600000D01*
X114571101Y-113528932D01*
X114789608Y-113349608D01*
X114968932Y-113131101D01*
X115102182Y-112881808D01*
X115106936Y-112866134D01*
X115196397Y-113116292D01*
X115263329Y-113241514D01*
X115507298Y-113313097D01*
X116320395Y-112500000D01*
X115507298Y-111686903D01*
X115263329Y-111758486D01*
X115161491Y-111973710D01*
X115102182Y-111778192D01*
X114968932Y-111528899D01*
X114789608Y-111310392D01*
X114571101Y-111131068D01*
X114438142Y-111060000D01*
X114571101Y-110988932D01*
X114789608Y-110809608D01*
X114797493Y-110800000D01*
X115308684Y-110800000D01*
X115385363Y-110914759D01*
X115585241Y-111114637D01*
X115785869Y-111248692D01*
X115758486Y-111263329D01*
X115686903Y-111507298D01*
X116500000Y-112320395D01*
X116514143Y-112306253D01*
X116693748Y-112485858D01*
X116679605Y-112500000D01*
X116693748Y-112514143D01*
X116514143Y-112693748D01*
X116500000Y-112679605D01*
X115686903Y-113492702D01*
X115758486Y-113736671D01*
X116013996Y-113857571D01*
X116288184Y-113926300D01*
X116570512Y-113940217D01*
X116850130Y-113898787D01*
X117116292Y-113803603D01*
X117240000Y-113737480D01*
X117240001Y-116065197D01*
X115110199Y-118195000D01*
X114858665Y-118195000D01*
X114581426Y-118250147D01*
X114320273Y-118358320D01*
X114085241Y-118515363D01*
X113885363Y-118715241D01*
X113728320Y-118950273D01*
X113620147Y-119211426D01*
X113565000Y-119488665D01*
X113565000Y-119771335D01*
X113620147Y-120048574D01*
X113728320Y-120309727D01*
X113885363Y-120544759D01*
X114085241Y-120744637D01*
X114320273Y-120901680D01*
X114581426Y-121009853D01*
X114858665Y-121065000D01*
X115141335Y-121065000D01*
X115418574Y-121009853D01*
X115679727Y-120901680D01*
X115914759Y-120744637D01*
X116114637Y-120544759D01*
X116271680Y-120309727D01*
X116379853Y-120048574D01*
X116435000Y-119771335D01*
X116435000Y-119488665D01*
X116379853Y-119211426D01*
X116339880Y-119114922D01*
X117940000Y-117514801D01*
X121665011Y-121239813D01*
X121665011Y-121329645D01*
X121558725Y-121272834D01*
X121275032Y-121186776D01*
X121053936Y-121165000D01*
X120446064Y-121165000D01*
X120224968Y-121186776D01*
X119941275Y-121272834D01*
X119679821Y-121412583D01*
X119450655Y-121600655D01*
X119262583Y-121829821D01*
X119219727Y-121910000D01*
X114984803Y-121910000D01*
X113260000Y-120185199D01*
X113260000Y-118832324D01*
X113263676Y-118795001D01*
X113260000Y-118757678D01*
X113260000Y-118757669D01*
X113249003Y-118646016D01*
X113205546Y-118502755D01*
X113134974Y-118370726D01*
X113121811Y-118354687D01*
X113063799Y-118283998D01*
X113063795Y-118283994D01*
X113040001Y-118255001D01*
X113011008Y-118231207D01*
X108414077Y-113634278D01*
X108429094Y-113619261D01*
X108467633Y-113587633D01*
X108593847Y-113433840D01*
X108687632Y-113258380D01*
X108711188Y-113180726D01*
X108745385Y-113067995D01*
X108764886Y-112870000D01*
X108760000Y-112820392D01*
X108760000Y-103048665D01*
X109085000Y-103048665D01*
X109085000Y-103331335D01*
X109140147Y-103608574D01*
X109248320Y-103869727D01*
X109405363Y-104104759D01*
X109605241Y-104304637D01*
X109840273Y-104461680D01*
X110101426Y-104569853D01*
X110378665Y-104625000D01*
X110661335Y-104625000D01*
X110938574Y-104569853D01*
X111199727Y-104461680D01*
X111434759Y-104304637D01*
X111634637Y-104104759D01*
X111791680Y-103869727D01*
X111899853Y-103608574D01*
X111955000Y-103331335D01*
X111955000Y-103048665D01*
X111899853Y-102771426D01*
X111791680Y-102510273D01*
X111634637Y-102275241D01*
X111434759Y-102075363D01*
X111199727Y-101918320D01*
X110938574Y-101810147D01*
X110661335Y-101755000D01*
X110378665Y-101755000D01*
X110101426Y-101810147D01*
X109840273Y-101918320D01*
X109605241Y-102075363D01*
X109405363Y-102275241D01*
X109248320Y-102510273D01*
X109140147Y-102771426D01*
X109085000Y-103048665D01*
X108760000Y-103048665D01*
X108760000Y-95428665D01*
X109085000Y-95428665D01*
X109085000Y-95711335D01*
X109140147Y-95988574D01*
X109248320Y-96249727D01*
X109405363Y-96484759D01*
X109605241Y-96684637D01*
X109840273Y-96841680D01*
X110101426Y-96949853D01*
X110378665Y-97005000D01*
X110661335Y-97005000D01*
X110938574Y-96949853D01*
X111199727Y-96841680D01*
X111434759Y-96684637D01*
X111634637Y-96484759D01*
X111791680Y-96249727D01*
X111899853Y-95988574D01*
X111955000Y-95711335D01*
X111955000Y-95428665D01*
X113565000Y-95428665D01*
X113565000Y-95711335D01*
X113620147Y-95988574D01*
X113728320Y-96249727D01*
X113885363Y-96484759D01*
X114085241Y-96684637D01*
X114320273Y-96841680D01*
X114581426Y-96949853D01*
X114858665Y-97005000D01*
X115141335Y-97005000D01*
X115418574Y-96949853D01*
X115679727Y-96841680D01*
X115914759Y-96684637D01*
X116114637Y-96484759D01*
X116271680Y-96249727D01*
X116379853Y-95988574D01*
X116435000Y-95711335D01*
X116435000Y-95428665D01*
X116379853Y-95151426D01*
X116271680Y-94890273D01*
X116114637Y-94655241D01*
X115914759Y-94455363D01*
X115679727Y-94298320D01*
X115418574Y-94190147D01*
X115141335Y-94135000D01*
X114858665Y-94135000D01*
X114581426Y-94190147D01*
X114320273Y-94298320D01*
X114085241Y-94455363D01*
X113885363Y-94655241D01*
X113728320Y-94890273D01*
X113620147Y-95151426D01*
X113565000Y-95428665D01*
X111955000Y-95428665D01*
X111899853Y-95151426D01*
X111791680Y-94890273D01*
X111634637Y-94655241D01*
X111434759Y-94455363D01*
X111199727Y-94298320D01*
X110938574Y-94190147D01*
X110661335Y-94135000D01*
X110378665Y-94135000D01*
X110101426Y-94190147D01*
X109840273Y-94298320D01*
X109605241Y-94455363D01*
X109405363Y-94655241D01*
X109248320Y-94890273D01*
X109140147Y-95151426D01*
X109085000Y-95428665D01*
X108760000Y-95428665D01*
X108760000Y-91709000D01*
X109048883Y-91709000D01*
X109384081Y-91642325D01*
X109699831Y-91511537D01*
X109983998Y-91321663D01*
X110225663Y-91079998D01*
X110415537Y-90795831D01*
X110529790Y-90520000D01*
X112011928Y-90520000D01*
X112024188Y-90644482D01*
X112060498Y-90764180D01*
X112119463Y-90874494D01*
X112198815Y-90971185D01*
X112295506Y-91050537D01*
X112405820Y-91109502D01*
X112525518Y-91145812D01*
X112650000Y-91158072D01*
X113164250Y-91155000D01*
X113323000Y-90996250D01*
X113323000Y-89847000D01*
X112173750Y-89847000D01*
X112015000Y-90005750D01*
X112011928Y-90520000D01*
X110529790Y-90520000D01*
X110546325Y-90480081D01*
X110613000Y-90144883D01*
X110613000Y-89803117D01*
X110546325Y-89467919D01*
X110415537Y-89152169D01*
X110260407Y-88920000D01*
X112011928Y-88920000D01*
X112015000Y-89434250D01*
X112173750Y-89593000D01*
X113323000Y-89593000D01*
X113323000Y-88443750D01*
X113577000Y-88443750D01*
X113577000Y-89593000D01*
X113597000Y-89593000D01*
X113597000Y-89847000D01*
X113577000Y-89847000D01*
X113577000Y-90996250D01*
X113735750Y-91155000D01*
X114250000Y-91158072D01*
X114374482Y-91145812D01*
X114494180Y-91109502D01*
X114604494Y-91050537D01*
X114701185Y-90971185D01*
X114714790Y-90954607D01*
X114770273Y-90991680D01*
X115031426Y-91099853D01*
X115308665Y-91155000D01*
X115591335Y-91155000D01*
X115868574Y-91099853D01*
X116129727Y-90991680D01*
X116364759Y-90834637D01*
X116564637Y-90634759D01*
X116721680Y-90399727D01*
X116829853Y-90138574D01*
X116885000Y-89861335D01*
X116885000Y-89578665D01*
X116829853Y-89301426D01*
X116721680Y-89040273D01*
X116564637Y-88805241D01*
X116364759Y-88605363D01*
X116129727Y-88448320D01*
X115868574Y-88340147D01*
X115591335Y-88285000D01*
X115308665Y-88285000D01*
X115031426Y-88340147D01*
X114770273Y-88448320D01*
X114714790Y-88485393D01*
X114701185Y-88468815D01*
X114604494Y-88389463D01*
X114494180Y-88330498D01*
X114374482Y-88294188D01*
X114250000Y-88281928D01*
X113735750Y-88285000D01*
X113577000Y-88443750D01*
X113323000Y-88443750D01*
X113164250Y-88285000D01*
X112650000Y-88281928D01*
X112525518Y-88294188D01*
X112405820Y-88330498D01*
X112295506Y-88389463D01*
X112198815Y-88468815D01*
X112119463Y-88565506D01*
X112060498Y-88675820D01*
X112024188Y-88795518D01*
X112011928Y-88920000D01*
X110260407Y-88920000D01*
X110225663Y-88868002D01*
X109983998Y-88626337D01*
X109699831Y-88436463D01*
X109384081Y-88305675D01*
X109048883Y-88239000D01*
X108707117Y-88239000D01*
X108371919Y-88305675D01*
X108056169Y-88436463D01*
X107772002Y-88626337D01*
X107530337Y-88868002D01*
X107340463Y-89152169D01*
X107209675Y-89467919D01*
X107143000Y-89803117D01*
X107143000Y-90144883D01*
X107165524Y-90258121D01*
X107000744Y-90422901D01*
X106906154Y-90538160D01*
X106812368Y-90713621D01*
X106754615Y-90904006D01*
X106735114Y-91102000D01*
X106742403Y-91176000D01*
X106740000Y-91200393D01*
X106740000Y-94398593D01*
X106679727Y-94358320D01*
X106418574Y-94250147D01*
X106141335Y-94195000D01*
X105858665Y-94195000D01*
X105581426Y-94250147D01*
X105320273Y-94358320D01*
X105085241Y-94515363D01*
X104885363Y-94715241D01*
X104728320Y-94950273D01*
X104620147Y-95211426D01*
X104565000Y-95488665D01*
X104565000Y-95771335D01*
X104620147Y-96048574D01*
X104728320Y-96309727D01*
X104885363Y-96544759D01*
X105085241Y-96744637D01*
X105320273Y-96901680D01*
X105581426Y-97009853D01*
X105858665Y-97065000D01*
X106141335Y-97065000D01*
X106418574Y-97009853D01*
X106679727Y-96901680D01*
X106740000Y-96861407D01*
X106740000Y-101811928D01*
X105200000Y-101811928D01*
X105075518Y-101824188D01*
X104955820Y-101860498D01*
X104845506Y-101919463D01*
X104748815Y-101998815D01*
X104669463Y-102095506D01*
X104610498Y-102205820D01*
X104574188Y-102325518D01*
X104561928Y-102450000D01*
X104561928Y-104050000D01*
X104574188Y-104174482D01*
X104610498Y-104294180D01*
X104669463Y-104404494D01*
X104748815Y-104501185D01*
X104845506Y-104580537D01*
X104955820Y-104639502D01*
X105075518Y-104675812D01*
X105200000Y-104688072D01*
X106740001Y-104688072D01*
X106740001Y-105811928D01*
X104550000Y-105811928D01*
X104425518Y-105824188D01*
X104305820Y-105860498D01*
X104195506Y-105919463D01*
X104098815Y-105998815D01*
X104019463Y-106095506D01*
X103960498Y-106205820D01*
X103924188Y-106325518D01*
X103911928Y-106450000D01*
X103911928Y-108050000D01*
X103924188Y-108174482D01*
X103960498Y-108294180D01*
X104019463Y-108404494D01*
X104098815Y-108501185D01*
X104195506Y-108580537D01*
X104305820Y-108639502D01*
X104425518Y-108675812D01*
X104443482Y-108677581D01*
X104330392Y-108770392D01*
X104151068Y-108988899D01*
X104017818Y-109238192D01*
X103935764Y-109508691D01*
X103908057Y-109790000D01*
X103935764Y-110071309D01*
X104017818Y-110341808D01*
X104151068Y-110591101D01*
X104330392Y-110809608D01*
X104548899Y-110988932D01*
X104681858Y-111060000D01*
X104548899Y-111131068D01*
X104330392Y-111310392D01*
X104151068Y-111528899D01*
X104017818Y-111778192D01*
X103951124Y-111998056D01*
X103742702Y-111936903D01*
X102929605Y-112750000D01*
X103742702Y-113563097D01*
X103986671Y-113491514D01*
X104107571Y-113236004D01*
X104139358Y-113109193D01*
X104151068Y-113131101D01*
X104330392Y-113349608D01*
X104548899Y-113528932D01*
X104681858Y-113600000D01*
X104548899Y-113671068D01*
X104330392Y-113850392D01*
X104151068Y-114068899D01*
X104059613Y-114240000D01*
X103769396Y-114240000D01*
X103664759Y-114135363D01*
X103464131Y-114001308D01*
X103491514Y-113986671D01*
X103563097Y-113742702D01*
X102750000Y-112929605D01*
X101936903Y-113742702D01*
X102008486Y-113986671D01*
X102037341Y-114000324D01*
X101835241Y-114135363D01*
X101635363Y-114335241D01*
X101478320Y-114570273D01*
X101370147Y-114831426D01*
X101315000Y-115108665D01*
X96435000Y-115108665D01*
X96435000Y-112820512D01*
X101309783Y-112820512D01*
X101351213Y-113100130D01*
X101446397Y-113366292D01*
X101513329Y-113491514D01*
X101757298Y-113563097D01*
X102570395Y-112750000D01*
X101757298Y-111936903D01*
X101513329Y-112008486D01*
X101392429Y-112263996D01*
X101323700Y-112538184D01*
X101309783Y-112820512D01*
X96435000Y-112820512D01*
X96435000Y-111757298D01*
X101936903Y-111757298D01*
X102750000Y-112570395D01*
X103563097Y-111757298D01*
X103491514Y-111513329D01*
X103236004Y-111392429D01*
X102961816Y-111323700D01*
X102679488Y-111309783D01*
X102399870Y-111351213D01*
X102133708Y-111446397D01*
X102008486Y-111513329D01*
X101936903Y-111757298D01*
X96435000Y-111757298D01*
X96435000Y-103108665D01*
X100065000Y-103108665D01*
X100065000Y-103391335D01*
X100120147Y-103668574D01*
X100228320Y-103929727D01*
X100385363Y-104164759D01*
X100585241Y-104364637D01*
X100820273Y-104521680D01*
X101081426Y-104629853D01*
X101358665Y-104685000D01*
X101641335Y-104685000D01*
X101918574Y-104629853D01*
X102179727Y-104521680D01*
X102414759Y-104364637D01*
X102614637Y-104164759D01*
X102771680Y-103929727D01*
X102879853Y-103668574D01*
X102935000Y-103391335D01*
X102935000Y-103108665D01*
X102879853Y-102831426D01*
X102771680Y-102570273D01*
X102614637Y-102335241D01*
X102414759Y-102135363D01*
X102179727Y-101978320D01*
X101918574Y-101870147D01*
X101641335Y-101815000D01*
X101358665Y-101815000D01*
X101081426Y-101870147D01*
X100820273Y-101978320D01*
X100585241Y-102135363D01*
X100385363Y-102335241D01*
X100228320Y-102570273D01*
X100120147Y-102831426D01*
X100065000Y-103108665D01*
X96435000Y-103108665D01*
X96435000Y-95488665D01*
X100065000Y-95488665D01*
X100065000Y-95771335D01*
X100120147Y-96048574D01*
X100228320Y-96309727D01*
X100385363Y-96544759D01*
X100585241Y-96744637D01*
X100820273Y-96901680D01*
X101081426Y-97009853D01*
X101358665Y-97065000D01*
X101641335Y-97065000D01*
X101918574Y-97009853D01*
X102179727Y-96901680D01*
X102414759Y-96744637D01*
X102614637Y-96544759D01*
X102771680Y-96309727D01*
X102879853Y-96048574D01*
X102935000Y-95771335D01*
X102935000Y-95488665D01*
X102879853Y-95211426D01*
X102771680Y-94950273D01*
X102614637Y-94715241D01*
X102414759Y-94515363D01*
X102179727Y-94358320D01*
X101918574Y-94250147D01*
X101641335Y-94195000D01*
X101358665Y-94195000D01*
X101081426Y-94250147D01*
X100820273Y-94358320D01*
X100585241Y-94515363D01*
X100385363Y-94715241D01*
X100228320Y-94950273D01*
X100120147Y-95211426D01*
X100065000Y-95488665D01*
X96435000Y-95488665D01*
X96435000Y-80682401D01*
X99251400Y-80682401D01*
X99251400Y-80977599D01*
X99308990Y-81267125D01*
X99421958Y-81539853D01*
X99585961Y-81785302D01*
X99794698Y-81994039D01*
X100040147Y-82158042D01*
X100312875Y-82271010D01*
X100602401Y-82328600D01*
X100897599Y-82328600D01*
X101187125Y-82271010D01*
X101459853Y-82158042D01*
X101705302Y-81994039D01*
X101819364Y-81879977D01*
X101836898Y-81937780D01*
X101895863Y-82048094D01*
X101975215Y-82144785D01*
X102071906Y-82224137D01*
X102182220Y-82283102D01*
X102301918Y-82319412D01*
X102426400Y-82331672D01*
X104153600Y-82331672D01*
X104278082Y-82319412D01*
X104397780Y-82283102D01*
X104508094Y-82224137D01*
X104604785Y-82144785D01*
X104684137Y-82048094D01*
X104743102Y-81937780D01*
X104779412Y-81818082D01*
X104791672Y-81693600D01*
X104791672Y-81254000D01*
X107139928Y-81254000D01*
X107139928Y-83454000D01*
X107152188Y-83578482D01*
X107188498Y-83698180D01*
X107247463Y-83808494D01*
X107326815Y-83905185D01*
X107423506Y-83984537D01*
X107533820Y-84043502D01*
X107653518Y-84079812D01*
X107778000Y-84092072D01*
X109978000Y-84092072D01*
X110102482Y-84079812D01*
X110222180Y-84043502D01*
X110332494Y-83984537D01*
X110429185Y-83905185D01*
X110508537Y-83808494D01*
X110567502Y-83698180D01*
X110603812Y-83578482D01*
X110616072Y-83454000D01*
X110616072Y-81254000D01*
X110603812Y-81129518D01*
X110567502Y-81009820D01*
X110508537Y-80899506D01*
X110429185Y-80802815D01*
X110332494Y-80723463D01*
X110222180Y-80664498D01*
X110102482Y-80628188D01*
X109978000Y-80615928D01*
X107778000Y-80615928D01*
X107653518Y-80628188D01*
X107533820Y-80664498D01*
X107423506Y-80723463D01*
X107326815Y-80802815D01*
X107247463Y-80899506D01*
X107188498Y-81009820D01*
X107152188Y-81129518D01*
X107139928Y-81254000D01*
X104791672Y-81254000D01*
X104791672Y-79966400D01*
X104779412Y-79841918D01*
X104743102Y-79722220D01*
X104684137Y-79611906D01*
X104604785Y-79515215D01*
X104508094Y-79435863D01*
X104397780Y-79376898D01*
X104333426Y-79357376D01*
X104396854Y-79300293D01*
X104572684Y-79064944D01*
X104699222Y-78799814D01*
X104744958Y-78649026D01*
X104623817Y-78417000D01*
X103417000Y-78417000D01*
X103417000Y-78437000D01*
X103163000Y-78437000D01*
X103163000Y-78417000D01*
X100877000Y-78417000D01*
X100877000Y-78437000D01*
X100623000Y-78437000D01*
X100623000Y-78417000D01*
X99416183Y-78417000D01*
X99295042Y-78649026D01*
X99340778Y-78799814D01*
X99467316Y-79064944D01*
X99643146Y-79300293D01*
X99861512Y-79496817D01*
X99960103Y-79555441D01*
X99794698Y-79665961D01*
X99585961Y-79874698D01*
X99421958Y-80120147D01*
X99308990Y-80392875D01*
X99251400Y-80682401D01*
X96435000Y-80682401D01*
X96435000Y-76109026D01*
X99295042Y-76109026D01*
X99340778Y-76259814D01*
X99467316Y-76524944D01*
X99643146Y-76760293D01*
X99861512Y-76956817D01*
X99967770Y-77020000D01*
X99861512Y-77083183D01*
X99643146Y-77279707D01*
X99467316Y-77515056D01*
X99340778Y-77780186D01*
X99295042Y-77930974D01*
X99416183Y-78163000D01*
X100623000Y-78163000D01*
X100623000Y-75877000D01*
X100877000Y-75877000D01*
X100877000Y-78163000D01*
X103163000Y-78163000D01*
X103163000Y-75877000D01*
X103417000Y-75877000D01*
X103417000Y-78163000D01*
X104623817Y-78163000D01*
X104744958Y-77930974D01*
X104699222Y-77780186D01*
X104572684Y-77515056D01*
X104396854Y-77279707D01*
X104178488Y-77083183D01*
X104072230Y-77020000D01*
X104178488Y-76956817D01*
X104396854Y-76760293D01*
X104572684Y-76524944D01*
X104699222Y-76259814D01*
X104744958Y-76109026D01*
X104623817Y-75877000D01*
X103417000Y-75877000D01*
X103163000Y-75877000D01*
X100877000Y-75877000D01*
X100623000Y-75877000D01*
X99416183Y-75877000D01*
X99295042Y-76109026D01*
X96435000Y-76109026D01*
X96435000Y-75802706D01*
X118287611Y-75802706D01*
X118334275Y-76171075D01*
X118451906Y-76523262D01*
X118577423Y-76758086D01*
X118867395Y-76884000D01*
X120001395Y-75750000D01*
X118867395Y-74616000D01*
X118577423Y-74741914D01*
X118411567Y-75074126D01*
X118313710Y-75432312D01*
X118287611Y-75802706D01*
X96435000Y-75802706D01*
X96435000Y-73569026D01*
X99295042Y-73569026D01*
X99340778Y-73719814D01*
X99467316Y-73984944D01*
X99643146Y-74220293D01*
X99861512Y-74416817D01*
X99967770Y-74480000D01*
X99861512Y-74543183D01*
X99643146Y-74739707D01*
X99467316Y-74975056D01*
X99340778Y-75240186D01*
X99295042Y-75390974D01*
X99416183Y-75623000D01*
X100623000Y-75623000D01*
X100623000Y-73337000D01*
X100877000Y-73337000D01*
X100877000Y-75623000D01*
X103163000Y-75623000D01*
X103163000Y-73337000D01*
X103417000Y-73337000D01*
X103417000Y-75623000D01*
X104623817Y-75623000D01*
X104744958Y-75390974D01*
X104699222Y-75240186D01*
X104572684Y-74975056D01*
X104396854Y-74739707D01*
X104178488Y-74543183D01*
X104072230Y-74480000D01*
X104178488Y-74416817D01*
X104396854Y-74220293D01*
X104572684Y-73984944D01*
X104699222Y-73719814D01*
X104744958Y-73569026D01*
X104623817Y-73337000D01*
X103417000Y-73337000D01*
X103163000Y-73337000D01*
X100877000Y-73337000D01*
X100623000Y-73337000D01*
X99416183Y-73337000D01*
X99295042Y-73569026D01*
X96435000Y-73569026D01*
X96435000Y-70522401D01*
X99251400Y-70522401D01*
X99251400Y-70817599D01*
X99308990Y-71107125D01*
X99421958Y-71379853D01*
X99585961Y-71625302D01*
X99794698Y-71834039D01*
X99960103Y-71944559D01*
X99861512Y-72003183D01*
X99643146Y-72199707D01*
X99467316Y-72435056D01*
X99340778Y-72700186D01*
X99295042Y-72850974D01*
X99416183Y-73083000D01*
X100623000Y-73083000D01*
X100623000Y-73063000D01*
X100877000Y-73063000D01*
X100877000Y-73083000D01*
X103163000Y-73083000D01*
X103163000Y-73063000D01*
X103417000Y-73063000D01*
X103417000Y-73083000D01*
X104623817Y-73083000D01*
X104744958Y-72850974D01*
X104699222Y-72700186D01*
X104572684Y-72435056D01*
X104396854Y-72199707D01*
X104178488Y-72003183D01*
X104079897Y-71944559D01*
X104245302Y-71834039D01*
X104454039Y-71625302D01*
X104618042Y-71379853D01*
X104731010Y-71107125D01*
X104788600Y-70817599D01*
X104788600Y-70522401D01*
X104731010Y-70232875D01*
X104618042Y-69960147D01*
X104454039Y-69714698D01*
X104245302Y-69505961D01*
X103999853Y-69341958D01*
X103727125Y-69228990D01*
X103437599Y-69171400D01*
X103142401Y-69171400D01*
X102852875Y-69228990D01*
X102580147Y-69341958D01*
X102334698Y-69505961D01*
X102125961Y-69714698D01*
X102020000Y-69873281D01*
X101914039Y-69714698D01*
X101705302Y-69505961D01*
X101459853Y-69341958D01*
X101187125Y-69228990D01*
X100897599Y-69171400D01*
X100602401Y-69171400D01*
X100312875Y-69228990D01*
X100040147Y-69341958D01*
X99794698Y-69505961D01*
X99585961Y-69714698D01*
X99421958Y-69960147D01*
X99308990Y-70232875D01*
X99251400Y-70522401D01*
X96435000Y-70522401D01*
X96435000Y-68975117D01*
X107143000Y-68975117D01*
X107143000Y-69316883D01*
X107209675Y-69652081D01*
X107340463Y-69967831D01*
X107530337Y-70251998D01*
X107772002Y-70493663D01*
X108056169Y-70683537D01*
X108371919Y-70814325D01*
X108707117Y-70881000D01*
X109048883Y-70881000D01*
X109384081Y-70814325D01*
X109699831Y-70683537D01*
X109983998Y-70493663D01*
X110225663Y-70251998D01*
X110415537Y-69967831D01*
X110546325Y-69652081D01*
X110613000Y-69316883D01*
X110613000Y-68975117D01*
X110546325Y-68639919D01*
X110415537Y-68324169D01*
X110225663Y-68040002D01*
X109983998Y-67798337D01*
X109699831Y-67608463D01*
X109384081Y-67477675D01*
X109048883Y-67411000D01*
X108707117Y-67411000D01*
X108371919Y-67477675D01*
X108056169Y-67608463D01*
X107772002Y-67798337D01*
X107530337Y-68040002D01*
X107340463Y-68324169D01*
X107209675Y-68639919D01*
X107143000Y-68975117D01*
X96435000Y-68975117D01*
X96435000Y-61529872D01*
X97515000Y-61529872D01*
X97515000Y-61970128D01*
X97600890Y-62401925D01*
X97769369Y-62808669D01*
X98013962Y-63174729D01*
X98325271Y-63486038D01*
X98691331Y-63730631D01*
X99098075Y-63899110D01*
X99529872Y-63985000D01*
X99970128Y-63985000D01*
X100401925Y-63899110D01*
X100808669Y-63730631D01*
X101174729Y-63486038D01*
X101486038Y-63174729D01*
X101730631Y-62808669D01*
X101899110Y-62401925D01*
X101985000Y-61970128D01*
X101985000Y-61529872D01*
X101899110Y-61098075D01*
X101730631Y-60691331D01*
X101553343Y-60426000D01*
X107139928Y-60426000D01*
X107139928Y-62626000D01*
X107152188Y-62750482D01*
X107188498Y-62870180D01*
X107247463Y-62980494D01*
X107326815Y-63077185D01*
X107423506Y-63156537D01*
X107533820Y-63215502D01*
X107653518Y-63251812D01*
X107778000Y-63264072D01*
X109978000Y-63264072D01*
X110102482Y-63251812D01*
X110222180Y-63215502D01*
X110332494Y-63156537D01*
X110429185Y-63077185D01*
X110508537Y-62980494D01*
X110567502Y-62870180D01*
X110603812Y-62750482D01*
X110616072Y-62626000D01*
X110616072Y-61850512D01*
X112136783Y-61850512D01*
X112178213Y-62130130D01*
X112273397Y-62396292D01*
X112340329Y-62521514D01*
X112584298Y-62593097D01*
X113397395Y-61780000D01*
X112584298Y-60966903D01*
X112340329Y-61038486D01*
X112219429Y-61293996D01*
X112150700Y-61568184D01*
X112136783Y-61850512D01*
X110616072Y-61850512D01*
X110616072Y-60787298D01*
X112763903Y-60787298D01*
X113577000Y-61600395D01*
X113591143Y-61586253D01*
X113770748Y-61765858D01*
X113756605Y-61780000D01*
X113770748Y-61794143D01*
X113591143Y-61973748D01*
X113577000Y-61959605D01*
X112763903Y-62772702D01*
X112835486Y-63016671D01*
X113090996Y-63137571D01*
X113365184Y-63206300D01*
X113647512Y-63220217D01*
X113927130Y-63178787D01*
X114193292Y-63083603D01*
X114315309Y-63018384D01*
X114325815Y-63031185D01*
X114422506Y-63110537D01*
X114532820Y-63169502D01*
X114652518Y-63205812D01*
X114777000Y-63218072D01*
X116377000Y-63218072D01*
X116501482Y-63205812D01*
X116621180Y-63169502D01*
X116731494Y-63110537D01*
X116828185Y-63031185D01*
X116907537Y-62934494D01*
X116966502Y-62824180D01*
X117002812Y-62704482D01*
X117015072Y-62580000D01*
X117015072Y-60980000D01*
X117002812Y-60855518D01*
X116966502Y-60735820D01*
X116907537Y-60625506D01*
X116828185Y-60528815D01*
X116731494Y-60449463D01*
X116621180Y-60390498D01*
X116501482Y-60354188D01*
X116377000Y-60341928D01*
X114777000Y-60341928D01*
X114652518Y-60354188D01*
X114532820Y-60390498D01*
X114422506Y-60449463D01*
X114325815Y-60528815D01*
X114315193Y-60541758D01*
X114063004Y-60422429D01*
X113788816Y-60353700D01*
X113506488Y-60339783D01*
X113226870Y-60381213D01*
X112960708Y-60476397D01*
X112835486Y-60543329D01*
X112763903Y-60787298D01*
X110616072Y-60787298D01*
X110616072Y-60426000D01*
X110603812Y-60301518D01*
X110567502Y-60181820D01*
X110508537Y-60071506D01*
X110429185Y-59974815D01*
X110332494Y-59895463D01*
X110222180Y-59836498D01*
X110102482Y-59800188D01*
X109978000Y-59787928D01*
X107778000Y-59787928D01*
X107653518Y-59800188D01*
X107533820Y-59836498D01*
X107423506Y-59895463D01*
X107326815Y-59974815D01*
X107247463Y-60071506D01*
X107188498Y-60181820D01*
X107152188Y-60301518D01*
X107139928Y-60426000D01*
X101553343Y-60426000D01*
X101486038Y-60325271D01*
X101174729Y-60013962D01*
X100808669Y-59769369D01*
X100401925Y-59600890D01*
X99970128Y-59515000D01*
X99529872Y-59515000D01*
X99098075Y-59600890D01*
X98691331Y-59769369D01*
X98325271Y-60013962D01*
X98013962Y-60325271D01*
X97769369Y-60691331D01*
X97600890Y-61098075D01*
X97515000Y-61529872D01*
X96435000Y-61529872D01*
X96435000Y-58435000D01*
X125065000Y-58435000D01*
X125065001Y-141665000D01*
G37*
%TD.AperFunction*%
%TD*%
M02*
