%TF.GenerationSoftware,KiCad,Pcbnew,5.1.8-db9833491~88~ubuntu20.04.1*%
%TF.CreationDate,2020-12-11T17:06:23-05:00*%
%TF.ProjectId,MFOS_VCLFO_aux,4d464f53-5f56-4434-9c46-4f5f6175782e,rev?*%
%TF.SameCoordinates,Original*%
%TF.FileFunction,Legend,Top*%
%TF.FilePolarity,Positive*%
%FSLAX46Y46*%
G04 Gerber Fmt 4.6, Leading zero omitted, Abs format (unit mm)*
G04 Created by KiCad (PCBNEW 5.1.8-db9833491~88~ubuntu20.04.1) date 2020-12-11 17:06:23*
%MOMM*%
%LPD*%
G01*
G04 APERTURE LIST*
%ADD10C,0.150000*%
%ADD11C,0.010000*%
%ADD12C,0.120000*%
G04 APERTURE END LIST*
D10*
X99089285Y-134142857D02*
X98589285Y-134142857D01*
X98660714Y-134142857D02*
X98625000Y-134107142D01*
X98589285Y-134035714D01*
X98589285Y-133928571D01*
X98625000Y-133857142D01*
X98696428Y-133821428D01*
X99089285Y-133821428D01*
X98696428Y-133821428D02*
X98625000Y-133785714D01*
X98589285Y-133714285D01*
X98589285Y-133607142D01*
X98625000Y-133535714D01*
X98696428Y-133500000D01*
X99089285Y-133500000D01*
X99089285Y-133035714D02*
X99053571Y-133107142D01*
X99017857Y-133142857D01*
X98946428Y-133178571D01*
X98732142Y-133178571D01*
X98660714Y-133142857D01*
X98625000Y-133107142D01*
X98589285Y-133035714D01*
X98589285Y-132928571D01*
X98625000Y-132857142D01*
X98660714Y-132821428D01*
X98732142Y-132785714D01*
X98946428Y-132785714D01*
X99017857Y-132821428D01*
X99053571Y-132857142D01*
X99089285Y-132928571D01*
X99089285Y-133035714D01*
X99089285Y-132142857D02*
X98339285Y-132142857D01*
X99053571Y-132142857D02*
X99089285Y-132214285D01*
X99089285Y-132357142D01*
X99053571Y-132428571D01*
X99017857Y-132464285D01*
X98946428Y-132500000D01*
X98732142Y-132500000D01*
X98660714Y-132464285D01*
X98625000Y-132428571D01*
X98589285Y-132357142D01*
X98589285Y-132214285D01*
X98625000Y-132142857D01*
X99089285Y-130892857D02*
X98696428Y-130892857D01*
X98625000Y-130928571D01*
X98589285Y-131000000D01*
X98589285Y-131142857D01*
X98625000Y-131214285D01*
X99053571Y-130892857D02*
X99089285Y-130964285D01*
X99089285Y-131142857D01*
X99053571Y-131214285D01*
X98982142Y-131250000D01*
X98910714Y-131250000D01*
X98839285Y-131214285D01*
X98803571Y-131142857D01*
X98803571Y-130964285D01*
X98767857Y-130892857D01*
X99089285Y-130214285D02*
X98339285Y-130214285D01*
X99053571Y-130214285D02*
X99089285Y-130285714D01*
X99089285Y-130428571D01*
X99053571Y-130500000D01*
X99017857Y-130535714D01*
X98946428Y-130571428D01*
X98732142Y-130571428D01*
X98660714Y-130535714D01*
X98625000Y-130500000D01*
X98589285Y-130428571D01*
X98589285Y-130285714D01*
X98625000Y-130214285D01*
X99089285Y-129535714D02*
X98696428Y-129535714D01*
X98625000Y-129571428D01*
X98589285Y-129642857D01*
X98589285Y-129785714D01*
X98625000Y-129857142D01*
X99053571Y-129535714D02*
X99089285Y-129607142D01*
X99089285Y-129785714D01*
X99053571Y-129857142D01*
X98982142Y-129892857D01*
X98910714Y-129892857D01*
X98839285Y-129857142D01*
X98803571Y-129785714D01*
X98803571Y-129607142D01*
X98767857Y-129535714D01*
X98589285Y-129178571D02*
X99339285Y-129178571D01*
X98625000Y-129178571D02*
X98589285Y-129107142D01*
X98589285Y-128964285D01*
X98625000Y-128892857D01*
X98660714Y-128857142D01*
X98732142Y-128821428D01*
X98946428Y-128821428D01*
X99017857Y-128857142D01*
X99053571Y-128892857D01*
X99089285Y-128964285D01*
X99089285Y-129107142D01*
X99053571Y-129178571D01*
X98589285Y-128607142D02*
X98589285Y-128321428D01*
X98339285Y-128500000D02*
X98982142Y-128500000D01*
X99053571Y-128464285D01*
X99089285Y-128392857D01*
X99089285Y-128321428D01*
X99053571Y-127785714D02*
X99089285Y-127857142D01*
X99089285Y-128000000D01*
X99053571Y-128071428D01*
X98982142Y-128107142D01*
X98696428Y-128107142D01*
X98625000Y-128071428D01*
X98589285Y-128000000D01*
X98589285Y-127857142D01*
X98625000Y-127785714D01*
X98696428Y-127750000D01*
X98767857Y-127750000D01*
X98839285Y-128107142D01*
X99089285Y-127107142D02*
X98339285Y-127107142D01*
X99053571Y-127107142D02*
X99089285Y-127178571D01*
X99089285Y-127321428D01*
X99053571Y-127392857D01*
X99017857Y-127428571D01*
X98946428Y-127464285D01*
X98732142Y-127464285D01*
X98660714Y-127428571D01*
X98625000Y-127392857D01*
X98589285Y-127321428D01*
X98589285Y-127178571D01*
X98625000Y-127107142D01*
X98589285Y-126285714D02*
X98589285Y-126000000D01*
X99089285Y-126178571D02*
X98446428Y-126178571D01*
X98375000Y-126142857D01*
X98339285Y-126071428D01*
X98339285Y-126000000D01*
X99089285Y-125750000D02*
X98589285Y-125750000D01*
X98732142Y-125750000D02*
X98660714Y-125714285D01*
X98625000Y-125678571D01*
X98589285Y-125607142D01*
X98589285Y-125535714D01*
X99089285Y-125178571D02*
X99053571Y-125250000D01*
X99017857Y-125285714D01*
X98946428Y-125321428D01*
X98732142Y-125321428D01*
X98660714Y-125285714D01*
X98625000Y-125250000D01*
X98589285Y-125178571D01*
X98589285Y-125071428D01*
X98625000Y-125000000D01*
X98660714Y-124964285D01*
X98732142Y-124928571D01*
X98946428Y-124928571D01*
X99017857Y-124964285D01*
X99053571Y-125000000D01*
X99089285Y-125071428D01*
X99089285Y-125178571D01*
X99089285Y-124607142D02*
X98589285Y-124607142D01*
X98660714Y-124607142D02*
X98625000Y-124571428D01*
X98589285Y-124500000D01*
X98589285Y-124392857D01*
X98625000Y-124321428D01*
X98696428Y-124285714D01*
X99089285Y-124285714D01*
X98696428Y-124285714D02*
X98625000Y-124250000D01*
X98589285Y-124178571D01*
X98589285Y-124071428D01*
X98625000Y-124000000D01*
X98696428Y-123964285D01*
X99089285Y-123964285D01*
X99089285Y-122714285D02*
X98339285Y-122714285D01*
X99053571Y-122714285D02*
X99089285Y-122785714D01*
X99089285Y-122928571D01*
X99053571Y-123000000D01*
X99017857Y-123035714D01*
X98946428Y-123071428D01*
X98732142Y-123071428D01*
X98660714Y-123035714D01*
X98625000Y-123000000D01*
X98589285Y-122928571D01*
X98589285Y-122785714D01*
X98625000Y-122714285D01*
X99053571Y-122071428D02*
X99089285Y-122142857D01*
X99089285Y-122285714D01*
X99053571Y-122357142D01*
X98982142Y-122392857D01*
X98696428Y-122392857D01*
X98625000Y-122357142D01*
X98589285Y-122285714D01*
X98589285Y-122142857D01*
X98625000Y-122071428D01*
X98696428Y-122035714D01*
X98767857Y-122035714D01*
X98839285Y-122392857D01*
X99053571Y-121750000D02*
X99089285Y-121678571D01*
X99089285Y-121535714D01*
X99053571Y-121464285D01*
X98982142Y-121428571D01*
X98946428Y-121428571D01*
X98875000Y-121464285D01*
X98839285Y-121535714D01*
X98839285Y-121642857D01*
X98803571Y-121714285D01*
X98732142Y-121750000D01*
X98696428Y-121750000D01*
X98625000Y-121714285D01*
X98589285Y-121642857D01*
X98589285Y-121535714D01*
X98625000Y-121464285D01*
X99089285Y-121107142D02*
X98589285Y-121107142D01*
X98339285Y-121107142D02*
X98375000Y-121142857D01*
X98410714Y-121107142D01*
X98375000Y-121071428D01*
X98339285Y-121107142D01*
X98410714Y-121107142D01*
X98589285Y-120428571D02*
X99196428Y-120428571D01*
X99267857Y-120464285D01*
X99303571Y-120500000D01*
X99339285Y-120571428D01*
X99339285Y-120678571D01*
X99303571Y-120750000D01*
X99053571Y-120428571D02*
X99089285Y-120500000D01*
X99089285Y-120642857D01*
X99053571Y-120714285D01*
X99017857Y-120750000D01*
X98946428Y-120785714D01*
X98732142Y-120785714D01*
X98660714Y-120750000D01*
X98625000Y-120714285D01*
X98589285Y-120642857D01*
X98589285Y-120500000D01*
X98625000Y-120428571D01*
X98589285Y-120071428D02*
X99089285Y-120071428D01*
X98660714Y-120071428D02*
X98625000Y-120035714D01*
X98589285Y-119964285D01*
X98589285Y-119857142D01*
X98625000Y-119785714D01*
X98696428Y-119750000D01*
X99089285Y-119750000D01*
X99089285Y-118821428D02*
X98339285Y-118821428D01*
X98625000Y-118821428D02*
X98589285Y-118750000D01*
X98589285Y-118607142D01*
X98625000Y-118535714D01*
X98660714Y-118500000D01*
X98732142Y-118464285D01*
X98946428Y-118464285D01*
X99017857Y-118500000D01*
X99053571Y-118535714D01*
X99089285Y-118607142D01*
X99089285Y-118750000D01*
X99053571Y-118821428D01*
X98589285Y-118214285D02*
X99089285Y-118035714D01*
X98589285Y-117857142D02*
X99089285Y-118035714D01*
X99267857Y-118107142D01*
X99303571Y-118142857D01*
X99339285Y-118214285D01*
X98339285Y-117107142D02*
X98339285Y-116678571D01*
X99089285Y-116892857D02*
X98339285Y-116892857D01*
X99089285Y-116428571D02*
X98589285Y-116428571D01*
X98339285Y-116428571D02*
X98375000Y-116464285D01*
X98410714Y-116428571D01*
X98375000Y-116392857D01*
X98339285Y-116428571D01*
X98410714Y-116428571D01*
X99089285Y-116071428D02*
X98589285Y-116071428D01*
X98660714Y-116071428D02*
X98625000Y-116035714D01*
X98589285Y-115964285D01*
X98589285Y-115857142D01*
X98625000Y-115785714D01*
X98696428Y-115750000D01*
X99089285Y-115750000D01*
X98696428Y-115750000D02*
X98625000Y-115714285D01*
X98589285Y-115642857D01*
X98589285Y-115535714D01*
X98625000Y-115464285D01*
X98696428Y-115428571D01*
X99089285Y-115428571D01*
X99375000Y-114285714D02*
X99339285Y-114321428D01*
X99232142Y-114392857D01*
X99160714Y-114428571D01*
X99053571Y-114464285D01*
X98875000Y-114500000D01*
X98732142Y-114500000D01*
X98553571Y-114464285D01*
X98446428Y-114428571D01*
X98375000Y-114392857D01*
X98267857Y-114321428D01*
X98232142Y-114285714D01*
X99053571Y-114035714D02*
X99089285Y-113928571D01*
X99089285Y-113750000D01*
X99053571Y-113678571D01*
X99017857Y-113642857D01*
X98946428Y-113607142D01*
X98875000Y-113607142D01*
X98803571Y-113642857D01*
X98767857Y-113678571D01*
X98732142Y-113750000D01*
X98696428Y-113892857D01*
X98660714Y-113964285D01*
X98625000Y-114000000D01*
X98553571Y-114035714D01*
X98482142Y-114035714D01*
X98410714Y-114000000D01*
X98375000Y-113964285D01*
X98339285Y-113892857D01*
X98339285Y-113714285D01*
X98375000Y-113607142D01*
X99053571Y-113000000D02*
X99089285Y-113071428D01*
X99089285Y-113214285D01*
X99053571Y-113285714D01*
X98982142Y-113321428D01*
X98696428Y-113321428D01*
X98625000Y-113285714D01*
X98589285Y-113214285D01*
X98589285Y-113071428D01*
X98625000Y-113000000D01*
X98696428Y-112964285D01*
X98767857Y-112964285D01*
X98839285Y-113321428D01*
X99089285Y-112642857D02*
X98589285Y-112642857D01*
X98732142Y-112642857D02*
X98660714Y-112607142D01*
X98625000Y-112571428D01*
X98589285Y-112500000D01*
X98589285Y-112428571D01*
X98589285Y-112250000D02*
X99089285Y-112071428D01*
X98589285Y-111892857D01*
X99089285Y-111500000D02*
X99053571Y-111571428D01*
X99017857Y-111607142D01*
X98946428Y-111642857D01*
X98732142Y-111642857D01*
X98660714Y-111607142D01*
X98625000Y-111571428D01*
X98589285Y-111500000D01*
X98589285Y-111392857D01*
X98625000Y-111321428D01*
X98660714Y-111285714D01*
X98732142Y-111250000D01*
X98946428Y-111250000D01*
X99017857Y-111285714D01*
X99053571Y-111321428D01*
X99089285Y-111392857D01*
X99089285Y-111500000D01*
X99375000Y-111000000D02*
X99339285Y-110964285D01*
X99232142Y-110892857D01*
X99160714Y-110857142D01*
X99053571Y-110821428D01*
X98875000Y-110785714D01*
X98732142Y-110785714D01*
X98553571Y-110821428D01*
X98446428Y-110857142D01*
X98375000Y-110892857D01*
X98267857Y-110964285D01*
X98232142Y-111000000D01*
X99089285Y-109857142D02*
X98339285Y-109857142D01*
X98339285Y-109571428D01*
X98375000Y-109500000D01*
X98410714Y-109464285D01*
X98482142Y-109428571D01*
X98589285Y-109428571D01*
X98660714Y-109464285D01*
X98696428Y-109500000D01*
X98732142Y-109571428D01*
X98732142Y-109857142D01*
X99089285Y-108785714D02*
X98696428Y-108785714D01*
X98625000Y-108821428D01*
X98589285Y-108892857D01*
X98589285Y-109035714D01*
X98625000Y-109107142D01*
X99053571Y-108785714D02*
X99089285Y-108857142D01*
X99089285Y-109035714D01*
X99053571Y-109107142D01*
X98982142Y-109142857D01*
X98910714Y-109142857D01*
X98839285Y-109107142D01*
X98803571Y-109035714D01*
X98803571Y-108857142D01*
X98767857Y-108785714D01*
X99089285Y-108428571D02*
X98589285Y-108428571D01*
X98732142Y-108428571D02*
X98660714Y-108392857D01*
X98625000Y-108357142D01*
X98589285Y-108285714D01*
X98589285Y-108214285D01*
X99089285Y-107964285D02*
X98339285Y-107964285D01*
X98803571Y-107892857D02*
X99089285Y-107678571D01*
X98589285Y-107678571D02*
X98875000Y-107964285D01*
X99089285Y-107357142D02*
X98339285Y-107357142D01*
X99089285Y-107035714D02*
X98696428Y-107035714D01*
X98625000Y-107071428D01*
X98589285Y-107142857D01*
X98589285Y-107250000D01*
X98625000Y-107321428D01*
X98660714Y-107357142D01*
X98589285Y-106357142D02*
X99089285Y-106357142D01*
X98589285Y-106678571D02*
X98982142Y-106678571D01*
X99053571Y-106642857D01*
X99089285Y-106571428D01*
X99089285Y-106464285D01*
X99053571Y-106392857D01*
X99017857Y-106357142D01*
X99089285Y-106000000D02*
X98589285Y-106000000D01*
X98732142Y-106000000D02*
X98660714Y-105964285D01*
X98625000Y-105928571D01*
X98589285Y-105857142D01*
X98589285Y-105785714D01*
X99053571Y-105571428D02*
X99089285Y-105500000D01*
X99089285Y-105357142D01*
X99053571Y-105285714D01*
X98982142Y-105250000D01*
X98946428Y-105250000D01*
X98875000Y-105285714D01*
X98839285Y-105357142D01*
X98839285Y-105464285D01*
X98803571Y-105535714D01*
X98732142Y-105571428D01*
X98696428Y-105571428D01*
X98625000Y-105535714D01*
X98589285Y-105464285D01*
X98589285Y-105357142D01*
X98625000Y-105285714D01*
X98589285Y-105035714D02*
X98589285Y-104750000D01*
X98339285Y-104928571D02*
X98982142Y-104928571D01*
X99053571Y-104892857D01*
X99089285Y-104821428D01*
X99089285Y-104750000D01*
X97589285Y-134160714D02*
X96839285Y-134160714D01*
X97375000Y-133910714D01*
X96839285Y-133660714D01*
X97589285Y-133660714D01*
X97196428Y-133053571D02*
X97196428Y-133303571D01*
X97589285Y-133303571D02*
X96839285Y-133303571D01*
X96839285Y-132946428D01*
X96839285Y-132517857D02*
X96839285Y-132374999D01*
X96875000Y-132303571D01*
X96946428Y-132232142D01*
X97089285Y-132196428D01*
X97339285Y-132196428D01*
X97482142Y-132232142D01*
X97553571Y-132303571D01*
X97589285Y-132374999D01*
X97589285Y-132517857D01*
X97553571Y-132589285D01*
X97482142Y-132660714D01*
X97339285Y-132696428D01*
X97089285Y-132696428D01*
X96946428Y-132660714D01*
X96875000Y-132589285D01*
X96839285Y-132517857D01*
X97553571Y-131910714D02*
X97589285Y-131803571D01*
X97589285Y-131624999D01*
X97553571Y-131553571D01*
X97517857Y-131517857D01*
X97446428Y-131482142D01*
X97375000Y-131482142D01*
X97303571Y-131517857D01*
X97267857Y-131553571D01*
X97232142Y-131624999D01*
X97196428Y-131767857D01*
X97160714Y-131839285D01*
X97125000Y-131874999D01*
X97053571Y-131910714D01*
X96982142Y-131910714D01*
X96910714Y-131874999D01*
X96875000Y-131839285D01*
X96839285Y-131767857D01*
X96839285Y-131589285D01*
X96875000Y-131482142D01*
X96839285Y-130696428D02*
X97589285Y-130446428D01*
X96839285Y-130196428D01*
X97517857Y-129517857D02*
X97553571Y-129553571D01*
X97589285Y-129660714D01*
X97589285Y-129732142D01*
X97553571Y-129839285D01*
X97482142Y-129910714D01*
X97410714Y-129946428D01*
X97267857Y-129982142D01*
X97160714Y-129982142D01*
X97017857Y-129946428D01*
X96946428Y-129910714D01*
X96875000Y-129839285D01*
X96839285Y-129732142D01*
X96839285Y-129660714D01*
X96875000Y-129553571D01*
X96910714Y-129517857D01*
X97589285Y-128267857D02*
X97589285Y-128624999D01*
X96839285Y-128624999D01*
X97196428Y-127767857D02*
X97196428Y-128017857D01*
X97589285Y-128017857D02*
X96839285Y-128017857D01*
X96839285Y-127660714D01*
X96839285Y-127232142D02*
X96839285Y-127089285D01*
X96875000Y-127017857D01*
X96946428Y-126946428D01*
X97089285Y-126910714D01*
X97339285Y-126910714D01*
X97482142Y-126946428D01*
X97553571Y-127017857D01*
X97589285Y-127089285D01*
X97589285Y-127232142D01*
X97553571Y-127303571D01*
X97482142Y-127374999D01*
X97339285Y-127410714D01*
X97089285Y-127410714D01*
X96946428Y-127374999D01*
X96875000Y-127303571D01*
X96839285Y-127232142D01*
X97089285Y-126017857D02*
X97839285Y-126017857D01*
X97125000Y-126017857D02*
X97089285Y-125946428D01*
X97089285Y-125803571D01*
X97125000Y-125732142D01*
X97160714Y-125696428D01*
X97232142Y-125660714D01*
X97446428Y-125660714D01*
X97517857Y-125696428D01*
X97553571Y-125732142D01*
X97589285Y-125803571D01*
X97589285Y-125946428D01*
X97553571Y-126017857D01*
X97589285Y-125232142D02*
X97553571Y-125303571D01*
X97517857Y-125339285D01*
X97446428Y-125374999D01*
X97232142Y-125374999D01*
X97160714Y-125339285D01*
X97125000Y-125303571D01*
X97089285Y-125232142D01*
X97089285Y-125124999D01*
X97125000Y-125053571D01*
X97160714Y-125017857D01*
X97232142Y-124982142D01*
X97446428Y-124982142D01*
X97517857Y-125017857D01*
X97553571Y-125053571D01*
X97589285Y-125124999D01*
X97589285Y-125232142D01*
X97089285Y-124732142D02*
X97589285Y-124589285D01*
X97232142Y-124446428D01*
X97589285Y-124303571D01*
X97089285Y-124160714D01*
X97553571Y-123589285D02*
X97589285Y-123660714D01*
X97589285Y-123803571D01*
X97553571Y-123874999D01*
X97482142Y-123910714D01*
X97196428Y-123910714D01*
X97125000Y-123874999D01*
X97089285Y-123803571D01*
X97089285Y-123660714D01*
X97125000Y-123589285D01*
X97196428Y-123553571D01*
X97267857Y-123553571D01*
X97339285Y-123910714D01*
X97589285Y-123232142D02*
X97089285Y-123232142D01*
X97232142Y-123232142D02*
X97160714Y-123196428D01*
X97125000Y-123160714D01*
X97089285Y-123089285D01*
X97089285Y-123017857D01*
X97589285Y-122196428D02*
X96839285Y-122196428D01*
X97589285Y-121874999D02*
X97196428Y-121874999D01*
X97125000Y-121910714D01*
X97089285Y-121982142D01*
X97089285Y-122089285D01*
X97125000Y-122160714D01*
X97160714Y-122196428D01*
X97553571Y-121232142D02*
X97589285Y-121303571D01*
X97589285Y-121446428D01*
X97553571Y-121517857D01*
X97482142Y-121553571D01*
X97196428Y-121553571D01*
X97125000Y-121517857D01*
X97089285Y-121446428D01*
X97089285Y-121303571D01*
X97125000Y-121232142D01*
X97196428Y-121196428D01*
X97267857Y-121196428D01*
X97339285Y-121553571D01*
X97589285Y-120553571D02*
X97196428Y-120553571D01*
X97125000Y-120589285D01*
X97089285Y-120660714D01*
X97089285Y-120803571D01*
X97125000Y-120874999D01*
X97553571Y-120553571D02*
X97589285Y-120624999D01*
X97589285Y-120803571D01*
X97553571Y-120874999D01*
X97482142Y-120910714D01*
X97410714Y-120910714D01*
X97339285Y-120874999D01*
X97303571Y-120803571D01*
X97303571Y-120624999D01*
X97267857Y-120553571D01*
X97589285Y-119874999D02*
X96839285Y-119874999D01*
X97553571Y-119874999D02*
X97589285Y-119946428D01*
X97589285Y-120089285D01*
X97553571Y-120160714D01*
X97517857Y-120196428D01*
X97446428Y-120232142D01*
X97232142Y-120232142D01*
X97160714Y-120196428D01*
X97125000Y-120160714D01*
X97089285Y-120089285D01*
X97089285Y-119946428D01*
X97125000Y-119874999D01*
X97553571Y-119232142D02*
X97589285Y-119303571D01*
X97589285Y-119446428D01*
X97553571Y-119517857D01*
X97482142Y-119553571D01*
X97196428Y-119553571D01*
X97125000Y-119517857D01*
X97089285Y-119446428D01*
X97089285Y-119303571D01*
X97125000Y-119232142D01*
X97196428Y-119196428D01*
X97267857Y-119196428D01*
X97339285Y-119553571D01*
X97589285Y-118874999D02*
X97089285Y-118874999D01*
X97232142Y-118874999D02*
X97160714Y-118839285D01*
X97125000Y-118803571D01*
X97089285Y-118732142D01*
X97089285Y-118660714D01*
X97589285Y-117517857D02*
X97196428Y-117517857D01*
X97125000Y-117553571D01*
X97089285Y-117624999D01*
X97089285Y-117767857D01*
X97125000Y-117839285D01*
X97553571Y-117517857D02*
X97589285Y-117589285D01*
X97589285Y-117767857D01*
X97553571Y-117839285D01*
X97482142Y-117874999D01*
X97410714Y-117874999D01*
X97339285Y-117839285D01*
X97303571Y-117767857D01*
X97303571Y-117589285D01*
X97267857Y-117517857D01*
X97089285Y-117160714D02*
X97589285Y-117160714D01*
X97160714Y-117160714D02*
X97125000Y-117124999D01*
X97089285Y-117053571D01*
X97089285Y-116946428D01*
X97125000Y-116874999D01*
X97196428Y-116839285D01*
X97589285Y-116839285D01*
X97589285Y-116160714D02*
X96839285Y-116160714D01*
X97553571Y-116160714D02*
X97589285Y-116232142D01*
X97589285Y-116374999D01*
X97553571Y-116446428D01*
X97517857Y-116482142D01*
X97446428Y-116517857D01*
X97232142Y-116517857D01*
X97160714Y-116482142D01*
X97125000Y-116446428D01*
X97089285Y-116374999D01*
X97089285Y-116232142D01*
X97125000Y-116160714D01*
X97553571Y-115267857D02*
X97589285Y-115196428D01*
X97589285Y-115053571D01*
X97553571Y-114982142D01*
X97482142Y-114946428D01*
X97446428Y-114946428D01*
X97375000Y-114982142D01*
X97339285Y-115053571D01*
X97339285Y-115160714D01*
X97303571Y-115232142D01*
X97232142Y-115267857D01*
X97196428Y-115267857D01*
X97125000Y-115232142D01*
X97089285Y-115160714D01*
X97089285Y-115053571D01*
X97125000Y-114982142D01*
X97089285Y-114696428D02*
X97589285Y-114517857D01*
X97089285Y-114339285D02*
X97589285Y-114517857D01*
X97767857Y-114589285D01*
X97803571Y-114624999D01*
X97839285Y-114696428D01*
X97089285Y-114053571D02*
X97589285Y-114053571D01*
X97160714Y-114053571D02*
X97125000Y-114017857D01*
X97089285Y-113946428D01*
X97089285Y-113839285D01*
X97125000Y-113767857D01*
X97196428Y-113732142D01*
X97589285Y-113732142D01*
X97553571Y-113053571D02*
X97589285Y-113124999D01*
X97589285Y-113267857D01*
X97553571Y-113339285D01*
X97517857Y-113374999D01*
X97446428Y-113410714D01*
X97232142Y-113410714D01*
X97160714Y-113374999D01*
X97125000Y-113339285D01*
X97089285Y-113267857D01*
X97089285Y-113124999D01*
X97125000Y-113053571D01*
X97589285Y-112160714D02*
X97089285Y-112160714D01*
X96839285Y-112160714D02*
X96875000Y-112196428D01*
X96910714Y-112160714D01*
X96875000Y-112124999D01*
X96839285Y-112160714D01*
X96910714Y-112160714D01*
X97089285Y-111803571D02*
X97589285Y-111803571D01*
X97160714Y-111803571D02*
X97125000Y-111767857D01*
X97089285Y-111696428D01*
X97089285Y-111589285D01*
X97125000Y-111517857D01*
X97196428Y-111482142D01*
X97589285Y-111482142D01*
X97089285Y-111124999D02*
X97839285Y-111124999D01*
X97125000Y-111124999D02*
X97089285Y-111053571D01*
X97089285Y-110910714D01*
X97125000Y-110839285D01*
X97160714Y-110803571D01*
X97232142Y-110767857D01*
X97446428Y-110767857D01*
X97517857Y-110803571D01*
X97553571Y-110839285D01*
X97589285Y-110910714D01*
X97589285Y-111053571D01*
X97553571Y-111124999D01*
X97089285Y-110124999D02*
X97589285Y-110124999D01*
X97089285Y-110446428D02*
X97482142Y-110446428D01*
X97553571Y-110410714D01*
X97589285Y-110339285D01*
X97589285Y-110232142D01*
X97553571Y-110160714D01*
X97517857Y-110124999D01*
X97089285Y-109874999D02*
X97089285Y-109589285D01*
X96839285Y-109767857D02*
X97482142Y-109767857D01*
X97553571Y-109732142D01*
X97589285Y-109660714D01*
X97589285Y-109589285D01*
X97589285Y-108767857D02*
X97089285Y-108767857D01*
X97160714Y-108767857D02*
X97125000Y-108732142D01*
X97089285Y-108660714D01*
X97089285Y-108553571D01*
X97125000Y-108482142D01*
X97196428Y-108446428D01*
X97589285Y-108446428D01*
X97196428Y-108446428D02*
X97125000Y-108410714D01*
X97089285Y-108339285D01*
X97089285Y-108232142D01*
X97125000Y-108160714D01*
X97196428Y-108124999D01*
X97589285Y-108124999D01*
X97589285Y-107660714D02*
X97553571Y-107732142D01*
X97517857Y-107767857D01*
X97446428Y-107803571D01*
X97232142Y-107803571D01*
X97160714Y-107767857D01*
X97125000Y-107732142D01*
X97089285Y-107660714D01*
X97089285Y-107553571D01*
X97125000Y-107482142D01*
X97160714Y-107446428D01*
X97232142Y-107410714D01*
X97446428Y-107410714D01*
X97517857Y-107446428D01*
X97553571Y-107482142D01*
X97589285Y-107553571D01*
X97589285Y-107660714D01*
X97589285Y-106767857D02*
X96839285Y-106767857D01*
X97553571Y-106767857D02*
X97589285Y-106839285D01*
X97589285Y-106982142D01*
X97553571Y-107053571D01*
X97517857Y-107089285D01*
X97446428Y-107124999D01*
X97232142Y-107124999D01*
X97160714Y-107089285D01*
X97125000Y-107053571D01*
X97089285Y-106982142D01*
X97089285Y-106839285D01*
X97125000Y-106767857D01*
X96803571Y-105303571D02*
X97767857Y-105946428D01*
X97589285Y-104053571D02*
X97232142Y-104303571D01*
X97589285Y-104482142D02*
X96839285Y-104482142D01*
X96839285Y-104196428D01*
X96875000Y-104124999D01*
X96910714Y-104089285D01*
X96982142Y-104053571D01*
X97089285Y-104053571D01*
X97160714Y-104089285D01*
X97196428Y-104124999D01*
X97232142Y-104196428D01*
X97232142Y-104482142D01*
X97589285Y-103732142D02*
X97089285Y-103732142D01*
X96839285Y-103732142D02*
X96875000Y-103767857D01*
X96910714Y-103732142D01*
X96875000Y-103696428D01*
X96839285Y-103732142D01*
X96910714Y-103732142D01*
X97553571Y-103053571D02*
X97589285Y-103124999D01*
X97589285Y-103267857D01*
X97553571Y-103339285D01*
X97517857Y-103374999D01*
X97446428Y-103410714D01*
X97232142Y-103410714D01*
X97160714Y-103374999D01*
X97125000Y-103339285D01*
X97089285Y-103267857D01*
X97089285Y-103124999D01*
X97125000Y-103053571D01*
X97589285Y-102732142D02*
X96839285Y-102732142D01*
X97589285Y-102410714D02*
X97196428Y-102410714D01*
X97125000Y-102446428D01*
X97089285Y-102517857D01*
X97089285Y-102624999D01*
X97125000Y-102696428D01*
X97160714Y-102732142D01*
X97589285Y-101482142D02*
X96839285Y-101482142D01*
X97196428Y-101482142D02*
X97196428Y-101053571D01*
X97589285Y-101053571D02*
X96839285Y-101053571D01*
X97589285Y-100589285D02*
X97553571Y-100660714D01*
X97517857Y-100696428D01*
X97446428Y-100732142D01*
X97232142Y-100732142D01*
X97160714Y-100696428D01*
X97125000Y-100660714D01*
X97089285Y-100589285D01*
X97089285Y-100482142D01*
X97125000Y-100410714D01*
X97160714Y-100374999D01*
X97232142Y-100339285D01*
X97446428Y-100339285D01*
X97517857Y-100374999D01*
X97553571Y-100410714D01*
X97589285Y-100482142D01*
X97589285Y-100589285D01*
X97589285Y-99910714D02*
X97553571Y-99982142D01*
X97482142Y-100017857D01*
X96839285Y-100017857D01*
X97589285Y-99624999D02*
X97089285Y-99624999D01*
X97160714Y-99624999D02*
X97125000Y-99589285D01*
X97089285Y-99517857D01*
X97089285Y-99410714D01*
X97125000Y-99339285D01*
X97196428Y-99303571D01*
X97589285Y-99303571D01*
X97196428Y-99303571D02*
X97125000Y-99267857D01*
X97089285Y-99196428D01*
X97089285Y-99089285D01*
X97125000Y-99017857D01*
X97196428Y-98982142D01*
X97589285Y-98982142D01*
X97553571Y-98339285D02*
X97589285Y-98410714D01*
X97589285Y-98553571D01*
X97553571Y-98624999D01*
X97482142Y-98660714D01*
X97196428Y-98660714D01*
X97125000Y-98624999D01*
X97089285Y-98553571D01*
X97089285Y-98410714D01*
X97125000Y-98339285D01*
X97196428Y-98303571D01*
X97267857Y-98303571D01*
X97339285Y-98660714D01*
X97553571Y-98017857D02*
X97589285Y-97946428D01*
X97589285Y-97803571D01*
X97553571Y-97732142D01*
X97482142Y-97696428D01*
X97446428Y-97696428D01*
X97375000Y-97732142D01*
X97339285Y-97803571D01*
X97339285Y-97910714D01*
X97303571Y-97982142D01*
X97232142Y-98017857D01*
X97196428Y-98017857D01*
X97125000Y-97982142D01*
X97089285Y-97910714D01*
X97089285Y-97803571D01*
X97125000Y-97732142D01*
X96803571Y-96267857D02*
X97767857Y-96910714D01*
X97589285Y-95446428D02*
X96839285Y-95446428D01*
X96839285Y-95267857D01*
X96875000Y-95160714D01*
X96946428Y-95089285D01*
X97017857Y-95053571D01*
X97160714Y-95017857D01*
X97267857Y-95017857D01*
X97410714Y-95053571D01*
X97482142Y-95089285D01*
X97553571Y-95160714D01*
X97589285Y-95267857D01*
X97589285Y-95446428D01*
X97553571Y-94410714D02*
X97589285Y-94482142D01*
X97589285Y-94624999D01*
X97553571Y-94696428D01*
X97482142Y-94732142D01*
X97196428Y-94732142D01*
X97125000Y-94696428D01*
X97089285Y-94624999D01*
X97089285Y-94482142D01*
X97125000Y-94410714D01*
X97196428Y-94374999D01*
X97267857Y-94374999D01*
X97339285Y-94732142D01*
X97553571Y-93732142D02*
X97589285Y-93803571D01*
X97589285Y-93946428D01*
X97553571Y-94017857D01*
X97517857Y-94053571D01*
X97446428Y-94089285D01*
X97232142Y-94089285D01*
X97160714Y-94053571D01*
X97125000Y-94017857D01*
X97089285Y-93946428D01*
X97089285Y-93803571D01*
X97125000Y-93732142D01*
X96910714Y-92874999D02*
X96875000Y-92839285D01*
X96839285Y-92767857D01*
X96839285Y-92589285D01*
X96875000Y-92517857D01*
X96910714Y-92482142D01*
X96982142Y-92446428D01*
X97053571Y-92446428D01*
X97160714Y-92482142D01*
X97589285Y-92910714D01*
X97589285Y-92446428D01*
X96839285Y-91982142D02*
X96839285Y-91910714D01*
X96875000Y-91839285D01*
X96910714Y-91803571D01*
X96982142Y-91767857D01*
X97125000Y-91732142D01*
X97303571Y-91732142D01*
X97446428Y-91767857D01*
X97517857Y-91803571D01*
X97553571Y-91839285D01*
X97589285Y-91910714D01*
X97589285Y-91982142D01*
X97553571Y-92053571D01*
X97517857Y-92089285D01*
X97446428Y-92124999D01*
X97303571Y-92160714D01*
X97125000Y-92160714D01*
X96982142Y-92124999D01*
X96910714Y-92089285D01*
X96875000Y-92053571D01*
X96839285Y-91982142D01*
X96910714Y-91446428D02*
X96875000Y-91410714D01*
X96839285Y-91339285D01*
X96839285Y-91160714D01*
X96875000Y-91089285D01*
X96910714Y-91053571D01*
X96982142Y-91017857D01*
X97053571Y-91017857D01*
X97160714Y-91053571D01*
X97589285Y-91482142D01*
X97589285Y-91017857D01*
X96839285Y-90553571D02*
X96839285Y-90482142D01*
X96875000Y-90410714D01*
X96910714Y-90374999D01*
X96982142Y-90339285D01*
X97125000Y-90303571D01*
X97303571Y-90303571D01*
X97446428Y-90339285D01*
X97517857Y-90374999D01*
X97553571Y-90410714D01*
X97589285Y-90482142D01*
X97589285Y-90553571D01*
X97553571Y-90624999D01*
X97517857Y-90660714D01*
X97446428Y-90696428D01*
X97303571Y-90732142D01*
X97125000Y-90732142D01*
X96982142Y-90696428D01*
X96910714Y-90660714D01*
X96875000Y-90624999D01*
X96839285Y-90553571D01*
X119352380Y-104811904D02*
X119809523Y-104811904D01*
X119580952Y-105611904D02*
X119580952Y-104811904D01*
X120228571Y-104811904D02*
X120380952Y-104811904D01*
X120457142Y-104850000D01*
X120533333Y-104926190D01*
X120571428Y-105078571D01*
X120571428Y-105345238D01*
X120533333Y-105497619D01*
X120457142Y-105573809D01*
X120380952Y-105611904D01*
X120228571Y-105611904D01*
X120152380Y-105573809D01*
X120076190Y-105497619D01*
X120038095Y-105345238D01*
X120038095Y-105078571D01*
X120076190Y-104926190D01*
X120152380Y-104850000D01*
X120228571Y-104811904D01*
X121523809Y-105611904D02*
X121523809Y-104811904D01*
X121828571Y-104811904D01*
X121904761Y-104850000D01*
X121942857Y-104888095D01*
X121980952Y-104964285D01*
X121980952Y-105078571D01*
X121942857Y-105154761D01*
X121904761Y-105192857D01*
X121828571Y-105230952D01*
X121523809Y-105230952D01*
X122323809Y-105611904D02*
X122323809Y-104811904D01*
X122704761Y-105611904D02*
X122704761Y-104811904D01*
X123161904Y-105611904D01*
X123161904Y-104811904D01*
X124571428Y-105611904D02*
X124114285Y-105611904D01*
X124342857Y-105611904D02*
X124342857Y-104811904D01*
X124266666Y-104926190D01*
X124190476Y-105002380D01*
X124114285Y-105040476D01*
X119602380Y-112561904D02*
X120059523Y-112561904D01*
X119830952Y-113361904D02*
X119830952Y-112561904D01*
X120478571Y-112561904D02*
X120630952Y-112561904D01*
X120707142Y-112600000D01*
X120783333Y-112676190D01*
X120821428Y-112828571D01*
X120821428Y-113095238D01*
X120783333Y-113247619D01*
X120707142Y-113323809D01*
X120630952Y-113361904D01*
X120478571Y-113361904D01*
X120402380Y-113323809D01*
X120326190Y-113247619D01*
X120288095Y-113095238D01*
X120288095Y-112828571D01*
X120326190Y-112676190D01*
X120402380Y-112600000D01*
X120478571Y-112561904D01*
X121773809Y-113361904D02*
X121773809Y-112561904D01*
X122078571Y-112561904D01*
X122154761Y-112600000D01*
X122192857Y-112638095D01*
X122230952Y-112714285D01*
X122230952Y-112828571D01*
X122192857Y-112904761D01*
X122154761Y-112942857D01*
X122078571Y-112980952D01*
X121773809Y-112980952D01*
X122573809Y-113361904D02*
X122573809Y-112561904D01*
X122954761Y-113361904D02*
X122954761Y-112561904D01*
X123411904Y-113361904D01*
X123411904Y-112561904D01*
X124364285Y-112638095D02*
X124402380Y-112600000D01*
X124478571Y-112561904D01*
X124669047Y-112561904D01*
X124745238Y-112600000D01*
X124783333Y-112638095D01*
X124821428Y-112714285D01*
X124821428Y-112790476D01*
X124783333Y-112904761D01*
X124326190Y-113361904D01*
X124821428Y-113361904D01*
X99188214Y-87339285D02*
X98938214Y-86982142D01*
X98759642Y-87339285D02*
X98759642Y-86589285D01*
X99045357Y-86589285D01*
X99116785Y-86625000D01*
X99152500Y-86660714D01*
X99188214Y-86732142D01*
X99188214Y-86839285D01*
X99152500Y-86910714D01*
X99116785Y-86946428D01*
X99045357Y-86982142D01*
X98759642Y-86982142D01*
X99509642Y-86946428D02*
X99759642Y-86946428D01*
X99866785Y-87339285D02*
X99509642Y-87339285D01*
X99509642Y-86589285D01*
X99866785Y-86589285D01*
X100188214Y-87339285D02*
X100188214Y-86589285D01*
X100366785Y-86589285D01*
X100473928Y-86625000D01*
X100545357Y-86696428D01*
X100581071Y-86767857D01*
X100616785Y-86910714D01*
X100616785Y-87017857D01*
X100581071Y-87160714D01*
X100545357Y-87232142D01*
X100473928Y-87303571D01*
X100366785Y-87339285D01*
X100188214Y-87339285D01*
X101473928Y-87303571D02*
X101581071Y-87339285D01*
X101759642Y-87339285D01*
X101831071Y-87303571D01*
X101866785Y-87267857D01*
X101902500Y-87196428D01*
X101902500Y-87125000D01*
X101866785Y-87053571D01*
X101831071Y-87017857D01*
X101759642Y-86982142D01*
X101616785Y-86946428D01*
X101545357Y-86910714D01*
X101509642Y-86875000D01*
X101473928Y-86803571D01*
X101473928Y-86732142D01*
X101509642Y-86660714D01*
X101545357Y-86625000D01*
X101616785Y-86589285D01*
X101795357Y-86589285D01*
X101902500Y-86625000D01*
X102116785Y-86589285D02*
X102545357Y-86589285D01*
X102331071Y-87339285D02*
X102331071Y-86589285D01*
X103223928Y-87339285D02*
X102973928Y-86982142D01*
X102795357Y-87339285D02*
X102795357Y-86589285D01*
X103081071Y-86589285D01*
X103152500Y-86625000D01*
X103188214Y-86660714D01*
X103223928Y-86732142D01*
X103223928Y-86839285D01*
X103188214Y-86910714D01*
X103152500Y-86946428D01*
X103081071Y-86982142D01*
X102795357Y-86982142D01*
X103545357Y-87339285D02*
X103545357Y-86589285D01*
X103902500Y-87339285D02*
X103902500Y-86589285D01*
X104188214Y-86589285D01*
X104259642Y-86625000D01*
X104295357Y-86660714D01*
X104331071Y-86732142D01*
X104331071Y-86839285D01*
X104295357Y-86910714D01*
X104259642Y-86946428D01*
X104188214Y-86982142D01*
X103902500Y-86982142D01*
X104652500Y-86946428D02*
X104902500Y-86946428D01*
X105009642Y-87339285D02*
X104652500Y-87339285D01*
X104652500Y-86589285D01*
X105009642Y-86589285D01*
X124380000Y-76511904D02*
X124332380Y-76607142D01*
X124332380Y-76750000D01*
X124380000Y-76892857D01*
X124475238Y-76988095D01*
X124570476Y-77035714D01*
X124760952Y-77083333D01*
X124903809Y-77083333D01*
X125094285Y-77035714D01*
X125189523Y-76988095D01*
X125284761Y-76892857D01*
X125332380Y-76750000D01*
X125332380Y-76654761D01*
X125284761Y-76511904D01*
X125237142Y-76464285D01*
X124903809Y-76464285D01*
X124903809Y-76654761D01*
X125332380Y-76035714D02*
X124332380Y-76035714D01*
X125332380Y-75464285D01*
X124332380Y-75464285D01*
X125332380Y-74988095D02*
X124332380Y-74988095D01*
X124332380Y-74750000D01*
X124380000Y-74607142D01*
X124475238Y-74511904D01*
X124570476Y-74464285D01*
X124760952Y-74416666D01*
X124903809Y-74416666D01*
X125094285Y-74464285D01*
X125189523Y-74511904D01*
X125284761Y-74607142D01*
X125332380Y-74750000D01*
X125332380Y-74988095D01*
X124951428Y-82591904D02*
X124951428Y-81830000D01*
X125332380Y-80830000D02*
X125332380Y-81401428D01*
X125332380Y-81115714D02*
X124332380Y-81115714D01*
X124475238Y-81210952D01*
X124570476Y-81306190D01*
X124618095Y-81401428D01*
X124427619Y-80449047D02*
X124380000Y-80401428D01*
X124332380Y-80306190D01*
X124332380Y-80068095D01*
X124380000Y-79972857D01*
X124427619Y-79925238D01*
X124522857Y-79877619D01*
X124618095Y-79877619D01*
X124760952Y-79925238D01*
X125332380Y-80496666D01*
X125332380Y-79877619D01*
X124332380Y-79591904D02*
X125332380Y-79258571D01*
X124332380Y-78925238D01*
X124951428Y-72431904D02*
X124951428Y-71670000D01*
X125332380Y-72050952D02*
X124570476Y-72050952D01*
X125332380Y-70670000D02*
X125332380Y-71241428D01*
X125332380Y-70955714D02*
X124332380Y-70955714D01*
X124475238Y-71050952D01*
X124570476Y-71146190D01*
X124618095Y-71241428D01*
X124427619Y-70289047D02*
X124380000Y-70241428D01*
X124332380Y-70146190D01*
X124332380Y-69908095D01*
X124380000Y-69812857D01*
X124427619Y-69765238D01*
X124522857Y-69717619D01*
X124618095Y-69717619D01*
X124760952Y-69765238D01*
X125332380Y-70336666D01*
X125332380Y-69717619D01*
X124332380Y-69431904D02*
X125332380Y-69098571D01*
X124332380Y-68765238D01*
D11*
%TO.C,G\u002A\u002A\u002A*%
G36*
X105000550Y-75869165D02*
G01*
X105005813Y-75707940D01*
X105015206Y-75552217D01*
X105015815Y-75544224D01*
X105038902Y-75305888D01*
X105071245Y-75069477D01*
X105112762Y-74835211D01*
X105163373Y-74603310D01*
X105222997Y-74373994D01*
X105291552Y-74147483D01*
X105368958Y-73923997D01*
X105455134Y-73703755D01*
X105549999Y-73486978D01*
X105653471Y-73273886D01*
X105765471Y-73064698D01*
X105885916Y-72859635D01*
X106014727Y-72658916D01*
X106148200Y-72467738D01*
X106288792Y-72282320D01*
X106437330Y-72101741D01*
X106593303Y-71926515D01*
X106756202Y-71757158D01*
X106925518Y-71594185D01*
X107100743Y-71438112D01*
X107281365Y-71289454D01*
X107411336Y-71189637D01*
X107604701Y-71051307D01*
X107803100Y-70920949D01*
X108006252Y-70798683D01*
X108213874Y-70684630D01*
X108425686Y-70578912D01*
X108641406Y-70481649D01*
X108860753Y-70392962D01*
X109083446Y-70312972D01*
X109309202Y-70241801D01*
X109537742Y-70179568D01*
X109768783Y-70126395D01*
X109976879Y-70086688D01*
X110105971Y-70065762D01*
X110233771Y-70047822D01*
X110362844Y-70032568D01*
X110495754Y-70019702D01*
X110635063Y-70008925D01*
X110655795Y-70007527D01*
X110685934Y-70005950D01*
X110724219Y-70004609D01*
X110769320Y-70003506D01*
X110819906Y-70002639D01*
X110874648Y-70002011D01*
X110932216Y-70001619D01*
X110991279Y-70001466D01*
X111050507Y-70001550D01*
X111108570Y-70001871D01*
X111164139Y-70002431D01*
X111215882Y-70003229D01*
X111262470Y-70004264D01*
X111302573Y-70005538D01*
X111334861Y-70007049D01*
X111341832Y-70007483D01*
X111542307Y-70023447D01*
X111735964Y-70044353D01*
X111924224Y-70070420D01*
X112108503Y-70101863D01*
X112290222Y-70138900D01*
X112452891Y-70177229D01*
X112684806Y-70240193D01*
X112913027Y-70311890D01*
X113137429Y-70392252D01*
X113357886Y-70481212D01*
X113574270Y-70578703D01*
X113786455Y-70684657D01*
X113994315Y-70799006D01*
X114197723Y-70921684D01*
X114396553Y-71052622D01*
X114590679Y-71191754D01*
X114779974Y-71339012D01*
X114964311Y-71494329D01*
X115024852Y-71548078D01*
X115050893Y-71571971D01*
X115082263Y-71601526D01*
X115117807Y-71635598D01*
X115156370Y-71673038D01*
X115196796Y-71712701D01*
X115237931Y-71753438D01*
X115278620Y-71794103D01*
X115317709Y-71833550D01*
X115354041Y-71870631D01*
X115386462Y-71904198D01*
X115413818Y-71933107D01*
X115427439Y-71947869D01*
X115586230Y-72129223D01*
X115737037Y-72315643D01*
X115879779Y-72506939D01*
X116014377Y-72702918D01*
X116140753Y-72903389D01*
X116258827Y-73108159D01*
X116368520Y-73317037D01*
X116469753Y-73529831D01*
X116562447Y-73746349D01*
X116646523Y-73966399D01*
X116721900Y-74189789D01*
X116788502Y-74416328D01*
X116846247Y-74645824D01*
X116895057Y-74878084D01*
X116934853Y-75112917D01*
X116965556Y-75350132D01*
X116987087Y-75589535D01*
X116996327Y-75750747D01*
X116997361Y-75780172D01*
X116998234Y-75817177D01*
X116998941Y-75860073D01*
X116999478Y-75907176D01*
X116999838Y-75956799D01*
X117000016Y-76007255D01*
X117000005Y-76056858D01*
X116999802Y-76103922D01*
X116999400Y-76146760D01*
X116998793Y-76183686D01*
X116997976Y-76213013D01*
X116997861Y-76216018D01*
X116983605Y-76456614D01*
X116960165Y-76695293D01*
X116927619Y-76931843D01*
X116886047Y-77166053D01*
X116835527Y-77397710D01*
X116776137Y-77626604D01*
X116707957Y-77852523D01*
X116631066Y-78075255D01*
X116545542Y-78294589D01*
X116451464Y-78510312D01*
X116348911Y-78722214D01*
X116237962Y-78930082D01*
X116118695Y-79133705D01*
X115991189Y-79332871D01*
X115855523Y-79527369D01*
X115711776Y-79716986D01*
X115679277Y-79757775D01*
X115547372Y-79915826D01*
X115407431Y-80072001D01*
X115260908Y-80224805D01*
X115109256Y-80372740D01*
X114953926Y-80514312D01*
X114895458Y-80565084D01*
X114715535Y-80713030D01*
X114529185Y-80854152D01*
X114336849Y-80988185D01*
X114138965Y-81114862D01*
X113935976Y-81233920D01*
X113728320Y-81345091D01*
X113516437Y-81448110D01*
X113300769Y-81542711D01*
X113224281Y-81573860D01*
X113001944Y-81657533D01*
X112777112Y-81732122D01*
X112550065Y-81797617D01*
X112321086Y-81854010D01*
X112090456Y-81901292D01*
X111858457Y-81939453D01*
X111625370Y-81968486D01*
X111391476Y-81988380D01*
X111157058Y-81999127D01*
X111000000Y-82000191D01*
X111000000Y-81936841D01*
X111071995Y-81936762D01*
X111135805Y-81936487D01*
X111192738Y-81935956D01*
X111244104Y-81935108D01*
X111291212Y-81933884D01*
X111335370Y-81932225D01*
X111377888Y-81930069D01*
X111420074Y-81927357D01*
X111463239Y-81924030D01*
X111508689Y-81920027D01*
X111557736Y-81915289D01*
X111611687Y-81909755D01*
X111626692Y-81908177D01*
X111861147Y-81878678D01*
X112093690Y-81839938D01*
X112324066Y-81792065D01*
X112552021Y-81735167D01*
X112777300Y-81669351D01*
X112999650Y-81594728D01*
X113218816Y-81511404D01*
X113434543Y-81419487D01*
X113646579Y-81319086D01*
X113854669Y-81210309D01*
X114058557Y-81093264D01*
X114257991Y-80968060D01*
X114452716Y-80834803D01*
X114642477Y-80693604D01*
X114821754Y-80548993D01*
X114873775Y-80504897D01*
X114922779Y-80462343D01*
X114970224Y-80419983D01*
X115017570Y-80376466D01*
X115066279Y-80330443D01*
X115117808Y-80280565D01*
X115173619Y-80225481D01*
X115197193Y-80201965D01*
X115291636Y-80105960D01*
X115379486Y-80013294D01*
X115462200Y-79922270D01*
X115541233Y-79831188D01*
X115618040Y-79738350D01*
X115694079Y-79642059D01*
X115770804Y-79540615D01*
X115810685Y-79486325D01*
X115936998Y-79305262D01*
X116057324Y-79117534D01*
X116171233Y-78924021D01*
X116278295Y-78725599D01*
X116378079Y-78523147D01*
X116470155Y-78317543D01*
X116554092Y-78109666D01*
X116629462Y-77900393D01*
X116695832Y-77690603D01*
X116703570Y-77664056D01*
X116750691Y-77492451D01*
X116792106Y-77323454D01*
X116828079Y-77155467D01*
X116858874Y-76986895D01*
X116884758Y-76816138D01*
X116905995Y-76641600D01*
X116922850Y-76461683D01*
X116935587Y-76274791D01*
X116936347Y-76261121D01*
X116937117Y-76240218D01*
X116937645Y-76211005D01*
X116937946Y-76174665D01*
X116938035Y-76132378D01*
X116937926Y-76085327D01*
X116937634Y-76034694D01*
X116937174Y-75981661D01*
X116936561Y-75927410D01*
X116935810Y-75873122D01*
X116934936Y-75819980D01*
X116933953Y-75769166D01*
X116932876Y-75721861D01*
X116931720Y-75679248D01*
X116930500Y-75642509D01*
X116929231Y-75612824D01*
X116927952Y-75591701D01*
X116919003Y-75483694D01*
X116909211Y-75382548D01*
X116898261Y-75285641D01*
X116885833Y-75190352D01*
X116871609Y-75094061D01*
X116855970Y-74998243D01*
X116811810Y-74766736D01*
X116758486Y-74537472D01*
X116696127Y-74310735D01*
X116624860Y-74086807D01*
X116544812Y-73865971D01*
X116456111Y-73648511D01*
X116358884Y-73434709D01*
X116253259Y-73224847D01*
X116139364Y-73019210D01*
X116017325Y-72818079D01*
X115887271Y-72621738D01*
X115749329Y-72430469D01*
X115628686Y-72275458D01*
X115498724Y-72119837D01*
X115361723Y-71966764D01*
X115219236Y-71817846D01*
X115072818Y-71674690D01*
X114924024Y-71538904D01*
X114876361Y-71497443D01*
X114692570Y-71345689D01*
X114503459Y-71201766D01*
X114309186Y-71065770D01*
X114109914Y-70937798D01*
X113905803Y-70817950D01*
X113697014Y-70706321D01*
X113483707Y-70603010D01*
X113266043Y-70508115D01*
X113209096Y-70484968D01*
X112986786Y-70401019D01*
X112761801Y-70326136D01*
X112534376Y-70260375D01*
X112304742Y-70203792D01*
X112073134Y-70156443D01*
X111839784Y-70118386D01*
X111604925Y-70089676D01*
X111553103Y-70084622D01*
X111504274Y-70080154D01*
X111460319Y-70076341D01*
X111419936Y-70073132D01*
X111381823Y-70070476D01*
X111344677Y-70068323D01*
X111307195Y-70066621D01*
X111268076Y-70065319D01*
X111226017Y-70064368D01*
X111179715Y-70063716D01*
X111127867Y-70063312D01*
X111069173Y-70063106D01*
X111002328Y-70063047D01*
X111000000Y-70063046D01*
X110932868Y-70063102D01*
X110873929Y-70063303D01*
X110821879Y-70063699D01*
X110775417Y-70064343D01*
X110733240Y-70065283D01*
X110694046Y-70066572D01*
X110656532Y-70068260D01*
X110619395Y-70070398D01*
X110581334Y-70073037D01*
X110541045Y-70076227D01*
X110497227Y-70080020D01*
X110448577Y-70084466D01*
X110446897Y-70084622D01*
X110212402Y-70111199D01*
X109979476Y-70147077D01*
X109748409Y-70192150D01*
X109519491Y-70246310D01*
X109293011Y-70309451D01*
X109069261Y-70381464D01*
X108848528Y-70462244D01*
X108631104Y-70551683D01*
X108417278Y-70649673D01*
X108207339Y-70756108D01*
X108001578Y-70870881D01*
X107800284Y-70993885D01*
X107603747Y-71125011D01*
X107572187Y-71147144D01*
X107382538Y-71286871D01*
X107198386Y-71434283D01*
X107019956Y-71589169D01*
X106847469Y-71751318D01*
X106681151Y-71920520D01*
X106521224Y-72096563D01*
X106367912Y-72279238D01*
X106353785Y-72296822D01*
X106214030Y-72478929D01*
X106080989Y-72667520D01*
X105954940Y-72862099D01*
X105836163Y-73062169D01*
X105724936Y-73267233D01*
X105621537Y-73476794D01*
X105526246Y-73690355D01*
X105439340Y-73907420D01*
X105416824Y-73968000D01*
X105343944Y-74179833D01*
X105279431Y-74393795D01*
X105223167Y-74610442D01*
X105175034Y-74830335D01*
X105134914Y-75054030D01*
X105102688Y-75282086D01*
X105078237Y-75515062D01*
X105071602Y-75596448D01*
X105069230Y-75634668D01*
X105067214Y-75681052D01*
X105065555Y-75734274D01*
X105064251Y-75793011D01*
X105063303Y-75855936D01*
X105062712Y-75921726D01*
X105062476Y-75989054D01*
X105062596Y-76056598D01*
X105063073Y-76123030D01*
X105063905Y-76187027D01*
X105065094Y-76247263D01*
X105066639Y-76302415D01*
X105068539Y-76351156D01*
X105070796Y-76392161D01*
X105071602Y-76403551D01*
X105090167Y-76609753D01*
X105114275Y-76809598D01*
X105144193Y-77004624D01*
X105180189Y-77196369D01*
X105222529Y-77386371D01*
X105271480Y-77576167D01*
X105281724Y-77612948D01*
X105349797Y-77837104D01*
X105426878Y-78058637D01*
X105512762Y-78277155D01*
X105607243Y-78492266D01*
X105710115Y-78703578D01*
X105821172Y-78910698D01*
X105940208Y-79113234D01*
X106067017Y-79310794D01*
X106201392Y-79502986D01*
X106343129Y-79689416D01*
X106424994Y-79790376D01*
X106517412Y-79898738D01*
X106615694Y-80008320D01*
X106718092Y-80117323D01*
X106822858Y-80223947D01*
X106928242Y-80326394D01*
X107032497Y-80422865D01*
X107085552Y-80469957D01*
X107267095Y-80622386D01*
X107454015Y-80767096D01*
X107646053Y-80903973D01*
X107842953Y-81032906D01*
X108044456Y-81153781D01*
X108250306Y-81266487D01*
X108460245Y-81370910D01*
X108674015Y-81466938D01*
X108891361Y-81554458D01*
X109112023Y-81633358D01*
X109335745Y-81703526D01*
X109562270Y-81764848D01*
X109791339Y-81817212D01*
X110022697Y-81860506D01*
X110256084Y-81894617D01*
X110373309Y-81908177D01*
X110428751Y-81913928D01*
X110478947Y-81918867D01*
X110525208Y-81923056D01*
X110568841Y-81926553D01*
X110611156Y-81929419D01*
X110653462Y-81931714D01*
X110697067Y-81933497D01*
X110743281Y-81934828D01*
X110793413Y-81935768D01*
X110848772Y-81936376D01*
X110910666Y-81936712D01*
X110980405Y-81936836D01*
X111000000Y-81936841D01*
X111000000Y-82000191D01*
X110922398Y-82000718D01*
X110687775Y-81993144D01*
X110453473Y-81976396D01*
X110219772Y-81950465D01*
X109986955Y-81915342D01*
X109755303Y-81871019D01*
X109525097Y-81817485D01*
X109296619Y-81754732D01*
X109134168Y-81704107D01*
X108909150Y-81625476D01*
X108687823Y-81538134D01*
X108470403Y-81442207D01*
X108257104Y-81337820D01*
X108048141Y-81225099D01*
X107843728Y-81104168D01*
X107644079Y-80975154D01*
X107449409Y-80838181D01*
X107259934Y-80693375D01*
X107075866Y-80540860D01*
X106947869Y-80427317D01*
X106923959Y-80405071D01*
X106894667Y-80377125D01*
X106861165Y-80344650D01*
X106824623Y-80308819D01*
X106786214Y-80270801D01*
X106747109Y-80231769D01*
X106708479Y-80192894D01*
X106671495Y-80155347D01*
X106637330Y-80120301D01*
X106607154Y-80088925D01*
X106582139Y-80062392D01*
X106572683Y-80052131D01*
X106414787Y-79872114D01*
X106264540Y-79686591D01*
X106122064Y-79495778D01*
X105987480Y-79299891D01*
X105860908Y-79099147D01*
X105742471Y-78893761D01*
X105632289Y-78683950D01*
X105530483Y-78469929D01*
X105437174Y-78251916D01*
X105352484Y-78030126D01*
X105276534Y-77804776D01*
X105233402Y-77661682D01*
X105171848Y-77430731D01*
X105119552Y-77197674D01*
X105076520Y-76962551D01*
X105042760Y-76725401D01*
X105020525Y-76512747D01*
X105009405Y-76357684D01*
X105002360Y-76196854D01*
X104999404Y-76033076D01*
X105000550Y-75869165D01*
G37*
X105000550Y-75869165D02*
X105005813Y-75707940D01*
X105015206Y-75552217D01*
X105015815Y-75544224D01*
X105038902Y-75305888D01*
X105071245Y-75069477D01*
X105112762Y-74835211D01*
X105163373Y-74603310D01*
X105222997Y-74373994D01*
X105291552Y-74147483D01*
X105368958Y-73923997D01*
X105455134Y-73703755D01*
X105549999Y-73486978D01*
X105653471Y-73273886D01*
X105765471Y-73064698D01*
X105885916Y-72859635D01*
X106014727Y-72658916D01*
X106148200Y-72467738D01*
X106288792Y-72282320D01*
X106437330Y-72101741D01*
X106593303Y-71926515D01*
X106756202Y-71757158D01*
X106925518Y-71594185D01*
X107100743Y-71438112D01*
X107281365Y-71289454D01*
X107411336Y-71189637D01*
X107604701Y-71051307D01*
X107803100Y-70920949D01*
X108006252Y-70798683D01*
X108213874Y-70684630D01*
X108425686Y-70578912D01*
X108641406Y-70481649D01*
X108860753Y-70392962D01*
X109083446Y-70312972D01*
X109309202Y-70241801D01*
X109537742Y-70179568D01*
X109768783Y-70126395D01*
X109976879Y-70086688D01*
X110105971Y-70065762D01*
X110233771Y-70047822D01*
X110362844Y-70032568D01*
X110495754Y-70019702D01*
X110635063Y-70008925D01*
X110655795Y-70007527D01*
X110685934Y-70005950D01*
X110724219Y-70004609D01*
X110769320Y-70003506D01*
X110819906Y-70002639D01*
X110874648Y-70002011D01*
X110932216Y-70001619D01*
X110991279Y-70001466D01*
X111050507Y-70001550D01*
X111108570Y-70001871D01*
X111164139Y-70002431D01*
X111215882Y-70003229D01*
X111262470Y-70004264D01*
X111302573Y-70005538D01*
X111334861Y-70007049D01*
X111341832Y-70007483D01*
X111542307Y-70023447D01*
X111735964Y-70044353D01*
X111924224Y-70070420D01*
X112108503Y-70101863D01*
X112290222Y-70138900D01*
X112452891Y-70177229D01*
X112684806Y-70240193D01*
X112913027Y-70311890D01*
X113137429Y-70392252D01*
X113357886Y-70481212D01*
X113574270Y-70578703D01*
X113786455Y-70684657D01*
X113994315Y-70799006D01*
X114197723Y-70921684D01*
X114396553Y-71052622D01*
X114590679Y-71191754D01*
X114779974Y-71339012D01*
X114964311Y-71494329D01*
X115024852Y-71548078D01*
X115050893Y-71571971D01*
X115082263Y-71601526D01*
X115117807Y-71635598D01*
X115156370Y-71673038D01*
X115196796Y-71712701D01*
X115237931Y-71753438D01*
X115278620Y-71794103D01*
X115317709Y-71833550D01*
X115354041Y-71870631D01*
X115386462Y-71904198D01*
X115413818Y-71933107D01*
X115427439Y-71947869D01*
X115586230Y-72129223D01*
X115737037Y-72315643D01*
X115879779Y-72506939D01*
X116014377Y-72702918D01*
X116140753Y-72903389D01*
X116258827Y-73108159D01*
X116368520Y-73317037D01*
X116469753Y-73529831D01*
X116562447Y-73746349D01*
X116646523Y-73966399D01*
X116721900Y-74189789D01*
X116788502Y-74416328D01*
X116846247Y-74645824D01*
X116895057Y-74878084D01*
X116934853Y-75112917D01*
X116965556Y-75350132D01*
X116987087Y-75589535D01*
X116996327Y-75750747D01*
X116997361Y-75780172D01*
X116998234Y-75817177D01*
X116998941Y-75860073D01*
X116999478Y-75907176D01*
X116999838Y-75956799D01*
X117000016Y-76007255D01*
X117000005Y-76056858D01*
X116999802Y-76103922D01*
X116999400Y-76146760D01*
X116998793Y-76183686D01*
X116997976Y-76213013D01*
X116997861Y-76216018D01*
X116983605Y-76456614D01*
X116960165Y-76695293D01*
X116927619Y-76931843D01*
X116886047Y-77166053D01*
X116835527Y-77397710D01*
X116776137Y-77626604D01*
X116707957Y-77852523D01*
X116631066Y-78075255D01*
X116545542Y-78294589D01*
X116451464Y-78510312D01*
X116348911Y-78722214D01*
X116237962Y-78930082D01*
X116118695Y-79133705D01*
X115991189Y-79332871D01*
X115855523Y-79527369D01*
X115711776Y-79716986D01*
X115679277Y-79757775D01*
X115547372Y-79915826D01*
X115407431Y-80072001D01*
X115260908Y-80224805D01*
X115109256Y-80372740D01*
X114953926Y-80514312D01*
X114895458Y-80565084D01*
X114715535Y-80713030D01*
X114529185Y-80854152D01*
X114336849Y-80988185D01*
X114138965Y-81114862D01*
X113935976Y-81233920D01*
X113728320Y-81345091D01*
X113516437Y-81448110D01*
X113300769Y-81542711D01*
X113224281Y-81573860D01*
X113001944Y-81657533D01*
X112777112Y-81732122D01*
X112550065Y-81797617D01*
X112321086Y-81854010D01*
X112090456Y-81901292D01*
X111858457Y-81939453D01*
X111625370Y-81968486D01*
X111391476Y-81988380D01*
X111157058Y-81999127D01*
X111000000Y-82000191D01*
X111000000Y-81936841D01*
X111071995Y-81936762D01*
X111135805Y-81936487D01*
X111192738Y-81935956D01*
X111244104Y-81935108D01*
X111291212Y-81933884D01*
X111335370Y-81932225D01*
X111377888Y-81930069D01*
X111420074Y-81927357D01*
X111463239Y-81924030D01*
X111508689Y-81920027D01*
X111557736Y-81915289D01*
X111611687Y-81909755D01*
X111626692Y-81908177D01*
X111861147Y-81878678D01*
X112093690Y-81839938D01*
X112324066Y-81792065D01*
X112552021Y-81735167D01*
X112777300Y-81669351D01*
X112999650Y-81594728D01*
X113218816Y-81511404D01*
X113434543Y-81419487D01*
X113646579Y-81319086D01*
X113854669Y-81210309D01*
X114058557Y-81093264D01*
X114257991Y-80968060D01*
X114452716Y-80834803D01*
X114642477Y-80693604D01*
X114821754Y-80548993D01*
X114873775Y-80504897D01*
X114922779Y-80462343D01*
X114970224Y-80419983D01*
X115017570Y-80376466D01*
X115066279Y-80330443D01*
X115117808Y-80280565D01*
X115173619Y-80225481D01*
X115197193Y-80201965D01*
X115291636Y-80105960D01*
X115379486Y-80013294D01*
X115462200Y-79922270D01*
X115541233Y-79831188D01*
X115618040Y-79738350D01*
X115694079Y-79642059D01*
X115770804Y-79540615D01*
X115810685Y-79486325D01*
X115936998Y-79305262D01*
X116057324Y-79117534D01*
X116171233Y-78924021D01*
X116278295Y-78725599D01*
X116378079Y-78523147D01*
X116470155Y-78317543D01*
X116554092Y-78109666D01*
X116629462Y-77900393D01*
X116695832Y-77690603D01*
X116703570Y-77664056D01*
X116750691Y-77492451D01*
X116792106Y-77323454D01*
X116828079Y-77155467D01*
X116858874Y-76986895D01*
X116884758Y-76816138D01*
X116905995Y-76641600D01*
X116922850Y-76461683D01*
X116935587Y-76274791D01*
X116936347Y-76261121D01*
X116937117Y-76240218D01*
X116937645Y-76211005D01*
X116937946Y-76174665D01*
X116938035Y-76132378D01*
X116937926Y-76085327D01*
X116937634Y-76034694D01*
X116937174Y-75981661D01*
X116936561Y-75927410D01*
X116935810Y-75873122D01*
X116934936Y-75819980D01*
X116933953Y-75769166D01*
X116932876Y-75721861D01*
X116931720Y-75679248D01*
X116930500Y-75642509D01*
X116929231Y-75612824D01*
X116927952Y-75591701D01*
X116919003Y-75483694D01*
X116909211Y-75382548D01*
X116898261Y-75285641D01*
X116885833Y-75190352D01*
X116871609Y-75094061D01*
X116855970Y-74998243D01*
X116811810Y-74766736D01*
X116758486Y-74537472D01*
X116696127Y-74310735D01*
X116624860Y-74086807D01*
X116544812Y-73865971D01*
X116456111Y-73648511D01*
X116358884Y-73434709D01*
X116253259Y-73224847D01*
X116139364Y-73019210D01*
X116017325Y-72818079D01*
X115887271Y-72621738D01*
X115749329Y-72430469D01*
X115628686Y-72275458D01*
X115498724Y-72119837D01*
X115361723Y-71966764D01*
X115219236Y-71817846D01*
X115072818Y-71674690D01*
X114924024Y-71538904D01*
X114876361Y-71497443D01*
X114692570Y-71345689D01*
X114503459Y-71201766D01*
X114309186Y-71065770D01*
X114109914Y-70937798D01*
X113905803Y-70817950D01*
X113697014Y-70706321D01*
X113483707Y-70603010D01*
X113266043Y-70508115D01*
X113209096Y-70484968D01*
X112986786Y-70401019D01*
X112761801Y-70326136D01*
X112534376Y-70260375D01*
X112304742Y-70203792D01*
X112073134Y-70156443D01*
X111839784Y-70118386D01*
X111604925Y-70089676D01*
X111553103Y-70084622D01*
X111504274Y-70080154D01*
X111460319Y-70076341D01*
X111419936Y-70073132D01*
X111381823Y-70070476D01*
X111344677Y-70068323D01*
X111307195Y-70066621D01*
X111268076Y-70065319D01*
X111226017Y-70064368D01*
X111179715Y-70063716D01*
X111127867Y-70063312D01*
X111069173Y-70063106D01*
X111002328Y-70063047D01*
X111000000Y-70063046D01*
X110932868Y-70063102D01*
X110873929Y-70063303D01*
X110821879Y-70063699D01*
X110775417Y-70064343D01*
X110733240Y-70065283D01*
X110694046Y-70066572D01*
X110656532Y-70068260D01*
X110619395Y-70070398D01*
X110581334Y-70073037D01*
X110541045Y-70076227D01*
X110497227Y-70080020D01*
X110448577Y-70084466D01*
X110446897Y-70084622D01*
X110212402Y-70111199D01*
X109979476Y-70147077D01*
X109748409Y-70192150D01*
X109519491Y-70246310D01*
X109293011Y-70309451D01*
X109069261Y-70381464D01*
X108848528Y-70462244D01*
X108631104Y-70551683D01*
X108417278Y-70649673D01*
X108207339Y-70756108D01*
X108001578Y-70870881D01*
X107800284Y-70993885D01*
X107603747Y-71125011D01*
X107572187Y-71147144D01*
X107382538Y-71286871D01*
X107198386Y-71434283D01*
X107019956Y-71589169D01*
X106847469Y-71751318D01*
X106681151Y-71920520D01*
X106521224Y-72096563D01*
X106367912Y-72279238D01*
X106353785Y-72296822D01*
X106214030Y-72478929D01*
X106080989Y-72667520D01*
X105954940Y-72862099D01*
X105836163Y-73062169D01*
X105724936Y-73267233D01*
X105621537Y-73476794D01*
X105526246Y-73690355D01*
X105439340Y-73907420D01*
X105416824Y-73968000D01*
X105343944Y-74179833D01*
X105279431Y-74393795D01*
X105223167Y-74610442D01*
X105175034Y-74830335D01*
X105134914Y-75054030D01*
X105102688Y-75282086D01*
X105078237Y-75515062D01*
X105071602Y-75596448D01*
X105069230Y-75634668D01*
X105067214Y-75681052D01*
X105065555Y-75734274D01*
X105064251Y-75793011D01*
X105063303Y-75855936D01*
X105062712Y-75921726D01*
X105062476Y-75989054D01*
X105062596Y-76056598D01*
X105063073Y-76123030D01*
X105063905Y-76187027D01*
X105065094Y-76247263D01*
X105066639Y-76302415D01*
X105068539Y-76351156D01*
X105070796Y-76392161D01*
X105071602Y-76403551D01*
X105090167Y-76609753D01*
X105114275Y-76809598D01*
X105144193Y-77004624D01*
X105180189Y-77196369D01*
X105222529Y-77386371D01*
X105271480Y-77576167D01*
X105281724Y-77612948D01*
X105349797Y-77837104D01*
X105426878Y-78058637D01*
X105512762Y-78277155D01*
X105607243Y-78492266D01*
X105710115Y-78703578D01*
X105821172Y-78910698D01*
X105940208Y-79113234D01*
X106067017Y-79310794D01*
X106201392Y-79502986D01*
X106343129Y-79689416D01*
X106424994Y-79790376D01*
X106517412Y-79898738D01*
X106615694Y-80008320D01*
X106718092Y-80117323D01*
X106822858Y-80223947D01*
X106928242Y-80326394D01*
X107032497Y-80422865D01*
X107085552Y-80469957D01*
X107267095Y-80622386D01*
X107454015Y-80767096D01*
X107646053Y-80903973D01*
X107842953Y-81032906D01*
X108044456Y-81153781D01*
X108250306Y-81266487D01*
X108460245Y-81370910D01*
X108674015Y-81466938D01*
X108891361Y-81554458D01*
X109112023Y-81633358D01*
X109335745Y-81703526D01*
X109562270Y-81764848D01*
X109791339Y-81817212D01*
X110022697Y-81860506D01*
X110256084Y-81894617D01*
X110373309Y-81908177D01*
X110428751Y-81913928D01*
X110478947Y-81918867D01*
X110525208Y-81923056D01*
X110568841Y-81926553D01*
X110611156Y-81929419D01*
X110653462Y-81931714D01*
X110697067Y-81933497D01*
X110743281Y-81934828D01*
X110793413Y-81935768D01*
X110848772Y-81936376D01*
X110910666Y-81936712D01*
X110980405Y-81936836D01*
X111000000Y-81936841D01*
X111000000Y-82000191D01*
X110922398Y-82000718D01*
X110687775Y-81993144D01*
X110453473Y-81976396D01*
X110219772Y-81950465D01*
X109986955Y-81915342D01*
X109755303Y-81871019D01*
X109525097Y-81817485D01*
X109296619Y-81754732D01*
X109134168Y-81704107D01*
X108909150Y-81625476D01*
X108687823Y-81538134D01*
X108470403Y-81442207D01*
X108257104Y-81337820D01*
X108048141Y-81225099D01*
X107843728Y-81104168D01*
X107644079Y-80975154D01*
X107449409Y-80838181D01*
X107259934Y-80693375D01*
X107075866Y-80540860D01*
X106947869Y-80427317D01*
X106923959Y-80405071D01*
X106894667Y-80377125D01*
X106861165Y-80344650D01*
X106824623Y-80308819D01*
X106786214Y-80270801D01*
X106747109Y-80231769D01*
X106708479Y-80192894D01*
X106671495Y-80155347D01*
X106637330Y-80120301D01*
X106607154Y-80088925D01*
X106582139Y-80062392D01*
X106572683Y-80052131D01*
X106414787Y-79872114D01*
X106264540Y-79686591D01*
X106122064Y-79495778D01*
X105987480Y-79299891D01*
X105860908Y-79099147D01*
X105742471Y-78893761D01*
X105632289Y-78683950D01*
X105530483Y-78469929D01*
X105437174Y-78251916D01*
X105352484Y-78030126D01*
X105276534Y-77804776D01*
X105233402Y-77661682D01*
X105171848Y-77430731D01*
X105119552Y-77197674D01*
X105076520Y-76962551D01*
X105042760Y-76725401D01*
X105020525Y-76512747D01*
X105009405Y-76357684D01*
X105002360Y-76196854D01*
X104999404Y-76033076D01*
X105000550Y-75869165D01*
G36*
X114850355Y-78725159D02*
G01*
X114850355Y-79237115D01*
X114850327Y-79306045D01*
X114850243Y-79372304D01*
X114850108Y-79435275D01*
X114849926Y-79494340D01*
X114849700Y-79548882D01*
X114849434Y-79598284D01*
X114849132Y-79641929D01*
X114848798Y-79679199D01*
X114848435Y-79709479D01*
X114848048Y-79732149D01*
X114847640Y-79746594D01*
X114847215Y-79752196D01*
X114847190Y-79752237D01*
X114842268Y-79752463D01*
X114828174Y-79752686D01*
X114805234Y-79752904D01*
X114773770Y-79753116D01*
X114734108Y-79753323D01*
X114686571Y-79753523D01*
X114631483Y-79753716D01*
X114569169Y-79753902D01*
X114499953Y-79754080D01*
X114424158Y-79754249D01*
X114342109Y-79754408D01*
X114254131Y-79754558D01*
X114160547Y-79754698D01*
X114061681Y-79754826D01*
X113957857Y-79754943D01*
X113849400Y-79755049D01*
X113736634Y-79755141D01*
X113619882Y-79755221D01*
X113499470Y-79755286D01*
X113375721Y-79755338D01*
X113248959Y-79755375D01*
X113119508Y-79755396D01*
X113009844Y-79755402D01*
X111479514Y-79755402D01*
X111479514Y-79461046D01*
X114541757Y-79461046D01*
X114541757Y-79014766D01*
X111479514Y-79014766D01*
X111479514Y-79461046D01*
X111479514Y-79755402D01*
X111175664Y-79755402D01*
X111175664Y-78725159D01*
X114850355Y-78725159D01*
G37*
X114850355Y-78725159D02*
X114850355Y-79237115D01*
X114850327Y-79306045D01*
X114850243Y-79372304D01*
X114850108Y-79435275D01*
X114849926Y-79494340D01*
X114849700Y-79548882D01*
X114849434Y-79598284D01*
X114849132Y-79641929D01*
X114848798Y-79679199D01*
X114848435Y-79709479D01*
X114848048Y-79732149D01*
X114847640Y-79746594D01*
X114847215Y-79752196D01*
X114847190Y-79752237D01*
X114842268Y-79752463D01*
X114828174Y-79752686D01*
X114805234Y-79752904D01*
X114773770Y-79753116D01*
X114734108Y-79753323D01*
X114686571Y-79753523D01*
X114631483Y-79753716D01*
X114569169Y-79753902D01*
X114499953Y-79754080D01*
X114424158Y-79754249D01*
X114342109Y-79754408D01*
X114254131Y-79754558D01*
X114160547Y-79754698D01*
X114061681Y-79754826D01*
X113957857Y-79754943D01*
X113849400Y-79755049D01*
X113736634Y-79755141D01*
X113619882Y-79755221D01*
X113499470Y-79755286D01*
X113375721Y-79755338D01*
X113248959Y-79755375D01*
X113119508Y-79755396D01*
X113009844Y-79755402D01*
X111479514Y-79755402D01*
X111479514Y-79461046D01*
X114541757Y-79461046D01*
X114541757Y-79014766D01*
X111479514Y-79014766D01*
X111479514Y-79461046D01*
X111479514Y-79755402D01*
X111175664Y-79755402D01*
X111175664Y-78725159D01*
X114850355Y-78725159D01*
G36*
X114541757Y-78164934D02*
G01*
X114541757Y-77718654D01*
X111175664Y-77718654D01*
X111175664Y-77429046D01*
X114848296Y-77429046D01*
X114848296Y-77942150D01*
X114848273Y-78011105D01*
X114848206Y-78077352D01*
X114848099Y-78140278D01*
X114847953Y-78199272D01*
X114847773Y-78253720D01*
X114847561Y-78303009D01*
X114847320Y-78346526D01*
X114847054Y-78383660D01*
X114846765Y-78413796D01*
X114846456Y-78436322D01*
X114846131Y-78450625D01*
X114845791Y-78456093D01*
X114845765Y-78456130D01*
X114840888Y-78456189D01*
X114826840Y-78456239D01*
X114803945Y-78456280D01*
X114772527Y-78456312D01*
X114732909Y-78456335D01*
X114685416Y-78456350D01*
X114630372Y-78456356D01*
X114568100Y-78456354D01*
X114498926Y-78456344D01*
X114423172Y-78456326D01*
X114341163Y-78456300D01*
X114253223Y-78456266D01*
X114159675Y-78456224D01*
X114060845Y-78456175D01*
X113957055Y-78456118D01*
X113848630Y-78456055D01*
X113735894Y-78455983D01*
X113619171Y-78455905D01*
X113498785Y-78455820D01*
X113375060Y-78455728D01*
X113248320Y-78455630D01*
X113118888Y-78455524D01*
X113009449Y-78455432D01*
X111175664Y-78453857D01*
X111175664Y-78164934D01*
X114541757Y-78164934D01*
G37*
X114541757Y-78164934D02*
X114541757Y-77718654D01*
X111175664Y-77718654D01*
X111175664Y-77429046D01*
X114848296Y-77429046D01*
X114848296Y-77942150D01*
X114848273Y-78011105D01*
X114848206Y-78077352D01*
X114848099Y-78140278D01*
X114847953Y-78199272D01*
X114847773Y-78253720D01*
X114847561Y-78303009D01*
X114847320Y-78346526D01*
X114847054Y-78383660D01*
X114846765Y-78413796D01*
X114846456Y-78436322D01*
X114846131Y-78450625D01*
X114845791Y-78456093D01*
X114845765Y-78456130D01*
X114840888Y-78456189D01*
X114826840Y-78456239D01*
X114803945Y-78456280D01*
X114772527Y-78456312D01*
X114732909Y-78456335D01*
X114685416Y-78456350D01*
X114630372Y-78456356D01*
X114568100Y-78456354D01*
X114498926Y-78456344D01*
X114423172Y-78456326D01*
X114341163Y-78456300D01*
X114253223Y-78456266D01*
X114159675Y-78456224D01*
X114060845Y-78456175D01*
X113957055Y-78456118D01*
X113848630Y-78456055D01*
X113735894Y-78455983D01*
X113619171Y-78455905D01*
X113498785Y-78455820D01*
X113375060Y-78455728D01*
X113248320Y-78455630D01*
X113118888Y-78455524D01*
X113009449Y-78455432D01*
X111175664Y-78453857D01*
X111175664Y-78164934D01*
X114541757Y-78164934D01*
G36*
X114541757Y-74281346D02*
G01*
X114541757Y-73835065D01*
X111175664Y-73835065D01*
X111175664Y-73545458D01*
X112858711Y-73544306D01*
X112986256Y-73544219D01*
X113112150Y-73544134D01*
X113236012Y-73544050D01*
X113357463Y-73543968D01*
X113476124Y-73543889D01*
X113591613Y-73543811D01*
X113703552Y-73543737D01*
X113811560Y-73543666D01*
X113915259Y-73543598D01*
X114014267Y-73543533D01*
X114108207Y-73543472D01*
X114196696Y-73543415D01*
X114279357Y-73543363D01*
X114355809Y-73543315D01*
X114425672Y-73543271D01*
X114488567Y-73543232D01*
X114544114Y-73543199D01*
X114591933Y-73543171D01*
X114631644Y-73543149D01*
X114662868Y-73543133D01*
X114685225Y-73543122D01*
X114694869Y-73543119D01*
X114847982Y-73543084D01*
X114848151Y-74057018D01*
X114848320Y-74570953D01*
X111175664Y-74570953D01*
X111175664Y-74281346D01*
X114541757Y-74281346D01*
G37*
X114541757Y-74281346D02*
X114541757Y-73835065D01*
X111175664Y-73835065D01*
X111175664Y-73545458D01*
X112858711Y-73544306D01*
X112986256Y-73544219D01*
X113112150Y-73544134D01*
X113236012Y-73544050D01*
X113357463Y-73543968D01*
X113476124Y-73543889D01*
X113591613Y-73543811D01*
X113703552Y-73543737D01*
X113811560Y-73543666D01*
X113915259Y-73543598D01*
X114014267Y-73543533D01*
X114108207Y-73543472D01*
X114196696Y-73543415D01*
X114279357Y-73543363D01*
X114355809Y-73543315D01*
X114425672Y-73543271D01*
X114488567Y-73543232D01*
X114544114Y-73543199D01*
X114591933Y-73543171D01*
X114631644Y-73543149D01*
X114662868Y-73543133D01*
X114685225Y-73543122D01*
X114694869Y-73543119D01*
X114847982Y-73543084D01*
X114848151Y-74057018D01*
X114848320Y-74570953D01*
X111175664Y-74570953D01*
X111175664Y-74281346D01*
X114541757Y-74281346D01*
G36*
X111479514Y-76132934D02*
G01*
X111479514Y-76503252D01*
X114845608Y-76503252D01*
X114845608Y-76792860D01*
X111479514Y-76792860D01*
X111479514Y-77163177D01*
X111175664Y-77163177D01*
X111175664Y-76132934D01*
X111479514Y-76132934D01*
G37*
X111479514Y-76132934D02*
X111479514Y-76503252D01*
X114845608Y-76503252D01*
X114845608Y-76792860D01*
X111479514Y-76792860D01*
X111479514Y-77163177D01*
X111175664Y-77163177D01*
X111175664Y-76132934D01*
X111479514Y-76132934D01*
G36*
X112120391Y-74836822D02*
G01*
X112122823Y-75575084D01*
X113484215Y-75576279D01*
X114845608Y-75577474D01*
X114845608Y-75867065D01*
X111717145Y-75867065D01*
X111717145Y-75576652D01*
X111748558Y-75576600D01*
X111774763Y-75576417D01*
X111794618Y-75576110D01*
X111806976Y-75575686D01*
X111810632Y-75575297D01*
X111812086Y-75572801D01*
X111813301Y-75566080D01*
X111814294Y-75554463D01*
X111815083Y-75537281D01*
X111815686Y-75513865D01*
X111816121Y-75483546D01*
X111816406Y-75445654D01*
X111816559Y-75399520D01*
X111816598Y-75352093D01*
X111816598Y-75131177D01*
X111479420Y-75131177D01*
X111480654Y-75353131D01*
X111481888Y-75575084D01*
X111643277Y-75576335D01*
X111681670Y-75576566D01*
X111717145Y-75576652D01*
X111717145Y-75867065D01*
X111175664Y-75867065D01*
X111175664Y-74836822D01*
X112120391Y-74836822D01*
G37*
X112120391Y-74836822D02*
X112122823Y-75575084D01*
X113484215Y-75576279D01*
X114845608Y-75577474D01*
X114845608Y-75867065D01*
X111717145Y-75867065D01*
X111717145Y-75576652D01*
X111748558Y-75576600D01*
X111774763Y-75576417D01*
X111794618Y-75576110D01*
X111806976Y-75575686D01*
X111810632Y-75575297D01*
X111812086Y-75572801D01*
X111813301Y-75566080D01*
X111814294Y-75554463D01*
X111815083Y-75537281D01*
X111815686Y-75513865D01*
X111816121Y-75483546D01*
X111816406Y-75445654D01*
X111816559Y-75399520D01*
X111816598Y-75352093D01*
X111816598Y-75131177D01*
X111479420Y-75131177D01*
X111480654Y-75353131D01*
X111481888Y-75575084D01*
X111643277Y-75576335D01*
X111681670Y-75576566D01*
X111717145Y-75576652D01*
X111717145Y-75867065D01*
X111175664Y-75867065D01*
X111175664Y-74836822D01*
X112120391Y-74836822D01*
G36*
X111479514Y-72249346D02*
G01*
X111479514Y-72614916D01*
X114845608Y-72614916D01*
X114845608Y-72909271D01*
X111479514Y-72909271D01*
X111479514Y-73274841D01*
X111175664Y-73274841D01*
X111175664Y-72249346D01*
X111479514Y-72249346D01*
G37*
X111479514Y-72249346D02*
X111479514Y-72614916D01*
X114845608Y-72614916D01*
X114845608Y-72909271D01*
X111479514Y-72909271D01*
X111479514Y-73274841D01*
X111175664Y-73274841D01*
X111175664Y-72249346D01*
X111479514Y-72249346D01*
G36*
X110824337Y-78725159D02*
G01*
X110824337Y-79014766D01*
X110520486Y-79014766D01*
X110520486Y-79461046D01*
X110824337Y-79461046D01*
X110824337Y-79750654D01*
X110673598Y-79750750D01*
X110657438Y-79750758D01*
X110632161Y-79750769D01*
X110598146Y-79750782D01*
X110555772Y-79750796D01*
X110505418Y-79750813D01*
X110447463Y-79750832D01*
X110382284Y-79750852D01*
X110310262Y-79750874D01*
X110231774Y-79750897D01*
X110147200Y-79750922D01*
X110056918Y-79750948D01*
X109961307Y-79750975D01*
X109860746Y-79751004D01*
X109755614Y-79751033D01*
X109646288Y-79751063D01*
X109533149Y-79751094D01*
X109416575Y-79751125D01*
X109296944Y-79751157D01*
X109174636Y-79751189D01*
X109050029Y-79751222D01*
X108923501Y-79751254D01*
X108837439Y-79751276D01*
X107458243Y-79751629D01*
X107458243Y-79461046D01*
X110316431Y-79461046D01*
X110313963Y-79017140D01*
X108886103Y-79015945D01*
X107458243Y-79014751D01*
X107458243Y-79461046D01*
X107458243Y-79751629D01*
X107152019Y-79751708D01*
X107151850Y-79238433D01*
X107151681Y-78725159D01*
X110824337Y-78725159D01*
G37*
X110824337Y-78725159D02*
X110824337Y-79014766D01*
X110520486Y-79014766D01*
X110520486Y-79461046D01*
X110824337Y-79461046D01*
X110824337Y-79750654D01*
X110673598Y-79750750D01*
X110657438Y-79750758D01*
X110632161Y-79750769D01*
X110598146Y-79750782D01*
X110555772Y-79750796D01*
X110505418Y-79750813D01*
X110447463Y-79750832D01*
X110382284Y-79750852D01*
X110310262Y-79750874D01*
X110231774Y-79750897D01*
X110147200Y-79750922D01*
X110056918Y-79750948D01*
X109961307Y-79750975D01*
X109860746Y-79751004D01*
X109755614Y-79751033D01*
X109646288Y-79751063D01*
X109533149Y-79751094D01*
X109416575Y-79751125D01*
X109296944Y-79751157D01*
X109174636Y-79751189D01*
X109050029Y-79751222D01*
X108923501Y-79751254D01*
X108837439Y-79751276D01*
X107458243Y-79751629D01*
X107458243Y-79461046D01*
X110316431Y-79461046D01*
X110313963Y-79017140D01*
X108886103Y-79015945D01*
X107458243Y-79014751D01*
X107458243Y-79461046D01*
X107458243Y-79751629D01*
X107152019Y-79751708D01*
X107151850Y-79238433D01*
X107151681Y-78725159D01*
X110824337Y-78725159D01*
G36*
X110824337Y-77429046D02*
G01*
X110824337Y-77718654D01*
X107458243Y-77718654D01*
X107458243Y-78164934D01*
X110824337Y-78164934D01*
X110824337Y-78454542D01*
X109141290Y-78455693D01*
X109013744Y-78455780D01*
X108887851Y-78455866D01*
X108763988Y-78455950D01*
X108642537Y-78456032D01*
X108523877Y-78456111D01*
X108408388Y-78456188D01*
X108296449Y-78456262D01*
X108188440Y-78456334D01*
X108084742Y-78456402D01*
X107985733Y-78456466D01*
X107891794Y-78456527D01*
X107803304Y-78456584D01*
X107720643Y-78456637D01*
X107644192Y-78456685D01*
X107574328Y-78456729D01*
X107511433Y-78456767D01*
X107455887Y-78456800D01*
X107408068Y-78456828D01*
X107368356Y-78456851D01*
X107337133Y-78456867D01*
X107314776Y-78456877D01*
X107305131Y-78456880D01*
X107152019Y-78456916D01*
X107151681Y-77429046D01*
X110824337Y-77429046D01*
G37*
X110824337Y-77429046D02*
X110824337Y-77718654D01*
X107458243Y-77718654D01*
X107458243Y-78164934D01*
X110824337Y-78164934D01*
X110824337Y-78454542D01*
X109141290Y-78455693D01*
X109013744Y-78455780D01*
X108887851Y-78455866D01*
X108763988Y-78455950D01*
X108642537Y-78456032D01*
X108523877Y-78456111D01*
X108408388Y-78456188D01*
X108296449Y-78456262D01*
X108188440Y-78456334D01*
X108084742Y-78456402D01*
X107985733Y-78456466D01*
X107891794Y-78456527D01*
X107803304Y-78456584D01*
X107720643Y-78456637D01*
X107644192Y-78456685D01*
X107574328Y-78456729D01*
X107511433Y-78456767D01*
X107455887Y-78456800D01*
X107408068Y-78456828D01*
X107368356Y-78456851D01*
X107337133Y-78456867D01*
X107314776Y-78456877D01*
X107305131Y-78456880D01*
X107152019Y-78456916D01*
X107151681Y-77429046D01*
X110824337Y-77429046D01*
G36*
X110824337Y-76132922D02*
G01*
X110824337Y-76422542D01*
X110520486Y-76422542D01*
X110520486Y-76868822D01*
X110824337Y-76868822D01*
X110824337Y-77163189D01*
X108988178Y-77161997D01*
X107458243Y-77161003D01*
X107458243Y-76868822D01*
X110316431Y-76868822D01*
X110313963Y-76424916D01*
X107458243Y-76422526D01*
X107458243Y-76868822D01*
X107458243Y-77161003D01*
X107152019Y-77160804D01*
X107152019Y-76135308D01*
X110824337Y-76132922D01*
G37*
X110824337Y-76132922D02*
X110824337Y-76422542D01*
X110520486Y-76422542D01*
X110520486Y-76868822D01*
X110824337Y-76868822D01*
X110824337Y-77163189D01*
X108988178Y-77161997D01*
X107458243Y-77161003D01*
X107458243Y-76868822D01*
X110316431Y-76868822D01*
X110313963Y-76424916D01*
X107458243Y-76422526D01*
X107458243Y-76868822D01*
X107458243Y-77161003D01*
X107152019Y-77160804D01*
X107152019Y-76135308D01*
X110824337Y-76132922D01*
G36*
X108836253Y-75576277D02*
G01*
X110518112Y-75575084D01*
X110520544Y-74836822D01*
X110824337Y-74836822D01*
X110824337Y-75867065D01*
X107154393Y-75867065D01*
X107154393Y-75577471D01*
X108836253Y-75576277D01*
G37*
X108836253Y-75576277D02*
X110518112Y-75575084D01*
X110520544Y-74836822D01*
X110824337Y-74836822D01*
X110824337Y-75867065D01*
X107154393Y-75867065D01*
X107154393Y-75577471D01*
X108836253Y-75576277D01*
G36*
X107150811Y-74057018D02*
G01*
X107152019Y-73543084D01*
X110824337Y-73540698D01*
X110824337Y-74570953D01*
X107458243Y-74570953D01*
X107458243Y-74276598D01*
X110520486Y-74276598D01*
X110520486Y-73835065D01*
X107458243Y-73835065D01*
X107458243Y-74276598D01*
X107458243Y-74570953D01*
X107149603Y-74570953D01*
X107150811Y-74057018D01*
G37*
X107150811Y-74057018D02*
X107152019Y-73543084D01*
X110824337Y-73540698D01*
X110824337Y-74570953D01*
X107458243Y-74570953D01*
X107458243Y-74276598D01*
X110520486Y-74276598D01*
X110520486Y-73835065D01*
X107458243Y-73835065D01*
X107458243Y-74276598D01*
X107458243Y-74570953D01*
X107149603Y-74570953D01*
X107150811Y-74057018D01*
G36*
X107151239Y-73057635D02*
G01*
X107151842Y-73010452D01*
X107152408Y-72955599D01*
X107152924Y-72894904D01*
X107153380Y-72830192D01*
X107153765Y-72763290D01*
X107154067Y-72696025D01*
X107154275Y-72630222D01*
X107154378Y-72567707D01*
X107154387Y-72544888D01*
X107154393Y-72249346D01*
X107458243Y-72249346D01*
X107458243Y-72985233D01*
X110520486Y-72985233D01*
X110520486Y-72538953D01*
X107895207Y-72538953D01*
X107893930Y-72646962D01*
X107892654Y-72754972D01*
X107789351Y-72756251D01*
X107686048Y-72757531D01*
X107687277Y-72503249D01*
X107688505Y-72248968D01*
X110824337Y-72246972D01*
X110824337Y-73274841D01*
X107148097Y-73274841D01*
X107151239Y-73057635D01*
G37*
X107151239Y-73057635D02*
X107151842Y-73010452D01*
X107152408Y-72955599D01*
X107152924Y-72894904D01*
X107153380Y-72830192D01*
X107153765Y-72763290D01*
X107154067Y-72696025D01*
X107154275Y-72630222D01*
X107154378Y-72567707D01*
X107154387Y-72544888D01*
X107154393Y-72249346D01*
X107458243Y-72249346D01*
X107458243Y-72985233D01*
X110520486Y-72985233D01*
X110520486Y-72538953D01*
X107895207Y-72538953D01*
X107893930Y-72646962D01*
X107892654Y-72754972D01*
X107789351Y-72756251D01*
X107686048Y-72757531D01*
X107687277Y-72503249D01*
X107688505Y-72248968D01*
X110824337Y-72246972D01*
X110824337Y-73274841D01*
X107148097Y-73274841D01*
X107151239Y-73057635D01*
D12*
%TO.C,U1*%
X108560000Y-109920000D02*
X107310000Y-109920000D01*
X107310000Y-109920000D02*
X107310000Y-120200000D01*
X107310000Y-120200000D02*
X111810000Y-120200000D01*
X111810000Y-120200000D02*
X111810000Y-109920000D01*
X111810000Y-109920000D02*
X110560000Y-109920000D01*
X104310000Y-109860000D02*
X104310000Y-120260000D01*
X104310000Y-120260000D02*
X114810000Y-120260000D01*
X114810000Y-120260000D02*
X114810000Y-109860000D01*
X114810000Y-109860000D02*
X104310000Y-109860000D01*
X110560000Y-109920000D02*
G75*
G02*
X108560000Y-109920000I-1000000J0D01*
G01*
%TO.C,RV1*%
X123530000Y-103135000D02*
X118460000Y-103135000D01*
X123530000Y-93365000D02*
X118460000Y-93365000D01*
X118460000Y-93365000D02*
X118460000Y-103135000D01*
X123530000Y-93365000D02*
X123530000Y-103135000D01*
%TO.C,R6*%
X102540000Y-100170000D02*
X102870000Y-100170000D01*
X102870000Y-100170000D02*
X102870000Y-106710000D01*
X102870000Y-106710000D02*
X102540000Y-106710000D01*
X100460000Y-100170000D02*
X100130000Y-100170000D01*
X100130000Y-100170000D02*
X100130000Y-106710000D01*
X100130000Y-106710000D02*
X100460000Y-106710000D01*
%TO.C,R5*%
X109480000Y-106650000D02*
X109150000Y-106650000D01*
X109150000Y-106650000D02*
X109150000Y-100110000D01*
X109150000Y-100110000D02*
X109480000Y-100110000D01*
X111560000Y-106650000D02*
X111890000Y-106650000D01*
X111890000Y-106650000D02*
X111890000Y-100110000D01*
X111890000Y-100110000D02*
X111560000Y-100110000D01*
%TO.C,R4*%
X104960000Y-130710000D02*
X104630000Y-130710000D01*
X104630000Y-130710000D02*
X104630000Y-124170000D01*
X104630000Y-124170000D02*
X104960000Y-124170000D01*
X107040000Y-130710000D02*
X107370000Y-130710000D01*
X107370000Y-130710000D02*
X107370000Y-124170000D01*
X107370000Y-124170000D02*
X107040000Y-124170000D01*
%TO.C,R3*%
X113960000Y-106650000D02*
X113630000Y-106650000D01*
X113630000Y-106650000D02*
X113630000Y-100110000D01*
X113630000Y-100110000D02*
X113960000Y-100110000D01*
X116040000Y-106650000D02*
X116370000Y-106650000D01*
X116370000Y-106650000D02*
X116370000Y-100110000D01*
X116370000Y-100110000D02*
X116040000Y-100110000D01*
%TO.C,R2*%
X113960000Y-130710000D02*
X113630000Y-130710000D01*
X113630000Y-130710000D02*
X113630000Y-124170000D01*
X113630000Y-124170000D02*
X113960000Y-124170000D01*
X116040000Y-130710000D02*
X116370000Y-130710000D01*
X116370000Y-130710000D02*
X116370000Y-124170000D01*
X116370000Y-124170000D02*
X116040000Y-124170000D01*
%TO.C,R1*%
X109480000Y-130710000D02*
X109150000Y-130710000D01*
X109150000Y-130710000D02*
X109150000Y-124170000D01*
X109150000Y-124170000D02*
X109480000Y-124170000D01*
X111560000Y-130710000D02*
X111890000Y-130710000D01*
X111890000Y-130710000D02*
X111890000Y-124170000D01*
X111890000Y-124170000D02*
X111560000Y-124170000D01*
%TO.C,Q1*%
X119400000Y-116490000D02*
X119400000Y-120090000D01*
X120127205Y-120614184D02*
G75*
G02*
X119400000Y-120090000I1122795J2324184D01*
G01*
X122348807Y-120646400D02*
G75*
G03*
X123850000Y-118290000I-1098807J2356400D01*
G01*
X122348807Y-115933600D02*
G75*
G02*
X123850000Y-118290000I-1098807J-2356400D01*
G01*
X120127205Y-115965816D02*
G75*
G03*
X119400000Y-116490000I1122795J-2324184D01*
G01*
%TO.C,J8*%
X117720000Y-133130000D02*
X123740000Y-133130000D01*
X123740000Y-133130000D02*
X123740000Y-125290000D01*
X123740000Y-125290000D02*
X117720000Y-125290000D01*
X117720000Y-125290000D02*
X117720000Y-133130000D01*
X118750000Y-133420000D02*
X122750000Y-133420000D01*
X123740000Y-131750000D02*
X122740000Y-131750000D01*
X122740000Y-131750000D02*
X122740000Y-126670000D01*
X122740000Y-126670000D02*
X123740000Y-126670000D01*
X122740000Y-131750000D02*
X122210000Y-131500000D01*
X122210000Y-131500000D02*
X122210000Y-126920000D01*
X122210000Y-126920000D02*
X122740000Y-126670000D01*
X123740000Y-131500000D02*
X122740000Y-131500000D01*
X123740000Y-126920000D02*
X122740000Y-126920000D01*
X117720000Y-132550000D02*
X118320000Y-132550000D01*
X118320000Y-132550000D02*
X118320000Y-130950000D01*
X118320000Y-130950000D02*
X117720000Y-130950000D01*
X117720000Y-130010000D02*
X118320000Y-130010000D01*
X118320000Y-130010000D02*
X118320000Y-128410000D01*
X118320000Y-128410000D02*
X117720000Y-128410000D01*
X117720000Y-127470000D02*
X118320000Y-127470000D01*
X118320000Y-127470000D02*
X118320000Y-125870000D01*
X118320000Y-125870000D02*
X117720000Y-125870000D01*
%TO.C,J7*%
X117720000Y-141130000D02*
X123740000Y-141130000D01*
X123740000Y-141130000D02*
X123740000Y-135830000D01*
X123740000Y-135830000D02*
X117720000Y-135830000D01*
X117720000Y-135830000D02*
X117720000Y-141130000D01*
X118750000Y-141420000D02*
X122750000Y-141420000D01*
X123740000Y-139750000D02*
X122740000Y-139750000D01*
X122740000Y-139750000D02*
X122740000Y-137210000D01*
X122740000Y-137210000D02*
X123740000Y-137210000D01*
X122740000Y-139750000D02*
X122210000Y-139500000D01*
X122210000Y-139500000D02*
X122210000Y-137460000D01*
X122210000Y-137460000D02*
X122740000Y-137210000D01*
X123740000Y-139500000D02*
X122740000Y-139500000D01*
X123740000Y-137460000D02*
X122740000Y-137460000D01*
X117720000Y-140550000D02*
X118320000Y-140550000D01*
X118320000Y-140550000D02*
X118320000Y-138950000D01*
X118320000Y-138950000D02*
X117720000Y-138950000D01*
X117720000Y-138010000D02*
X118320000Y-138010000D01*
X118320000Y-138010000D02*
X118320000Y-136410000D01*
X118320000Y-136410000D02*
X117720000Y-136410000D01*
%TO.C,J3*%
X117720000Y-111630000D02*
X123740000Y-111630000D01*
X123740000Y-111630000D02*
X123740000Y-106330000D01*
X123740000Y-106330000D02*
X117720000Y-106330000D01*
X117720000Y-106330000D02*
X117720000Y-111630000D01*
X118750000Y-111920000D02*
X122750000Y-111920000D01*
X123740000Y-110250000D02*
X122740000Y-110250000D01*
X122740000Y-110250000D02*
X122740000Y-107710000D01*
X122740000Y-107710000D02*
X123740000Y-107710000D01*
X122740000Y-110250000D02*
X122210000Y-110000000D01*
X122210000Y-110000000D02*
X122210000Y-107960000D01*
X122210000Y-107960000D02*
X122740000Y-107710000D01*
X123740000Y-110000000D02*
X122740000Y-110000000D01*
X123740000Y-107960000D02*
X122740000Y-107960000D01*
X117720000Y-111050000D02*
X118320000Y-111050000D01*
X118320000Y-111050000D02*
X118320000Y-109450000D01*
X118320000Y-109450000D02*
X117720000Y-109450000D01*
X117720000Y-108510000D02*
X118320000Y-108510000D01*
X118320000Y-108510000D02*
X118320000Y-106910000D01*
X118320000Y-106910000D02*
X117720000Y-106910000D01*
%TO.C,D3*%
X104880000Y-105560000D02*
X107120000Y-105560000D01*
X107120000Y-105560000D02*
X107120000Y-101320000D01*
X107120000Y-101320000D02*
X104880000Y-101320000D01*
X104880000Y-101320000D02*
X104880000Y-105560000D01*
X106000000Y-106210000D02*
X106000000Y-105560000D01*
X106000000Y-100670000D02*
X106000000Y-101320000D01*
X104880000Y-104840000D02*
X107120000Y-104840000D01*
X104880000Y-104720000D02*
X107120000Y-104720000D01*
X104880000Y-104960000D02*
X107120000Y-104960000D01*
%TO.C,D2*%
X110218000Y-83444000D02*
X110348000Y-83444000D01*
X110348000Y-83444000D02*
X110348000Y-88884000D01*
X110348000Y-88884000D02*
X110218000Y-88884000D01*
X107538000Y-83444000D02*
X107408000Y-83444000D01*
X107408000Y-83444000D02*
X107408000Y-88884000D01*
X107408000Y-88884000D02*
X107538000Y-88884000D01*
X110348000Y-84344000D02*
X107408000Y-84344000D01*
X110348000Y-84464000D02*
X107408000Y-84464000D01*
X110348000Y-84224000D02*
X107408000Y-84224000D01*
%TO.C,D1*%
X110218000Y-62616000D02*
X110348000Y-62616000D01*
X110348000Y-62616000D02*
X110348000Y-68056000D01*
X110348000Y-68056000D02*
X110218000Y-68056000D01*
X107538000Y-62616000D02*
X107408000Y-62616000D01*
X107408000Y-62616000D02*
X107408000Y-68056000D01*
X107408000Y-68056000D02*
X107538000Y-68056000D01*
X110348000Y-63516000D02*
X107408000Y-63516000D01*
X110348000Y-63636000D02*
X107408000Y-63636000D01*
X110348000Y-63396000D02*
X107408000Y-63396000D01*
%TO.C,C5*%
X103670000Y-117371000D02*
X103670000Y-118629000D01*
X101830000Y-117371000D02*
X101830000Y-118629000D01*
%TO.C,C4*%
X110871000Y-133830000D02*
X112129000Y-133830000D01*
X110871000Y-135670000D02*
X112129000Y-135670000D01*
%TO.C,C3*%
X117420000Y-115879000D02*
X117420000Y-114621000D01*
X115580000Y-115879000D02*
X115580000Y-114621000D01*
%TO.C,C2*%
X117070000Y-89720000D02*
G75*
G03*
X117070000Y-89720000I-2620000J0D01*
G01*
X114450000Y-90760000D02*
X114450000Y-92300000D01*
X114450000Y-87140000D02*
X114450000Y-88680000D01*
X114490000Y-90760000D02*
X114490000Y-92300000D01*
X114490000Y-87140000D02*
X114490000Y-88680000D01*
X114530000Y-87141000D02*
X114530000Y-88680000D01*
X114530000Y-90760000D02*
X114530000Y-92299000D01*
X114570000Y-87142000D02*
X114570000Y-88680000D01*
X114570000Y-90760000D02*
X114570000Y-92298000D01*
X114610000Y-87144000D02*
X114610000Y-88680000D01*
X114610000Y-90760000D02*
X114610000Y-92296000D01*
X114650000Y-87147000D02*
X114650000Y-88680000D01*
X114650000Y-90760000D02*
X114650000Y-92293000D01*
X114690000Y-87151000D02*
X114690000Y-88680000D01*
X114690000Y-90760000D02*
X114690000Y-92289000D01*
X114730000Y-87155000D02*
X114730000Y-88680000D01*
X114730000Y-90760000D02*
X114730000Y-92285000D01*
X114770000Y-87159000D02*
X114770000Y-88680000D01*
X114770000Y-90760000D02*
X114770000Y-92281000D01*
X114810000Y-87164000D02*
X114810000Y-88680000D01*
X114810000Y-90760000D02*
X114810000Y-92276000D01*
X114850000Y-87170000D02*
X114850000Y-88680000D01*
X114850000Y-90760000D02*
X114850000Y-92270000D01*
X114890000Y-87177000D02*
X114890000Y-88680000D01*
X114890000Y-90760000D02*
X114890000Y-92263000D01*
X114930000Y-87184000D02*
X114930000Y-88680000D01*
X114930000Y-90760000D02*
X114930000Y-92256000D01*
X114970000Y-87192000D02*
X114970000Y-88680000D01*
X114970000Y-90760000D02*
X114970000Y-92248000D01*
X115010000Y-87200000D02*
X115010000Y-88680000D01*
X115010000Y-90760000D02*
X115010000Y-92240000D01*
X115050000Y-87209000D02*
X115050000Y-88680000D01*
X115050000Y-90760000D02*
X115050000Y-92231000D01*
X115090000Y-87219000D02*
X115090000Y-88680000D01*
X115090000Y-90760000D02*
X115090000Y-92221000D01*
X115130000Y-87229000D02*
X115130000Y-88680000D01*
X115130000Y-90760000D02*
X115130000Y-92211000D01*
X115171000Y-87240000D02*
X115171000Y-88680000D01*
X115171000Y-90760000D02*
X115171000Y-92200000D01*
X115211000Y-87252000D02*
X115211000Y-88680000D01*
X115211000Y-90760000D02*
X115211000Y-92188000D01*
X115251000Y-87265000D02*
X115251000Y-88680000D01*
X115251000Y-90760000D02*
X115251000Y-92175000D01*
X115291000Y-87278000D02*
X115291000Y-88680000D01*
X115291000Y-90760000D02*
X115291000Y-92162000D01*
X115331000Y-87292000D02*
X115331000Y-88680000D01*
X115331000Y-90760000D02*
X115331000Y-92148000D01*
X115371000Y-87306000D02*
X115371000Y-88680000D01*
X115371000Y-90760000D02*
X115371000Y-92134000D01*
X115411000Y-87322000D02*
X115411000Y-88680000D01*
X115411000Y-90760000D02*
X115411000Y-92118000D01*
X115451000Y-87338000D02*
X115451000Y-88680000D01*
X115451000Y-90760000D02*
X115451000Y-92102000D01*
X115491000Y-87355000D02*
X115491000Y-88680000D01*
X115491000Y-90760000D02*
X115491000Y-92085000D01*
X115531000Y-87372000D02*
X115531000Y-88680000D01*
X115531000Y-90760000D02*
X115531000Y-92068000D01*
X115571000Y-87391000D02*
X115571000Y-88680000D01*
X115571000Y-90760000D02*
X115571000Y-92049000D01*
X115611000Y-87410000D02*
X115611000Y-88680000D01*
X115611000Y-90760000D02*
X115611000Y-92030000D01*
X115651000Y-87430000D02*
X115651000Y-88680000D01*
X115651000Y-90760000D02*
X115651000Y-92010000D01*
X115691000Y-87452000D02*
X115691000Y-88680000D01*
X115691000Y-90760000D02*
X115691000Y-91988000D01*
X115731000Y-87473000D02*
X115731000Y-88680000D01*
X115731000Y-90760000D02*
X115731000Y-91967000D01*
X115771000Y-87496000D02*
X115771000Y-88680000D01*
X115771000Y-90760000D02*
X115771000Y-91944000D01*
X115811000Y-87520000D02*
X115811000Y-88680000D01*
X115811000Y-90760000D02*
X115811000Y-91920000D01*
X115851000Y-87545000D02*
X115851000Y-88680000D01*
X115851000Y-90760000D02*
X115851000Y-91895000D01*
X115891000Y-87571000D02*
X115891000Y-88680000D01*
X115891000Y-90760000D02*
X115891000Y-91869000D01*
X115931000Y-87598000D02*
X115931000Y-88680000D01*
X115931000Y-90760000D02*
X115931000Y-91842000D01*
X115971000Y-87625000D02*
X115971000Y-88680000D01*
X115971000Y-90760000D02*
X115971000Y-91815000D01*
X116011000Y-87655000D02*
X116011000Y-88680000D01*
X116011000Y-90760000D02*
X116011000Y-91785000D01*
X116051000Y-87685000D02*
X116051000Y-88680000D01*
X116051000Y-90760000D02*
X116051000Y-91755000D01*
X116091000Y-87716000D02*
X116091000Y-88680000D01*
X116091000Y-90760000D02*
X116091000Y-91724000D01*
X116131000Y-87749000D02*
X116131000Y-88680000D01*
X116131000Y-90760000D02*
X116131000Y-91691000D01*
X116171000Y-87783000D02*
X116171000Y-88680000D01*
X116171000Y-90760000D02*
X116171000Y-91657000D01*
X116211000Y-87819000D02*
X116211000Y-88680000D01*
X116211000Y-90760000D02*
X116211000Y-91621000D01*
X116251000Y-87856000D02*
X116251000Y-88680000D01*
X116251000Y-90760000D02*
X116251000Y-91584000D01*
X116291000Y-87894000D02*
X116291000Y-88680000D01*
X116291000Y-90760000D02*
X116291000Y-91546000D01*
X116331000Y-87935000D02*
X116331000Y-88680000D01*
X116331000Y-90760000D02*
X116331000Y-91505000D01*
X116371000Y-87977000D02*
X116371000Y-88680000D01*
X116371000Y-90760000D02*
X116371000Y-91463000D01*
X116411000Y-88021000D02*
X116411000Y-88680000D01*
X116411000Y-90760000D02*
X116411000Y-91419000D01*
X116451000Y-88067000D02*
X116451000Y-88680000D01*
X116451000Y-90760000D02*
X116451000Y-91373000D01*
X116491000Y-88115000D02*
X116491000Y-91325000D01*
X116531000Y-88166000D02*
X116531000Y-91274000D01*
X116571000Y-88220000D02*
X116571000Y-91220000D01*
X116611000Y-88277000D02*
X116611000Y-91163000D01*
X116651000Y-88337000D02*
X116651000Y-91103000D01*
X116691000Y-88401000D02*
X116691000Y-91039000D01*
X116731000Y-88469000D02*
X116731000Y-90971000D01*
X116771000Y-88542000D02*
X116771000Y-90898000D01*
X116811000Y-88622000D02*
X116811000Y-90818000D01*
X116851000Y-88709000D02*
X116851000Y-90731000D01*
X116891000Y-88805000D02*
X116891000Y-90635000D01*
X116931000Y-88915000D02*
X116931000Y-90525000D01*
X116971000Y-89043000D02*
X116971000Y-90397000D01*
X117011000Y-89202000D02*
X117011000Y-90238000D01*
X117051000Y-89436000D02*
X117051000Y-90004000D01*
X111645225Y-88245000D02*
X112145225Y-88245000D01*
X111895225Y-87995000D02*
X111895225Y-88495000D01*
%TO.C,C1*%
X117197000Y-61780000D02*
G75*
G03*
X117197000Y-61780000I-2620000J0D01*
G01*
X114577000Y-60740000D02*
X114577000Y-59200000D01*
X114577000Y-64360000D02*
X114577000Y-62820000D01*
X114537000Y-60740000D02*
X114537000Y-59200000D01*
X114537000Y-64360000D02*
X114537000Y-62820000D01*
X114497000Y-64359000D02*
X114497000Y-62820000D01*
X114497000Y-60740000D02*
X114497000Y-59201000D01*
X114457000Y-64358000D02*
X114457000Y-62820000D01*
X114457000Y-60740000D02*
X114457000Y-59202000D01*
X114417000Y-64356000D02*
X114417000Y-62820000D01*
X114417000Y-60740000D02*
X114417000Y-59204000D01*
X114377000Y-64353000D02*
X114377000Y-62820000D01*
X114377000Y-60740000D02*
X114377000Y-59207000D01*
X114337000Y-64349000D02*
X114337000Y-62820000D01*
X114337000Y-60740000D02*
X114337000Y-59211000D01*
X114297000Y-64345000D02*
X114297000Y-62820000D01*
X114297000Y-60740000D02*
X114297000Y-59215000D01*
X114257000Y-64341000D02*
X114257000Y-62820000D01*
X114257000Y-60740000D02*
X114257000Y-59219000D01*
X114217000Y-64336000D02*
X114217000Y-62820000D01*
X114217000Y-60740000D02*
X114217000Y-59224000D01*
X114177000Y-64330000D02*
X114177000Y-62820000D01*
X114177000Y-60740000D02*
X114177000Y-59230000D01*
X114137000Y-64323000D02*
X114137000Y-62820000D01*
X114137000Y-60740000D02*
X114137000Y-59237000D01*
X114097000Y-64316000D02*
X114097000Y-62820000D01*
X114097000Y-60740000D02*
X114097000Y-59244000D01*
X114057000Y-64308000D02*
X114057000Y-62820000D01*
X114057000Y-60740000D02*
X114057000Y-59252000D01*
X114017000Y-64300000D02*
X114017000Y-62820000D01*
X114017000Y-60740000D02*
X114017000Y-59260000D01*
X113977000Y-64291000D02*
X113977000Y-62820000D01*
X113977000Y-60740000D02*
X113977000Y-59269000D01*
X113937000Y-64281000D02*
X113937000Y-62820000D01*
X113937000Y-60740000D02*
X113937000Y-59279000D01*
X113897000Y-64271000D02*
X113897000Y-62820000D01*
X113897000Y-60740000D02*
X113897000Y-59289000D01*
X113856000Y-64260000D02*
X113856000Y-62820000D01*
X113856000Y-60740000D02*
X113856000Y-59300000D01*
X113816000Y-64248000D02*
X113816000Y-62820000D01*
X113816000Y-60740000D02*
X113816000Y-59312000D01*
X113776000Y-64235000D02*
X113776000Y-62820000D01*
X113776000Y-60740000D02*
X113776000Y-59325000D01*
X113736000Y-64222000D02*
X113736000Y-62820000D01*
X113736000Y-60740000D02*
X113736000Y-59338000D01*
X113696000Y-64208000D02*
X113696000Y-62820000D01*
X113696000Y-60740000D02*
X113696000Y-59352000D01*
X113656000Y-64194000D02*
X113656000Y-62820000D01*
X113656000Y-60740000D02*
X113656000Y-59366000D01*
X113616000Y-64178000D02*
X113616000Y-62820000D01*
X113616000Y-60740000D02*
X113616000Y-59382000D01*
X113576000Y-64162000D02*
X113576000Y-62820000D01*
X113576000Y-60740000D02*
X113576000Y-59398000D01*
X113536000Y-64145000D02*
X113536000Y-62820000D01*
X113536000Y-60740000D02*
X113536000Y-59415000D01*
X113496000Y-64128000D02*
X113496000Y-62820000D01*
X113496000Y-60740000D02*
X113496000Y-59432000D01*
X113456000Y-64109000D02*
X113456000Y-62820000D01*
X113456000Y-60740000D02*
X113456000Y-59451000D01*
X113416000Y-64090000D02*
X113416000Y-62820000D01*
X113416000Y-60740000D02*
X113416000Y-59470000D01*
X113376000Y-64070000D02*
X113376000Y-62820000D01*
X113376000Y-60740000D02*
X113376000Y-59490000D01*
X113336000Y-64048000D02*
X113336000Y-62820000D01*
X113336000Y-60740000D02*
X113336000Y-59512000D01*
X113296000Y-64027000D02*
X113296000Y-62820000D01*
X113296000Y-60740000D02*
X113296000Y-59533000D01*
X113256000Y-64004000D02*
X113256000Y-62820000D01*
X113256000Y-60740000D02*
X113256000Y-59556000D01*
X113216000Y-63980000D02*
X113216000Y-62820000D01*
X113216000Y-60740000D02*
X113216000Y-59580000D01*
X113176000Y-63955000D02*
X113176000Y-62820000D01*
X113176000Y-60740000D02*
X113176000Y-59605000D01*
X113136000Y-63929000D02*
X113136000Y-62820000D01*
X113136000Y-60740000D02*
X113136000Y-59631000D01*
X113096000Y-63902000D02*
X113096000Y-62820000D01*
X113096000Y-60740000D02*
X113096000Y-59658000D01*
X113056000Y-63875000D02*
X113056000Y-62820000D01*
X113056000Y-60740000D02*
X113056000Y-59685000D01*
X113016000Y-63845000D02*
X113016000Y-62820000D01*
X113016000Y-60740000D02*
X113016000Y-59715000D01*
X112976000Y-63815000D02*
X112976000Y-62820000D01*
X112976000Y-60740000D02*
X112976000Y-59745000D01*
X112936000Y-63784000D02*
X112936000Y-62820000D01*
X112936000Y-60740000D02*
X112936000Y-59776000D01*
X112896000Y-63751000D02*
X112896000Y-62820000D01*
X112896000Y-60740000D02*
X112896000Y-59809000D01*
X112856000Y-63717000D02*
X112856000Y-62820000D01*
X112856000Y-60740000D02*
X112856000Y-59843000D01*
X112816000Y-63681000D02*
X112816000Y-62820000D01*
X112816000Y-60740000D02*
X112816000Y-59879000D01*
X112776000Y-63644000D02*
X112776000Y-62820000D01*
X112776000Y-60740000D02*
X112776000Y-59916000D01*
X112736000Y-63606000D02*
X112736000Y-62820000D01*
X112736000Y-60740000D02*
X112736000Y-59954000D01*
X112696000Y-63565000D02*
X112696000Y-62820000D01*
X112696000Y-60740000D02*
X112696000Y-59995000D01*
X112656000Y-63523000D02*
X112656000Y-62820000D01*
X112656000Y-60740000D02*
X112656000Y-60037000D01*
X112616000Y-63479000D02*
X112616000Y-62820000D01*
X112616000Y-60740000D02*
X112616000Y-60081000D01*
X112576000Y-63433000D02*
X112576000Y-62820000D01*
X112576000Y-60740000D02*
X112576000Y-60127000D01*
X112536000Y-63385000D02*
X112536000Y-60175000D01*
X112496000Y-63334000D02*
X112496000Y-60226000D01*
X112456000Y-63280000D02*
X112456000Y-60280000D01*
X112416000Y-63223000D02*
X112416000Y-60337000D01*
X112376000Y-63163000D02*
X112376000Y-60397000D01*
X112336000Y-63099000D02*
X112336000Y-60461000D01*
X112296000Y-63031000D02*
X112296000Y-60529000D01*
X112256000Y-62958000D02*
X112256000Y-60602000D01*
X112216000Y-62878000D02*
X112216000Y-60682000D01*
X112176000Y-62791000D02*
X112176000Y-60769000D01*
X112136000Y-62695000D02*
X112136000Y-60865000D01*
X112096000Y-62585000D02*
X112096000Y-60975000D01*
X112056000Y-62457000D02*
X112056000Y-61103000D01*
X112016000Y-62298000D02*
X112016000Y-61262000D01*
X111976000Y-62064000D02*
X111976000Y-61496000D01*
X117381775Y-63255000D02*
X116881775Y-63255000D01*
X117131775Y-63505000D02*
X117131775Y-63005000D01*
%TO.C,J2*%
X115481000Y-67450000D02*
X115481000Y-69450000D01*
X117781000Y-67450000D02*
X115481000Y-67450000D01*
X121481000Y-82800000D02*
X116081000Y-82800000D01*
X121481000Y-78700000D02*
X116081000Y-78700000D01*
X116081000Y-78700000D02*
X116081000Y-82800000D01*
X121481000Y-81634000D02*
X121481000Y-82800000D01*
X121481000Y-78700000D02*
X121481000Y-79867000D01*
X121481000Y-77800000D02*
X116081000Y-77800000D01*
X121481000Y-73700000D02*
X116081000Y-73700000D01*
X116081000Y-73700000D02*
X116081000Y-77800000D01*
X121481000Y-76634000D02*
X121481000Y-77800000D01*
X121481000Y-73700000D02*
X121481000Y-74867000D01*
X121481000Y-72800000D02*
X116081000Y-72800000D01*
X121481000Y-68700000D02*
X116081000Y-68700000D01*
X116081000Y-68700000D02*
X116081000Y-72800000D01*
X121481000Y-72240000D02*
X121481000Y-72800000D01*
X121481000Y-68700000D02*
X121481000Y-69260000D01*
X123281000Y-83250000D02*
X115681000Y-83250000D01*
X123281000Y-67650000D02*
X115681000Y-67650000D01*
X123281000Y-67650000D02*
X123281000Y-83250000D01*
X115681000Y-67650000D02*
X115681000Y-83250000D01*
%TO.C,J1*%
X97345000Y-86180000D02*
X97345000Y-65320000D01*
X97345000Y-65320000D02*
X106695000Y-65320000D01*
X106695000Y-65320000D02*
X106695000Y-86180000D01*
X106695000Y-86180000D02*
X97345000Y-86180000D01*
X106440000Y-85930000D02*
X97590000Y-85930000D01*
X97590000Y-85930000D02*
X97590000Y-65580000D01*
X97590000Y-65580000D02*
X106440000Y-65580000D01*
X106440000Y-65580000D02*
X106440000Y-85930000D01*
X106440000Y-85930000D02*
X105890000Y-85380000D01*
X105890000Y-85380000D02*
X98140000Y-85380000D01*
X98140000Y-85380000D02*
X97590000Y-85930000D01*
X98140000Y-85380000D02*
X98140000Y-66130000D01*
X98140000Y-66130000D02*
X97590000Y-65580000D01*
X98140000Y-66130000D02*
X105890000Y-66130000D01*
X105890000Y-66130000D02*
X106390000Y-65630000D01*
X105890000Y-66130000D02*
X105890000Y-73480000D01*
X105890000Y-73500000D02*
X106400000Y-73500000D01*
X106390000Y-78000000D02*
X105910000Y-78000000D01*
X105890000Y-78000000D02*
X105890000Y-85380000D01*
%TO.C,U1*%
D10*
X108988571Y-108509285D02*
X108988571Y-109116428D01*
X109024285Y-109187857D01*
X109060000Y-109223571D01*
X109131428Y-109259285D01*
X109274285Y-109259285D01*
X109345714Y-109223571D01*
X109381428Y-109187857D01*
X109417142Y-109116428D01*
X109417142Y-108509285D01*
X110167142Y-109259285D02*
X109738571Y-109259285D01*
X109952857Y-109259285D02*
X109952857Y-108509285D01*
X109881428Y-108616428D01*
X109810000Y-108687857D01*
X109738571Y-108723571D01*
X108160714Y-120839285D02*
X108589285Y-120839285D01*
X108375000Y-121589285D02*
X108375000Y-120839285D01*
X109196428Y-121589285D02*
X108839285Y-121589285D01*
X108839285Y-120839285D01*
X109589285Y-120839285D02*
X109660714Y-120839285D01*
X109732142Y-120875000D01*
X109767857Y-120910714D01*
X109803571Y-120982142D01*
X109839285Y-121125000D01*
X109839285Y-121303571D01*
X109803571Y-121446428D01*
X109767857Y-121517857D01*
X109732142Y-121553571D01*
X109660714Y-121589285D01*
X109589285Y-121589285D01*
X109517857Y-121553571D01*
X109482142Y-121517857D01*
X109446428Y-121446428D01*
X109410714Y-121303571D01*
X109410714Y-121125000D01*
X109446428Y-120982142D01*
X109482142Y-120910714D01*
X109517857Y-120875000D01*
X109589285Y-120839285D01*
X110089285Y-120839285D02*
X110589285Y-120839285D01*
X110267857Y-121589285D01*
X111267857Y-121589285D02*
X110839285Y-121589285D01*
X111053571Y-121589285D02*
X111053571Y-120839285D01*
X110982142Y-120946428D01*
X110910714Y-121017857D01*
X110839285Y-121053571D01*
%TO.C,RV1*%
X124999285Y-98696428D02*
X124642142Y-98946428D01*
X124999285Y-99125000D02*
X124249285Y-99125000D01*
X124249285Y-98839285D01*
X124285000Y-98767857D01*
X124320714Y-98732142D01*
X124392142Y-98696428D01*
X124499285Y-98696428D01*
X124570714Y-98732142D01*
X124606428Y-98767857D01*
X124642142Y-98839285D01*
X124642142Y-99125000D01*
X124249285Y-98482142D02*
X124999285Y-98232142D01*
X124249285Y-97982142D01*
X124999285Y-97339285D02*
X124999285Y-97767857D01*
X124999285Y-97553571D02*
X124249285Y-97553571D01*
X124356428Y-97625000D01*
X124427857Y-97696428D01*
X124463571Y-97767857D01*
X117089285Y-99100714D02*
X117089285Y-99457857D01*
X117446428Y-99493571D01*
X117410714Y-99457857D01*
X117375000Y-99386428D01*
X117375000Y-99207857D01*
X117410714Y-99136428D01*
X117446428Y-99100714D01*
X117517857Y-99065000D01*
X117696428Y-99065000D01*
X117767857Y-99100714D01*
X117803571Y-99136428D01*
X117839285Y-99207857D01*
X117839285Y-99386428D01*
X117803571Y-99457857D01*
X117767857Y-99493571D01*
X117089285Y-98600714D02*
X117089285Y-98529285D01*
X117125000Y-98457857D01*
X117160714Y-98422142D01*
X117232142Y-98386428D01*
X117375000Y-98350714D01*
X117553571Y-98350714D01*
X117696428Y-98386428D01*
X117767857Y-98422142D01*
X117803571Y-98457857D01*
X117839285Y-98529285D01*
X117839285Y-98600714D01*
X117803571Y-98672142D01*
X117767857Y-98707857D01*
X117696428Y-98743571D01*
X117553571Y-98779285D01*
X117375000Y-98779285D01*
X117232142Y-98743571D01*
X117160714Y-98707857D01*
X117125000Y-98672142D01*
X117089285Y-98600714D01*
X117089285Y-97886428D02*
X117089285Y-97815000D01*
X117125000Y-97743571D01*
X117160714Y-97707857D01*
X117232142Y-97672142D01*
X117375000Y-97636428D01*
X117553571Y-97636428D01*
X117696428Y-97672142D01*
X117767857Y-97707857D01*
X117803571Y-97743571D01*
X117839285Y-97815000D01*
X117839285Y-97886428D01*
X117803571Y-97957857D01*
X117767857Y-97993571D01*
X117696428Y-98029285D01*
X117553571Y-98065000D01*
X117375000Y-98065000D01*
X117232142Y-98029285D01*
X117160714Y-97993571D01*
X117125000Y-97957857D01*
X117089285Y-97886428D01*
X117839285Y-96886428D02*
X117482142Y-97136428D01*
X117839285Y-97315000D02*
X117089285Y-97315000D01*
X117089285Y-97029285D01*
X117125000Y-96957857D01*
X117160714Y-96922142D01*
X117232142Y-96886428D01*
X117339285Y-96886428D01*
X117410714Y-96922142D01*
X117446428Y-96957857D01*
X117482142Y-97029285D01*
X117482142Y-97315000D01*
%TO.C,R6*%
X99589285Y-103375000D02*
X99232142Y-103625000D01*
X99589285Y-103803571D02*
X98839285Y-103803571D01*
X98839285Y-103517857D01*
X98875000Y-103446428D01*
X98910714Y-103410714D01*
X98982142Y-103375000D01*
X99089285Y-103375000D01*
X99160714Y-103410714D01*
X99196428Y-103446428D01*
X99232142Y-103517857D01*
X99232142Y-103803571D01*
X98839285Y-102732142D02*
X98839285Y-102875000D01*
X98875000Y-102946428D01*
X98910714Y-102982142D01*
X99017857Y-103053571D01*
X99160714Y-103089285D01*
X99446428Y-103089285D01*
X99517857Y-103053571D01*
X99553571Y-103017857D01*
X99589285Y-102946428D01*
X99589285Y-102803571D01*
X99553571Y-102732142D01*
X99517857Y-102696428D01*
X99446428Y-102660714D01*
X99267857Y-102660714D01*
X99196428Y-102696428D01*
X99160714Y-102732142D01*
X99125000Y-102803571D01*
X99125000Y-102946428D01*
X99160714Y-103017857D01*
X99196428Y-103053571D01*
X99267857Y-103089285D01*
X98839285Y-100071428D02*
X98839285Y-100214285D01*
X98875000Y-100285714D01*
X98910714Y-100321428D01*
X99017857Y-100392857D01*
X99160714Y-100428571D01*
X99446428Y-100428571D01*
X99517857Y-100392857D01*
X99553571Y-100357142D01*
X99589285Y-100285714D01*
X99589285Y-100142857D01*
X99553571Y-100071428D01*
X99517857Y-100035714D01*
X99446428Y-100000000D01*
X99267857Y-100000000D01*
X99196428Y-100035714D01*
X99160714Y-100071428D01*
X99125000Y-100142857D01*
X99125000Y-100285714D01*
X99160714Y-100357142D01*
X99196428Y-100392857D01*
X99267857Y-100428571D01*
X99160714Y-99571428D02*
X99125000Y-99642857D01*
X99089285Y-99678571D01*
X99017857Y-99714285D01*
X98982142Y-99714285D01*
X98910714Y-99678571D01*
X98875000Y-99642857D01*
X98839285Y-99571428D01*
X98839285Y-99428571D01*
X98875000Y-99357142D01*
X98910714Y-99321428D01*
X98982142Y-99285714D01*
X99017857Y-99285714D01*
X99089285Y-99321428D01*
X99125000Y-99357142D01*
X99160714Y-99428571D01*
X99160714Y-99571428D01*
X99196428Y-99642857D01*
X99232142Y-99678571D01*
X99303571Y-99714285D01*
X99446428Y-99714285D01*
X99517857Y-99678571D01*
X99553571Y-99642857D01*
X99589285Y-99571428D01*
X99589285Y-99428571D01*
X99553571Y-99357142D01*
X99517857Y-99321428D01*
X99446428Y-99285714D01*
X99303571Y-99285714D01*
X99232142Y-99321428D01*
X99196428Y-99357142D01*
X99160714Y-99428571D01*
X98839285Y-98821428D02*
X98839285Y-98750000D01*
X98875000Y-98678571D01*
X98910714Y-98642857D01*
X98982142Y-98607142D01*
X99125000Y-98571428D01*
X99303571Y-98571428D01*
X99446428Y-98607142D01*
X99517857Y-98642857D01*
X99553571Y-98678571D01*
X99589285Y-98750000D01*
X99589285Y-98821428D01*
X99553571Y-98892857D01*
X99517857Y-98928571D01*
X99446428Y-98964285D01*
X99303571Y-99000000D01*
X99125000Y-99000000D01*
X98982142Y-98964285D01*
X98910714Y-98928571D01*
X98875000Y-98892857D01*
X98839285Y-98821428D01*
%TO.C,R5*%
X108359285Y-106315000D02*
X108002142Y-106565000D01*
X108359285Y-106743571D02*
X107609285Y-106743571D01*
X107609285Y-106457857D01*
X107645000Y-106386428D01*
X107680714Y-106350714D01*
X107752142Y-106315000D01*
X107859285Y-106315000D01*
X107930714Y-106350714D01*
X107966428Y-106386428D01*
X108002142Y-106457857D01*
X108002142Y-106743571D01*
X107609285Y-105636428D02*
X107609285Y-105993571D01*
X107966428Y-106029285D01*
X107930714Y-105993571D01*
X107895000Y-105922142D01*
X107895000Y-105743571D01*
X107930714Y-105672142D01*
X107966428Y-105636428D01*
X108037857Y-105600714D01*
X108216428Y-105600714D01*
X108287857Y-105636428D01*
X108323571Y-105672142D01*
X108359285Y-105743571D01*
X108359285Y-105922142D01*
X108323571Y-105993571D01*
X108287857Y-106029285D01*
X108359285Y-100761428D02*
X108359285Y-101190000D01*
X108359285Y-100975714D02*
X107609285Y-100975714D01*
X107716428Y-101047142D01*
X107787857Y-101118571D01*
X107823571Y-101190000D01*
X107609285Y-100297142D02*
X107609285Y-100225714D01*
X107645000Y-100154285D01*
X107680714Y-100118571D01*
X107752142Y-100082857D01*
X107895000Y-100047142D01*
X108073571Y-100047142D01*
X108216428Y-100082857D01*
X108287857Y-100118571D01*
X108323571Y-100154285D01*
X108359285Y-100225714D01*
X108359285Y-100297142D01*
X108323571Y-100368571D01*
X108287857Y-100404285D01*
X108216428Y-100440000D01*
X108073571Y-100475714D01*
X107895000Y-100475714D01*
X107752142Y-100440000D01*
X107680714Y-100404285D01*
X107645000Y-100368571D01*
X107609285Y-100297142D01*
X108359285Y-99725714D02*
X107609285Y-99725714D01*
X108145000Y-99475714D01*
X107609285Y-99225714D01*
X108359285Y-99225714D01*
%TO.C,R4*%
X103839285Y-130375000D02*
X103482142Y-130625000D01*
X103839285Y-130803571D02*
X103089285Y-130803571D01*
X103089285Y-130517857D01*
X103125000Y-130446428D01*
X103160714Y-130410714D01*
X103232142Y-130375000D01*
X103339285Y-130375000D01*
X103410714Y-130410714D01*
X103446428Y-130446428D01*
X103482142Y-130517857D01*
X103482142Y-130803571D01*
X103339285Y-129732142D02*
X103839285Y-129732142D01*
X103053571Y-129910714D02*
X103589285Y-130089285D01*
X103589285Y-129625000D01*
X103839285Y-125053571D02*
X103839285Y-125482142D01*
X103839285Y-125267857D02*
X103089285Y-125267857D01*
X103196428Y-125339285D01*
X103267857Y-125410714D01*
X103303571Y-125482142D01*
X103089285Y-124589285D02*
X103089285Y-124517857D01*
X103125000Y-124446428D01*
X103160714Y-124410714D01*
X103232142Y-124375000D01*
X103375000Y-124339285D01*
X103553571Y-124339285D01*
X103696428Y-124375000D01*
X103767857Y-124410714D01*
X103803571Y-124446428D01*
X103839285Y-124517857D01*
X103839285Y-124589285D01*
X103803571Y-124660714D01*
X103767857Y-124696428D01*
X103696428Y-124732142D01*
X103553571Y-124767857D01*
X103375000Y-124767857D01*
X103232142Y-124732142D01*
X103160714Y-124696428D01*
X103125000Y-124660714D01*
X103089285Y-124589285D01*
X103089285Y-123875000D02*
X103089285Y-123803571D01*
X103125000Y-123732142D01*
X103160714Y-123696428D01*
X103232142Y-123660714D01*
X103375000Y-123625000D01*
X103553571Y-123625000D01*
X103696428Y-123660714D01*
X103767857Y-123696428D01*
X103803571Y-123732142D01*
X103839285Y-123803571D01*
X103839285Y-123875000D01*
X103803571Y-123946428D01*
X103767857Y-123982142D01*
X103696428Y-124017857D01*
X103553571Y-124053571D01*
X103375000Y-124053571D01*
X103232142Y-124017857D01*
X103160714Y-123982142D01*
X103125000Y-123946428D01*
X103089285Y-123875000D01*
X103839285Y-123303571D02*
X103089285Y-123303571D01*
X103553571Y-123232142D02*
X103839285Y-123017857D01*
X103339285Y-123017857D02*
X103625000Y-123303571D01*
%TO.C,R3*%
X112839285Y-106315000D02*
X112482142Y-106565000D01*
X112839285Y-106743571D02*
X112089285Y-106743571D01*
X112089285Y-106457857D01*
X112125000Y-106386428D01*
X112160714Y-106350714D01*
X112232142Y-106315000D01*
X112339285Y-106315000D01*
X112410714Y-106350714D01*
X112446428Y-106386428D01*
X112482142Y-106457857D01*
X112482142Y-106743571D01*
X112089285Y-106065000D02*
X112089285Y-105600714D01*
X112375000Y-105850714D01*
X112375000Y-105743571D01*
X112410714Y-105672142D01*
X112446428Y-105636428D01*
X112517857Y-105600714D01*
X112696428Y-105600714D01*
X112767857Y-105636428D01*
X112803571Y-105672142D01*
X112839285Y-105743571D01*
X112839285Y-105957857D01*
X112803571Y-106029285D01*
X112767857Y-106065000D01*
X112839285Y-100404285D02*
X112839285Y-100832857D01*
X112839285Y-100618571D02*
X112089285Y-100618571D01*
X112196428Y-100690000D01*
X112267857Y-100761428D01*
X112303571Y-100832857D01*
X112839285Y-100082857D02*
X112089285Y-100082857D01*
X112625000Y-99832857D01*
X112089285Y-99582857D01*
X112839285Y-99582857D01*
%TO.C,R2*%
X112839285Y-130375000D02*
X112482142Y-130625000D01*
X112839285Y-130803571D02*
X112089285Y-130803571D01*
X112089285Y-130517857D01*
X112125000Y-130446428D01*
X112160714Y-130410714D01*
X112232142Y-130375000D01*
X112339285Y-130375000D01*
X112410714Y-130410714D01*
X112446428Y-130446428D01*
X112482142Y-130517857D01*
X112482142Y-130803571D01*
X112160714Y-130089285D02*
X112125000Y-130053571D01*
X112089285Y-129982142D01*
X112089285Y-129803571D01*
X112125000Y-129732142D01*
X112160714Y-129696428D01*
X112232142Y-129660714D01*
X112303571Y-129660714D01*
X112410714Y-129696428D01*
X112839285Y-130125000D01*
X112839285Y-129660714D01*
X112839285Y-125053571D02*
X112839285Y-125482142D01*
X112839285Y-125267857D02*
X112089285Y-125267857D01*
X112196428Y-125339285D01*
X112267857Y-125410714D01*
X112303571Y-125482142D01*
X112089285Y-124589285D02*
X112089285Y-124517857D01*
X112125000Y-124446428D01*
X112160714Y-124410714D01*
X112232142Y-124375000D01*
X112375000Y-124339285D01*
X112553571Y-124339285D01*
X112696428Y-124375000D01*
X112767857Y-124410714D01*
X112803571Y-124446428D01*
X112839285Y-124517857D01*
X112839285Y-124589285D01*
X112803571Y-124660714D01*
X112767857Y-124696428D01*
X112696428Y-124732142D01*
X112553571Y-124767857D01*
X112375000Y-124767857D01*
X112232142Y-124732142D01*
X112160714Y-124696428D01*
X112125000Y-124660714D01*
X112089285Y-124589285D01*
X112089285Y-123875000D02*
X112089285Y-123803571D01*
X112125000Y-123732142D01*
X112160714Y-123696428D01*
X112232142Y-123660714D01*
X112375000Y-123625000D01*
X112553571Y-123625000D01*
X112696428Y-123660714D01*
X112767857Y-123696428D01*
X112803571Y-123732142D01*
X112839285Y-123803571D01*
X112839285Y-123875000D01*
X112803571Y-123946428D01*
X112767857Y-123982142D01*
X112696428Y-124017857D01*
X112553571Y-124053571D01*
X112375000Y-124053571D01*
X112232142Y-124017857D01*
X112160714Y-123982142D01*
X112125000Y-123946428D01*
X112089285Y-123875000D01*
X112839285Y-123303571D02*
X112089285Y-123303571D01*
X112553571Y-123232142D02*
X112839285Y-123017857D01*
X112339285Y-123017857D02*
X112625000Y-123303571D01*
%TO.C,R1*%
X108359285Y-130375000D02*
X108002142Y-130625000D01*
X108359285Y-130803571D02*
X107609285Y-130803571D01*
X107609285Y-130517857D01*
X107645000Y-130446428D01*
X107680714Y-130410714D01*
X107752142Y-130375000D01*
X107859285Y-130375000D01*
X107930714Y-130410714D01*
X107966428Y-130446428D01*
X108002142Y-130517857D01*
X108002142Y-130803571D01*
X108359285Y-129660714D02*
X108359285Y-130089285D01*
X108359285Y-129875000D02*
X107609285Y-129875000D01*
X107716428Y-129946428D01*
X107787857Y-130017857D01*
X107823571Y-130089285D01*
X108359285Y-124696428D02*
X108359285Y-125125000D01*
X108359285Y-124910714D02*
X107609285Y-124910714D01*
X107716428Y-124982142D01*
X107787857Y-125053571D01*
X107823571Y-125125000D01*
X107609285Y-124232142D02*
X107609285Y-124160714D01*
X107645000Y-124089285D01*
X107680714Y-124053571D01*
X107752142Y-124017857D01*
X107895000Y-123982142D01*
X108073571Y-123982142D01*
X108216428Y-124017857D01*
X108287857Y-124053571D01*
X108323571Y-124089285D01*
X108359285Y-124160714D01*
X108359285Y-124232142D01*
X108323571Y-124303571D01*
X108287857Y-124339285D01*
X108216428Y-124375000D01*
X108073571Y-124410714D01*
X107895000Y-124410714D01*
X107752142Y-124375000D01*
X107680714Y-124339285D01*
X107645000Y-124303571D01*
X107609285Y-124232142D01*
X108359285Y-123660714D02*
X107609285Y-123660714D01*
X108073571Y-123589285D02*
X108359285Y-123375000D01*
X107859285Y-123375000D02*
X108145000Y-123660714D01*
%TO.C,Q1*%
X125160714Y-121071428D02*
X125125000Y-121142857D01*
X125053571Y-121214285D01*
X124946428Y-121321428D01*
X124910714Y-121392857D01*
X124910714Y-121464285D01*
X125089285Y-121428571D02*
X125053571Y-121500000D01*
X124982142Y-121571428D01*
X124839285Y-121607142D01*
X124589285Y-121607142D01*
X124446428Y-121571428D01*
X124375000Y-121500000D01*
X124339285Y-121428571D01*
X124339285Y-121285714D01*
X124375000Y-121214285D01*
X124446428Y-121142857D01*
X124589285Y-121107142D01*
X124839285Y-121107142D01*
X124982142Y-121142857D01*
X125053571Y-121214285D01*
X125089285Y-121285714D01*
X125089285Y-121428571D01*
X125089285Y-120392857D02*
X125089285Y-120821428D01*
X125089285Y-120607142D02*
X124339285Y-120607142D01*
X124446428Y-120678571D01*
X124517857Y-120750000D01*
X124553571Y-120821428D01*
X124339285Y-116964285D02*
X124875000Y-116964285D01*
X124982142Y-117000000D01*
X125053571Y-117071428D01*
X125089285Y-117178571D01*
X125089285Y-117250000D01*
X125089285Y-116214285D02*
X125089285Y-116642857D01*
X125089285Y-116428571D02*
X124339285Y-116428571D01*
X124446428Y-116500000D01*
X124517857Y-116571428D01*
X124553571Y-116642857D01*
X125089285Y-115500000D02*
X125089285Y-115928571D01*
X125089285Y-115714285D02*
X124339285Y-115714285D01*
X124446428Y-115785714D01*
X124517857Y-115857142D01*
X124553571Y-115928571D01*
X124339285Y-115250000D02*
X124339285Y-114785714D01*
X124625000Y-115035714D01*
X124625000Y-114928571D01*
X124660714Y-114857142D01*
X124696428Y-114821428D01*
X124767857Y-114785714D01*
X124946428Y-114785714D01*
X125017857Y-114821428D01*
X125053571Y-114857142D01*
X125089285Y-114928571D01*
X125089285Y-115142857D01*
X125053571Y-115214285D01*
X125017857Y-115250000D01*
%TO.C,J8*%
X116219285Y-129460000D02*
X116755000Y-129460000D01*
X116862142Y-129495714D01*
X116933571Y-129567142D01*
X116969285Y-129674285D01*
X116969285Y-129745714D01*
X116540714Y-128995714D02*
X116505000Y-129067142D01*
X116469285Y-129102857D01*
X116397857Y-129138571D01*
X116362142Y-129138571D01*
X116290714Y-129102857D01*
X116255000Y-129067142D01*
X116219285Y-128995714D01*
X116219285Y-128852857D01*
X116255000Y-128781428D01*
X116290714Y-128745714D01*
X116362142Y-128710000D01*
X116397857Y-128710000D01*
X116469285Y-128745714D01*
X116505000Y-128781428D01*
X116540714Y-128852857D01*
X116540714Y-128995714D01*
X116576428Y-129067142D01*
X116612142Y-129102857D01*
X116683571Y-129138571D01*
X116826428Y-129138571D01*
X116897857Y-129102857D01*
X116933571Y-129067142D01*
X116969285Y-128995714D01*
X116969285Y-128852857D01*
X116933571Y-128781428D01*
X116897857Y-128745714D01*
X116826428Y-128710000D01*
X116683571Y-128710000D01*
X116612142Y-128745714D01*
X116576428Y-128781428D01*
X116540714Y-128852857D01*
X125053571Y-132160714D02*
X125089285Y-132053571D01*
X125089285Y-131875000D01*
X125053571Y-131803571D01*
X125017857Y-131767857D01*
X124946428Y-131732142D01*
X124875000Y-131732142D01*
X124803571Y-131767857D01*
X124767857Y-131803571D01*
X124732142Y-131875000D01*
X124696428Y-132017857D01*
X124660714Y-132089285D01*
X124625000Y-132125000D01*
X124553571Y-132160714D01*
X124482142Y-132160714D01*
X124410714Y-132125000D01*
X124375000Y-132089285D01*
X124339285Y-132017857D01*
X124339285Y-131839285D01*
X124375000Y-131732142D01*
X124732142Y-131267857D02*
X125089285Y-131267857D01*
X124339285Y-131517857D02*
X124732142Y-131267857D01*
X124339285Y-131017857D01*
X125089285Y-130767857D02*
X124339285Y-130767857D01*
X125089285Y-130339285D01*
X124339285Y-130339285D01*
X125017857Y-129553571D02*
X125053571Y-129589285D01*
X125089285Y-129696428D01*
X125089285Y-129767857D01*
X125053571Y-129875000D01*
X124982142Y-129946428D01*
X124910714Y-129982142D01*
X124767857Y-130017857D01*
X124660714Y-130017857D01*
X124517857Y-129982142D01*
X124446428Y-129946428D01*
X124375000Y-129875000D01*
X124339285Y-129767857D01*
X124339285Y-129696428D01*
X124375000Y-129589285D01*
X124410714Y-129553571D01*
X124803571Y-128660714D02*
X124803571Y-128089285D01*
X125089285Y-128375000D02*
X124517857Y-128375000D01*
X124303571Y-127196428D02*
X125267857Y-127839285D01*
X124803571Y-126946428D02*
X124803571Y-126375000D01*
%TO.C,J7*%
X116219285Y-138730000D02*
X116755000Y-138730000D01*
X116862142Y-138765714D01*
X116933571Y-138837142D01*
X116969285Y-138944285D01*
X116969285Y-139015714D01*
X116219285Y-138444285D02*
X116219285Y-137944285D01*
X116969285Y-138265714D01*
X125053571Y-140910714D02*
X125089285Y-140803571D01*
X125089285Y-140625000D01*
X125053571Y-140553571D01*
X125017857Y-140517857D01*
X124946428Y-140482142D01*
X124875000Y-140482142D01*
X124803571Y-140517857D01*
X124767857Y-140553571D01*
X124732142Y-140625000D01*
X124696428Y-140767857D01*
X124660714Y-140839285D01*
X124625000Y-140875000D01*
X124553571Y-140910714D01*
X124482142Y-140910714D01*
X124410714Y-140875000D01*
X124375000Y-140839285D01*
X124339285Y-140767857D01*
X124339285Y-140589285D01*
X124375000Y-140482142D01*
X124732142Y-140017857D02*
X125089285Y-140017857D01*
X124339285Y-140267857D02*
X124732142Y-140017857D01*
X124339285Y-139767857D01*
X125089285Y-139517857D02*
X124339285Y-139517857D01*
X125089285Y-139089285D01*
X124339285Y-139089285D01*
X125017857Y-138303571D02*
X125053571Y-138339285D01*
X125089285Y-138446428D01*
X125089285Y-138517857D01*
X125053571Y-138625000D01*
X124982142Y-138696428D01*
X124910714Y-138732142D01*
X124767857Y-138767857D01*
X124660714Y-138767857D01*
X124517857Y-138732142D01*
X124446428Y-138696428D01*
X124375000Y-138625000D01*
X124339285Y-138517857D01*
X124339285Y-138446428D01*
X124375000Y-138339285D01*
X124410714Y-138303571D01*
X125089285Y-137410714D02*
X124339285Y-137410714D01*
X125089285Y-137053571D02*
X124339285Y-137053571D01*
X125089285Y-136625000D01*
X124339285Y-136625000D01*
%TO.C,J3*%
X116219285Y-109230000D02*
X116755000Y-109230000D01*
X116862142Y-109265714D01*
X116933571Y-109337142D01*
X116969285Y-109444285D01*
X116969285Y-109515714D01*
X116219285Y-108944285D02*
X116219285Y-108480000D01*
X116505000Y-108730000D01*
X116505000Y-108622857D01*
X116540714Y-108551428D01*
X116576428Y-108515714D01*
X116647857Y-108480000D01*
X116826428Y-108480000D01*
X116897857Y-108515714D01*
X116933571Y-108551428D01*
X116969285Y-108622857D01*
X116969285Y-108837142D01*
X116933571Y-108908571D01*
X116897857Y-108944285D01*
X124339285Y-110892857D02*
X124339285Y-110464285D01*
X125089285Y-110678571D02*
X124339285Y-110678571D01*
X124339285Y-110071428D02*
X124339285Y-109928571D01*
X124375000Y-109857142D01*
X124446428Y-109785714D01*
X124589285Y-109750000D01*
X124839285Y-109750000D01*
X124982142Y-109785714D01*
X125053571Y-109857142D01*
X125089285Y-109928571D01*
X125089285Y-110071428D01*
X125053571Y-110142857D01*
X124982142Y-110214285D01*
X124839285Y-110250000D01*
X124589285Y-110250000D01*
X124446428Y-110214285D01*
X124375000Y-110142857D01*
X124339285Y-110071428D01*
X124339285Y-108857142D02*
X124946428Y-108857142D01*
X125017857Y-108821428D01*
X125053571Y-108785714D01*
X125089285Y-108714285D01*
X125089285Y-108571428D01*
X125053571Y-108500000D01*
X125017857Y-108464285D01*
X124946428Y-108428571D01*
X124339285Y-108428571D01*
X124410714Y-108107142D02*
X124375000Y-108071428D01*
X124339285Y-108000000D01*
X124339285Y-107821428D01*
X124375000Y-107750000D01*
X124410714Y-107714285D01*
X124482142Y-107678571D01*
X124553571Y-107678571D01*
X124660714Y-107714285D01*
X125089285Y-108142857D01*
X125089285Y-107678571D01*
%TO.C,D3*%
X104339285Y-107803571D02*
X103589285Y-107803571D01*
X103589285Y-107625000D01*
X103625000Y-107517857D01*
X103696428Y-107446428D01*
X103767857Y-107410714D01*
X103910714Y-107375000D01*
X104017857Y-107375000D01*
X104160714Y-107410714D01*
X104232142Y-107446428D01*
X104303571Y-107517857D01*
X104339285Y-107625000D01*
X104339285Y-107803571D01*
X103589285Y-107125000D02*
X103589285Y-106660714D01*
X103875000Y-106910714D01*
X103875000Y-106803571D01*
X103910714Y-106732142D01*
X103946428Y-106696428D01*
X104017857Y-106660714D01*
X104196428Y-106660714D01*
X104267857Y-106696428D01*
X104303571Y-106732142D01*
X104339285Y-106803571D01*
X104339285Y-107017857D01*
X104303571Y-107089285D01*
X104267857Y-107125000D01*
X106339285Y-109196428D02*
X105589285Y-109196428D01*
X106339285Y-108767857D02*
X105910714Y-109089285D01*
X105589285Y-108767857D02*
X106017857Y-109196428D01*
X104339285Y-101000000D02*
X104339285Y-101428571D01*
X104339285Y-101214285D02*
X103589285Y-101214285D01*
X103696428Y-101285714D01*
X103767857Y-101357142D01*
X103803571Y-101428571D01*
X104339285Y-100678571D02*
X103589285Y-100678571D01*
X104339285Y-100250000D01*
X103589285Y-100250000D01*
X104339285Y-99857142D02*
X104339285Y-99714285D01*
X104303571Y-99642857D01*
X104267857Y-99607142D01*
X104160714Y-99535714D01*
X104017857Y-99500000D01*
X103732142Y-99500000D01*
X103660714Y-99535714D01*
X103625000Y-99571428D01*
X103589285Y-99642857D01*
X103589285Y-99785714D01*
X103625000Y-99857142D01*
X103660714Y-99892857D01*
X103732142Y-99928571D01*
X103910714Y-99928571D01*
X103982142Y-99892857D01*
X104017857Y-99857142D01*
X104053571Y-99785714D01*
X104053571Y-99642857D01*
X104017857Y-99571428D01*
X103982142Y-99535714D01*
X103910714Y-99500000D01*
X104339285Y-98785714D02*
X104339285Y-99214285D01*
X104339285Y-99000000D02*
X103589285Y-99000000D01*
X103696428Y-99071428D01*
X103767857Y-99142857D01*
X103803571Y-99214285D01*
X103839285Y-98142857D02*
X104339285Y-98142857D01*
X103553571Y-98321428D02*
X104089285Y-98500000D01*
X104089285Y-98035714D01*
%TO.C,D2*%
X111589285Y-91303571D02*
X110839285Y-91303571D01*
X110839285Y-91125000D01*
X110875000Y-91017857D01*
X110946428Y-90946428D01*
X111017857Y-90910714D01*
X111160714Y-90875000D01*
X111267857Y-90875000D01*
X111410714Y-90910714D01*
X111482142Y-90946428D01*
X111553571Y-91017857D01*
X111589285Y-91125000D01*
X111589285Y-91303571D01*
X110910714Y-90589285D02*
X110875000Y-90553571D01*
X110839285Y-90482142D01*
X110839285Y-90303571D01*
X110875000Y-90232142D01*
X110910714Y-90196428D01*
X110982142Y-90160714D01*
X111053571Y-90160714D01*
X111160714Y-90196428D01*
X111589285Y-90625000D01*
X111589285Y-90160714D01*
X109339285Y-80696428D02*
X108589285Y-80696428D01*
X109339285Y-80267857D02*
X108910714Y-80589285D01*
X108589285Y-80267857D02*
X109017857Y-80696428D01*
X111717285Y-86357142D02*
X111717285Y-86785714D01*
X111717285Y-86571428D02*
X110967285Y-86571428D01*
X111074428Y-86642857D01*
X111145857Y-86714285D01*
X111181571Y-86785714D01*
X111717285Y-86035714D02*
X110967285Y-86035714D01*
X111717285Y-85607142D01*
X110967285Y-85607142D01*
X110967285Y-84892857D02*
X110967285Y-85250000D01*
X111324428Y-85285714D01*
X111288714Y-85250000D01*
X111253000Y-85178571D01*
X111253000Y-85000000D01*
X111288714Y-84928571D01*
X111324428Y-84892857D01*
X111395857Y-84857142D01*
X111574428Y-84857142D01*
X111645857Y-84892857D01*
X111681571Y-84928571D01*
X111717285Y-85000000D01*
X111717285Y-85178571D01*
X111681571Y-85250000D01*
X111645857Y-85285714D01*
X111288714Y-84428571D02*
X111253000Y-84500000D01*
X111217285Y-84535714D01*
X111145857Y-84571428D01*
X111110142Y-84571428D01*
X111038714Y-84535714D01*
X111003000Y-84500000D01*
X110967285Y-84428571D01*
X110967285Y-84285714D01*
X111003000Y-84214285D01*
X111038714Y-84178571D01*
X111110142Y-84142857D01*
X111145857Y-84142857D01*
X111217285Y-84178571D01*
X111253000Y-84214285D01*
X111288714Y-84285714D01*
X111288714Y-84428571D01*
X111324428Y-84500000D01*
X111360142Y-84535714D01*
X111431571Y-84571428D01*
X111574428Y-84571428D01*
X111645857Y-84535714D01*
X111681571Y-84500000D01*
X111717285Y-84428571D01*
X111717285Y-84285714D01*
X111681571Y-84214285D01*
X111645857Y-84178571D01*
X111574428Y-84142857D01*
X111431571Y-84142857D01*
X111360142Y-84178571D01*
X111324428Y-84214285D01*
X111288714Y-84285714D01*
X111717285Y-83428571D02*
X111717285Y-83857142D01*
X111717285Y-83642857D02*
X110967285Y-83642857D01*
X111074428Y-83714285D01*
X111145857Y-83785714D01*
X111181571Y-83857142D01*
X110967285Y-83178571D02*
X110967285Y-82678571D01*
X111717285Y-83000000D01*
%TO.C,D1*%
X111589285Y-69053571D02*
X110839285Y-69053571D01*
X110839285Y-68875000D01*
X110875000Y-68767857D01*
X110946428Y-68696428D01*
X111017857Y-68660714D01*
X111160714Y-68625000D01*
X111267857Y-68625000D01*
X111410714Y-68660714D01*
X111482142Y-68696428D01*
X111553571Y-68767857D01*
X111589285Y-68875000D01*
X111589285Y-69053571D01*
X111589285Y-67910714D02*
X111589285Y-68339285D01*
X111589285Y-68125000D02*
X110839285Y-68125000D01*
X110946428Y-68196428D01*
X111017857Y-68267857D01*
X111053571Y-68339285D01*
X109339285Y-59696428D02*
X108589285Y-59696428D01*
X109339285Y-59267857D02*
X108910714Y-59589285D01*
X108589285Y-59267857D02*
X109017857Y-59696428D01*
X111589285Y-64107142D02*
X111589285Y-64535714D01*
X111589285Y-64321428D02*
X110839285Y-64321428D01*
X110946428Y-64392857D01*
X111017857Y-64464285D01*
X111053571Y-64535714D01*
X111589285Y-63785714D02*
X110839285Y-63785714D01*
X111589285Y-63357142D01*
X110839285Y-63357142D01*
X110839285Y-62642857D02*
X110839285Y-63000000D01*
X111196428Y-63035714D01*
X111160714Y-63000000D01*
X111125000Y-62928571D01*
X111125000Y-62750000D01*
X111160714Y-62678571D01*
X111196428Y-62642857D01*
X111267857Y-62607142D01*
X111446428Y-62607142D01*
X111517857Y-62642857D01*
X111553571Y-62678571D01*
X111589285Y-62750000D01*
X111589285Y-62928571D01*
X111553571Y-63000000D01*
X111517857Y-63035714D01*
X111160714Y-62178571D02*
X111125000Y-62250000D01*
X111089285Y-62285714D01*
X111017857Y-62321428D01*
X110982142Y-62321428D01*
X110910714Y-62285714D01*
X110875000Y-62250000D01*
X110839285Y-62178571D01*
X110839285Y-62035714D01*
X110875000Y-61964285D01*
X110910714Y-61928571D01*
X110982142Y-61892857D01*
X111017857Y-61892857D01*
X111089285Y-61928571D01*
X111125000Y-61964285D01*
X111160714Y-62035714D01*
X111160714Y-62178571D01*
X111196428Y-62250000D01*
X111232142Y-62285714D01*
X111303571Y-62321428D01*
X111446428Y-62321428D01*
X111517857Y-62285714D01*
X111553571Y-62250000D01*
X111589285Y-62178571D01*
X111589285Y-62035714D01*
X111553571Y-61964285D01*
X111517857Y-61928571D01*
X111446428Y-61892857D01*
X111303571Y-61892857D01*
X111232142Y-61928571D01*
X111196428Y-61964285D01*
X111160714Y-62035714D01*
X111589285Y-61178571D02*
X111589285Y-61607142D01*
X111589285Y-61392857D02*
X110839285Y-61392857D01*
X110946428Y-61464285D01*
X111017857Y-61535714D01*
X111053571Y-61607142D01*
X110839285Y-60928571D02*
X110839285Y-60428571D01*
X111589285Y-60750000D01*
%TO.C,C5*%
X101267857Y-119375000D02*
X101303571Y-119410714D01*
X101339285Y-119517857D01*
X101339285Y-119589285D01*
X101303571Y-119696428D01*
X101232142Y-119767857D01*
X101160714Y-119803571D01*
X101017857Y-119839285D01*
X100910714Y-119839285D01*
X100767857Y-119803571D01*
X100696428Y-119767857D01*
X100625000Y-119696428D01*
X100589285Y-119589285D01*
X100589285Y-119517857D01*
X100625000Y-119410714D01*
X100660714Y-119375000D01*
X100589285Y-118696428D02*
X100589285Y-119053571D01*
X100946428Y-119089285D01*
X100910714Y-119053571D01*
X100875000Y-118982142D01*
X100875000Y-118803571D01*
X100910714Y-118732142D01*
X100946428Y-118696428D01*
X101017857Y-118660714D01*
X101196428Y-118660714D01*
X101267857Y-118696428D01*
X101303571Y-118732142D01*
X101339285Y-118803571D01*
X101339285Y-118982142D01*
X101303571Y-119053571D01*
X101267857Y-119089285D01*
X101339285Y-117160714D02*
X101339285Y-117589285D01*
X101339285Y-117375000D02*
X100589285Y-117375000D01*
X100696428Y-117446428D01*
X100767857Y-117517857D01*
X100803571Y-117589285D01*
X100589285Y-116696428D02*
X100589285Y-116625000D01*
X100625000Y-116553571D01*
X100660714Y-116517857D01*
X100732142Y-116482142D01*
X100875000Y-116446428D01*
X101053571Y-116446428D01*
X101196428Y-116482142D01*
X101267857Y-116517857D01*
X101303571Y-116553571D01*
X101339285Y-116625000D01*
X101339285Y-116696428D01*
X101303571Y-116767857D01*
X101267857Y-116803571D01*
X101196428Y-116839285D01*
X101053571Y-116875000D01*
X100875000Y-116875000D01*
X100732142Y-116839285D01*
X100660714Y-116803571D01*
X100625000Y-116767857D01*
X100589285Y-116696428D01*
X100589285Y-115982142D02*
X100589285Y-115910714D01*
X100625000Y-115839285D01*
X100660714Y-115803571D01*
X100732142Y-115767857D01*
X100875000Y-115732142D01*
X101053571Y-115732142D01*
X101196428Y-115767857D01*
X101267857Y-115803571D01*
X101303571Y-115839285D01*
X101339285Y-115910714D01*
X101339285Y-115982142D01*
X101303571Y-116053571D01*
X101267857Y-116089285D01*
X101196428Y-116125000D01*
X101053571Y-116160714D01*
X100875000Y-116160714D01*
X100732142Y-116125000D01*
X100660714Y-116089285D01*
X100625000Y-116053571D01*
X100589285Y-115982142D01*
X100839285Y-115410714D02*
X101339285Y-115410714D01*
X100910714Y-115410714D02*
X100875000Y-115375000D01*
X100839285Y-115303571D01*
X100839285Y-115196428D01*
X100875000Y-115125000D01*
X100946428Y-115089285D01*
X101339285Y-115089285D01*
X100946428Y-114482142D02*
X100946428Y-114732142D01*
X101339285Y-114732142D02*
X100589285Y-114732142D01*
X100589285Y-114375000D01*
%TO.C,C4*%
X109625000Y-133017857D02*
X109589285Y-133053571D01*
X109482142Y-133089285D01*
X109410714Y-133089285D01*
X109303571Y-133053571D01*
X109232142Y-132982142D01*
X109196428Y-132910714D01*
X109160714Y-132767857D01*
X109160714Y-132660714D01*
X109196428Y-132517857D01*
X109232142Y-132446428D01*
X109303571Y-132375000D01*
X109410714Y-132339285D01*
X109482142Y-132339285D01*
X109589285Y-132375000D01*
X109625000Y-132410714D01*
X110267857Y-132589285D02*
X110267857Y-133089285D01*
X110089285Y-132303571D02*
X109910714Y-132839285D01*
X110375000Y-132839285D01*
X112803571Y-133089285D02*
X112375000Y-133089285D01*
X112589285Y-133089285D02*
X112589285Y-132339285D01*
X112517857Y-132446428D01*
X112446428Y-132517857D01*
X112375000Y-132553571D01*
X113125000Y-132589285D02*
X113125000Y-133089285D01*
X113125000Y-132660714D02*
X113160714Y-132625000D01*
X113232142Y-132589285D01*
X113339285Y-132589285D01*
X113410714Y-132625000D01*
X113446428Y-132696428D01*
X113446428Y-133089285D01*
X114053571Y-132696428D02*
X113803571Y-132696428D01*
X113803571Y-133089285D02*
X113803571Y-132339285D01*
X114160714Y-132339285D01*
%TO.C,C3*%
X118517857Y-116875000D02*
X118553571Y-116910714D01*
X118589285Y-117017857D01*
X118589285Y-117089285D01*
X118553571Y-117196428D01*
X118482142Y-117267857D01*
X118410714Y-117303571D01*
X118267857Y-117339285D01*
X118160714Y-117339285D01*
X118017857Y-117303571D01*
X117946428Y-117267857D01*
X117875000Y-117196428D01*
X117839285Y-117089285D01*
X117839285Y-117017857D01*
X117875000Y-116910714D01*
X117910714Y-116875000D01*
X117839285Y-116625000D02*
X117839285Y-116160714D01*
X118125000Y-116410714D01*
X118125000Y-116303571D01*
X118160714Y-116232142D01*
X118196428Y-116196428D01*
X118267857Y-116160714D01*
X118446428Y-116160714D01*
X118517857Y-116196428D01*
X118553571Y-116232142D01*
X118589285Y-116303571D01*
X118589285Y-116517857D01*
X118553571Y-116589285D01*
X118517857Y-116625000D01*
X118589285Y-114910714D02*
X118589285Y-115339285D01*
X118589285Y-115125000D02*
X117839285Y-115125000D01*
X117946428Y-115196428D01*
X118017857Y-115267857D01*
X118053571Y-115339285D01*
X117839285Y-114446428D02*
X117839285Y-114375000D01*
X117875000Y-114303571D01*
X117910714Y-114267857D01*
X117982142Y-114232142D01*
X118125000Y-114196428D01*
X118303571Y-114196428D01*
X118446428Y-114232142D01*
X118517857Y-114267857D01*
X118553571Y-114303571D01*
X118589285Y-114375000D01*
X118589285Y-114446428D01*
X118553571Y-114517857D01*
X118517857Y-114553571D01*
X118446428Y-114589285D01*
X118303571Y-114625000D01*
X118125000Y-114625000D01*
X117982142Y-114589285D01*
X117910714Y-114553571D01*
X117875000Y-114517857D01*
X117839285Y-114446428D01*
X117839285Y-113732142D02*
X117839285Y-113660714D01*
X117875000Y-113589285D01*
X117910714Y-113553571D01*
X117982142Y-113517857D01*
X118125000Y-113482142D01*
X118303571Y-113482142D01*
X118446428Y-113517857D01*
X118517857Y-113553571D01*
X118553571Y-113589285D01*
X118589285Y-113660714D01*
X118589285Y-113732142D01*
X118553571Y-113803571D01*
X118517857Y-113839285D01*
X118446428Y-113875000D01*
X118303571Y-113910714D01*
X118125000Y-113910714D01*
X117982142Y-113875000D01*
X117910714Y-113839285D01*
X117875000Y-113803571D01*
X117839285Y-113732142D01*
X118089285Y-113160714D02*
X118589285Y-113160714D01*
X118160714Y-113160714D02*
X118125000Y-113125000D01*
X118089285Y-113053571D01*
X118089285Y-112946428D01*
X118125000Y-112875000D01*
X118196428Y-112839285D01*
X118589285Y-112839285D01*
X118196428Y-112232142D02*
X118196428Y-112482142D01*
X118589285Y-112482142D02*
X117839285Y-112482142D01*
X117839285Y-112125000D01*
%TO.C,C2*%
X113125000Y-86517857D02*
X113089285Y-86553571D01*
X112982142Y-86589285D01*
X112910714Y-86589285D01*
X112803571Y-86553571D01*
X112732142Y-86482142D01*
X112696428Y-86410714D01*
X112660714Y-86267857D01*
X112660714Y-86160714D01*
X112696428Y-86017857D01*
X112732142Y-85946428D01*
X112803571Y-85875000D01*
X112910714Y-85839285D01*
X112982142Y-85839285D01*
X113089285Y-85875000D01*
X113125000Y-85910714D01*
X113410714Y-85910714D02*
X113446428Y-85875000D01*
X113517857Y-85839285D01*
X113696428Y-85839285D01*
X113767857Y-85875000D01*
X113803571Y-85910714D01*
X113839285Y-85982142D01*
X113839285Y-86053571D01*
X113803571Y-86160714D01*
X113375000Y-86589285D01*
X113839285Y-86589285D01*
X115646428Y-86559285D02*
X115217857Y-86559285D01*
X115432142Y-86559285D02*
X115432142Y-85809285D01*
X115360714Y-85916428D01*
X115289285Y-85987857D01*
X115217857Y-86023571D01*
X116110714Y-85809285D02*
X116182142Y-85809285D01*
X116253571Y-85845000D01*
X116289285Y-85880714D01*
X116325000Y-85952142D01*
X116360714Y-86095000D01*
X116360714Y-86273571D01*
X116325000Y-86416428D01*
X116289285Y-86487857D01*
X116253571Y-86523571D01*
X116182142Y-86559285D01*
X116110714Y-86559285D01*
X116039285Y-86523571D01*
X116003571Y-86487857D01*
X115967857Y-86416428D01*
X115932142Y-86273571D01*
X115932142Y-86095000D01*
X115967857Y-85952142D01*
X116003571Y-85880714D01*
X116039285Y-85845000D01*
X116110714Y-85809285D01*
X117003571Y-86059285D02*
X117003571Y-86559285D01*
X116682142Y-86059285D02*
X116682142Y-86452142D01*
X116717857Y-86523571D01*
X116789285Y-86559285D01*
X116896428Y-86559285D01*
X116967857Y-86523571D01*
X117003571Y-86487857D01*
X117610714Y-86166428D02*
X117360714Y-86166428D01*
X117360714Y-86559285D02*
X117360714Y-85809285D01*
X117717857Y-85809285D01*
%TO.C,C1*%
X112125000Y-59017857D02*
X112089285Y-59053571D01*
X111982142Y-59089285D01*
X111910714Y-59089285D01*
X111803571Y-59053571D01*
X111732142Y-58982142D01*
X111696428Y-58910714D01*
X111660714Y-58767857D01*
X111660714Y-58660714D01*
X111696428Y-58517857D01*
X111732142Y-58446428D01*
X111803571Y-58375000D01*
X111910714Y-58339285D01*
X111982142Y-58339285D01*
X112089285Y-58375000D01*
X112125000Y-58410714D01*
X112839285Y-59089285D02*
X112410714Y-59089285D01*
X112625000Y-59089285D02*
X112625000Y-58339285D01*
X112553571Y-58446428D01*
X112482142Y-58517857D01*
X112410714Y-58553571D01*
X116196428Y-59089285D02*
X115767857Y-59089285D01*
X115982142Y-59089285D02*
X115982142Y-58339285D01*
X115910714Y-58446428D01*
X115839285Y-58517857D01*
X115767857Y-58553571D01*
X116660714Y-58339285D02*
X116732142Y-58339285D01*
X116803571Y-58375000D01*
X116839285Y-58410714D01*
X116875000Y-58482142D01*
X116910714Y-58625000D01*
X116910714Y-58803571D01*
X116875000Y-58946428D01*
X116839285Y-59017857D01*
X116803571Y-59053571D01*
X116732142Y-59089285D01*
X116660714Y-59089285D01*
X116589285Y-59053571D01*
X116553571Y-59017857D01*
X116517857Y-58946428D01*
X116482142Y-58803571D01*
X116482142Y-58625000D01*
X116517857Y-58482142D01*
X116553571Y-58410714D01*
X116589285Y-58375000D01*
X116660714Y-58339285D01*
X117553571Y-58589285D02*
X117553571Y-59089285D01*
X117232142Y-58589285D02*
X117232142Y-58982142D01*
X117267857Y-59053571D01*
X117339285Y-59089285D01*
X117446428Y-59089285D01*
X117517857Y-59053571D01*
X117553571Y-59017857D01*
X118160714Y-58696428D02*
X117910714Y-58696428D01*
X117910714Y-59089285D02*
X117910714Y-58339285D01*
X118267857Y-58339285D01*
%TO.C,J2*%
X118952380Y-66583333D02*
X119666666Y-66583333D01*
X119809523Y-66630952D01*
X119904761Y-66726190D01*
X119952380Y-66869047D01*
X119952380Y-66964285D01*
X119047619Y-66154761D02*
X119000000Y-66107142D01*
X118952380Y-66011904D01*
X118952380Y-65773809D01*
X119000000Y-65678571D01*
X119047619Y-65630952D01*
X119142857Y-65583333D01*
X119238095Y-65583333D01*
X119380952Y-65630952D01*
X119952380Y-66202380D01*
X119952380Y-65583333D01*
%TO.C,J1*%
X96436000Y-75339285D02*
X96436000Y-75875000D01*
X96400285Y-75982142D01*
X96328857Y-76053571D01*
X96221714Y-76089285D01*
X96150285Y-76089285D01*
X97186000Y-76089285D02*
X96757428Y-76089285D01*
X96971714Y-76089285D02*
X96971714Y-75339285D01*
X96900285Y-75446428D01*
X96828857Y-75517857D01*
X96757428Y-75553571D01*
X102488095Y-88571428D02*
X103250000Y-88571428D01*
X104250000Y-88952380D02*
X103678571Y-88952380D01*
X103964285Y-88952380D02*
X103964285Y-87952380D01*
X103869047Y-88095238D01*
X103773809Y-88190476D01*
X103678571Y-88238095D01*
X104630952Y-88047619D02*
X104678571Y-88000000D01*
X104773809Y-87952380D01*
X105011904Y-87952380D01*
X105107142Y-88000000D01*
X105154761Y-88047619D01*
X105202380Y-88142857D01*
X105202380Y-88238095D01*
X105154761Y-88380952D01*
X104583333Y-88952380D01*
X105202380Y-88952380D01*
X105488095Y-87952380D02*
X105821428Y-88952380D01*
X106154761Y-87952380D01*
X102488095Y-64571428D02*
X103250000Y-64571428D01*
X102869047Y-64952380D02*
X102869047Y-64190476D01*
X104250000Y-64952380D02*
X103678571Y-64952380D01*
X103964285Y-64952380D02*
X103964285Y-63952380D01*
X103869047Y-64095238D01*
X103773809Y-64190476D01*
X103678571Y-64238095D01*
X104630952Y-64047619D02*
X104678571Y-64000000D01*
X104773809Y-63952380D01*
X105011904Y-63952380D01*
X105107142Y-64000000D01*
X105154761Y-64047619D01*
X105202380Y-64142857D01*
X105202380Y-64238095D01*
X105154761Y-64380952D01*
X104583333Y-64952380D01*
X105202380Y-64952380D01*
X105488095Y-63952380D02*
X105821428Y-64952380D01*
X106154761Y-63952380D01*
%TD*%
M02*
