%TF.GenerationSoftware,KiCad,Pcbnew,5.1.9-73d0e3b20d~88~ubuntu20.04.1*%
%TF.CreationDate,2021-03-31T17:04:16-04:00*%
%TF.ProjectId,MFOS_VCLFO_aux,4d464f53-5f56-4434-9c46-4f5f6175782e,rev?*%
%TF.SameCoordinates,Original*%
%TF.FileFunction,Soldermask,Top*%
%TF.FilePolarity,Negative*%
%FSLAX46Y46*%
G04 Gerber Fmt 4.6, Leading zero omitted, Abs format (unit mm)*
G04 Created by KiCad (PCBNEW 5.1.9-73d0e3b20d~88~ubuntu20.04.1) date 2021-03-31 17:04:16*
%MOMM*%
%LPD*%
G01*
G04 APERTURE LIST*
%ADD10C,3.200000*%
%ADD11C,1.600000*%
%ADD12O,1.600000X1.600000*%
%ADD13C,1.440000*%
%ADD14O,2.400000X1.600000*%
%ADD15R,2.400000X1.600000*%
%ADD16R,1.727200X1.727200*%
%ADD17O,1.727200X1.727200*%
%ADD18R,1.500000X1.500000*%
%ADD19C,1.500000*%
%ADD20R,1.600000X1.600000*%
%ADD21C,2.500000*%
%ADD22R,2.500000X2.500000*%
%ADD23O,2.200000X2.200000*%
%ADD24R,2.200000X2.200000*%
%ADD25O,2.200000X1.740000*%
G04 APERTURE END LIST*
D10*
%TO.C,H2*%
X99750000Y-138350000D03*
%TD*%
%TO.C,H1*%
X99750000Y-61750000D03*
%TD*%
D11*
%TO.C,C4*%
X115250000Y-130750000D03*
X110250000Y-130750000D03*
%TD*%
D12*
%TO.C,R5*%
X110520000Y-95570000D03*
D11*
X110520000Y-103190000D03*
%TD*%
D12*
%TO.C,R6*%
X101500000Y-103250000D03*
D11*
X101500000Y-95630000D03*
%TD*%
D13*
%TO.C,RV1*%
X121000000Y-91710000D03*
X121000000Y-94250000D03*
X121000000Y-96790000D03*
%TD*%
D14*
%TO.C,U1*%
X113370000Y-107250000D03*
X105750000Y-114870000D03*
X113370000Y-109790000D03*
X105750000Y-112330000D03*
X113370000Y-112330000D03*
X105750000Y-109790000D03*
X113370000Y-114870000D03*
D15*
X105750000Y-107250000D03*
%TD*%
D11*
%TO.C,C3*%
X116500000Y-110000000D03*
X116500000Y-112500000D03*
%TD*%
D16*
%TO.C,J1*%
X103290000Y-80830000D03*
D17*
X100750000Y-80830000D03*
X103290000Y-78290000D03*
X100750000Y-78290000D03*
X103290000Y-75750000D03*
X100750000Y-75750000D03*
X103290000Y-73210000D03*
X100750000Y-73210000D03*
X103290000Y-70670000D03*
X100750000Y-70670000D03*
%TD*%
D18*
%TO.C,Q1*%
X121250000Y-111750000D03*
D19*
X121250000Y-116830000D03*
X121250000Y-114290000D03*
%TD*%
D11*
%TO.C,C2*%
X115450000Y-89720000D03*
D20*
X113450000Y-89720000D03*
%TD*%
D12*
%TO.C,R1*%
X110520000Y-119630000D03*
D11*
X110520000Y-127250000D03*
%TD*%
D12*
%TO.C,R2*%
X115000000Y-119630000D03*
D11*
X115000000Y-127250000D03*
%TD*%
D21*
%TO.C,J2*%
X120181000Y-80750000D03*
X120181000Y-75750000D03*
D22*
X120181000Y-70750000D03*
%TD*%
D23*
%TO.C,D1*%
X108878000Y-69146000D03*
D24*
X108878000Y-61526000D03*
%TD*%
D23*
%TO.C,D2*%
X108878000Y-89974000D03*
D24*
X108878000Y-82354000D03*
%TD*%
D12*
%TO.C,R3*%
X115000000Y-95570000D03*
D11*
X115000000Y-103190000D03*
%TD*%
%TO.C,C5*%
X102750000Y-115250000D03*
X102750000Y-112750000D03*
%TD*%
%TO.C,C1*%
X113577000Y-61780000D03*
D20*
X115577000Y-61780000D03*
%TD*%
D25*
%TO.C,J3*%
X120750000Y-103710000D03*
G36*
G01*
X121600001Y-107120000D02*
X119899999Y-107120000D01*
G75*
G02*
X119650000Y-106870001I0J249999D01*
G01*
X119650000Y-105629999D01*
G75*
G02*
X119899999Y-105380000I249999J0D01*
G01*
X121600001Y-105380000D01*
G75*
G02*
X121850000Y-105629999I0J-249999D01*
G01*
X121850000Y-106870001D01*
G75*
G02*
X121600001Y-107120000I-249999J0D01*
G01*
G37*
%TD*%
D12*
%TO.C,D3*%
X106000000Y-95630000D03*
D20*
X106000000Y-103250000D03*
%TD*%
D12*
%TO.C,R4*%
X106000000Y-119630000D03*
D11*
X106000000Y-127250000D03*
%TD*%
D25*
%TO.C,J7*%
X120750000Y-133210000D03*
G36*
G01*
X121600001Y-136620000D02*
X119899999Y-136620000D01*
G75*
G02*
X119650000Y-136370001I0J249999D01*
G01*
X119650000Y-135129999D01*
G75*
G02*
X119899999Y-134880000I249999J0D01*
G01*
X121600001Y-134880000D01*
G75*
G02*
X121850000Y-135129999I0J-249999D01*
G01*
X121850000Y-136370001D01*
G75*
G02*
X121600001Y-136620000I-249999J0D01*
G01*
G37*
%TD*%
%TO.C,J8*%
X120750000Y-122670000D03*
X120750000Y-125210000D03*
G36*
G01*
X121600001Y-128620000D02*
X119899999Y-128620000D01*
G75*
G02*
X119650000Y-128370001I0J249999D01*
G01*
X119650000Y-127129999D01*
G75*
G02*
X119899999Y-126880000I249999J0D01*
G01*
X121600001Y-126880000D01*
G75*
G02*
X121850000Y-127129999I0J-249999D01*
G01*
X121850000Y-128370001D01*
G75*
G02*
X121600001Y-128620000I-249999J0D01*
G01*
G37*
%TD*%
M02*
