%TF.GenerationSoftware,KiCad,Pcbnew,5.1.8-db9833491~88~ubuntu20.04.1*%
%TF.CreationDate,2020-12-11T17:06:23-05:00*%
%TF.ProjectId,MFOS_VCLFO_aux,4d464f53-5f56-4434-9c46-4f5f6175782e,rev?*%
%TF.SameCoordinates,Original*%
%TF.FileFunction,Copper,L2,Bot*%
%TF.FilePolarity,Positive*%
%FSLAX46Y46*%
G04 Gerber Fmt 4.6, Leading zero omitted, Abs format (unit mm)*
G04 Created by KiCad (PCBNEW 5.1.8-db9833491~88~ubuntu20.04.1) date 2020-12-11 17:06:23*
%MOMM*%
%LPD*%
G01*
G04 APERTURE LIST*
%TA.AperFunction,ComponentPad*%
%ADD10O,2.400000X1.600000*%
%TD*%
%TA.AperFunction,ComponentPad*%
%ADD11R,2.400000X1.600000*%
%TD*%
%TA.AperFunction,ComponentPad*%
%ADD12C,1.440000*%
%TD*%
%TA.AperFunction,ComponentPad*%
%ADD13O,1.600000X1.600000*%
%TD*%
%TA.AperFunction,ComponentPad*%
%ADD14C,1.600000*%
%TD*%
%TA.AperFunction,ComponentPad*%
%ADD15R,1.500000X1.500000*%
%TD*%
%TA.AperFunction,ComponentPad*%
%ADD16C,1.500000*%
%TD*%
%TA.AperFunction,ComponentPad*%
%ADD17O,2.200000X1.740000*%
%TD*%
%TA.AperFunction,ComponentPad*%
%ADD18R,1.600000X1.600000*%
%TD*%
%TA.AperFunction,ComponentPad*%
%ADD19O,2.200000X2.200000*%
%TD*%
%TA.AperFunction,ComponentPad*%
%ADD20R,2.200000X2.200000*%
%TD*%
%TA.AperFunction,ComponentPad*%
%ADD21C,2.500000*%
%TD*%
%TA.AperFunction,ComponentPad*%
%ADD22R,2.500000X2.500000*%
%TD*%
%TA.AperFunction,ComponentPad*%
%ADD23O,1.727200X1.727200*%
%TD*%
%TA.AperFunction,ComponentPad*%
%ADD24R,1.727200X1.727200*%
%TD*%
%TA.AperFunction,Conductor*%
%ADD25C,0.750000*%
%TD*%
%TA.AperFunction,Conductor*%
%ADD26C,0.250000*%
%TD*%
%TA.AperFunction,Conductor*%
%ADD27C,0.254000*%
%TD*%
%TA.AperFunction,Conductor*%
%ADD28C,0.100000*%
%TD*%
G04 APERTURE END LIST*
D10*
%TO.P,U1,8*%
%TO.N,Net-(U1-Pad8)*%
X113370000Y-111250000D03*
%TO.P,U1,4*%
%TO.N,-12V*%
X105750000Y-118870000D03*
%TO.P,U1,7*%
%TO.N,+12V*%
X113370000Y-113790000D03*
%TO.P,U1,3*%
%TO.N,Net-(R1-Pad2)*%
X105750000Y-116330000D03*
%TO.P,U1,6*%
%TO.N,Net-(D3-Pad1)*%
X113370000Y-116330000D03*
%TO.P,U1,2*%
%TO.N,Net-(C4-Pad1)*%
X105750000Y-113790000D03*
%TO.P,U1,5*%
%TO.N,Net-(U1-Pad5)*%
X113370000Y-118870000D03*
D11*
%TO.P,U1,1*%
%TO.N,Net-(U1-Pad1)*%
X105750000Y-111250000D03*
%TD*%
D12*
%TO.P,RV1,3*%
%TO.N,Net-(Q1-Pad2)*%
X121000000Y-95710000D03*
%TO.P,RV1,2*%
X121000000Y-98250000D03*
%TO.P,RV1,1*%
%TO.N,/PIN1*%
X121000000Y-100790000D03*
%TD*%
D13*
%TO.P,R6,2*%
%TO.N,Net-(J8-Pad2)*%
X101500000Y-107250000D03*
D14*
%TO.P,R6,1*%
%TO.N,Net-(Q1-Pad2)*%
X101500000Y-99630000D03*
%TD*%
D13*
%TO.P,R5,2*%
%TO.N,Net-(Q1-Pad2)*%
X110520000Y-99570000D03*
D14*
%TO.P,R5,1*%
%TO.N,Net-(D3-Pad2)*%
X110520000Y-107190000D03*
%TD*%
D13*
%TO.P,R4,2*%
%TO.N,GND*%
X106000000Y-123630000D03*
D14*
%TO.P,R4,1*%
%TO.N,Net-(C4-Pad1)*%
X106000000Y-131250000D03*
%TD*%
D13*
%TO.P,R3,2*%
%TO.N,Net-(D3-Pad2)*%
X115000000Y-99570000D03*
D14*
%TO.P,R3,1*%
%TO.N,+12V*%
X115000000Y-107190000D03*
%TD*%
D13*
%TO.P,R2,2*%
%TO.N,+12V*%
X115000000Y-123630000D03*
D14*
%TO.P,R2,1*%
%TO.N,Net-(R1-Pad2)*%
X115000000Y-131250000D03*
%TD*%
D13*
%TO.P,R1,2*%
%TO.N,Net-(R1-Pad2)*%
X110520000Y-123630000D03*
D14*
%TO.P,R1,1*%
%TO.N,GND*%
X110520000Y-131250000D03*
%TD*%
D15*
%TO.P,Q1,1*%
%TO.N,/PIN2*%
X121250000Y-115750000D03*
D16*
%TO.P,Q1,3*%
%TO.N,Net-(D3-Pad2)*%
X121250000Y-120830000D03*
%TO.P,Q1,2*%
%TO.N,Net-(Q1-Pad2)*%
X121250000Y-118290000D03*
%TD*%
D17*
%TO.P,J8,3*%
%TO.N,-12V*%
X120750000Y-126670000D03*
%TO.P,J8,2*%
%TO.N,Net-(J8-Pad2)*%
X120750000Y-129210000D03*
%TO.P,J8,1*%
%TO.N,+12V*%
%TA.AperFunction,ComponentPad*%
G36*
G01*
X121600001Y-132620000D02*
X119899999Y-132620000D01*
G75*
G02*
X119650000Y-132370001I0J249999D01*
G01*
X119650000Y-131129999D01*
G75*
G02*
X119899999Y-130880000I249999J0D01*
G01*
X121600001Y-130880000D01*
G75*
G02*
X121850000Y-131129999I0J-249999D01*
G01*
X121850000Y-132370001D01*
G75*
G02*
X121600001Y-132620000I-249999J0D01*
G01*
G37*
%TD.AperFunction*%
%TD*%
%TO.P,J7,2*%
%TO.N,Net-(C4-Pad2)*%
X120750000Y-137210000D03*
%TO.P,J7,1*%
%TO.N,GND*%
%TA.AperFunction,ComponentPad*%
G36*
G01*
X121600001Y-140620000D02*
X119899999Y-140620000D01*
G75*
G02*
X119650000Y-140370001I0J249999D01*
G01*
X119650000Y-139129999D01*
G75*
G02*
X119899999Y-138880000I249999J0D01*
G01*
X121600001Y-138880000D01*
G75*
G02*
X121850000Y-139129999I0J-249999D01*
G01*
X121850000Y-140370001D01*
G75*
G02*
X121600001Y-140620000I-249999J0D01*
G01*
G37*
%TD.AperFunction*%
%TD*%
%TO.P,J3,2*%
%TO.N,/PIN1*%
X120750000Y-107710000D03*
%TO.P,J3,1*%
%TO.N,/PIN2*%
%TA.AperFunction,ComponentPad*%
G36*
G01*
X121600001Y-111120000D02*
X119899999Y-111120000D01*
G75*
G02*
X119650000Y-110870001I0J249999D01*
G01*
X119650000Y-109629999D01*
G75*
G02*
X119899999Y-109380000I249999J0D01*
G01*
X121600001Y-109380000D01*
G75*
G02*
X121850000Y-109629999I0J-249999D01*
G01*
X121850000Y-110870001D01*
G75*
G02*
X121600001Y-111120000I-249999J0D01*
G01*
G37*
%TD.AperFunction*%
%TD*%
D13*
%TO.P,D3,2*%
%TO.N,Net-(D3-Pad2)*%
X106000000Y-99630000D03*
D18*
%TO.P,D3,1*%
%TO.N,Net-(D3-Pad1)*%
X106000000Y-107250000D03*
%TD*%
D19*
%TO.P,D2,2*%
%TO.N,-12V*%
X108878000Y-89974000D03*
D20*
%TO.P,D2,1*%
%TO.N,Net-(D2-Pad1)*%
X108878000Y-82354000D03*
%TD*%
D19*
%TO.P,D1,2*%
%TO.N,Net-(D1-Pad2)*%
X108878000Y-69146000D03*
D20*
%TO.P,D1,1*%
%TO.N,+12V*%
X108878000Y-61526000D03*
%TD*%
D14*
%TO.P,C5,2*%
%TO.N,-12V*%
X102750000Y-119250000D03*
%TO.P,C5,1*%
%TO.N,GND*%
X102750000Y-116750000D03*
%TD*%
%TO.P,C4,2*%
%TO.N,Net-(C4-Pad2)*%
X112750000Y-134750000D03*
%TO.P,C4,1*%
%TO.N,Net-(C4-Pad1)*%
X110250000Y-134750000D03*
%TD*%
%TO.P,C3,1*%
%TO.N,GND*%
X116500000Y-116500000D03*
%TO.P,C3,2*%
%TO.N,+12V*%
X116500000Y-114000000D03*
%TD*%
%TO.P,C2,2*%
%TO.N,-12V*%
X115450000Y-89720000D03*
D18*
%TO.P,C2,1*%
%TO.N,GND*%
X113450000Y-89720000D03*
%TD*%
D14*
%TO.P,C1,2*%
%TO.N,GND*%
X113577000Y-61780000D03*
D18*
%TO.P,C1,1*%
%TO.N,+12V*%
X115577000Y-61780000D03*
%TD*%
D21*
%TO.P,J2,3*%
%TO.N,-12V*%
X120181000Y-80750000D03*
%TO.P,J2,2*%
%TO.N,GND*%
X120181000Y-75750000D03*
D22*
%TO.P,J2,1*%
%TO.N,+12V*%
X120181000Y-70750000D03*
%TD*%
D23*
%TO.P,J1,10*%
%TO.N,Net-(D1-Pad2)*%
X100750000Y-70670000D03*
%TO.P,J1,9*%
X103290000Y-70670000D03*
%TO.P,J1,8*%
%TO.N,GND*%
X100750000Y-73210000D03*
%TO.P,J1,7*%
X103290000Y-73210000D03*
%TO.P,J1,6*%
X100750000Y-75750000D03*
%TO.P,J1,5*%
X103290000Y-75750000D03*
%TO.P,J1,4*%
X100750000Y-78290000D03*
%TO.P,J1,3*%
X103290000Y-78290000D03*
%TO.P,J1,2*%
%TO.N,Net-(D2-Pad1)*%
X100750000Y-80830000D03*
D24*
%TO.P,J1,1*%
X103290000Y-80830000D03*
%TD*%
D25*
%TO.N,+12V*%
X116290000Y-113790000D02*
X116500000Y-114000000D01*
X113370000Y-113790000D02*
X116290000Y-113790000D01*
D26*
X118000000Y-120500000D02*
X118000000Y-120250000D01*
X122425010Y-124925010D02*
X118000000Y-120500000D01*
X122425010Y-130074990D02*
X122425010Y-124925010D01*
X120750000Y-131750000D02*
X122425010Y-130074990D01*
D25*
X115000000Y-106940000D02*
X115000000Y-107190000D01*
X117500000Y-97250000D02*
X117500000Y-104440000D01*
X117500000Y-104440000D02*
X115000000Y-106940000D01*
X122006001Y-92743999D02*
X117500000Y-97250000D01*
X122006001Y-72575001D02*
X122006001Y-92743999D01*
X120181000Y-70750000D02*
X122006001Y-72575001D01*
X116500000Y-108690000D02*
X116500000Y-114000000D01*
X115000000Y-107190000D02*
X116500000Y-108690000D01*
D26*
X115000000Y-123380000D02*
X115000000Y-123630000D01*
X118000000Y-120380000D02*
X115000000Y-123380000D01*
X118000000Y-115500000D02*
X118000000Y-120380000D01*
X116500000Y-114000000D02*
X118000000Y-115500000D01*
D25*
%TO.N,-12V*%
X105370000Y-119250000D02*
X105750000Y-118870000D01*
X102750000Y-119250000D02*
X105370000Y-119250000D01*
X107750000Y-91102000D02*
X107750000Y-116870000D01*
X108878000Y-89974000D02*
X107750000Y-91102000D01*
X107310000Y-117310000D02*
X105750000Y-118870000D01*
X107750000Y-116870000D02*
X107310000Y-117310000D01*
D26*
X107310000Y-117605002D02*
X107310000Y-117310000D01*
X112500000Y-122795002D02*
X107310000Y-117605002D01*
X114670000Y-126670000D02*
X112500000Y-124500000D01*
X112500000Y-124500000D02*
X112500000Y-122795002D01*
X120750000Y-126670000D02*
X114670000Y-126670000D01*
%TD*%
D27*
%TO.N,GND*%
X125065001Y-141665000D02*
X96435000Y-141665000D01*
X96435000Y-140620000D01*
X119011928Y-140620000D01*
X119024188Y-140744482D01*
X119060498Y-140864180D01*
X119119463Y-140974494D01*
X119198815Y-141071185D01*
X119295506Y-141150537D01*
X119405820Y-141209502D01*
X119525518Y-141245812D01*
X119650000Y-141258072D01*
X120464250Y-141255000D01*
X120623000Y-141096250D01*
X120623000Y-139877000D01*
X120877000Y-139877000D01*
X120877000Y-141096250D01*
X121035750Y-141255000D01*
X121850000Y-141258072D01*
X121974482Y-141245812D01*
X122094180Y-141209502D01*
X122204494Y-141150537D01*
X122301185Y-141071185D01*
X122380537Y-140974494D01*
X122439502Y-140864180D01*
X122475812Y-140744482D01*
X122488072Y-140620000D01*
X122485000Y-140035750D01*
X122326250Y-139877000D01*
X120877000Y-139877000D01*
X120623000Y-139877000D01*
X119173750Y-139877000D01*
X119015000Y-140035750D01*
X119011928Y-140620000D01*
X96435000Y-140620000D01*
X96435000Y-138129872D01*
X97515000Y-138129872D01*
X97515000Y-138570128D01*
X97600890Y-139001925D01*
X97769369Y-139408669D01*
X98013962Y-139774729D01*
X98325271Y-140086038D01*
X98691331Y-140330631D01*
X99098075Y-140499110D01*
X99529872Y-140585000D01*
X99970128Y-140585000D01*
X100401925Y-140499110D01*
X100808669Y-140330631D01*
X101174729Y-140086038D01*
X101486038Y-139774729D01*
X101730631Y-139408669D01*
X101899110Y-139001925D01*
X101985000Y-138570128D01*
X101985000Y-138129872D01*
X101899110Y-137698075D01*
X101730631Y-137291331D01*
X101676288Y-137210000D01*
X119007718Y-137210000D01*
X119036776Y-137505032D01*
X119122834Y-137788725D01*
X119262583Y-138050179D01*
X119449047Y-138277385D01*
X119405820Y-138290498D01*
X119295506Y-138349463D01*
X119198815Y-138428815D01*
X119119463Y-138525506D01*
X119060498Y-138635820D01*
X119024188Y-138755518D01*
X119011928Y-138880000D01*
X119015000Y-139464250D01*
X119173750Y-139623000D01*
X120623000Y-139623000D01*
X120623000Y-139603000D01*
X120877000Y-139603000D01*
X120877000Y-139623000D01*
X122326250Y-139623000D01*
X122485000Y-139464250D01*
X122488072Y-138880000D01*
X122475812Y-138755518D01*
X122439502Y-138635820D01*
X122380537Y-138525506D01*
X122301185Y-138428815D01*
X122204494Y-138349463D01*
X122094180Y-138290498D01*
X122050953Y-138277385D01*
X122237417Y-138050179D01*
X122377166Y-137788725D01*
X122463224Y-137505032D01*
X122492282Y-137210000D01*
X122463224Y-136914968D01*
X122377166Y-136631275D01*
X122237417Y-136369821D01*
X122049345Y-136140655D01*
X121820179Y-135952583D01*
X121558725Y-135812834D01*
X121275032Y-135726776D01*
X121053936Y-135705000D01*
X120446064Y-135705000D01*
X120224968Y-135726776D01*
X119941275Y-135812834D01*
X119679821Y-135952583D01*
X119450655Y-136140655D01*
X119262583Y-136369821D01*
X119122834Y-136631275D01*
X119036776Y-136914968D01*
X119007718Y-137210000D01*
X101676288Y-137210000D01*
X101486038Y-136925271D01*
X101174729Y-136613962D01*
X100808669Y-136369369D01*
X100401925Y-136200890D01*
X99970128Y-136115000D01*
X99529872Y-136115000D01*
X99098075Y-136200890D01*
X98691331Y-136369369D01*
X98325271Y-136613962D01*
X98013962Y-136925271D01*
X97769369Y-137291331D01*
X97600890Y-137698075D01*
X97515000Y-138129872D01*
X96435000Y-138129872D01*
X96435000Y-134608665D01*
X108815000Y-134608665D01*
X108815000Y-134891335D01*
X108870147Y-135168574D01*
X108978320Y-135429727D01*
X109135363Y-135664759D01*
X109335241Y-135864637D01*
X109570273Y-136021680D01*
X109831426Y-136129853D01*
X110108665Y-136185000D01*
X110391335Y-136185000D01*
X110668574Y-136129853D01*
X110929727Y-136021680D01*
X111164759Y-135864637D01*
X111364637Y-135664759D01*
X111500000Y-135462173D01*
X111635363Y-135664759D01*
X111835241Y-135864637D01*
X112070273Y-136021680D01*
X112331426Y-136129853D01*
X112608665Y-136185000D01*
X112891335Y-136185000D01*
X113168574Y-136129853D01*
X113429727Y-136021680D01*
X113664759Y-135864637D01*
X113864637Y-135664759D01*
X114021680Y-135429727D01*
X114129853Y-135168574D01*
X114185000Y-134891335D01*
X114185000Y-134608665D01*
X114129853Y-134331426D01*
X114021680Y-134070273D01*
X113864637Y-133835241D01*
X113664759Y-133635363D01*
X113429727Y-133478320D01*
X113168574Y-133370147D01*
X112891335Y-133315000D01*
X112608665Y-133315000D01*
X112331426Y-133370147D01*
X112070273Y-133478320D01*
X111835241Y-133635363D01*
X111635363Y-133835241D01*
X111500000Y-134037827D01*
X111364637Y-133835241D01*
X111164759Y-133635363D01*
X110929727Y-133478320D01*
X110668574Y-133370147D01*
X110391335Y-133315000D01*
X110108665Y-133315000D01*
X109831426Y-133370147D01*
X109570273Y-133478320D01*
X109335241Y-133635363D01*
X109135363Y-133835241D01*
X108978320Y-134070273D01*
X108870147Y-134331426D01*
X108815000Y-134608665D01*
X96435000Y-134608665D01*
X96435000Y-131108665D01*
X104565000Y-131108665D01*
X104565000Y-131391335D01*
X104620147Y-131668574D01*
X104728320Y-131929727D01*
X104885363Y-132164759D01*
X105085241Y-132364637D01*
X105320273Y-132521680D01*
X105581426Y-132629853D01*
X105858665Y-132685000D01*
X106141335Y-132685000D01*
X106418574Y-132629853D01*
X106679727Y-132521680D01*
X106914759Y-132364637D01*
X107036694Y-132242702D01*
X109706903Y-132242702D01*
X109778486Y-132486671D01*
X110033996Y-132607571D01*
X110308184Y-132676300D01*
X110590512Y-132690217D01*
X110870130Y-132648787D01*
X111136292Y-132553603D01*
X111261514Y-132486671D01*
X111333097Y-132242702D01*
X110520000Y-131429605D01*
X109706903Y-132242702D01*
X107036694Y-132242702D01*
X107114637Y-132164759D01*
X107271680Y-131929727D01*
X107379853Y-131668574D01*
X107435000Y-131391335D01*
X107435000Y-131320512D01*
X109079783Y-131320512D01*
X109121213Y-131600130D01*
X109216397Y-131866292D01*
X109283329Y-131991514D01*
X109527298Y-132063097D01*
X110340395Y-131250000D01*
X110699605Y-131250000D01*
X111512702Y-132063097D01*
X111756671Y-131991514D01*
X111877571Y-131736004D01*
X111946300Y-131461816D01*
X111960217Y-131179488D01*
X111949724Y-131108665D01*
X113565000Y-131108665D01*
X113565000Y-131391335D01*
X113620147Y-131668574D01*
X113728320Y-131929727D01*
X113885363Y-132164759D01*
X114085241Y-132364637D01*
X114320273Y-132521680D01*
X114581426Y-132629853D01*
X114858665Y-132685000D01*
X115141335Y-132685000D01*
X115418574Y-132629853D01*
X115679727Y-132521680D01*
X115914759Y-132364637D01*
X116114637Y-132164759D01*
X116271680Y-131929727D01*
X116379853Y-131668574D01*
X116435000Y-131391335D01*
X116435000Y-131108665D01*
X116379853Y-130831426D01*
X116271680Y-130570273D01*
X116114637Y-130335241D01*
X115914759Y-130135363D01*
X115679727Y-129978320D01*
X115418574Y-129870147D01*
X115141335Y-129815000D01*
X114858665Y-129815000D01*
X114581426Y-129870147D01*
X114320273Y-129978320D01*
X114085241Y-130135363D01*
X113885363Y-130335241D01*
X113728320Y-130570273D01*
X113620147Y-130831426D01*
X113565000Y-131108665D01*
X111949724Y-131108665D01*
X111918787Y-130899870D01*
X111823603Y-130633708D01*
X111756671Y-130508486D01*
X111512702Y-130436903D01*
X110699605Y-131250000D01*
X110340395Y-131250000D01*
X109527298Y-130436903D01*
X109283329Y-130508486D01*
X109162429Y-130763996D01*
X109093700Y-131038184D01*
X109079783Y-131320512D01*
X107435000Y-131320512D01*
X107435000Y-131108665D01*
X107379853Y-130831426D01*
X107271680Y-130570273D01*
X107114637Y-130335241D01*
X107036694Y-130257298D01*
X109706903Y-130257298D01*
X110520000Y-131070395D01*
X111333097Y-130257298D01*
X111261514Y-130013329D01*
X111006004Y-129892429D01*
X110731816Y-129823700D01*
X110449488Y-129809783D01*
X110169870Y-129851213D01*
X109903708Y-129946397D01*
X109778486Y-130013329D01*
X109706903Y-130257298D01*
X107036694Y-130257298D01*
X106914759Y-130135363D01*
X106679727Y-129978320D01*
X106418574Y-129870147D01*
X106141335Y-129815000D01*
X105858665Y-129815000D01*
X105581426Y-129870147D01*
X105320273Y-129978320D01*
X105085241Y-130135363D01*
X104885363Y-130335241D01*
X104728320Y-130570273D01*
X104620147Y-130831426D01*
X104565000Y-131108665D01*
X96435000Y-131108665D01*
X96435000Y-123979040D01*
X104608091Y-123979040D01*
X104702930Y-124243881D01*
X104847615Y-124485131D01*
X105036586Y-124693519D01*
X105262580Y-124861037D01*
X105516913Y-124981246D01*
X105650961Y-125021904D01*
X105873000Y-124899915D01*
X105873000Y-123757000D01*
X106127000Y-123757000D01*
X106127000Y-124899915D01*
X106349039Y-125021904D01*
X106483087Y-124981246D01*
X106737420Y-124861037D01*
X106963414Y-124693519D01*
X107152385Y-124485131D01*
X107297070Y-124243881D01*
X107391909Y-123979040D01*
X107270624Y-123757000D01*
X106127000Y-123757000D01*
X105873000Y-123757000D01*
X104729376Y-123757000D01*
X104608091Y-123979040D01*
X96435000Y-123979040D01*
X96435000Y-123280960D01*
X104608091Y-123280960D01*
X104729376Y-123503000D01*
X105873000Y-123503000D01*
X105873000Y-122360085D01*
X106127000Y-122360085D01*
X106127000Y-123503000D01*
X107270624Y-123503000D01*
X107391909Y-123280960D01*
X107297070Y-123016119D01*
X107152385Y-122774869D01*
X106963414Y-122566481D01*
X106737420Y-122398963D01*
X106483087Y-122278754D01*
X106349039Y-122238096D01*
X106127000Y-122360085D01*
X105873000Y-122360085D01*
X105650961Y-122238096D01*
X105516913Y-122278754D01*
X105262580Y-122398963D01*
X105036586Y-122566481D01*
X104847615Y-122774869D01*
X104702930Y-123016119D01*
X104608091Y-123280960D01*
X96435000Y-123280960D01*
X96435000Y-119108665D01*
X101315000Y-119108665D01*
X101315000Y-119391335D01*
X101370147Y-119668574D01*
X101478320Y-119929727D01*
X101635363Y-120164759D01*
X101835241Y-120364637D01*
X102070273Y-120521680D01*
X102331426Y-120629853D01*
X102608665Y-120685000D01*
X102891335Y-120685000D01*
X103168574Y-120629853D01*
X103429727Y-120521680D01*
X103664759Y-120364637D01*
X103769396Y-120260000D01*
X104988795Y-120260000D01*
X105068691Y-120284236D01*
X105279508Y-120305000D01*
X106220492Y-120305000D01*
X106431309Y-120284236D01*
X106701808Y-120202182D01*
X106951101Y-120068932D01*
X107169608Y-119889608D01*
X107348932Y-119671101D01*
X107482182Y-119421808D01*
X107564236Y-119151309D01*
X107583717Y-118953520D01*
X110865883Y-122235688D01*
X110661335Y-122195000D01*
X110378665Y-122195000D01*
X110101426Y-122250147D01*
X109840273Y-122358320D01*
X109605241Y-122515363D01*
X109405363Y-122715241D01*
X109248320Y-122950273D01*
X109140147Y-123211426D01*
X109085000Y-123488665D01*
X109085000Y-123771335D01*
X109140147Y-124048574D01*
X109248320Y-124309727D01*
X109405363Y-124544759D01*
X109605241Y-124744637D01*
X109840273Y-124901680D01*
X110101426Y-125009853D01*
X110378665Y-125065000D01*
X110661335Y-125065000D01*
X110938574Y-125009853D01*
X111199727Y-124901680D01*
X111434759Y-124744637D01*
X111634637Y-124544759D01*
X111740000Y-124387072D01*
X111740000Y-124462677D01*
X111736324Y-124500000D01*
X111740000Y-124537322D01*
X111740000Y-124537332D01*
X111750997Y-124648985D01*
X111789533Y-124776023D01*
X111794454Y-124792246D01*
X111865026Y-124924276D01*
X111865628Y-124925009D01*
X111959999Y-125040001D01*
X111989002Y-125063804D01*
X114106205Y-127181008D01*
X114129999Y-127210001D01*
X114158992Y-127233795D01*
X114158996Y-127233799D01*
X114177184Y-127248725D01*
X114245724Y-127304974D01*
X114377753Y-127375546D01*
X114521014Y-127419003D01*
X114632667Y-127430000D01*
X114632676Y-127430000D01*
X114669999Y-127433676D01*
X114707322Y-127430000D01*
X119219727Y-127430000D01*
X119262583Y-127510179D01*
X119450655Y-127739345D01*
X119679821Y-127927417D01*
X119703362Y-127940000D01*
X119679821Y-127952583D01*
X119450655Y-128140655D01*
X119262583Y-128369821D01*
X119122834Y-128631275D01*
X119036776Y-128914968D01*
X119007718Y-129210000D01*
X119036776Y-129505032D01*
X119122834Y-129788725D01*
X119262583Y-130050179D01*
X119450655Y-130279345D01*
X119516114Y-130333066D01*
X119406613Y-130391595D01*
X119272038Y-130502038D01*
X119161595Y-130636613D01*
X119079528Y-130790149D01*
X119028992Y-130956745D01*
X119011928Y-131129999D01*
X119011928Y-132370001D01*
X119028992Y-132543255D01*
X119079528Y-132709851D01*
X119161595Y-132863387D01*
X119272038Y-132997962D01*
X119406613Y-133108405D01*
X119560149Y-133190472D01*
X119726745Y-133241008D01*
X119899999Y-133258072D01*
X121600001Y-133258072D01*
X121773255Y-133241008D01*
X121939851Y-133190472D01*
X122093387Y-133108405D01*
X122227962Y-132997962D01*
X122338405Y-132863387D01*
X122420472Y-132709851D01*
X122471008Y-132543255D01*
X122488072Y-132370001D01*
X122488072Y-131129999D01*
X122484192Y-131090609D01*
X122936014Y-130638788D01*
X122965011Y-130614991D01*
X123059984Y-130499266D01*
X123130556Y-130367237D01*
X123174013Y-130223976D01*
X123185010Y-130112323D01*
X123185010Y-130112313D01*
X123188686Y-130074990D01*
X123185010Y-130037667D01*
X123185010Y-124962332D01*
X123188686Y-124925009D01*
X123185010Y-124887686D01*
X123185010Y-124887677D01*
X123174013Y-124776024D01*
X123130556Y-124632763D01*
X123059984Y-124500733D01*
X122988809Y-124414007D01*
X122965011Y-124385009D01*
X122936013Y-124361211D01*
X120659195Y-122084393D01*
X120846011Y-122161775D01*
X121113589Y-122215000D01*
X121386411Y-122215000D01*
X121653989Y-122161775D01*
X121906043Y-122057371D01*
X122132886Y-121905799D01*
X122325799Y-121712886D01*
X122477371Y-121486043D01*
X122581775Y-121233989D01*
X122635000Y-120966411D01*
X122635000Y-120693589D01*
X122581775Y-120426011D01*
X122477371Y-120173957D01*
X122325799Y-119947114D01*
X122132886Y-119754201D01*
X121906043Y-119602629D01*
X121803127Y-119560000D01*
X121906043Y-119517371D01*
X122132886Y-119365799D01*
X122325799Y-119172886D01*
X122477371Y-118946043D01*
X122581775Y-118693989D01*
X122635000Y-118426411D01*
X122635000Y-118153589D01*
X122581775Y-117886011D01*
X122477371Y-117633957D01*
X122325799Y-117407114D01*
X122132886Y-117214201D01*
X122016517Y-117136445D01*
X122124482Y-117125812D01*
X122244180Y-117089502D01*
X122354494Y-117030537D01*
X122451185Y-116951185D01*
X122530537Y-116854494D01*
X122589502Y-116744180D01*
X122625812Y-116624482D01*
X122638072Y-116500000D01*
X122638072Y-115000000D01*
X122625812Y-114875518D01*
X122589502Y-114755820D01*
X122530537Y-114645506D01*
X122451185Y-114548815D01*
X122354494Y-114469463D01*
X122244180Y-114410498D01*
X122124482Y-114374188D01*
X122000000Y-114361928D01*
X120500000Y-114361928D01*
X120375518Y-114374188D01*
X120255820Y-114410498D01*
X120145506Y-114469463D01*
X120048815Y-114548815D01*
X119969463Y-114645506D01*
X119910498Y-114755820D01*
X119874188Y-114875518D01*
X119861928Y-115000000D01*
X119861928Y-116500000D01*
X119874188Y-116624482D01*
X119910498Y-116744180D01*
X119969463Y-116854494D01*
X120048815Y-116951185D01*
X120145506Y-117030537D01*
X120255820Y-117089502D01*
X120375518Y-117125812D01*
X120483483Y-117136445D01*
X120367114Y-117214201D01*
X120174201Y-117407114D01*
X120022629Y-117633957D01*
X119918225Y-117886011D01*
X119865000Y-118153589D01*
X119865000Y-118426411D01*
X119918225Y-118693989D01*
X120022629Y-118946043D01*
X120174201Y-119172886D01*
X120367114Y-119365799D01*
X120593957Y-119517371D01*
X120696873Y-119560000D01*
X120593957Y-119602629D01*
X120367114Y-119754201D01*
X120174201Y-119947114D01*
X120022629Y-120173957D01*
X119918225Y-120426011D01*
X119865000Y-120693589D01*
X119865000Y-120966411D01*
X119918225Y-121233989D01*
X119995607Y-121420805D01*
X118760000Y-120185199D01*
X118760000Y-115537322D01*
X118763676Y-115499999D01*
X118760000Y-115462676D01*
X118760000Y-115462667D01*
X118749003Y-115351014D01*
X118705546Y-115207753D01*
X118634974Y-115075724D01*
X118540001Y-114959999D01*
X118511004Y-114936202D01*
X117898688Y-114323886D01*
X117935000Y-114141335D01*
X117935000Y-113858665D01*
X117879853Y-113581426D01*
X117771680Y-113320273D01*
X117614637Y-113085241D01*
X117510000Y-112980604D01*
X117510000Y-108739604D01*
X117514886Y-108689999D01*
X117508484Y-108625000D01*
X117495385Y-108492006D01*
X117437632Y-108301620D01*
X117343847Y-108126160D01*
X117217633Y-107972367D01*
X117179094Y-107940739D01*
X116948355Y-107710000D01*
X119007718Y-107710000D01*
X119036776Y-108005032D01*
X119122834Y-108288725D01*
X119262583Y-108550179D01*
X119450655Y-108779345D01*
X119516114Y-108833066D01*
X119406613Y-108891595D01*
X119272038Y-109002038D01*
X119161595Y-109136613D01*
X119079528Y-109290149D01*
X119028992Y-109456745D01*
X119011928Y-109629999D01*
X119011928Y-110870001D01*
X119028992Y-111043255D01*
X119079528Y-111209851D01*
X119161595Y-111363387D01*
X119272038Y-111497962D01*
X119406613Y-111608405D01*
X119560149Y-111690472D01*
X119726745Y-111741008D01*
X119899999Y-111758072D01*
X121600001Y-111758072D01*
X121773255Y-111741008D01*
X121939851Y-111690472D01*
X122093387Y-111608405D01*
X122227962Y-111497962D01*
X122338405Y-111363387D01*
X122420472Y-111209851D01*
X122471008Y-111043255D01*
X122488072Y-110870001D01*
X122488072Y-109629999D01*
X122471008Y-109456745D01*
X122420472Y-109290149D01*
X122338405Y-109136613D01*
X122227962Y-109002038D01*
X122093387Y-108891595D01*
X121983886Y-108833066D01*
X122049345Y-108779345D01*
X122237417Y-108550179D01*
X122377166Y-108288725D01*
X122463224Y-108005032D01*
X122492282Y-107710000D01*
X122463224Y-107414968D01*
X122377166Y-107131275D01*
X122237417Y-106869821D01*
X122049345Y-106640655D01*
X121820179Y-106452583D01*
X121558725Y-106312834D01*
X121275032Y-106226776D01*
X121053936Y-106205000D01*
X120446064Y-106205000D01*
X120224968Y-106226776D01*
X119941275Y-106312834D01*
X119679821Y-106452583D01*
X119450655Y-106640655D01*
X119262583Y-106869821D01*
X119122834Y-107131275D01*
X119036776Y-107414968D01*
X119007718Y-107710000D01*
X116948355Y-107710000D01*
X116435000Y-107196645D01*
X116435000Y-107048665D01*
X116415869Y-106952487D01*
X118179100Y-105189256D01*
X118217633Y-105157633D01*
X118343847Y-105003840D01*
X118437632Y-104828380D01*
X118495385Y-104637994D01*
X118510000Y-104489608D01*
X118514886Y-104440000D01*
X118510000Y-104390392D01*
X118510000Y-97668355D01*
X119810153Y-96368203D01*
X119947503Y-96573762D01*
X120136238Y-96762497D01*
X120358167Y-96910785D01*
X120525266Y-96980000D01*
X120358167Y-97049215D01*
X120136238Y-97197503D01*
X119947503Y-97386238D01*
X119799215Y-97608167D01*
X119697072Y-97854761D01*
X119645000Y-98116544D01*
X119645000Y-98383456D01*
X119697072Y-98645239D01*
X119799215Y-98891833D01*
X119947503Y-99113762D01*
X120136238Y-99302497D01*
X120358167Y-99450785D01*
X120525266Y-99520000D01*
X120358167Y-99589215D01*
X120136238Y-99737503D01*
X119947503Y-99926238D01*
X119799215Y-100148167D01*
X119697072Y-100394761D01*
X119645000Y-100656544D01*
X119645000Y-100923456D01*
X119697072Y-101185239D01*
X119799215Y-101431833D01*
X119947503Y-101653762D01*
X120136238Y-101842497D01*
X120358167Y-101990785D01*
X120604761Y-102092928D01*
X120866544Y-102145000D01*
X121133456Y-102145000D01*
X121395239Y-102092928D01*
X121641833Y-101990785D01*
X121863762Y-101842497D01*
X122052497Y-101653762D01*
X122200785Y-101431833D01*
X122302928Y-101185239D01*
X122355000Y-100923456D01*
X122355000Y-100656544D01*
X122302928Y-100394761D01*
X122200785Y-100148167D01*
X122052497Y-99926238D01*
X121863762Y-99737503D01*
X121641833Y-99589215D01*
X121474734Y-99520000D01*
X121641833Y-99450785D01*
X121863762Y-99302497D01*
X122052497Y-99113762D01*
X122200785Y-98891833D01*
X122302928Y-98645239D01*
X122355000Y-98383456D01*
X122355000Y-98116544D01*
X122302928Y-97854761D01*
X122200785Y-97608167D01*
X122052497Y-97386238D01*
X121863762Y-97197503D01*
X121641833Y-97049215D01*
X121474734Y-96980000D01*
X121641833Y-96910785D01*
X121863762Y-96762497D01*
X122052497Y-96573762D01*
X122200785Y-96351833D01*
X122302928Y-96105239D01*
X122355000Y-95843456D01*
X122355000Y-95576544D01*
X122302928Y-95314761D01*
X122200785Y-95068167D01*
X122052497Y-94846238D01*
X121863762Y-94657503D01*
X121658203Y-94520153D01*
X122685101Y-93493255D01*
X122723634Y-93461632D01*
X122849848Y-93307839D01*
X122943633Y-93132379D01*
X123001386Y-92941993D01*
X123016001Y-92793607D01*
X123020887Y-92743999D01*
X123016001Y-92694391D01*
X123016001Y-72624605D01*
X123020887Y-72575000D01*
X123016001Y-72525393D01*
X123001386Y-72377007D01*
X122943633Y-72186621D01*
X122849848Y-72011161D01*
X122723634Y-71857368D01*
X122685095Y-71825740D01*
X122069072Y-71209717D01*
X122069072Y-69500000D01*
X122056812Y-69375518D01*
X122020502Y-69255820D01*
X121961537Y-69145506D01*
X121882185Y-69048815D01*
X121785494Y-68969463D01*
X121675180Y-68910498D01*
X121555482Y-68874188D01*
X121431000Y-68861928D01*
X118931000Y-68861928D01*
X118806518Y-68874188D01*
X118686820Y-68910498D01*
X118576506Y-68969463D01*
X118479815Y-69048815D01*
X118400463Y-69145506D01*
X118341498Y-69255820D01*
X118305188Y-69375518D01*
X118292928Y-69500000D01*
X118292928Y-72000000D01*
X118305188Y-72124482D01*
X118341498Y-72244180D01*
X118400463Y-72354494D01*
X118479815Y-72451185D01*
X118576506Y-72530537D01*
X118686820Y-72589502D01*
X118806518Y-72625812D01*
X118931000Y-72638072D01*
X120640717Y-72638072D01*
X120996001Y-72993356D01*
X120996001Y-74050026D01*
X120856874Y-73980567D01*
X120498688Y-73882710D01*
X120128294Y-73856611D01*
X119759925Y-73903275D01*
X119407738Y-74020906D01*
X119172914Y-74146423D01*
X119047000Y-74436395D01*
X120181000Y-75570395D01*
X120195143Y-75556253D01*
X120374748Y-75735858D01*
X120360605Y-75750000D01*
X120374748Y-75764143D01*
X120195143Y-75943748D01*
X120181000Y-75929605D01*
X119047000Y-77063605D01*
X119172914Y-77353577D01*
X119505126Y-77519433D01*
X119863312Y-77617290D01*
X120233706Y-77643389D01*
X120602075Y-77596725D01*
X120954262Y-77479094D01*
X120996001Y-77456784D01*
X120996001Y-79047275D01*
X120730834Y-78937439D01*
X120366656Y-78865000D01*
X119995344Y-78865000D01*
X119631166Y-78937439D01*
X119288118Y-79079534D01*
X118979382Y-79285825D01*
X118716825Y-79548382D01*
X118510534Y-79857118D01*
X118368439Y-80200166D01*
X118296000Y-80564344D01*
X118296000Y-80935656D01*
X118368439Y-81299834D01*
X118510534Y-81642882D01*
X118716825Y-81951618D01*
X118979382Y-82214175D01*
X119288118Y-82420466D01*
X119631166Y-82562561D01*
X119995344Y-82635000D01*
X120366656Y-82635000D01*
X120730834Y-82562561D01*
X120996001Y-82452725D01*
X120996002Y-92325642D01*
X116820906Y-96500739D01*
X116782367Y-96532367D01*
X116656153Y-96686160D01*
X116562369Y-96861620D01*
X116562368Y-96861621D01*
X116504615Y-97052006D01*
X116485114Y-97250000D01*
X116490000Y-97299608D01*
X116490001Y-104021643D01*
X114731312Y-105780332D01*
X114581426Y-105810147D01*
X114320273Y-105918320D01*
X114085241Y-106075363D01*
X113885363Y-106275241D01*
X113728320Y-106510273D01*
X113620147Y-106771426D01*
X113565000Y-107048665D01*
X113565000Y-107331335D01*
X113620147Y-107608574D01*
X113728320Y-107869727D01*
X113885363Y-108104759D01*
X114085241Y-108304637D01*
X114320273Y-108461680D01*
X114581426Y-108569853D01*
X114858665Y-108625000D01*
X115006645Y-108625000D01*
X115490000Y-109108355D01*
X115490001Y-112780000D01*
X114797493Y-112780000D01*
X114789608Y-112770392D01*
X114571101Y-112591068D01*
X114438142Y-112520000D01*
X114571101Y-112448932D01*
X114789608Y-112269608D01*
X114968932Y-112051101D01*
X115102182Y-111801808D01*
X115184236Y-111531309D01*
X115211943Y-111250000D01*
X115184236Y-110968691D01*
X115102182Y-110698192D01*
X114968932Y-110448899D01*
X114789608Y-110230392D01*
X114571101Y-110051068D01*
X114321808Y-109917818D01*
X114051309Y-109835764D01*
X113840492Y-109815000D01*
X112899508Y-109815000D01*
X112688691Y-109835764D01*
X112418192Y-109917818D01*
X112168899Y-110051068D01*
X111950392Y-110230392D01*
X111771068Y-110448899D01*
X111637818Y-110698192D01*
X111555764Y-110968691D01*
X111528057Y-111250000D01*
X111555764Y-111531309D01*
X111637818Y-111801808D01*
X111771068Y-112051101D01*
X111950392Y-112269608D01*
X112168899Y-112448932D01*
X112301858Y-112520000D01*
X112168899Y-112591068D01*
X111950392Y-112770392D01*
X111771068Y-112988899D01*
X111637818Y-113238192D01*
X111555764Y-113508691D01*
X111528057Y-113790000D01*
X111555764Y-114071309D01*
X111637818Y-114341808D01*
X111771068Y-114591101D01*
X111950392Y-114809608D01*
X112168899Y-114988932D01*
X112301858Y-115060000D01*
X112168899Y-115131068D01*
X111950392Y-115310392D01*
X111771068Y-115528899D01*
X111637818Y-115778192D01*
X111555764Y-116048691D01*
X111528057Y-116330000D01*
X111555764Y-116611309D01*
X111637818Y-116881808D01*
X111771068Y-117131101D01*
X111950392Y-117349608D01*
X112168899Y-117528932D01*
X112301858Y-117600000D01*
X112168899Y-117671068D01*
X111950392Y-117850392D01*
X111771068Y-118068899D01*
X111637818Y-118318192D01*
X111555764Y-118588691D01*
X111528057Y-118870000D01*
X111555764Y-119151309D01*
X111637818Y-119421808D01*
X111771068Y-119671101D01*
X111950392Y-119889608D01*
X112168899Y-120068932D01*
X112418192Y-120202182D01*
X112688691Y-120284236D01*
X112899508Y-120305000D01*
X113840492Y-120305000D01*
X114051309Y-120284236D01*
X114321808Y-120202182D01*
X114571101Y-120068932D01*
X114789608Y-119889608D01*
X114968932Y-119671101D01*
X115102182Y-119421808D01*
X115184236Y-119151309D01*
X115211943Y-118870000D01*
X115184236Y-118588691D01*
X115102182Y-118318192D01*
X114968932Y-118068899D01*
X114789608Y-117850392D01*
X114571101Y-117671068D01*
X114438142Y-117600000D01*
X114571101Y-117528932D01*
X114789608Y-117349608D01*
X114968932Y-117131101D01*
X115102182Y-116881808D01*
X115106936Y-116866134D01*
X115196397Y-117116292D01*
X115263329Y-117241514D01*
X115507298Y-117313097D01*
X116320395Y-116500000D01*
X115507298Y-115686903D01*
X115263329Y-115758486D01*
X115161491Y-115973710D01*
X115102182Y-115778192D01*
X114968932Y-115528899D01*
X114789608Y-115310392D01*
X114571101Y-115131068D01*
X114438142Y-115060000D01*
X114571101Y-114988932D01*
X114789608Y-114809608D01*
X114797493Y-114800000D01*
X115308684Y-114800000D01*
X115385363Y-114914759D01*
X115585241Y-115114637D01*
X115785869Y-115248692D01*
X115758486Y-115263329D01*
X115686903Y-115507298D01*
X116500000Y-116320395D01*
X116514143Y-116306253D01*
X116693748Y-116485858D01*
X116679605Y-116500000D01*
X116693748Y-116514143D01*
X116514143Y-116693748D01*
X116500000Y-116679605D01*
X115686903Y-117492702D01*
X115758486Y-117736671D01*
X116013996Y-117857571D01*
X116288184Y-117926300D01*
X116570512Y-117940217D01*
X116850130Y-117898787D01*
X117116292Y-117803603D01*
X117240000Y-117737480D01*
X117240001Y-120065197D01*
X115110199Y-122195000D01*
X114858665Y-122195000D01*
X114581426Y-122250147D01*
X114320273Y-122358320D01*
X114085241Y-122515363D01*
X113885363Y-122715241D01*
X113728320Y-122950273D01*
X113620147Y-123211426D01*
X113565000Y-123488665D01*
X113565000Y-123771335D01*
X113620147Y-124048574D01*
X113728320Y-124309727D01*
X113885363Y-124544759D01*
X114085241Y-124744637D01*
X114320273Y-124901680D01*
X114581426Y-125009853D01*
X114858665Y-125065000D01*
X115141335Y-125065000D01*
X115418574Y-125009853D01*
X115679727Y-124901680D01*
X115914759Y-124744637D01*
X116114637Y-124544759D01*
X116271680Y-124309727D01*
X116379853Y-124048574D01*
X116435000Y-123771335D01*
X116435000Y-123488665D01*
X116379853Y-123211426D01*
X116339880Y-123114922D01*
X117940000Y-121514801D01*
X121665011Y-125239813D01*
X121665011Y-125329645D01*
X121558725Y-125272834D01*
X121275032Y-125186776D01*
X121053936Y-125165000D01*
X120446064Y-125165000D01*
X120224968Y-125186776D01*
X119941275Y-125272834D01*
X119679821Y-125412583D01*
X119450655Y-125600655D01*
X119262583Y-125829821D01*
X119219727Y-125910000D01*
X114984803Y-125910000D01*
X113260000Y-124185199D01*
X113260000Y-122832324D01*
X113263676Y-122795001D01*
X113260000Y-122757678D01*
X113260000Y-122757669D01*
X113249003Y-122646016D01*
X113205546Y-122502755D01*
X113134974Y-122370726D01*
X113121811Y-122354687D01*
X113063799Y-122283998D01*
X113063795Y-122283994D01*
X113040001Y-122255001D01*
X113011008Y-122231207D01*
X108414077Y-117634278D01*
X108429094Y-117619261D01*
X108467633Y-117587633D01*
X108593847Y-117433840D01*
X108687632Y-117258380D01*
X108711188Y-117180726D01*
X108745385Y-117067995D01*
X108764886Y-116870000D01*
X108760000Y-116820392D01*
X108760000Y-107048665D01*
X109085000Y-107048665D01*
X109085000Y-107331335D01*
X109140147Y-107608574D01*
X109248320Y-107869727D01*
X109405363Y-108104759D01*
X109605241Y-108304637D01*
X109840273Y-108461680D01*
X110101426Y-108569853D01*
X110378665Y-108625000D01*
X110661335Y-108625000D01*
X110938574Y-108569853D01*
X111199727Y-108461680D01*
X111434759Y-108304637D01*
X111634637Y-108104759D01*
X111791680Y-107869727D01*
X111899853Y-107608574D01*
X111955000Y-107331335D01*
X111955000Y-107048665D01*
X111899853Y-106771426D01*
X111791680Y-106510273D01*
X111634637Y-106275241D01*
X111434759Y-106075363D01*
X111199727Y-105918320D01*
X110938574Y-105810147D01*
X110661335Y-105755000D01*
X110378665Y-105755000D01*
X110101426Y-105810147D01*
X109840273Y-105918320D01*
X109605241Y-106075363D01*
X109405363Y-106275241D01*
X109248320Y-106510273D01*
X109140147Y-106771426D01*
X109085000Y-107048665D01*
X108760000Y-107048665D01*
X108760000Y-99428665D01*
X109085000Y-99428665D01*
X109085000Y-99711335D01*
X109140147Y-99988574D01*
X109248320Y-100249727D01*
X109405363Y-100484759D01*
X109605241Y-100684637D01*
X109840273Y-100841680D01*
X110101426Y-100949853D01*
X110378665Y-101005000D01*
X110661335Y-101005000D01*
X110938574Y-100949853D01*
X111199727Y-100841680D01*
X111434759Y-100684637D01*
X111634637Y-100484759D01*
X111791680Y-100249727D01*
X111899853Y-99988574D01*
X111955000Y-99711335D01*
X111955000Y-99428665D01*
X113565000Y-99428665D01*
X113565000Y-99711335D01*
X113620147Y-99988574D01*
X113728320Y-100249727D01*
X113885363Y-100484759D01*
X114085241Y-100684637D01*
X114320273Y-100841680D01*
X114581426Y-100949853D01*
X114858665Y-101005000D01*
X115141335Y-101005000D01*
X115418574Y-100949853D01*
X115679727Y-100841680D01*
X115914759Y-100684637D01*
X116114637Y-100484759D01*
X116271680Y-100249727D01*
X116379853Y-99988574D01*
X116435000Y-99711335D01*
X116435000Y-99428665D01*
X116379853Y-99151426D01*
X116271680Y-98890273D01*
X116114637Y-98655241D01*
X115914759Y-98455363D01*
X115679727Y-98298320D01*
X115418574Y-98190147D01*
X115141335Y-98135000D01*
X114858665Y-98135000D01*
X114581426Y-98190147D01*
X114320273Y-98298320D01*
X114085241Y-98455363D01*
X113885363Y-98655241D01*
X113728320Y-98890273D01*
X113620147Y-99151426D01*
X113565000Y-99428665D01*
X111955000Y-99428665D01*
X111899853Y-99151426D01*
X111791680Y-98890273D01*
X111634637Y-98655241D01*
X111434759Y-98455363D01*
X111199727Y-98298320D01*
X110938574Y-98190147D01*
X110661335Y-98135000D01*
X110378665Y-98135000D01*
X110101426Y-98190147D01*
X109840273Y-98298320D01*
X109605241Y-98455363D01*
X109405363Y-98655241D01*
X109248320Y-98890273D01*
X109140147Y-99151426D01*
X109085000Y-99428665D01*
X108760000Y-99428665D01*
X108760000Y-91709000D01*
X109048883Y-91709000D01*
X109384081Y-91642325D01*
X109699831Y-91511537D01*
X109983998Y-91321663D01*
X110225663Y-91079998D01*
X110415537Y-90795831D01*
X110529790Y-90520000D01*
X112011928Y-90520000D01*
X112024188Y-90644482D01*
X112060498Y-90764180D01*
X112119463Y-90874494D01*
X112198815Y-90971185D01*
X112295506Y-91050537D01*
X112405820Y-91109502D01*
X112525518Y-91145812D01*
X112650000Y-91158072D01*
X113164250Y-91155000D01*
X113323000Y-90996250D01*
X113323000Y-89847000D01*
X112173750Y-89847000D01*
X112015000Y-90005750D01*
X112011928Y-90520000D01*
X110529790Y-90520000D01*
X110546325Y-90480081D01*
X110613000Y-90144883D01*
X110613000Y-89803117D01*
X110546325Y-89467919D01*
X110415537Y-89152169D01*
X110260407Y-88920000D01*
X112011928Y-88920000D01*
X112015000Y-89434250D01*
X112173750Y-89593000D01*
X113323000Y-89593000D01*
X113323000Y-88443750D01*
X113577000Y-88443750D01*
X113577000Y-89593000D01*
X113597000Y-89593000D01*
X113597000Y-89847000D01*
X113577000Y-89847000D01*
X113577000Y-90996250D01*
X113735750Y-91155000D01*
X114250000Y-91158072D01*
X114374482Y-91145812D01*
X114494180Y-91109502D01*
X114604494Y-91050537D01*
X114701185Y-90971185D01*
X114714790Y-90954607D01*
X114770273Y-90991680D01*
X115031426Y-91099853D01*
X115308665Y-91155000D01*
X115591335Y-91155000D01*
X115868574Y-91099853D01*
X116129727Y-90991680D01*
X116364759Y-90834637D01*
X116564637Y-90634759D01*
X116721680Y-90399727D01*
X116829853Y-90138574D01*
X116885000Y-89861335D01*
X116885000Y-89578665D01*
X116829853Y-89301426D01*
X116721680Y-89040273D01*
X116564637Y-88805241D01*
X116364759Y-88605363D01*
X116129727Y-88448320D01*
X115868574Y-88340147D01*
X115591335Y-88285000D01*
X115308665Y-88285000D01*
X115031426Y-88340147D01*
X114770273Y-88448320D01*
X114714790Y-88485393D01*
X114701185Y-88468815D01*
X114604494Y-88389463D01*
X114494180Y-88330498D01*
X114374482Y-88294188D01*
X114250000Y-88281928D01*
X113735750Y-88285000D01*
X113577000Y-88443750D01*
X113323000Y-88443750D01*
X113164250Y-88285000D01*
X112650000Y-88281928D01*
X112525518Y-88294188D01*
X112405820Y-88330498D01*
X112295506Y-88389463D01*
X112198815Y-88468815D01*
X112119463Y-88565506D01*
X112060498Y-88675820D01*
X112024188Y-88795518D01*
X112011928Y-88920000D01*
X110260407Y-88920000D01*
X110225663Y-88868002D01*
X109983998Y-88626337D01*
X109699831Y-88436463D01*
X109384081Y-88305675D01*
X109048883Y-88239000D01*
X108707117Y-88239000D01*
X108371919Y-88305675D01*
X108056169Y-88436463D01*
X107772002Y-88626337D01*
X107530337Y-88868002D01*
X107340463Y-89152169D01*
X107209675Y-89467919D01*
X107143000Y-89803117D01*
X107143000Y-90144883D01*
X107165524Y-90258121D01*
X107070906Y-90352739D01*
X107032367Y-90384367D01*
X106906153Y-90538160D01*
X106844717Y-90653100D01*
X106812368Y-90713621D01*
X106754615Y-90904006D01*
X106735114Y-91102000D01*
X106740000Y-91151608D01*
X106740000Y-98398593D01*
X106679727Y-98358320D01*
X106418574Y-98250147D01*
X106141335Y-98195000D01*
X105858665Y-98195000D01*
X105581426Y-98250147D01*
X105320273Y-98358320D01*
X105085241Y-98515363D01*
X104885363Y-98715241D01*
X104728320Y-98950273D01*
X104620147Y-99211426D01*
X104565000Y-99488665D01*
X104565000Y-99771335D01*
X104620147Y-100048574D01*
X104728320Y-100309727D01*
X104885363Y-100544759D01*
X105085241Y-100744637D01*
X105320273Y-100901680D01*
X105581426Y-101009853D01*
X105858665Y-101065000D01*
X106141335Y-101065000D01*
X106418574Y-101009853D01*
X106679727Y-100901680D01*
X106740000Y-100861407D01*
X106740001Y-105811928D01*
X105200000Y-105811928D01*
X105075518Y-105824188D01*
X104955820Y-105860498D01*
X104845506Y-105919463D01*
X104748815Y-105998815D01*
X104669463Y-106095506D01*
X104610498Y-106205820D01*
X104574188Y-106325518D01*
X104561928Y-106450000D01*
X104561928Y-108050000D01*
X104574188Y-108174482D01*
X104610498Y-108294180D01*
X104669463Y-108404494D01*
X104748815Y-108501185D01*
X104845506Y-108580537D01*
X104955820Y-108639502D01*
X105075518Y-108675812D01*
X105200000Y-108688072D01*
X106740001Y-108688072D01*
X106740001Y-109811928D01*
X104550000Y-109811928D01*
X104425518Y-109824188D01*
X104305820Y-109860498D01*
X104195506Y-109919463D01*
X104098815Y-109998815D01*
X104019463Y-110095506D01*
X103960498Y-110205820D01*
X103924188Y-110325518D01*
X103911928Y-110450000D01*
X103911928Y-112050000D01*
X103924188Y-112174482D01*
X103960498Y-112294180D01*
X104019463Y-112404494D01*
X104098815Y-112501185D01*
X104195506Y-112580537D01*
X104305820Y-112639502D01*
X104425518Y-112675812D01*
X104443482Y-112677581D01*
X104330392Y-112770392D01*
X104151068Y-112988899D01*
X104017818Y-113238192D01*
X103935764Y-113508691D01*
X103908057Y-113790000D01*
X103935764Y-114071309D01*
X104017818Y-114341808D01*
X104151068Y-114591101D01*
X104330392Y-114809608D01*
X104548899Y-114988932D01*
X104681858Y-115060000D01*
X104548899Y-115131068D01*
X104330392Y-115310392D01*
X104151068Y-115528899D01*
X104017818Y-115778192D01*
X103951124Y-115998056D01*
X103742702Y-115936903D01*
X102929605Y-116750000D01*
X103742702Y-117563097D01*
X103986671Y-117491514D01*
X104107571Y-117236004D01*
X104139358Y-117109193D01*
X104151068Y-117131101D01*
X104330392Y-117349608D01*
X104548899Y-117528932D01*
X104681858Y-117600000D01*
X104548899Y-117671068D01*
X104330392Y-117850392D01*
X104151068Y-118068899D01*
X104059613Y-118240000D01*
X103769396Y-118240000D01*
X103664759Y-118135363D01*
X103464131Y-118001308D01*
X103491514Y-117986671D01*
X103563097Y-117742702D01*
X102750000Y-116929605D01*
X101936903Y-117742702D01*
X102008486Y-117986671D01*
X102037341Y-118000324D01*
X101835241Y-118135363D01*
X101635363Y-118335241D01*
X101478320Y-118570273D01*
X101370147Y-118831426D01*
X101315000Y-119108665D01*
X96435000Y-119108665D01*
X96435000Y-116820512D01*
X101309783Y-116820512D01*
X101351213Y-117100130D01*
X101446397Y-117366292D01*
X101513329Y-117491514D01*
X101757298Y-117563097D01*
X102570395Y-116750000D01*
X101757298Y-115936903D01*
X101513329Y-116008486D01*
X101392429Y-116263996D01*
X101323700Y-116538184D01*
X101309783Y-116820512D01*
X96435000Y-116820512D01*
X96435000Y-115757298D01*
X101936903Y-115757298D01*
X102750000Y-116570395D01*
X103563097Y-115757298D01*
X103491514Y-115513329D01*
X103236004Y-115392429D01*
X102961816Y-115323700D01*
X102679488Y-115309783D01*
X102399870Y-115351213D01*
X102133708Y-115446397D01*
X102008486Y-115513329D01*
X101936903Y-115757298D01*
X96435000Y-115757298D01*
X96435000Y-107108665D01*
X100065000Y-107108665D01*
X100065000Y-107391335D01*
X100120147Y-107668574D01*
X100228320Y-107929727D01*
X100385363Y-108164759D01*
X100585241Y-108364637D01*
X100820273Y-108521680D01*
X101081426Y-108629853D01*
X101358665Y-108685000D01*
X101641335Y-108685000D01*
X101918574Y-108629853D01*
X102179727Y-108521680D01*
X102414759Y-108364637D01*
X102614637Y-108164759D01*
X102771680Y-107929727D01*
X102879853Y-107668574D01*
X102935000Y-107391335D01*
X102935000Y-107108665D01*
X102879853Y-106831426D01*
X102771680Y-106570273D01*
X102614637Y-106335241D01*
X102414759Y-106135363D01*
X102179727Y-105978320D01*
X101918574Y-105870147D01*
X101641335Y-105815000D01*
X101358665Y-105815000D01*
X101081426Y-105870147D01*
X100820273Y-105978320D01*
X100585241Y-106135363D01*
X100385363Y-106335241D01*
X100228320Y-106570273D01*
X100120147Y-106831426D01*
X100065000Y-107108665D01*
X96435000Y-107108665D01*
X96435000Y-99488665D01*
X100065000Y-99488665D01*
X100065000Y-99771335D01*
X100120147Y-100048574D01*
X100228320Y-100309727D01*
X100385363Y-100544759D01*
X100585241Y-100744637D01*
X100820273Y-100901680D01*
X101081426Y-101009853D01*
X101358665Y-101065000D01*
X101641335Y-101065000D01*
X101918574Y-101009853D01*
X102179727Y-100901680D01*
X102414759Y-100744637D01*
X102614637Y-100544759D01*
X102771680Y-100309727D01*
X102879853Y-100048574D01*
X102935000Y-99771335D01*
X102935000Y-99488665D01*
X102879853Y-99211426D01*
X102771680Y-98950273D01*
X102614637Y-98715241D01*
X102414759Y-98515363D01*
X102179727Y-98358320D01*
X101918574Y-98250147D01*
X101641335Y-98195000D01*
X101358665Y-98195000D01*
X101081426Y-98250147D01*
X100820273Y-98358320D01*
X100585241Y-98515363D01*
X100385363Y-98715241D01*
X100228320Y-98950273D01*
X100120147Y-99211426D01*
X100065000Y-99488665D01*
X96435000Y-99488665D01*
X96435000Y-80682401D01*
X99251400Y-80682401D01*
X99251400Y-80977599D01*
X99308990Y-81267125D01*
X99421958Y-81539853D01*
X99585961Y-81785302D01*
X99794698Y-81994039D01*
X100040147Y-82158042D01*
X100312875Y-82271010D01*
X100602401Y-82328600D01*
X100897599Y-82328600D01*
X101187125Y-82271010D01*
X101459853Y-82158042D01*
X101705302Y-81994039D01*
X101819364Y-81879977D01*
X101836898Y-81937780D01*
X101895863Y-82048094D01*
X101975215Y-82144785D01*
X102071906Y-82224137D01*
X102182220Y-82283102D01*
X102301918Y-82319412D01*
X102426400Y-82331672D01*
X104153600Y-82331672D01*
X104278082Y-82319412D01*
X104397780Y-82283102D01*
X104508094Y-82224137D01*
X104604785Y-82144785D01*
X104684137Y-82048094D01*
X104743102Y-81937780D01*
X104779412Y-81818082D01*
X104791672Y-81693600D01*
X104791672Y-81254000D01*
X107139928Y-81254000D01*
X107139928Y-83454000D01*
X107152188Y-83578482D01*
X107188498Y-83698180D01*
X107247463Y-83808494D01*
X107326815Y-83905185D01*
X107423506Y-83984537D01*
X107533820Y-84043502D01*
X107653518Y-84079812D01*
X107778000Y-84092072D01*
X109978000Y-84092072D01*
X110102482Y-84079812D01*
X110222180Y-84043502D01*
X110332494Y-83984537D01*
X110429185Y-83905185D01*
X110508537Y-83808494D01*
X110567502Y-83698180D01*
X110603812Y-83578482D01*
X110616072Y-83454000D01*
X110616072Y-81254000D01*
X110603812Y-81129518D01*
X110567502Y-81009820D01*
X110508537Y-80899506D01*
X110429185Y-80802815D01*
X110332494Y-80723463D01*
X110222180Y-80664498D01*
X110102482Y-80628188D01*
X109978000Y-80615928D01*
X107778000Y-80615928D01*
X107653518Y-80628188D01*
X107533820Y-80664498D01*
X107423506Y-80723463D01*
X107326815Y-80802815D01*
X107247463Y-80899506D01*
X107188498Y-81009820D01*
X107152188Y-81129518D01*
X107139928Y-81254000D01*
X104791672Y-81254000D01*
X104791672Y-79966400D01*
X104779412Y-79841918D01*
X104743102Y-79722220D01*
X104684137Y-79611906D01*
X104604785Y-79515215D01*
X104508094Y-79435863D01*
X104397780Y-79376898D01*
X104333426Y-79357376D01*
X104396854Y-79300293D01*
X104572684Y-79064944D01*
X104699222Y-78799814D01*
X104744958Y-78649026D01*
X104623817Y-78417000D01*
X103417000Y-78417000D01*
X103417000Y-78437000D01*
X103163000Y-78437000D01*
X103163000Y-78417000D01*
X100877000Y-78417000D01*
X100877000Y-78437000D01*
X100623000Y-78437000D01*
X100623000Y-78417000D01*
X99416183Y-78417000D01*
X99295042Y-78649026D01*
X99340778Y-78799814D01*
X99467316Y-79064944D01*
X99643146Y-79300293D01*
X99861512Y-79496817D01*
X99960103Y-79555441D01*
X99794698Y-79665961D01*
X99585961Y-79874698D01*
X99421958Y-80120147D01*
X99308990Y-80392875D01*
X99251400Y-80682401D01*
X96435000Y-80682401D01*
X96435000Y-76109026D01*
X99295042Y-76109026D01*
X99340778Y-76259814D01*
X99467316Y-76524944D01*
X99643146Y-76760293D01*
X99861512Y-76956817D01*
X99967770Y-77020000D01*
X99861512Y-77083183D01*
X99643146Y-77279707D01*
X99467316Y-77515056D01*
X99340778Y-77780186D01*
X99295042Y-77930974D01*
X99416183Y-78163000D01*
X100623000Y-78163000D01*
X100623000Y-75877000D01*
X100877000Y-75877000D01*
X100877000Y-78163000D01*
X103163000Y-78163000D01*
X103163000Y-75877000D01*
X103417000Y-75877000D01*
X103417000Y-78163000D01*
X104623817Y-78163000D01*
X104744958Y-77930974D01*
X104699222Y-77780186D01*
X104572684Y-77515056D01*
X104396854Y-77279707D01*
X104178488Y-77083183D01*
X104072230Y-77020000D01*
X104178488Y-76956817D01*
X104396854Y-76760293D01*
X104572684Y-76524944D01*
X104699222Y-76259814D01*
X104744958Y-76109026D01*
X104623817Y-75877000D01*
X103417000Y-75877000D01*
X103163000Y-75877000D01*
X100877000Y-75877000D01*
X100623000Y-75877000D01*
X99416183Y-75877000D01*
X99295042Y-76109026D01*
X96435000Y-76109026D01*
X96435000Y-75802706D01*
X118287611Y-75802706D01*
X118334275Y-76171075D01*
X118451906Y-76523262D01*
X118577423Y-76758086D01*
X118867395Y-76884000D01*
X120001395Y-75750000D01*
X118867395Y-74616000D01*
X118577423Y-74741914D01*
X118411567Y-75074126D01*
X118313710Y-75432312D01*
X118287611Y-75802706D01*
X96435000Y-75802706D01*
X96435000Y-73569026D01*
X99295042Y-73569026D01*
X99340778Y-73719814D01*
X99467316Y-73984944D01*
X99643146Y-74220293D01*
X99861512Y-74416817D01*
X99967770Y-74480000D01*
X99861512Y-74543183D01*
X99643146Y-74739707D01*
X99467316Y-74975056D01*
X99340778Y-75240186D01*
X99295042Y-75390974D01*
X99416183Y-75623000D01*
X100623000Y-75623000D01*
X100623000Y-73337000D01*
X100877000Y-73337000D01*
X100877000Y-75623000D01*
X103163000Y-75623000D01*
X103163000Y-73337000D01*
X103417000Y-73337000D01*
X103417000Y-75623000D01*
X104623817Y-75623000D01*
X104744958Y-75390974D01*
X104699222Y-75240186D01*
X104572684Y-74975056D01*
X104396854Y-74739707D01*
X104178488Y-74543183D01*
X104072230Y-74480000D01*
X104178488Y-74416817D01*
X104396854Y-74220293D01*
X104572684Y-73984944D01*
X104699222Y-73719814D01*
X104744958Y-73569026D01*
X104623817Y-73337000D01*
X103417000Y-73337000D01*
X103163000Y-73337000D01*
X100877000Y-73337000D01*
X100623000Y-73337000D01*
X99416183Y-73337000D01*
X99295042Y-73569026D01*
X96435000Y-73569026D01*
X96435000Y-70522401D01*
X99251400Y-70522401D01*
X99251400Y-70817599D01*
X99308990Y-71107125D01*
X99421958Y-71379853D01*
X99585961Y-71625302D01*
X99794698Y-71834039D01*
X99960103Y-71944559D01*
X99861512Y-72003183D01*
X99643146Y-72199707D01*
X99467316Y-72435056D01*
X99340778Y-72700186D01*
X99295042Y-72850974D01*
X99416183Y-73083000D01*
X100623000Y-73083000D01*
X100623000Y-73063000D01*
X100877000Y-73063000D01*
X100877000Y-73083000D01*
X103163000Y-73083000D01*
X103163000Y-73063000D01*
X103417000Y-73063000D01*
X103417000Y-73083000D01*
X104623817Y-73083000D01*
X104744958Y-72850974D01*
X104699222Y-72700186D01*
X104572684Y-72435056D01*
X104396854Y-72199707D01*
X104178488Y-72003183D01*
X104079897Y-71944559D01*
X104245302Y-71834039D01*
X104454039Y-71625302D01*
X104618042Y-71379853D01*
X104731010Y-71107125D01*
X104788600Y-70817599D01*
X104788600Y-70522401D01*
X104731010Y-70232875D01*
X104618042Y-69960147D01*
X104454039Y-69714698D01*
X104245302Y-69505961D01*
X103999853Y-69341958D01*
X103727125Y-69228990D01*
X103437599Y-69171400D01*
X103142401Y-69171400D01*
X102852875Y-69228990D01*
X102580147Y-69341958D01*
X102334698Y-69505961D01*
X102125961Y-69714698D01*
X102020000Y-69873281D01*
X101914039Y-69714698D01*
X101705302Y-69505961D01*
X101459853Y-69341958D01*
X101187125Y-69228990D01*
X100897599Y-69171400D01*
X100602401Y-69171400D01*
X100312875Y-69228990D01*
X100040147Y-69341958D01*
X99794698Y-69505961D01*
X99585961Y-69714698D01*
X99421958Y-69960147D01*
X99308990Y-70232875D01*
X99251400Y-70522401D01*
X96435000Y-70522401D01*
X96435000Y-68975117D01*
X107143000Y-68975117D01*
X107143000Y-69316883D01*
X107209675Y-69652081D01*
X107340463Y-69967831D01*
X107530337Y-70251998D01*
X107772002Y-70493663D01*
X108056169Y-70683537D01*
X108371919Y-70814325D01*
X108707117Y-70881000D01*
X109048883Y-70881000D01*
X109384081Y-70814325D01*
X109699831Y-70683537D01*
X109983998Y-70493663D01*
X110225663Y-70251998D01*
X110415537Y-69967831D01*
X110546325Y-69652081D01*
X110613000Y-69316883D01*
X110613000Y-68975117D01*
X110546325Y-68639919D01*
X110415537Y-68324169D01*
X110225663Y-68040002D01*
X109983998Y-67798337D01*
X109699831Y-67608463D01*
X109384081Y-67477675D01*
X109048883Y-67411000D01*
X108707117Y-67411000D01*
X108371919Y-67477675D01*
X108056169Y-67608463D01*
X107772002Y-67798337D01*
X107530337Y-68040002D01*
X107340463Y-68324169D01*
X107209675Y-68639919D01*
X107143000Y-68975117D01*
X96435000Y-68975117D01*
X96435000Y-61529872D01*
X97515000Y-61529872D01*
X97515000Y-61970128D01*
X97600890Y-62401925D01*
X97769369Y-62808669D01*
X98013962Y-63174729D01*
X98325271Y-63486038D01*
X98691331Y-63730631D01*
X99098075Y-63899110D01*
X99529872Y-63985000D01*
X99970128Y-63985000D01*
X100401925Y-63899110D01*
X100808669Y-63730631D01*
X101174729Y-63486038D01*
X101486038Y-63174729D01*
X101730631Y-62808669D01*
X101899110Y-62401925D01*
X101985000Y-61970128D01*
X101985000Y-61529872D01*
X101899110Y-61098075D01*
X101730631Y-60691331D01*
X101553343Y-60426000D01*
X107139928Y-60426000D01*
X107139928Y-62626000D01*
X107152188Y-62750482D01*
X107188498Y-62870180D01*
X107247463Y-62980494D01*
X107326815Y-63077185D01*
X107423506Y-63156537D01*
X107533820Y-63215502D01*
X107653518Y-63251812D01*
X107778000Y-63264072D01*
X109978000Y-63264072D01*
X110102482Y-63251812D01*
X110222180Y-63215502D01*
X110332494Y-63156537D01*
X110429185Y-63077185D01*
X110508537Y-62980494D01*
X110567502Y-62870180D01*
X110603812Y-62750482D01*
X110616072Y-62626000D01*
X110616072Y-61850512D01*
X112136783Y-61850512D01*
X112178213Y-62130130D01*
X112273397Y-62396292D01*
X112340329Y-62521514D01*
X112584298Y-62593097D01*
X113397395Y-61780000D01*
X112584298Y-60966903D01*
X112340329Y-61038486D01*
X112219429Y-61293996D01*
X112150700Y-61568184D01*
X112136783Y-61850512D01*
X110616072Y-61850512D01*
X110616072Y-60787298D01*
X112763903Y-60787298D01*
X113577000Y-61600395D01*
X113591143Y-61586253D01*
X113770748Y-61765858D01*
X113756605Y-61780000D01*
X113770748Y-61794143D01*
X113591143Y-61973748D01*
X113577000Y-61959605D01*
X112763903Y-62772702D01*
X112835486Y-63016671D01*
X113090996Y-63137571D01*
X113365184Y-63206300D01*
X113647512Y-63220217D01*
X113927130Y-63178787D01*
X114193292Y-63083603D01*
X114315309Y-63018384D01*
X114325815Y-63031185D01*
X114422506Y-63110537D01*
X114532820Y-63169502D01*
X114652518Y-63205812D01*
X114777000Y-63218072D01*
X116377000Y-63218072D01*
X116501482Y-63205812D01*
X116621180Y-63169502D01*
X116731494Y-63110537D01*
X116828185Y-63031185D01*
X116907537Y-62934494D01*
X116966502Y-62824180D01*
X117002812Y-62704482D01*
X117015072Y-62580000D01*
X117015072Y-60980000D01*
X117002812Y-60855518D01*
X116966502Y-60735820D01*
X116907537Y-60625506D01*
X116828185Y-60528815D01*
X116731494Y-60449463D01*
X116621180Y-60390498D01*
X116501482Y-60354188D01*
X116377000Y-60341928D01*
X114777000Y-60341928D01*
X114652518Y-60354188D01*
X114532820Y-60390498D01*
X114422506Y-60449463D01*
X114325815Y-60528815D01*
X114315193Y-60541758D01*
X114063004Y-60422429D01*
X113788816Y-60353700D01*
X113506488Y-60339783D01*
X113226870Y-60381213D01*
X112960708Y-60476397D01*
X112835486Y-60543329D01*
X112763903Y-60787298D01*
X110616072Y-60787298D01*
X110616072Y-60426000D01*
X110603812Y-60301518D01*
X110567502Y-60181820D01*
X110508537Y-60071506D01*
X110429185Y-59974815D01*
X110332494Y-59895463D01*
X110222180Y-59836498D01*
X110102482Y-59800188D01*
X109978000Y-59787928D01*
X107778000Y-59787928D01*
X107653518Y-59800188D01*
X107533820Y-59836498D01*
X107423506Y-59895463D01*
X107326815Y-59974815D01*
X107247463Y-60071506D01*
X107188498Y-60181820D01*
X107152188Y-60301518D01*
X107139928Y-60426000D01*
X101553343Y-60426000D01*
X101486038Y-60325271D01*
X101174729Y-60013962D01*
X100808669Y-59769369D01*
X100401925Y-59600890D01*
X99970128Y-59515000D01*
X99529872Y-59515000D01*
X99098075Y-59600890D01*
X98691331Y-59769369D01*
X98325271Y-60013962D01*
X98013962Y-60325271D01*
X97769369Y-60691331D01*
X97600890Y-61098075D01*
X97515000Y-61529872D01*
X96435000Y-61529872D01*
X96435000Y-58435000D01*
X125065000Y-58435000D01*
X125065001Y-141665000D01*
%TA.AperFunction,Conductor*%
D28*
G36*
X125065001Y-141665000D02*
G01*
X96435000Y-141665000D01*
X96435000Y-140620000D01*
X119011928Y-140620000D01*
X119024188Y-140744482D01*
X119060498Y-140864180D01*
X119119463Y-140974494D01*
X119198815Y-141071185D01*
X119295506Y-141150537D01*
X119405820Y-141209502D01*
X119525518Y-141245812D01*
X119650000Y-141258072D01*
X120464250Y-141255000D01*
X120623000Y-141096250D01*
X120623000Y-139877000D01*
X120877000Y-139877000D01*
X120877000Y-141096250D01*
X121035750Y-141255000D01*
X121850000Y-141258072D01*
X121974482Y-141245812D01*
X122094180Y-141209502D01*
X122204494Y-141150537D01*
X122301185Y-141071185D01*
X122380537Y-140974494D01*
X122439502Y-140864180D01*
X122475812Y-140744482D01*
X122488072Y-140620000D01*
X122485000Y-140035750D01*
X122326250Y-139877000D01*
X120877000Y-139877000D01*
X120623000Y-139877000D01*
X119173750Y-139877000D01*
X119015000Y-140035750D01*
X119011928Y-140620000D01*
X96435000Y-140620000D01*
X96435000Y-138129872D01*
X97515000Y-138129872D01*
X97515000Y-138570128D01*
X97600890Y-139001925D01*
X97769369Y-139408669D01*
X98013962Y-139774729D01*
X98325271Y-140086038D01*
X98691331Y-140330631D01*
X99098075Y-140499110D01*
X99529872Y-140585000D01*
X99970128Y-140585000D01*
X100401925Y-140499110D01*
X100808669Y-140330631D01*
X101174729Y-140086038D01*
X101486038Y-139774729D01*
X101730631Y-139408669D01*
X101899110Y-139001925D01*
X101985000Y-138570128D01*
X101985000Y-138129872D01*
X101899110Y-137698075D01*
X101730631Y-137291331D01*
X101676288Y-137210000D01*
X119007718Y-137210000D01*
X119036776Y-137505032D01*
X119122834Y-137788725D01*
X119262583Y-138050179D01*
X119449047Y-138277385D01*
X119405820Y-138290498D01*
X119295506Y-138349463D01*
X119198815Y-138428815D01*
X119119463Y-138525506D01*
X119060498Y-138635820D01*
X119024188Y-138755518D01*
X119011928Y-138880000D01*
X119015000Y-139464250D01*
X119173750Y-139623000D01*
X120623000Y-139623000D01*
X120623000Y-139603000D01*
X120877000Y-139603000D01*
X120877000Y-139623000D01*
X122326250Y-139623000D01*
X122485000Y-139464250D01*
X122488072Y-138880000D01*
X122475812Y-138755518D01*
X122439502Y-138635820D01*
X122380537Y-138525506D01*
X122301185Y-138428815D01*
X122204494Y-138349463D01*
X122094180Y-138290498D01*
X122050953Y-138277385D01*
X122237417Y-138050179D01*
X122377166Y-137788725D01*
X122463224Y-137505032D01*
X122492282Y-137210000D01*
X122463224Y-136914968D01*
X122377166Y-136631275D01*
X122237417Y-136369821D01*
X122049345Y-136140655D01*
X121820179Y-135952583D01*
X121558725Y-135812834D01*
X121275032Y-135726776D01*
X121053936Y-135705000D01*
X120446064Y-135705000D01*
X120224968Y-135726776D01*
X119941275Y-135812834D01*
X119679821Y-135952583D01*
X119450655Y-136140655D01*
X119262583Y-136369821D01*
X119122834Y-136631275D01*
X119036776Y-136914968D01*
X119007718Y-137210000D01*
X101676288Y-137210000D01*
X101486038Y-136925271D01*
X101174729Y-136613962D01*
X100808669Y-136369369D01*
X100401925Y-136200890D01*
X99970128Y-136115000D01*
X99529872Y-136115000D01*
X99098075Y-136200890D01*
X98691331Y-136369369D01*
X98325271Y-136613962D01*
X98013962Y-136925271D01*
X97769369Y-137291331D01*
X97600890Y-137698075D01*
X97515000Y-138129872D01*
X96435000Y-138129872D01*
X96435000Y-134608665D01*
X108815000Y-134608665D01*
X108815000Y-134891335D01*
X108870147Y-135168574D01*
X108978320Y-135429727D01*
X109135363Y-135664759D01*
X109335241Y-135864637D01*
X109570273Y-136021680D01*
X109831426Y-136129853D01*
X110108665Y-136185000D01*
X110391335Y-136185000D01*
X110668574Y-136129853D01*
X110929727Y-136021680D01*
X111164759Y-135864637D01*
X111364637Y-135664759D01*
X111500000Y-135462173D01*
X111635363Y-135664759D01*
X111835241Y-135864637D01*
X112070273Y-136021680D01*
X112331426Y-136129853D01*
X112608665Y-136185000D01*
X112891335Y-136185000D01*
X113168574Y-136129853D01*
X113429727Y-136021680D01*
X113664759Y-135864637D01*
X113864637Y-135664759D01*
X114021680Y-135429727D01*
X114129853Y-135168574D01*
X114185000Y-134891335D01*
X114185000Y-134608665D01*
X114129853Y-134331426D01*
X114021680Y-134070273D01*
X113864637Y-133835241D01*
X113664759Y-133635363D01*
X113429727Y-133478320D01*
X113168574Y-133370147D01*
X112891335Y-133315000D01*
X112608665Y-133315000D01*
X112331426Y-133370147D01*
X112070273Y-133478320D01*
X111835241Y-133635363D01*
X111635363Y-133835241D01*
X111500000Y-134037827D01*
X111364637Y-133835241D01*
X111164759Y-133635363D01*
X110929727Y-133478320D01*
X110668574Y-133370147D01*
X110391335Y-133315000D01*
X110108665Y-133315000D01*
X109831426Y-133370147D01*
X109570273Y-133478320D01*
X109335241Y-133635363D01*
X109135363Y-133835241D01*
X108978320Y-134070273D01*
X108870147Y-134331426D01*
X108815000Y-134608665D01*
X96435000Y-134608665D01*
X96435000Y-131108665D01*
X104565000Y-131108665D01*
X104565000Y-131391335D01*
X104620147Y-131668574D01*
X104728320Y-131929727D01*
X104885363Y-132164759D01*
X105085241Y-132364637D01*
X105320273Y-132521680D01*
X105581426Y-132629853D01*
X105858665Y-132685000D01*
X106141335Y-132685000D01*
X106418574Y-132629853D01*
X106679727Y-132521680D01*
X106914759Y-132364637D01*
X107036694Y-132242702D01*
X109706903Y-132242702D01*
X109778486Y-132486671D01*
X110033996Y-132607571D01*
X110308184Y-132676300D01*
X110590512Y-132690217D01*
X110870130Y-132648787D01*
X111136292Y-132553603D01*
X111261514Y-132486671D01*
X111333097Y-132242702D01*
X110520000Y-131429605D01*
X109706903Y-132242702D01*
X107036694Y-132242702D01*
X107114637Y-132164759D01*
X107271680Y-131929727D01*
X107379853Y-131668574D01*
X107435000Y-131391335D01*
X107435000Y-131320512D01*
X109079783Y-131320512D01*
X109121213Y-131600130D01*
X109216397Y-131866292D01*
X109283329Y-131991514D01*
X109527298Y-132063097D01*
X110340395Y-131250000D01*
X110699605Y-131250000D01*
X111512702Y-132063097D01*
X111756671Y-131991514D01*
X111877571Y-131736004D01*
X111946300Y-131461816D01*
X111960217Y-131179488D01*
X111949724Y-131108665D01*
X113565000Y-131108665D01*
X113565000Y-131391335D01*
X113620147Y-131668574D01*
X113728320Y-131929727D01*
X113885363Y-132164759D01*
X114085241Y-132364637D01*
X114320273Y-132521680D01*
X114581426Y-132629853D01*
X114858665Y-132685000D01*
X115141335Y-132685000D01*
X115418574Y-132629853D01*
X115679727Y-132521680D01*
X115914759Y-132364637D01*
X116114637Y-132164759D01*
X116271680Y-131929727D01*
X116379853Y-131668574D01*
X116435000Y-131391335D01*
X116435000Y-131108665D01*
X116379853Y-130831426D01*
X116271680Y-130570273D01*
X116114637Y-130335241D01*
X115914759Y-130135363D01*
X115679727Y-129978320D01*
X115418574Y-129870147D01*
X115141335Y-129815000D01*
X114858665Y-129815000D01*
X114581426Y-129870147D01*
X114320273Y-129978320D01*
X114085241Y-130135363D01*
X113885363Y-130335241D01*
X113728320Y-130570273D01*
X113620147Y-130831426D01*
X113565000Y-131108665D01*
X111949724Y-131108665D01*
X111918787Y-130899870D01*
X111823603Y-130633708D01*
X111756671Y-130508486D01*
X111512702Y-130436903D01*
X110699605Y-131250000D01*
X110340395Y-131250000D01*
X109527298Y-130436903D01*
X109283329Y-130508486D01*
X109162429Y-130763996D01*
X109093700Y-131038184D01*
X109079783Y-131320512D01*
X107435000Y-131320512D01*
X107435000Y-131108665D01*
X107379853Y-130831426D01*
X107271680Y-130570273D01*
X107114637Y-130335241D01*
X107036694Y-130257298D01*
X109706903Y-130257298D01*
X110520000Y-131070395D01*
X111333097Y-130257298D01*
X111261514Y-130013329D01*
X111006004Y-129892429D01*
X110731816Y-129823700D01*
X110449488Y-129809783D01*
X110169870Y-129851213D01*
X109903708Y-129946397D01*
X109778486Y-130013329D01*
X109706903Y-130257298D01*
X107036694Y-130257298D01*
X106914759Y-130135363D01*
X106679727Y-129978320D01*
X106418574Y-129870147D01*
X106141335Y-129815000D01*
X105858665Y-129815000D01*
X105581426Y-129870147D01*
X105320273Y-129978320D01*
X105085241Y-130135363D01*
X104885363Y-130335241D01*
X104728320Y-130570273D01*
X104620147Y-130831426D01*
X104565000Y-131108665D01*
X96435000Y-131108665D01*
X96435000Y-123979040D01*
X104608091Y-123979040D01*
X104702930Y-124243881D01*
X104847615Y-124485131D01*
X105036586Y-124693519D01*
X105262580Y-124861037D01*
X105516913Y-124981246D01*
X105650961Y-125021904D01*
X105873000Y-124899915D01*
X105873000Y-123757000D01*
X106127000Y-123757000D01*
X106127000Y-124899915D01*
X106349039Y-125021904D01*
X106483087Y-124981246D01*
X106737420Y-124861037D01*
X106963414Y-124693519D01*
X107152385Y-124485131D01*
X107297070Y-124243881D01*
X107391909Y-123979040D01*
X107270624Y-123757000D01*
X106127000Y-123757000D01*
X105873000Y-123757000D01*
X104729376Y-123757000D01*
X104608091Y-123979040D01*
X96435000Y-123979040D01*
X96435000Y-123280960D01*
X104608091Y-123280960D01*
X104729376Y-123503000D01*
X105873000Y-123503000D01*
X105873000Y-122360085D01*
X106127000Y-122360085D01*
X106127000Y-123503000D01*
X107270624Y-123503000D01*
X107391909Y-123280960D01*
X107297070Y-123016119D01*
X107152385Y-122774869D01*
X106963414Y-122566481D01*
X106737420Y-122398963D01*
X106483087Y-122278754D01*
X106349039Y-122238096D01*
X106127000Y-122360085D01*
X105873000Y-122360085D01*
X105650961Y-122238096D01*
X105516913Y-122278754D01*
X105262580Y-122398963D01*
X105036586Y-122566481D01*
X104847615Y-122774869D01*
X104702930Y-123016119D01*
X104608091Y-123280960D01*
X96435000Y-123280960D01*
X96435000Y-119108665D01*
X101315000Y-119108665D01*
X101315000Y-119391335D01*
X101370147Y-119668574D01*
X101478320Y-119929727D01*
X101635363Y-120164759D01*
X101835241Y-120364637D01*
X102070273Y-120521680D01*
X102331426Y-120629853D01*
X102608665Y-120685000D01*
X102891335Y-120685000D01*
X103168574Y-120629853D01*
X103429727Y-120521680D01*
X103664759Y-120364637D01*
X103769396Y-120260000D01*
X104988795Y-120260000D01*
X105068691Y-120284236D01*
X105279508Y-120305000D01*
X106220492Y-120305000D01*
X106431309Y-120284236D01*
X106701808Y-120202182D01*
X106951101Y-120068932D01*
X107169608Y-119889608D01*
X107348932Y-119671101D01*
X107482182Y-119421808D01*
X107564236Y-119151309D01*
X107583717Y-118953520D01*
X110865883Y-122235688D01*
X110661335Y-122195000D01*
X110378665Y-122195000D01*
X110101426Y-122250147D01*
X109840273Y-122358320D01*
X109605241Y-122515363D01*
X109405363Y-122715241D01*
X109248320Y-122950273D01*
X109140147Y-123211426D01*
X109085000Y-123488665D01*
X109085000Y-123771335D01*
X109140147Y-124048574D01*
X109248320Y-124309727D01*
X109405363Y-124544759D01*
X109605241Y-124744637D01*
X109840273Y-124901680D01*
X110101426Y-125009853D01*
X110378665Y-125065000D01*
X110661335Y-125065000D01*
X110938574Y-125009853D01*
X111199727Y-124901680D01*
X111434759Y-124744637D01*
X111634637Y-124544759D01*
X111740000Y-124387072D01*
X111740000Y-124462677D01*
X111736324Y-124500000D01*
X111740000Y-124537322D01*
X111740000Y-124537332D01*
X111750997Y-124648985D01*
X111789533Y-124776023D01*
X111794454Y-124792246D01*
X111865026Y-124924276D01*
X111865628Y-124925009D01*
X111959999Y-125040001D01*
X111989002Y-125063804D01*
X114106205Y-127181008D01*
X114129999Y-127210001D01*
X114158992Y-127233795D01*
X114158996Y-127233799D01*
X114177184Y-127248725D01*
X114245724Y-127304974D01*
X114377753Y-127375546D01*
X114521014Y-127419003D01*
X114632667Y-127430000D01*
X114632676Y-127430000D01*
X114669999Y-127433676D01*
X114707322Y-127430000D01*
X119219727Y-127430000D01*
X119262583Y-127510179D01*
X119450655Y-127739345D01*
X119679821Y-127927417D01*
X119703362Y-127940000D01*
X119679821Y-127952583D01*
X119450655Y-128140655D01*
X119262583Y-128369821D01*
X119122834Y-128631275D01*
X119036776Y-128914968D01*
X119007718Y-129210000D01*
X119036776Y-129505032D01*
X119122834Y-129788725D01*
X119262583Y-130050179D01*
X119450655Y-130279345D01*
X119516114Y-130333066D01*
X119406613Y-130391595D01*
X119272038Y-130502038D01*
X119161595Y-130636613D01*
X119079528Y-130790149D01*
X119028992Y-130956745D01*
X119011928Y-131129999D01*
X119011928Y-132370001D01*
X119028992Y-132543255D01*
X119079528Y-132709851D01*
X119161595Y-132863387D01*
X119272038Y-132997962D01*
X119406613Y-133108405D01*
X119560149Y-133190472D01*
X119726745Y-133241008D01*
X119899999Y-133258072D01*
X121600001Y-133258072D01*
X121773255Y-133241008D01*
X121939851Y-133190472D01*
X122093387Y-133108405D01*
X122227962Y-132997962D01*
X122338405Y-132863387D01*
X122420472Y-132709851D01*
X122471008Y-132543255D01*
X122488072Y-132370001D01*
X122488072Y-131129999D01*
X122484192Y-131090609D01*
X122936014Y-130638788D01*
X122965011Y-130614991D01*
X123059984Y-130499266D01*
X123130556Y-130367237D01*
X123174013Y-130223976D01*
X123185010Y-130112323D01*
X123185010Y-130112313D01*
X123188686Y-130074990D01*
X123185010Y-130037667D01*
X123185010Y-124962332D01*
X123188686Y-124925009D01*
X123185010Y-124887686D01*
X123185010Y-124887677D01*
X123174013Y-124776024D01*
X123130556Y-124632763D01*
X123059984Y-124500733D01*
X122988809Y-124414007D01*
X122965011Y-124385009D01*
X122936013Y-124361211D01*
X120659195Y-122084393D01*
X120846011Y-122161775D01*
X121113589Y-122215000D01*
X121386411Y-122215000D01*
X121653989Y-122161775D01*
X121906043Y-122057371D01*
X122132886Y-121905799D01*
X122325799Y-121712886D01*
X122477371Y-121486043D01*
X122581775Y-121233989D01*
X122635000Y-120966411D01*
X122635000Y-120693589D01*
X122581775Y-120426011D01*
X122477371Y-120173957D01*
X122325799Y-119947114D01*
X122132886Y-119754201D01*
X121906043Y-119602629D01*
X121803127Y-119560000D01*
X121906043Y-119517371D01*
X122132886Y-119365799D01*
X122325799Y-119172886D01*
X122477371Y-118946043D01*
X122581775Y-118693989D01*
X122635000Y-118426411D01*
X122635000Y-118153589D01*
X122581775Y-117886011D01*
X122477371Y-117633957D01*
X122325799Y-117407114D01*
X122132886Y-117214201D01*
X122016517Y-117136445D01*
X122124482Y-117125812D01*
X122244180Y-117089502D01*
X122354494Y-117030537D01*
X122451185Y-116951185D01*
X122530537Y-116854494D01*
X122589502Y-116744180D01*
X122625812Y-116624482D01*
X122638072Y-116500000D01*
X122638072Y-115000000D01*
X122625812Y-114875518D01*
X122589502Y-114755820D01*
X122530537Y-114645506D01*
X122451185Y-114548815D01*
X122354494Y-114469463D01*
X122244180Y-114410498D01*
X122124482Y-114374188D01*
X122000000Y-114361928D01*
X120500000Y-114361928D01*
X120375518Y-114374188D01*
X120255820Y-114410498D01*
X120145506Y-114469463D01*
X120048815Y-114548815D01*
X119969463Y-114645506D01*
X119910498Y-114755820D01*
X119874188Y-114875518D01*
X119861928Y-115000000D01*
X119861928Y-116500000D01*
X119874188Y-116624482D01*
X119910498Y-116744180D01*
X119969463Y-116854494D01*
X120048815Y-116951185D01*
X120145506Y-117030537D01*
X120255820Y-117089502D01*
X120375518Y-117125812D01*
X120483483Y-117136445D01*
X120367114Y-117214201D01*
X120174201Y-117407114D01*
X120022629Y-117633957D01*
X119918225Y-117886011D01*
X119865000Y-118153589D01*
X119865000Y-118426411D01*
X119918225Y-118693989D01*
X120022629Y-118946043D01*
X120174201Y-119172886D01*
X120367114Y-119365799D01*
X120593957Y-119517371D01*
X120696873Y-119560000D01*
X120593957Y-119602629D01*
X120367114Y-119754201D01*
X120174201Y-119947114D01*
X120022629Y-120173957D01*
X119918225Y-120426011D01*
X119865000Y-120693589D01*
X119865000Y-120966411D01*
X119918225Y-121233989D01*
X119995607Y-121420805D01*
X118760000Y-120185199D01*
X118760000Y-115537322D01*
X118763676Y-115499999D01*
X118760000Y-115462676D01*
X118760000Y-115462667D01*
X118749003Y-115351014D01*
X118705546Y-115207753D01*
X118634974Y-115075724D01*
X118540001Y-114959999D01*
X118511004Y-114936202D01*
X117898688Y-114323886D01*
X117935000Y-114141335D01*
X117935000Y-113858665D01*
X117879853Y-113581426D01*
X117771680Y-113320273D01*
X117614637Y-113085241D01*
X117510000Y-112980604D01*
X117510000Y-108739604D01*
X117514886Y-108689999D01*
X117508484Y-108625000D01*
X117495385Y-108492006D01*
X117437632Y-108301620D01*
X117343847Y-108126160D01*
X117217633Y-107972367D01*
X117179094Y-107940739D01*
X116948355Y-107710000D01*
X119007718Y-107710000D01*
X119036776Y-108005032D01*
X119122834Y-108288725D01*
X119262583Y-108550179D01*
X119450655Y-108779345D01*
X119516114Y-108833066D01*
X119406613Y-108891595D01*
X119272038Y-109002038D01*
X119161595Y-109136613D01*
X119079528Y-109290149D01*
X119028992Y-109456745D01*
X119011928Y-109629999D01*
X119011928Y-110870001D01*
X119028992Y-111043255D01*
X119079528Y-111209851D01*
X119161595Y-111363387D01*
X119272038Y-111497962D01*
X119406613Y-111608405D01*
X119560149Y-111690472D01*
X119726745Y-111741008D01*
X119899999Y-111758072D01*
X121600001Y-111758072D01*
X121773255Y-111741008D01*
X121939851Y-111690472D01*
X122093387Y-111608405D01*
X122227962Y-111497962D01*
X122338405Y-111363387D01*
X122420472Y-111209851D01*
X122471008Y-111043255D01*
X122488072Y-110870001D01*
X122488072Y-109629999D01*
X122471008Y-109456745D01*
X122420472Y-109290149D01*
X122338405Y-109136613D01*
X122227962Y-109002038D01*
X122093387Y-108891595D01*
X121983886Y-108833066D01*
X122049345Y-108779345D01*
X122237417Y-108550179D01*
X122377166Y-108288725D01*
X122463224Y-108005032D01*
X122492282Y-107710000D01*
X122463224Y-107414968D01*
X122377166Y-107131275D01*
X122237417Y-106869821D01*
X122049345Y-106640655D01*
X121820179Y-106452583D01*
X121558725Y-106312834D01*
X121275032Y-106226776D01*
X121053936Y-106205000D01*
X120446064Y-106205000D01*
X120224968Y-106226776D01*
X119941275Y-106312834D01*
X119679821Y-106452583D01*
X119450655Y-106640655D01*
X119262583Y-106869821D01*
X119122834Y-107131275D01*
X119036776Y-107414968D01*
X119007718Y-107710000D01*
X116948355Y-107710000D01*
X116435000Y-107196645D01*
X116435000Y-107048665D01*
X116415869Y-106952487D01*
X118179100Y-105189256D01*
X118217633Y-105157633D01*
X118343847Y-105003840D01*
X118437632Y-104828380D01*
X118495385Y-104637994D01*
X118510000Y-104489608D01*
X118514886Y-104440000D01*
X118510000Y-104390392D01*
X118510000Y-97668355D01*
X119810153Y-96368203D01*
X119947503Y-96573762D01*
X120136238Y-96762497D01*
X120358167Y-96910785D01*
X120525266Y-96980000D01*
X120358167Y-97049215D01*
X120136238Y-97197503D01*
X119947503Y-97386238D01*
X119799215Y-97608167D01*
X119697072Y-97854761D01*
X119645000Y-98116544D01*
X119645000Y-98383456D01*
X119697072Y-98645239D01*
X119799215Y-98891833D01*
X119947503Y-99113762D01*
X120136238Y-99302497D01*
X120358167Y-99450785D01*
X120525266Y-99520000D01*
X120358167Y-99589215D01*
X120136238Y-99737503D01*
X119947503Y-99926238D01*
X119799215Y-100148167D01*
X119697072Y-100394761D01*
X119645000Y-100656544D01*
X119645000Y-100923456D01*
X119697072Y-101185239D01*
X119799215Y-101431833D01*
X119947503Y-101653762D01*
X120136238Y-101842497D01*
X120358167Y-101990785D01*
X120604761Y-102092928D01*
X120866544Y-102145000D01*
X121133456Y-102145000D01*
X121395239Y-102092928D01*
X121641833Y-101990785D01*
X121863762Y-101842497D01*
X122052497Y-101653762D01*
X122200785Y-101431833D01*
X122302928Y-101185239D01*
X122355000Y-100923456D01*
X122355000Y-100656544D01*
X122302928Y-100394761D01*
X122200785Y-100148167D01*
X122052497Y-99926238D01*
X121863762Y-99737503D01*
X121641833Y-99589215D01*
X121474734Y-99520000D01*
X121641833Y-99450785D01*
X121863762Y-99302497D01*
X122052497Y-99113762D01*
X122200785Y-98891833D01*
X122302928Y-98645239D01*
X122355000Y-98383456D01*
X122355000Y-98116544D01*
X122302928Y-97854761D01*
X122200785Y-97608167D01*
X122052497Y-97386238D01*
X121863762Y-97197503D01*
X121641833Y-97049215D01*
X121474734Y-96980000D01*
X121641833Y-96910785D01*
X121863762Y-96762497D01*
X122052497Y-96573762D01*
X122200785Y-96351833D01*
X122302928Y-96105239D01*
X122355000Y-95843456D01*
X122355000Y-95576544D01*
X122302928Y-95314761D01*
X122200785Y-95068167D01*
X122052497Y-94846238D01*
X121863762Y-94657503D01*
X121658203Y-94520153D01*
X122685101Y-93493255D01*
X122723634Y-93461632D01*
X122849848Y-93307839D01*
X122943633Y-93132379D01*
X123001386Y-92941993D01*
X123016001Y-92793607D01*
X123020887Y-92743999D01*
X123016001Y-92694391D01*
X123016001Y-72624605D01*
X123020887Y-72575000D01*
X123016001Y-72525393D01*
X123001386Y-72377007D01*
X122943633Y-72186621D01*
X122849848Y-72011161D01*
X122723634Y-71857368D01*
X122685095Y-71825740D01*
X122069072Y-71209717D01*
X122069072Y-69500000D01*
X122056812Y-69375518D01*
X122020502Y-69255820D01*
X121961537Y-69145506D01*
X121882185Y-69048815D01*
X121785494Y-68969463D01*
X121675180Y-68910498D01*
X121555482Y-68874188D01*
X121431000Y-68861928D01*
X118931000Y-68861928D01*
X118806518Y-68874188D01*
X118686820Y-68910498D01*
X118576506Y-68969463D01*
X118479815Y-69048815D01*
X118400463Y-69145506D01*
X118341498Y-69255820D01*
X118305188Y-69375518D01*
X118292928Y-69500000D01*
X118292928Y-72000000D01*
X118305188Y-72124482D01*
X118341498Y-72244180D01*
X118400463Y-72354494D01*
X118479815Y-72451185D01*
X118576506Y-72530537D01*
X118686820Y-72589502D01*
X118806518Y-72625812D01*
X118931000Y-72638072D01*
X120640717Y-72638072D01*
X120996001Y-72993356D01*
X120996001Y-74050026D01*
X120856874Y-73980567D01*
X120498688Y-73882710D01*
X120128294Y-73856611D01*
X119759925Y-73903275D01*
X119407738Y-74020906D01*
X119172914Y-74146423D01*
X119047000Y-74436395D01*
X120181000Y-75570395D01*
X120195143Y-75556253D01*
X120374748Y-75735858D01*
X120360605Y-75750000D01*
X120374748Y-75764143D01*
X120195143Y-75943748D01*
X120181000Y-75929605D01*
X119047000Y-77063605D01*
X119172914Y-77353577D01*
X119505126Y-77519433D01*
X119863312Y-77617290D01*
X120233706Y-77643389D01*
X120602075Y-77596725D01*
X120954262Y-77479094D01*
X120996001Y-77456784D01*
X120996001Y-79047275D01*
X120730834Y-78937439D01*
X120366656Y-78865000D01*
X119995344Y-78865000D01*
X119631166Y-78937439D01*
X119288118Y-79079534D01*
X118979382Y-79285825D01*
X118716825Y-79548382D01*
X118510534Y-79857118D01*
X118368439Y-80200166D01*
X118296000Y-80564344D01*
X118296000Y-80935656D01*
X118368439Y-81299834D01*
X118510534Y-81642882D01*
X118716825Y-81951618D01*
X118979382Y-82214175D01*
X119288118Y-82420466D01*
X119631166Y-82562561D01*
X119995344Y-82635000D01*
X120366656Y-82635000D01*
X120730834Y-82562561D01*
X120996001Y-82452725D01*
X120996002Y-92325642D01*
X116820906Y-96500739D01*
X116782367Y-96532367D01*
X116656153Y-96686160D01*
X116562369Y-96861620D01*
X116562368Y-96861621D01*
X116504615Y-97052006D01*
X116485114Y-97250000D01*
X116490000Y-97299608D01*
X116490001Y-104021643D01*
X114731312Y-105780332D01*
X114581426Y-105810147D01*
X114320273Y-105918320D01*
X114085241Y-106075363D01*
X113885363Y-106275241D01*
X113728320Y-106510273D01*
X113620147Y-106771426D01*
X113565000Y-107048665D01*
X113565000Y-107331335D01*
X113620147Y-107608574D01*
X113728320Y-107869727D01*
X113885363Y-108104759D01*
X114085241Y-108304637D01*
X114320273Y-108461680D01*
X114581426Y-108569853D01*
X114858665Y-108625000D01*
X115006645Y-108625000D01*
X115490000Y-109108355D01*
X115490001Y-112780000D01*
X114797493Y-112780000D01*
X114789608Y-112770392D01*
X114571101Y-112591068D01*
X114438142Y-112520000D01*
X114571101Y-112448932D01*
X114789608Y-112269608D01*
X114968932Y-112051101D01*
X115102182Y-111801808D01*
X115184236Y-111531309D01*
X115211943Y-111250000D01*
X115184236Y-110968691D01*
X115102182Y-110698192D01*
X114968932Y-110448899D01*
X114789608Y-110230392D01*
X114571101Y-110051068D01*
X114321808Y-109917818D01*
X114051309Y-109835764D01*
X113840492Y-109815000D01*
X112899508Y-109815000D01*
X112688691Y-109835764D01*
X112418192Y-109917818D01*
X112168899Y-110051068D01*
X111950392Y-110230392D01*
X111771068Y-110448899D01*
X111637818Y-110698192D01*
X111555764Y-110968691D01*
X111528057Y-111250000D01*
X111555764Y-111531309D01*
X111637818Y-111801808D01*
X111771068Y-112051101D01*
X111950392Y-112269608D01*
X112168899Y-112448932D01*
X112301858Y-112520000D01*
X112168899Y-112591068D01*
X111950392Y-112770392D01*
X111771068Y-112988899D01*
X111637818Y-113238192D01*
X111555764Y-113508691D01*
X111528057Y-113790000D01*
X111555764Y-114071309D01*
X111637818Y-114341808D01*
X111771068Y-114591101D01*
X111950392Y-114809608D01*
X112168899Y-114988932D01*
X112301858Y-115060000D01*
X112168899Y-115131068D01*
X111950392Y-115310392D01*
X111771068Y-115528899D01*
X111637818Y-115778192D01*
X111555764Y-116048691D01*
X111528057Y-116330000D01*
X111555764Y-116611309D01*
X111637818Y-116881808D01*
X111771068Y-117131101D01*
X111950392Y-117349608D01*
X112168899Y-117528932D01*
X112301858Y-117600000D01*
X112168899Y-117671068D01*
X111950392Y-117850392D01*
X111771068Y-118068899D01*
X111637818Y-118318192D01*
X111555764Y-118588691D01*
X111528057Y-118870000D01*
X111555764Y-119151309D01*
X111637818Y-119421808D01*
X111771068Y-119671101D01*
X111950392Y-119889608D01*
X112168899Y-120068932D01*
X112418192Y-120202182D01*
X112688691Y-120284236D01*
X112899508Y-120305000D01*
X113840492Y-120305000D01*
X114051309Y-120284236D01*
X114321808Y-120202182D01*
X114571101Y-120068932D01*
X114789608Y-119889608D01*
X114968932Y-119671101D01*
X115102182Y-119421808D01*
X115184236Y-119151309D01*
X115211943Y-118870000D01*
X115184236Y-118588691D01*
X115102182Y-118318192D01*
X114968932Y-118068899D01*
X114789608Y-117850392D01*
X114571101Y-117671068D01*
X114438142Y-117600000D01*
X114571101Y-117528932D01*
X114789608Y-117349608D01*
X114968932Y-117131101D01*
X115102182Y-116881808D01*
X115106936Y-116866134D01*
X115196397Y-117116292D01*
X115263329Y-117241514D01*
X115507298Y-117313097D01*
X116320395Y-116500000D01*
X115507298Y-115686903D01*
X115263329Y-115758486D01*
X115161491Y-115973710D01*
X115102182Y-115778192D01*
X114968932Y-115528899D01*
X114789608Y-115310392D01*
X114571101Y-115131068D01*
X114438142Y-115060000D01*
X114571101Y-114988932D01*
X114789608Y-114809608D01*
X114797493Y-114800000D01*
X115308684Y-114800000D01*
X115385363Y-114914759D01*
X115585241Y-115114637D01*
X115785869Y-115248692D01*
X115758486Y-115263329D01*
X115686903Y-115507298D01*
X116500000Y-116320395D01*
X116514143Y-116306253D01*
X116693748Y-116485858D01*
X116679605Y-116500000D01*
X116693748Y-116514143D01*
X116514143Y-116693748D01*
X116500000Y-116679605D01*
X115686903Y-117492702D01*
X115758486Y-117736671D01*
X116013996Y-117857571D01*
X116288184Y-117926300D01*
X116570512Y-117940217D01*
X116850130Y-117898787D01*
X117116292Y-117803603D01*
X117240000Y-117737480D01*
X117240001Y-120065197D01*
X115110199Y-122195000D01*
X114858665Y-122195000D01*
X114581426Y-122250147D01*
X114320273Y-122358320D01*
X114085241Y-122515363D01*
X113885363Y-122715241D01*
X113728320Y-122950273D01*
X113620147Y-123211426D01*
X113565000Y-123488665D01*
X113565000Y-123771335D01*
X113620147Y-124048574D01*
X113728320Y-124309727D01*
X113885363Y-124544759D01*
X114085241Y-124744637D01*
X114320273Y-124901680D01*
X114581426Y-125009853D01*
X114858665Y-125065000D01*
X115141335Y-125065000D01*
X115418574Y-125009853D01*
X115679727Y-124901680D01*
X115914759Y-124744637D01*
X116114637Y-124544759D01*
X116271680Y-124309727D01*
X116379853Y-124048574D01*
X116435000Y-123771335D01*
X116435000Y-123488665D01*
X116379853Y-123211426D01*
X116339880Y-123114922D01*
X117940000Y-121514801D01*
X121665011Y-125239813D01*
X121665011Y-125329645D01*
X121558725Y-125272834D01*
X121275032Y-125186776D01*
X121053936Y-125165000D01*
X120446064Y-125165000D01*
X120224968Y-125186776D01*
X119941275Y-125272834D01*
X119679821Y-125412583D01*
X119450655Y-125600655D01*
X119262583Y-125829821D01*
X119219727Y-125910000D01*
X114984803Y-125910000D01*
X113260000Y-124185199D01*
X113260000Y-122832324D01*
X113263676Y-122795001D01*
X113260000Y-122757678D01*
X113260000Y-122757669D01*
X113249003Y-122646016D01*
X113205546Y-122502755D01*
X113134974Y-122370726D01*
X113121811Y-122354687D01*
X113063799Y-122283998D01*
X113063795Y-122283994D01*
X113040001Y-122255001D01*
X113011008Y-122231207D01*
X108414077Y-117634278D01*
X108429094Y-117619261D01*
X108467633Y-117587633D01*
X108593847Y-117433840D01*
X108687632Y-117258380D01*
X108711188Y-117180726D01*
X108745385Y-117067995D01*
X108764886Y-116870000D01*
X108760000Y-116820392D01*
X108760000Y-107048665D01*
X109085000Y-107048665D01*
X109085000Y-107331335D01*
X109140147Y-107608574D01*
X109248320Y-107869727D01*
X109405363Y-108104759D01*
X109605241Y-108304637D01*
X109840273Y-108461680D01*
X110101426Y-108569853D01*
X110378665Y-108625000D01*
X110661335Y-108625000D01*
X110938574Y-108569853D01*
X111199727Y-108461680D01*
X111434759Y-108304637D01*
X111634637Y-108104759D01*
X111791680Y-107869727D01*
X111899853Y-107608574D01*
X111955000Y-107331335D01*
X111955000Y-107048665D01*
X111899853Y-106771426D01*
X111791680Y-106510273D01*
X111634637Y-106275241D01*
X111434759Y-106075363D01*
X111199727Y-105918320D01*
X110938574Y-105810147D01*
X110661335Y-105755000D01*
X110378665Y-105755000D01*
X110101426Y-105810147D01*
X109840273Y-105918320D01*
X109605241Y-106075363D01*
X109405363Y-106275241D01*
X109248320Y-106510273D01*
X109140147Y-106771426D01*
X109085000Y-107048665D01*
X108760000Y-107048665D01*
X108760000Y-99428665D01*
X109085000Y-99428665D01*
X109085000Y-99711335D01*
X109140147Y-99988574D01*
X109248320Y-100249727D01*
X109405363Y-100484759D01*
X109605241Y-100684637D01*
X109840273Y-100841680D01*
X110101426Y-100949853D01*
X110378665Y-101005000D01*
X110661335Y-101005000D01*
X110938574Y-100949853D01*
X111199727Y-100841680D01*
X111434759Y-100684637D01*
X111634637Y-100484759D01*
X111791680Y-100249727D01*
X111899853Y-99988574D01*
X111955000Y-99711335D01*
X111955000Y-99428665D01*
X113565000Y-99428665D01*
X113565000Y-99711335D01*
X113620147Y-99988574D01*
X113728320Y-100249727D01*
X113885363Y-100484759D01*
X114085241Y-100684637D01*
X114320273Y-100841680D01*
X114581426Y-100949853D01*
X114858665Y-101005000D01*
X115141335Y-101005000D01*
X115418574Y-100949853D01*
X115679727Y-100841680D01*
X115914759Y-100684637D01*
X116114637Y-100484759D01*
X116271680Y-100249727D01*
X116379853Y-99988574D01*
X116435000Y-99711335D01*
X116435000Y-99428665D01*
X116379853Y-99151426D01*
X116271680Y-98890273D01*
X116114637Y-98655241D01*
X115914759Y-98455363D01*
X115679727Y-98298320D01*
X115418574Y-98190147D01*
X115141335Y-98135000D01*
X114858665Y-98135000D01*
X114581426Y-98190147D01*
X114320273Y-98298320D01*
X114085241Y-98455363D01*
X113885363Y-98655241D01*
X113728320Y-98890273D01*
X113620147Y-99151426D01*
X113565000Y-99428665D01*
X111955000Y-99428665D01*
X111899853Y-99151426D01*
X111791680Y-98890273D01*
X111634637Y-98655241D01*
X111434759Y-98455363D01*
X111199727Y-98298320D01*
X110938574Y-98190147D01*
X110661335Y-98135000D01*
X110378665Y-98135000D01*
X110101426Y-98190147D01*
X109840273Y-98298320D01*
X109605241Y-98455363D01*
X109405363Y-98655241D01*
X109248320Y-98890273D01*
X109140147Y-99151426D01*
X109085000Y-99428665D01*
X108760000Y-99428665D01*
X108760000Y-91709000D01*
X109048883Y-91709000D01*
X109384081Y-91642325D01*
X109699831Y-91511537D01*
X109983998Y-91321663D01*
X110225663Y-91079998D01*
X110415537Y-90795831D01*
X110529790Y-90520000D01*
X112011928Y-90520000D01*
X112024188Y-90644482D01*
X112060498Y-90764180D01*
X112119463Y-90874494D01*
X112198815Y-90971185D01*
X112295506Y-91050537D01*
X112405820Y-91109502D01*
X112525518Y-91145812D01*
X112650000Y-91158072D01*
X113164250Y-91155000D01*
X113323000Y-90996250D01*
X113323000Y-89847000D01*
X112173750Y-89847000D01*
X112015000Y-90005750D01*
X112011928Y-90520000D01*
X110529790Y-90520000D01*
X110546325Y-90480081D01*
X110613000Y-90144883D01*
X110613000Y-89803117D01*
X110546325Y-89467919D01*
X110415537Y-89152169D01*
X110260407Y-88920000D01*
X112011928Y-88920000D01*
X112015000Y-89434250D01*
X112173750Y-89593000D01*
X113323000Y-89593000D01*
X113323000Y-88443750D01*
X113577000Y-88443750D01*
X113577000Y-89593000D01*
X113597000Y-89593000D01*
X113597000Y-89847000D01*
X113577000Y-89847000D01*
X113577000Y-90996250D01*
X113735750Y-91155000D01*
X114250000Y-91158072D01*
X114374482Y-91145812D01*
X114494180Y-91109502D01*
X114604494Y-91050537D01*
X114701185Y-90971185D01*
X114714790Y-90954607D01*
X114770273Y-90991680D01*
X115031426Y-91099853D01*
X115308665Y-91155000D01*
X115591335Y-91155000D01*
X115868574Y-91099853D01*
X116129727Y-90991680D01*
X116364759Y-90834637D01*
X116564637Y-90634759D01*
X116721680Y-90399727D01*
X116829853Y-90138574D01*
X116885000Y-89861335D01*
X116885000Y-89578665D01*
X116829853Y-89301426D01*
X116721680Y-89040273D01*
X116564637Y-88805241D01*
X116364759Y-88605363D01*
X116129727Y-88448320D01*
X115868574Y-88340147D01*
X115591335Y-88285000D01*
X115308665Y-88285000D01*
X115031426Y-88340147D01*
X114770273Y-88448320D01*
X114714790Y-88485393D01*
X114701185Y-88468815D01*
X114604494Y-88389463D01*
X114494180Y-88330498D01*
X114374482Y-88294188D01*
X114250000Y-88281928D01*
X113735750Y-88285000D01*
X113577000Y-88443750D01*
X113323000Y-88443750D01*
X113164250Y-88285000D01*
X112650000Y-88281928D01*
X112525518Y-88294188D01*
X112405820Y-88330498D01*
X112295506Y-88389463D01*
X112198815Y-88468815D01*
X112119463Y-88565506D01*
X112060498Y-88675820D01*
X112024188Y-88795518D01*
X112011928Y-88920000D01*
X110260407Y-88920000D01*
X110225663Y-88868002D01*
X109983998Y-88626337D01*
X109699831Y-88436463D01*
X109384081Y-88305675D01*
X109048883Y-88239000D01*
X108707117Y-88239000D01*
X108371919Y-88305675D01*
X108056169Y-88436463D01*
X107772002Y-88626337D01*
X107530337Y-88868002D01*
X107340463Y-89152169D01*
X107209675Y-89467919D01*
X107143000Y-89803117D01*
X107143000Y-90144883D01*
X107165524Y-90258121D01*
X107070906Y-90352739D01*
X107032367Y-90384367D01*
X106906153Y-90538160D01*
X106844717Y-90653100D01*
X106812368Y-90713621D01*
X106754615Y-90904006D01*
X106735114Y-91102000D01*
X106740000Y-91151608D01*
X106740000Y-98398593D01*
X106679727Y-98358320D01*
X106418574Y-98250147D01*
X106141335Y-98195000D01*
X105858665Y-98195000D01*
X105581426Y-98250147D01*
X105320273Y-98358320D01*
X105085241Y-98515363D01*
X104885363Y-98715241D01*
X104728320Y-98950273D01*
X104620147Y-99211426D01*
X104565000Y-99488665D01*
X104565000Y-99771335D01*
X104620147Y-100048574D01*
X104728320Y-100309727D01*
X104885363Y-100544759D01*
X105085241Y-100744637D01*
X105320273Y-100901680D01*
X105581426Y-101009853D01*
X105858665Y-101065000D01*
X106141335Y-101065000D01*
X106418574Y-101009853D01*
X106679727Y-100901680D01*
X106740000Y-100861407D01*
X106740001Y-105811928D01*
X105200000Y-105811928D01*
X105075518Y-105824188D01*
X104955820Y-105860498D01*
X104845506Y-105919463D01*
X104748815Y-105998815D01*
X104669463Y-106095506D01*
X104610498Y-106205820D01*
X104574188Y-106325518D01*
X104561928Y-106450000D01*
X104561928Y-108050000D01*
X104574188Y-108174482D01*
X104610498Y-108294180D01*
X104669463Y-108404494D01*
X104748815Y-108501185D01*
X104845506Y-108580537D01*
X104955820Y-108639502D01*
X105075518Y-108675812D01*
X105200000Y-108688072D01*
X106740001Y-108688072D01*
X106740001Y-109811928D01*
X104550000Y-109811928D01*
X104425518Y-109824188D01*
X104305820Y-109860498D01*
X104195506Y-109919463D01*
X104098815Y-109998815D01*
X104019463Y-110095506D01*
X103960498Y-110205820D01*
X103924188Y-110325518D01*
X103911928Y-110450000D01*
X103911928Y-112050000D01*
X103924188Y-112174482D01*
X103960498Y-112294180D01*
X104019463Y-112404494D01*
X104098815Y-112501185D01*
X104195506Y-112580537D01*
X104305820Y-112639502D01*
X104425518Y-112675812D01*
X104443482Y-112677581D01*
X104330392Y-112770392D01*
X104151068Y-112988899D01*
X104017818Y-113238192D01*
X103935764Y-113508691D01*
X103908057Y-113790000D01*
X103935764Y-114071309D01*
X104017818Y-114341808D01*
X104151068Y-114591101D01*
X104330392Y-114809608D01*
X104548899Y-114988932D01*
X104681858Y-115060000D01*
X104548899Y-115131068D01*
X104330392Y-115310392D01*
X104151068Y-115528899D01*
X104017818Y-115778192D01*
X103951124Y-115998056D01*
X103742702Y-115936903D01*
X102929605Y-116750000D01*
X103742702Y-117563097D01*
X103986671Y-117491514D01*
X104107571Y-117236004D01*
X104139358Y-117109193D01*
X104151068Y-117131101D01*
X104330392Y-117349608D01*
X104548899Y-117528932D01*
X104681858Y-117600000D01*
X104548899Y-117671068D01*
X104330392Y-117850392D01*
X104151068Y-118068899D01*
X104059613Y-118240000D01*
X103769396Y-118240000D01*
X103664759Y-118135363D01*
X103464131Y-118001308D01*
X103491514Y-117986671D01*
X103563097Y-117742702D01*
X102750000Y-116929605D01*
X101936903Y-117742702D01*
X102008486Y-117986671D01*
X102037341Y-118000324D01*
X101835241Y-118135363D01*
X101635363Y-118335241D01*
X101478320Y-118570273D01*
X101370147Y-118831426D01*
X101315000Y-119108665D01*
X96435000Y-119108665D01*
X96435000Y-116820512D01*
X101309783Y-116820512D01*
X101351213Y-117100130D01*
X101446397Y-117366292D01*
X101513329Y-117491514D01*
X101757298Y-117563097D01*
X102570395Y-116750000D01*
X101757298Y-115936903D01*
X101513329Y-116008486D01*
X101392429Y-116263996D01*
X101323700Y-116538184D01*
X101309783Y-116820512D01*
X96435000Y-116820512D01*
X96435000Y-115757298D01*
X101936903Y-115757298D01*
X102750000Y-116570395D01*
X103563097Y-115757298D01*
X103491514Y-115513329D01*
X103236004Y-115392429D01*
X102961816Y-115323700D01*
X102679488Y-115309783D01*
X102399870Y-115351213D01*
X102133708Y-115446397D01*
X102008486Y-115513329D01*
X101936903Y-115757298D01*
X96435000Y-115757298D01*
X96435000Y-107108665D01*
X100065000Y-107108665D01*
X100065000Y-107391335D01*
X100120147Y-107668574D01*
X100228320Y-107929727D01*
X100385363Y-108164759D01*
X100585241Y-108364637D01*
X100820273Y-108521680D01*
X101081426Y-108629853D01*
X101358665Y-108685000D01*
X101641335Y-108685000D01*
X101918574Y-108629853D01*
X102179727Y-108521680D01*
X102414759Y-108364637D01*
X102614637Y-108164759D01*
X102771680Y-107929727D01*
X102879853Y-107668574D01*
X102935000Y-107391335D01*
X102935000Y-107108665D01*
X102879853Y-106831426D01*
X102771680Y-106570273D01*
X102614637Y-106335241D01*
X102414759Y-106135363D01*
X102179727Y-105978320D01*
X101918574Y-105870147D01*
X101641335Y-105815000D01*
X101358665Y-105815000D01*
X101081426Y-105870147D01*
X100820273Y-105978320D01*
X100585241Y-106135363D01*
X100385363Y-106335241D01*
X100228320Y-106570273D01*
X100120147Y-106831426D01*
X100065000Y-107108665D01*
X96435000Y-107108665D01*
X96435000Y-99488665D01*
X100065000Y-99488665D01*
X100065000Y-99771335D01*
X100120147Y-100048574D01*
X100228320Y-100309727D01*
X100385363Y-100544759D01*
X100585241Y-100744637D01*
X100820273Y-100901680D01*
X101081426Y-101009853D01*
X101358665Y-101065000D01*
X101641335Y-101065000D01*
X101918574Y-101009853D01*
X102179727Y-100901680D01*
X102414759Y-100744637D01*
X102614637Y-100544759D01*
X102771680Y-100309727D01*
X102879853Y-100048574D01*
X102935000Y-99771335D01*
X102935000Y-99488665D01*
X102879853Y-99211426D01*
X102771680Y-98950273D01*
X102614637Y-98715241D01*
X102414759Y-98515363D01*
X102179727Y-98358320D01*
X101918574Y-98250147D01*
X101641335Y-98195000D01*
X101358665Y-98195000D01*
X101081426Y-98250147D01*
X100820273Y-98358320D01*
X100585241Y-98515363D01*
X100385363Y-98715241D01*
X100228320Y-98950273D01*
X100120147Y-99211426D01*
X100065000Y-99488665D01*
X96435000Y-99488665D01*
X96435000Y-80682401D01*
X99251400Y-80682401D01*
X99251400Y-80977599D01*
X99308990Y-81267125D01*
X99421958Y-81539853D01*
X99585961Y-81785302D01*
X99794698Y-81994039D01*
X100040147Y-82158042D01*
X100312875Y-82271010D01*
X100602401Y-82328600D01*
X100897599Y-82328600D01*
X101187125Y-82271010D01*
X101459853Y-82158042D01*
X101705302Y-81994039D01*
X101819364Y-81879977D01*
X101836898Y-81937780D01*
X101895863Y-82048094D01*
X101975215Y-82144785D01*
X102071906Y-82224137D01*
X102182220Y-82283102D01*
X102301918Y-82319412D01*
X102426400Y-82331672D01*
X104153600Y-82331672D01*
X104278082Y-82319412D01*
X104397780Y-82283102D01*
X104508094Y-82224137D01*
X104604785Y-82144785D01*
X104684137Y-82048094D01*
X104743102Y-81937780D01*
X104779412Y-81818082D01*
X104791672Y-81693600D01*
X104791672Y-81254000D01*
X107139928Y-81254000D01*
X107139928Y-83454000D01*
X107152188Y-83578482D01*
X107188498Y-83698180D01*
X107247463Y-83808494D01*
X107326815Y-83905185D01*
X107423506Y-83984537D01*
X107533820Y-84043502D01*
X107653518Y-84079812D01*
X107778000Y-84092072D01*
X109978000Y-84092072D01*
X110102482Y-84079812D01*
X110222180Y-84043502D01*
X110332494Y-83984537D01*
X110429185Y-83905185D01*
X110508537Y-83808494D01*
X110567502Y-83698180D01*
X110603812Y-83578482D01*
X110616072Y-83454000D01*
X110616072Y-81254000D01*
X110603812Y-81129518D01*
X110567502Y-81009820D01*
X110508537Y-80899506D01*
X110429185Y-80802815D01*
X110332494Y-80723463D01*
X110222180Y-80664498D01*
X110102482Y-80628188D01*
X109978000Y-80615928D01*
X107778000Y-80615928D01*
X107653518Y-80628188D01*
X107533820Y-80664498D01*
X107423506Y-80723463D01*
X107326815Y-80802815D01*
X107247463Y-80899506D01*
X107188498Y-81009820D01*
X107152188Y-81129518D01*
X107139928Y-81254000D01*
X104791672Y-81254000D01*
X104791672Y-79966400D01*
X104779412Y-79841918D01*
X104743102Y-79722220D01*
X104684137Y-79611906D01*
X104604785Y-79515215D01*
X104508094Y-79435863D01*
X104397780Y-79376898D01*
X104333426Y-79357376D01*
X104396854Y-79300293D01*
X104572684Y-79064944D01*
X104699222Y-78799814D01*
X104744958Y-78649026D01*
X104623817Y-78417000D01*
X103417000Y-78417000D01*
X103417000Y-78437000D01*
X103163000Y-78437000D01*
X103163000Y-78417000D01*
X100877000Y-78417000D01*
X100877000Y-78437000D01*
X100623000Y-78437000D01*
X100623000Y-78417000D01*
X99416183Y-78417000D01*
X99295042Y-78649026D01*
X99340778Y-78799814D01*
X99467316Y-79064944D01*
X99643146Y-79300293D01*
X99861512Y-79496817D01*
X99960103Y-79555441D01*
X99794698Y-79665961D01*
X99585961Y-79874698D01*
X99421958Y-80120147D01*
X99308990Y-80392875D01*
X99251400Y-80682401D01*
X96435000Y-80682401D01*
X96435000Y-76109026D01*
X99295042Y-76109026D01*
X99340778Y-76259814D01*
X99467316Y-76524944D01*
X99643146Y-76760293D01*
X99861512Y-76956817D01*
X99967770Y-77020000D01*
X99861512Y-77083183D01*
X99643146Y-77279707D01*
X99467316Y-77515056D01*
X99340778Y-77780186D01*
X99295042Y-77930974D01*
X99416183Y-78163000D01*
X100623000Y-78163000D01*
X100623000Y-75877000D01*
X100877000Y-75877000D01*
X100877000Y-78163000D01*
X103163000Y-78163000D01*
X103163000Y-75877000D01*
X103417000Y-75877000D01*
X103417000Y-78163000D01*
X104623817Y-78163000D01*
X104744958Y-77930974D01*
X104699222Y-77780186D01*
X104572684Y-77515056D01*
X104396854Y-77279707D01*
X104178488Y-77083183D01*
X104072230Y-77020000D01*
X104178488Y-76956817D01*
X104396854Y-76760293D01*
X104572684Y-76524944D01*
X104699222Y-76259814D01*
X104744958Y-76109026D01*
X104623817Y-75877000D01*
X103417000Y-75877000D01*
X103163000Y-75877000D01*
X100877000Y-75877000D01*
X100623000Y-75877000D01*
X99416183Y-75877000D01*
X99295042Y-76109026D01*
X96435000Y-76109026D01*
X96435000Y-75802706D01*
X118287611Y-75802706D01*
X118334275Y-76171075D01*
X118451906Y-76523262D01*
X118577423Y-76758086D01*
X118867395Y-76884000D01*
X120001395Y-75750000D01*
X118867395Y-74616000D01*
X118577423Y-74741914D01*
X118411567Y-75074126D01*
X118313710Y-75432312D01*
X118287611Y-75802706D01*
X96435000Y-75802706D01*
X96435000Y-73569026D01*
X99295042Y-73569026D01*
X99340778Y-73719814D01*
X99467316Y-73984944D01*
X99643146Y-74220293D01*
X99861512Y-74416817D01*
X99967770Y-74480000D01*
X99861512Y-74543183D01*
X99643146Y-74739707D01*
X99467316Y-74975056D01*
X99340778Y-75240186D01*
X99295042Y-75390974D01*
X99416183Y-75623000D01*
X100623000Y-75623000D01*
X100623000Y-73337000D01*
X100877000Y-73337000D01*
X100877000Y-75623000D01*
X103163000Y-75623000D01*
X103163000Y-73337000D01*
X103417000Y-73337000D01*
X103417000Y-75623000D01*
X104623817Y-75623000D01*
X104744958Y-75390974D01*
X104699222Y-75240186D01*
X104572684Y-74975056D01*
X104396854Y-74739707D01*
X104178488Y-74543183D01*
X104072230Y-74480000D01*
X104178488Y-74416817D01*
X104396854Y-74220293D01*
X104572684Y-73984944D01*
X104699222Y-73719814D01*
X104744958Y-73569026D01*
X104623817Y-73337000D01*
X103417000Y-73337000D01*
X103163000Y-73337000D01*
X100877000Y-73337000D01*
X100623000Y-73337000D01*
X99416183Y-73337000D01*
X99295042Y-73569026D01*
X96435000Y-73569026D01*
X96435000Y-70522401D01*
X99251400Y-70522401D01*
X99251400Y-70817599D01*
X99308990Y-71107125D01*
X99421958Y-71379853D01*
X99585961Y-71625302D01*
X99794698Y-71834039D01*
X99960103Y-71944559D01*
X99861512Y-72003183D01*
X99643146Y-72199707D01*
X99467316Y-72435056D01*
X99340778Y-72700186D01*
X99295042Y-72850974D01*
X99416183Y-73083000D01*
X100623000Y-73083000D01*
X100623000Y-73063000D01*
X100877000Y-73063000D01*
X100877000Y-73083000D01*
X103163000Y-73083000D01*
X103163000Y-73063000D01*
X103417000Y-73063000D01*
X103417000Y-73083000D01*
X104623817Y-73083000D01*
X104744958Y-72850974D01*
X104699222Y-72700186D01*
X104572684Y-72435056D01*
X104396854Y-72199707D01*
X104178488Y-72003183D01*
X104079897Y-71944559D01*
X104245302Y-71834039D01*
X104454039Y-71625302D01*
X104618042Y-71379853D01*
X104731010Y-71107125D01*
X104788600Y-70817599D01*
X104788600Y-70522401D01*
X104731010Y-70232875D01*
X104618042Y-69960147D01*
X104454039Y-69714698D01*
X104245302Y-69505961D01*
X103999853Y-69341958D01*
X103727125Y-69228990D01*
X103437599Y-69171400D01*
X103142401Y-69171400D01*
X102852875Y-69228990D01*
X102580147Y-69341958D01*
X102334698Y-69505961D01*
X102125961Y-69714698D01*
X102020000Y-69873281D01*
X101914039Y-69714698D01*
X101705302Y-69505961D01*
X101459853Y-69341958D01*
X101187125Y-69228990D01*
X100897599Y-69171400D01*
X100602401Y-69171400D01*
X100312875Y-69228990D01*
X100040147Y-69341958D01*
X99794698Y-69505961D01*
X99585961Y-69714698D01*
X99421958Y-69960147D01*
X99308990Y-70232875D01*
X99251400Y-70522401D01*
X96435000Y-70522401D01*
X96435000Y-68975117D01*
X107143000Y-68975117D01*
X107143000Y-69316883D01*
X107209675Y-69652081D01*
X107340463Y-69967831D01*
X107530337Y-70251998D01*
X107772002Y-70493663D01*
X108056169Y-70683537D01*
X108371919Y-70814325D01*
X108707117Y-70881000D01*
X109048883Y-70881000D01*
X109384081Y-70814325D01*
X109699831Y-70683537D01*
X109983998Y-70493663D01*
X110225663Y-70251998D01*
X110415537Y-69967831D01*
X110546325Y-69652081D01*
X110613000Y-69316883D01*
X110613000Y-68975117D01*
X110546325Y-68639919D01*
X110415537Y-68324169D01*
X110225663Y-68040002D01*
X109983998Y-67798337D01*
X109699831Y-67608463D01*
X109384081Y-67477675D01*
X109048883Y-67411000D01*
X108707117Y-67411000D01*
X108371919Y-67477675D01*
X108056169Y-67608463D01*
X107772002Y-67798337D01*
X107530337Y-68040002D01*
X107340463Y-68324169D01*
X107209675Y-68639919D01*
X107143000Y-68975117D01*
X96435000Y-68975117D01*
X96435000Y-61529872D01*
X97515000Y-61529872D01*
X97515000Y-61970128D01*
X97600890Y-62401925D01*
X97769369Y-62808669D01*
X98013962Y-63174729D01*
X98325271Y-63486038D01*
X98691331Y-63730631D01*
X99098075Y-63899110D01*
X99529872Y-63985000D01*
X99970128Y-63985000D01*
X100401925Y-63899110D01*
X100808669Y-63730631D01*
X101174729Y-63486038D01*
X101486038Y-63174729D01*
X101730631Y-62808669D01*
X101899110Y-62401925D01*
X101985000Y-61970128D01*
X101985000Y-61529872D01*
X101899110Y-61098075D01*
X101730631Y-60691331D01*
X101553343Y-60426000D01*
X107139928Y-60426000D01*
X107139928Y-62626000D01*
X107152188Y-62750482D01*
X107188498Y-62870180D01*
X107247463Y-62980494D01*
X107326815Y-63077185D01*
X107423506Y-63156537D01*
X107533820Y-63215502D01*
X107653518Y-63251812D01*
X107778000Y-63264072D01*
X109978000Y-63264072D01*
X110102482Y-63251812D01*
X110222180Y-63215502D01*
X110332494Y-63156537D01*
X110429185Y-63077185D01*
X110508537Y-62980494D01*
X110567502Y-62870180D01*
X110603812Y-62750482D01*
X110616072Y-62626000D01*
X110616072Y-61850512D01*
X112136783Y-61850512D01*
X112178213Y-62130130D01*
X112273397Y-62396292D01*
X112340329Y-62521514D01*
X112584298Y-62593097D01*
X113397395Y-61780000D01*
X112584298Y-60966903D01*
X112340329Y-61038486D01*
X112219429Y-61293996D01*
X112150700Y-61568184D01*
X112136783Y-61850512D01*
X110616072Y-61850512D01*
X110616072Y-60787298D01*
X112763903Y-60787298D01*
X113577000Y-61600395D01*
X113591143Y-61586253D01*
X113770748Y-61765858D01*
X113756605Y-61780000D01*
X113770748Y-61794143D01*
X113591143Y-61973748D01*
X113577000Y-61959605D01*
X112763903Y-62772702D01*
X112835486Y-63016671D01*
X113090996Y-63137571D01*
X113365184Y-63206300D01*
X113647512Y-63220217D01*
X113927130Y-63178787D01*
X114193292Y-63083603D01*
X114315309Y-63018384D01*
X114325815Y-63031185D01*
X114422506Y-63110537D01*
X114532820Y-63169502D01*
X114652518Y-63205812D01*
X114777000Y-63218072D01*
X116377000Y-63218072D01*
X116501482Y-63205812D01*
X116621180Y-63169502D01*
X116731494Y-63110537D01*
X116828185Y-63031185D01*
X116907537Y-62934494D01*
X116966502Y-62824180D01*
X117002812Y-62704482D01*
X117015072Y-62580000D01*
X117015072Y-60980000D01*
X117002812Y-60855518D01*
X116966502Y-60735820D01*
X116907537Y-60625506D01*
X116828185Y-60528815D01*
X116731494Y-60449463D01*
X116621180Y-60390498D01*
X116501482Y-60354188D01*
X116377000Y-60341928D01*
X114777000Y-60341928D01*
X114652518Y-60354188D01*
X114532820Y-60390498D01*
X114422506Y-60449463D01*
X114325815Y-60528815D01*
X114315193Y-60541758D01*
X114063004Y-60422429D01*
X113788816Y-60353700D01*
X113506488Y-60339783D01*
X113226870Y-60381213D01*
X112960708Y-60476397D01*
X112835486Y-60543329D01*
X112763903Y-60787298D01*
X110616072Y-60787298D01*
X110616072Y-60426000D01*
X110603812Y-60301518D01*
X110567502Y-60181820D01*
X110508537Y-60071506D01*
X110429185Y-59974815D01*
X110332494Y-59895463D01*
X110222180Y-59836498D01*
X110102482Y-59800188D01*
X109978000Y-59787928D01*
X107778000Y-59787928D01*
X107653518Y-59800188D01*
X107533820Y-59836498D01*
X107423506Y-59895463D01*
X107326815Y-59974815D01*
X107247463Y-60071506D01*
X107188498Y-60181820D01*
X107152188Y-60301518D01*
X107139928Y-60426000D01*
X101553343Y-60426000D01*
X101486038Y-60325271D01*
X101174729Y-60013962D01*
X100808669Y-59769369D01*
X100401925Y-59600890D01*
X99970128Y-59515000D01*
X99529872Y-59515000D01*
X99098075Y-59600890D01*
X98691331Y-59769369D01*
X98325271Y-60013962D01*
X98013962Y-60325271D01*
X97769369Y-60691331D01*
X97600890Y-61098075D01*
X97515000Y-61529872D01*
X96435000Y-61529872D01*
X96435000Y-58435000D01*
X125065000Y-58435000D01*
X125065001Y-141665000D01*
G37*
%TD.AperFunction*%
%TD*%
M02*
