%TF.GenerationSoftware,KiCad,Pcbnew,5.1.8-db9833491~88~ubuntu20.04.1*%
%TF.CreationDate,2020-12-11T17:06:23-05:00*%
%TF.ProjectId,MFOS_VCLFO_aux,4d464f53-5f56-4434-9c46-4f5f6175782e,rev?*%
%TF.SameCoordinates,Original*%
%TF.FileFunction,Soldermask,Top*%
%TF.FilePolarity,Negative*%
%FSLAX46Y46*%
G04 Gerber Fmt 4.6, Leading zero omitted, Abs format (unit mm)*
G04 Created by KiCad (PCBNEW 5.1.8-db9833491~88~ubuntu20.04.1) date 2020-12-11 17:06:23*
%MOMM*%
%LPD*%
G01*
G04 APERTURE LIST*
%ADD10C,3.200000*%
%ADD11O,2.400000X1.600000*%
%ADD12R,2.400000X1.600000*%
%ADD13C,1.440000*%
%ADD14O,1.600000X1.600000*%
%ADD15C,1.600000*%
%ADD16R,1.500000X1.500000*%
%ADD17C,1.500000*%
%ADD18O,2.200000X1.740000*%
%ADD19R,1.600000X1.600000*%
%ADD20O,2.200000X2.200000*%
%ADD21R,2.200000X2.200000*%
%ADD22C,2.500000*%
%ADD23R,2.500000X2.500000*%
%ADD24O,1.727200X1.727200*%
%ADD25R,1.727200X1.727200*%
G04 APERTURE END LIST*
D10*
%TO.C,REF\u002A\u002A*%
X99750000Y-138350000D03*
%TD*%
D11*
%TO.C,U1*%
X113370000Y-111250000D03*
X105750000Y-118870000D03*
X113370000Y-113790000D03*
X105750000Y-116330000D03*
X113370000Y-116330000D03*
X105750000Y-113790000D03*
X113370000Y-118870000D03*
D12*
X105750000Y-111250000D03*
%TD*%
D13*
%TO.C,RV1*%
X121000000Y-95710000D03*
X121000000Y-98250000D03*
X121000000Y-100790000D03*
%TD*%
D14*
%TO.C,R6*%
X101500000Y-107250000D03*
D15*
X101500000Y-99630000D03*
%TD*%
D14*
%TO.C,R5*%
X110520000Y-99570000D03*
D15*
X110520000Y-107190000D03*
%TD*%
D14*
%TO.C,R4*%
X106000000Y-123630000D03*
D15*
X106000000Y-131250000D03*
%TD*%
D14*
%TO.C,R3*%
X115000000Y-99570000D03*
D15*
X115000000Y-107190000D03*
%TD*%
D14*
%TO.C,R2*%
X115000000Y-123630000D03*
D15*
X115000000Y-131250000D03*
%TD*%
D14*
%TO.C,R1*%
X110520000Y-123630000D03*
D15*
X110520000Y-131250000D03*
%TD*%
D16*
%TO.C,Q1*%
X121250000Y-115750000D03*
D17*
X121250000Y-120830000D03*
X121250000Y-118290000D03*
%TD*%
D18*
%TO.C,J8*%
X120750000Y-126670000D03*
X120750000Y-129210000D03*
G36*
G01*
X121600001Y-132620000D02*
X119899999Y-132620000D01*
G75*
G02*
X119650000Y-132370001I0J249999D01*
G01*
X119650000Y-131129999D01*
G75*
G02*
X119899999Y-130880000I249999J0D01*
G01*
X121600001Y-130880000D01*
G75*
G02*
X121850000Y-131129999I0J-249999D01*
G01*
X121850000Y-132370001D01*
G75*
G02*
X121600001Y-132620000I-249999J0D01*
G01*
G37*
%TD*%
%TO.C,J7*%
X120750000Y-137210000D03*
G36*
G01*
X121600001Y-140620000D02*
X119899999Y-140620000D01*
G75*
G02*
X119650000Y-140370001I0J249999D01*
G01*
X119650000Y-139129999D01*
G75*
G02*
X119899999Y-138880000I249999J0D01*
G01*
X121600001Y-138880000D01*
G75*
G02*
X121850000Y-139129999I0J-249999D01*
G01*
X121850000Y-140370001D01*
G75*
G02*
X121600001Y-140620000I-249999J0D01*
G01*
G37*
%TD*%
%TO.C,J3*%
X120750000Y-107710000D03*
G36*
G01*
X121600001Y-111120000D02*
X119899999Y-111120000D01*
G75*
G02*
X119650000Y-110870001I0J249999D01*
G01*
X119650000Y-109629999D01*
G75*
G02*
X119899999Y-109380000I249999J0D01*
G01*
X121600001Y-109380000D01*
G75*
G02*
X121850000Y-109629999I0J-249999D01*
G01*
X121850000Y-110870001D01*
G75*
G02*
X121600001Y-111120000I-249999J0D01*
G01*
G37*
%TD*%
D14*
%TO.C,D3*%
X106000000Y-99630000D03*
D19*
X106000000Y-107250000D03*
%TD*%
D20*
%TO.C,D2*%
X108878000Y-89974000D03*
D21*
X108878000Y-82354000D03*
%TD*%
D20*
%TO.C,D1*%
X108878000Y-69146000D03*
D21*
X108878000Y-61526000D03*
%TD*%
D15*
%TO.C,C5*%
X102750000Y-119250000D03*
X102750000Y-116750000D03*
%TD*%
%TO.C,C4*%
X112750000Y-134750000D03*
X110250000Y-134750000D03*
%TD*%
%TO.C,C3*%
X116500000Y-116500000D03*
X116500000Y-114000000D03*
%TD*%
%TO.C,C2*%
X115450000Y-89720000D03*
D19*
X113450000Y-89720000D03*
%TD*%
D15*
%TO.C,C1*%
X113577000Y-61780000D03*
D19*
X115577000Y-61780000D03*
%TD*%
D10*
%TO.C,REF\u002A\u002A*%
X99750000Y-61750000D03*
%TD*%
D22*
%TO.C,J2*%
X120181000Y-80750000D03*
X120181000Y-75750000D03*
D23*
X120181000Y-70750000D03*
%TD*%
D24*
%TO.C,J1*%
X100750000Y-70670000D03*
X103290000Y-70670000D03*
X100750000Y-73210000D03*
X103290000Y-73210000D03*
X100750000Y-75750000D03*
X103290000Y-75750000D03*
X100750000Y-78290000D03*
X103290000Y-78290000D03*
X100750000Y-80830000D03*
D25*
X103290000Y-80830000D03*
%TD*%
M02*
